# Blender v2.79 (sub 0) OBJ File: 'untitled.blend'
# www.blender.org
o Chest
v -0.325174 0.626950 0.278839
v 0.325174 0.626950 0.278839
v -0.325174 0.626950 -0.267519
v 0.325174 0.626950 -0.267519
v -0.325174 1.640509 -0.267519
v 0.325174 1.640509 -0.267519
v -0.325174 1.640509 0.278839
v 0.325174 1.640509 0.278839
vt 0.000000 0.640625
vt 0.406250 0.000000
vt 0.406250 0.640625
vt 0.406250 1.000000
vt 0.000000 0.640625
vt 0.000000 1.000000
vt 0.812500 0.000000
vt 0.406250 0.640625
vt 0.406250 0.000000
vt 0.000000 0.000000
vt 0.406250 0.640625
vt 0.812500 0.640625
vn 0.0000 0.0000 -1.0000
vn 0.0000 1.0000 0.0000
vn 0.0000 0.0000 1.0000
s off
f 6/1/1 3/2/1 5/3/1
f 8/4/2 5/5/2 7/6/2
f 2/7/3 7/8/3 1/9/3
f 6/1/1 4/10/1 3/2/1
f 8/4/2 6/11/2 5/5/2
f 2/7/3 8/12/3 7/8/3
