# Blender v2.83.3 OBJ File: ''
# www.blender.org
mtllib TestArmor.mtl
o LeftBoot
v -0.304690 0.250151 -0.171388
v -0.304690 -0.019318 0.202041
v -0.304690 0.250151 0.202041
v 0.024670 0.250151 0.202041
v 0.024670 -0.019318 -0.171388
v 0.024670 0.250151 -0.171388
v -0.304690 -0.019318 -0.171388
v 0.024670 -0.019318 0.202041
vt 0.398438 0.914062
vt 0.507812 1.000000
vt 0.507812 0.914062
vt 0.507812 1.000000
vt 0.398438 0.914062
vt 0.398438 1.000000
vt 0.507812 0.804688
vt 0.617188 0.914062
vt 0.507812 0.914062
vt 0.507812 1.000000
vt 0.398438 0.914062
vt 0.398438 1.000000
vt 0.398438 0.914062
vt 0.507812 1.000000
vt 0.507812 0.804688
vt 0.398438 0.914062
vt 0.507812 0.914062
vt 0.398438 1.000000
vt 0.507812 0.914062
vt 0.617188 0.804688
vt 0.507812 0.914062
vt 0.398438 1.000000
vt 0.398438 0.804688
vn -1.0000 -0.0000 0.0000
vn 1.0000 0.0000 0.0000
vn 0.0000 1.0000 0.0000
vn 0.0000 0.0000 -1.0000
vn 0.0000 -0.0000 1.0000
vn 0.0000 -1.0000 -0.0000
usemtl Default_OBJ.001
s off
f 1/1/1 2/2/1 3/3/1
f 4/4/2 5/5/2 6/6/2
f 6/7/3 3/8/3 4/9/3
f 6/10/4 7/11/4 1/12/4
f 3/13/5 8/14/5 4/9/5
f 7/15/6 8/16/6 2/17/6
f 1/1/1 7/18/1 2/2/1
f 4/4/2 8/19/2 5/5/2
f 6/7/3 1/20/3 3/8/3
f 6/10/4 5/21/4 7/11/4
f 3/13/5 2/22/5 8/14/5
f 7/15/6 5/23/6 8/16/6
o RightBoot
v 0.304690 -0.019318 0.202041
v 0.304690 0.250151 -0.171388
v 0.304690 0.250151 0.202041
v -0.024670 -0.019318 -0.171388
v -0.024670 0.250151 0.202041
v -0.024670 0.250151 -0.171388
v 0.304690 -0.019318 -0.171388
v -0.024670 -0.019318 0.202041
vt 0.507812 1.000000
vt 0.398438 0.914062
vt 0.507812 0.914062
vt 0.398438 0.914062
vt 0.507812 1.000000
vt 0.398438 1.000000
vt 0.617188 0.914062
vt 0.507812 0.804688
vt 0.507812 0.914062
vt 0.398438 0.914062
vt 0.507812 1.000000
vt 0.398438 1.000000
vt 0.507812 1.000000
vt 0.398438 0.914062
vt 0.398438 0.914062
vt 0.507812 0.804688
vt 0.507812 0.914062
vt 0.398438 1.000000
vt 0.507812 0.914062
vt 0.617188 0.804688
vt 0.507812 0.914062
vt 0.398438 1.000000
vt 0.398438 0.804688
vn 1.0000 0.0000 0.0000
vn -1.0000 0.0000 0.0000
vn 0.0000 1.0000 0.0000
vn 0.0000 0.0000 -1.0000
vn 0.0000 -0.0000 1.0000
vn 0.0000 -1.0000 -0.0000
usemtl Default_OBJ.001
s off
f 9/24/7 10/25/7 11/26/7
f 12/27/8 13/28/8 14/29/8
f 11/30/9 14/31/9 13/32/9
f 15/33/10 14/34/10 10/35/10
f 16/36/11 11/37/11 13/32/11
f 16/38/12 15/39/12 9/40/12
f 9/24/7 15/41/7 10/25/7
f 12/27/8 16/42/8 13/28/8
f 11/30/9 10/43/9 14/31/9
f 15/33/10 12/44/10 14/34/10
f 16/36/11 9/45/11 11/37/11
f 16/38/12 12/46/12 15/39/12
o LeftLeg
v 0.006511 0.820966 -0.146518
v -0.285826 0.105856 -0.146518
v -0.285826 0.820966 -0.146518
v -0.285826 0.820966 0.173983
v 0.006511 0.105856 0.173983
v 0.006511 0.820966 0.173983
v -0.285826 0.105856 0.173983
v 0.006511 0.105856 -0.146518
vt 0.773438 0.601562
vt 0.664062 0.343750
vt 0.664062 0.601562
vt 0.992188 0.601562
vt 0.882812 0.343750
vt 0.882812 0.601562
vt 0.882812 0.234375
vt 0.773438 0.343750
vt 0.882812 0.343750
vt 0.882812 0.710938
vt 0.773438 0.601562
vt 0.773438 0.710938
vt 0.882812 0.601562
vt 0.773438 0.343750
vt 0.773438 0.601562
vt 0.882812 0.601562
vt 0.664062 0.601562
vt 0.554688 0.343750
vt 0.554688 0.601562
vt 0.773438 0.343750
vt 0.992188 0.343750
vt 0.773438 0.234375
vt 0.882812 0.343750
vt 0.664062 0.343750
vn 0.0000 0.0000 -1.0000
vn 0.0000 -0.0000 1.0000
vn 0.0000 1.0000 0.0000
vn 0.0000 -1.0000 -0.0000
vn -1.0000 -0.0000 0.0000
vn 1.0000 0.0000 0.0000
usemtl Default_OBJ.001
s 1
f 17/47/13 18/48/13 19/49/13
f 20/50/14 21/51/14 22/52/14
f 22/53/15 19/54/15 20/55/15
f 18/56/16 21/57/16 23/58/16
f 19/59/17 23/60/17 20/61/17
f 18/56/16 24/62/16 21/57/16
f 22/63/18 24/64/18 17/65/18
f 17/47/13 24/66/13 18/48/13
f 20/50/14 23/67/14 21/51/14
f 22/53/15 17/68/15 19/54/15
f 19/59/17 18/69/17 23/60/17
f 22/63/18 21/70/18 24/64/18
o RightLeg
v 0.285826 0.105856 -0.146518
v -0.006511 0.820966 -0.146518
v 0.285826 0.820966 -0.146518
v -0.006511 0.105856 0.173983
v 0.285826 0.820966 0.173983
v -0.006511 0.820966 0.173983
v 0.285826 0.105856 0.173983
v -0.006511 0.105856 -0.146518
vt 0.664062 0.343750
vt 0.773438 0.601562
vt 0.664062 0.601562
vt 0.882812 0.343750
vt 0.992188 0.601562
vt 0.882812 0.601562
vt 0.773438 0.343750
vt 0.882812 0.234375
vt 0.882812 0.343750
vt 0.882812 0.710938
vt 0.773438 0.710938
vt 0.773438 0.601562
vt 0.773438 0.343750
vt 0.882812 0.601562
vt 0.773438 0.601562
vt 0.882812 0.601562
vt 0.554688 0.343750
vt 0.664062 0.601562
vt 0.554688 0.601562
vt 0.773438 0.343750
vt 0.992188 0.343750
vt 0.773438 0.234375
vt 0.882812 0.343750
vt 0.664062 0.343750
vn 0.0000 0.0000 -1.0000
vn 0.0000 -0.0000 1.0000
vn 0.0000 1.0000 0.0000
vn 0.0000 -1.0000 -0.0000
vn 1.0000 0.0000 0.0000
vn -1.0000 -0.0000 0.0000
usemtl Default_OBJ.001
s 1
f 25/71/19 26/72/19 27/73/19
f 28/74/20 29/75/20 30/76/20
f 27/77/21 30/78/21 29/79/21
f 25/80/22 31/81/22 28/82/22
f 31/83/23 27/84/23 29/85/23
f 25/80/22 28/82/22 32/86/22
f 32/87/24 30/88/24 26/89/24
f 25/71/19 32/90/19 26/72/19
f 28/74/20 31/91/20 29/75/20
f 27/77/21 26/92/21 30/78/21
f 31/83/23 25/93/23 27/84/23
f 32/87/24 28/94/24 30/88/24
o Helmet
v 0.285299 2.218207 -0.314567
v 0.285299 1.915536 0.283631
v 0.285299 1.915536 -0.314567
v -0.287582 2.218207 0.283631
v -0.287582 1.915536 -0.314567
v -0.287582 1.915536 0.283631
v -0.228040 1.915536 -0.252393
v -0.228040 1.915536 0.221458
v -0.287582 2.218207 -0.314567
v 0.285299 2.218207 0.283631
v 0.225757 1.915536 0.221458
v 0.225757 1.915536 -0.252393
v 0.225757 2.053306 0.221458
v -0.228040 2.053306 0.221458
v 0.225757 2.053306 -0.252393
v -0.228040 2.053306 -0.252393
vt 0.195312 0.796875
vt 0.000000 0.695312
vt 0.195312 0.695312
vt 0.195312 0.796875
vt 0.000000 0.695312
vt 0.195312 0.695312
vt 0.390625 0.796875
vt 0.367188 0.976562
vt 0.367188 0.820312
vt 0.195312 0.796875
vt -0.000000 0.695312
vt 0.195312 0.695312
vt 0.195312 0.796875
vt 0.000000 0.695312
vt 0.195312 0.695312
vt 0.195312 1.000000
vt 0.390625 1.000000
vt 0.195312 0.796875
vt 0.218750 0.820312
vt 0.218750 0.976562
vt 0.000000 1.000000
vt 0.195312 1.000000
vt 0.195312 0.640625
vt -0.000000 0.695312
vt -0.000000 0.640625
vt 0.195312 0.640625
vt -0.000000 0.695312
vt -0.000000 0.640625
vt -0.000000 0.695312
vt 0.195312 0.640625
vt 0.195312 0.695312
vt -0.000000 0.695312
vt 0.195312 0.640625
vt 0.195312 0.695312
vt 0.000000 0.796875
vt 0.000000 0.796875
vt -0.000000 0.796875
vt 0.000000 0.796875
vt 0.195312 0.695312
vt 0.195312 0.695312
vt -0.000000 0.640625
vt -0.000000 0.640625
vn 1.0000 0.0000 0.0000
vn -1.0000 -0.0000 0.0000
vn 0.0000 -1.0000 -0.0000
vn 0.0000 0.0000 -1.0000
vn 0.0000 -0.0000 1.0000
vn 0.0000 1.0000 0.0000
vn 0.7071 0.0000 -0.7071
vn -0.7071 0.0000 -0.7071
vn 0.7071 -0.0000 0.7071
vn -0.7071 -0.0000 0.7071
usemtl Default_OBJ.001
s 1
f 33/95/25 34/96/25 35/97/25
f 36/98/26 37/99/26 38/100/26
f 38/101/27 39/102/27 40/103/27
f 41/104/28 35/105/28 37/106/28
f 42/107/29 38/108/29 34/109/29
f 35/110/27 39/102/27 37/111/27
f 34/112/27 40/103/27 43/113/27
f 35/110/27 43/113/27 44/114/27
f 33/95/30 36/115/30 42/116/30
f 40/117/31 45/118/32 43/119/32
f 39/120/33 46/121/31 40/122/31
f 43/123/32 47/124/34 44/125/34
f 44/126/34 48/127/33 39/128/33
f 33/95/25 42/129/25 34/96/25
f 36/98/26 41/130/26 37/99/26
f 38/101/27 37/111/27 39/102/27
f 41/104/28 33/131/28 35/105/28
f 42/107/29 36/132/29 38/108/29
f 35/110/27 44/114/27 39/102/27
f 34/112/27 38/101/27 40/103/27
f 35/110/27 34/112/27 43/113/27
f 33/95/30 41/130/30 36/115/30
f 40/117/31 46/133/31 45/118/32
f 39/120/33 48/134/33 46/121/31
f 43/123/32 45/135/32 47/124/34
f 44/126/34 47/136/34 48/127/33
o LeftArm
v 0.332641 1.031453 0.130389
v 0.547296 1.190719 0.130389
v 0.547296 1.031453 0.130389
v 0.293800 1.031453 -0.145390
v 0.293800 1.031453 0.172644
v 0.586137 1.597957 0.172644
v 0.293800 1.597957 -0.145390
v 0.293800 1.597957 0.172644
v 0.586137 1.031453 0.172644
v 0.586137 1.031453 -0.145390
v 0.547296 1.031453 -0.103135
v 0.332641 1.031453 -0.103135
v 0.586137 1.597957 -0.145390
v 0.332641 1.190719 0.130389
v 0.547296 1.190719 -0.103135
v 0.332641 1.190719 -0.103135
vt 0.781250 0.781250
vt 0.890625 0.890625
vt 0.890625 0.781250
vt 0.781250 1.000000
vt 0.796875 0.906250
vt 0.781250 0.890625
vt 0.890625 0.890625
vt 1.000000 1.000000
vt 1.000000 0.890625
vt 0.890625 0.890625
vt 0.875000 0.906250
vt 0.890625 1.000000
vt 0.875000 0.984375
vt 0.796875 0.984375
vt 1.000000 0.890625
vt 0.890625 0.609375
vt 0.890625 0.890625
vt 1.000000 0.890625
vt 0.890625 0.609375
vt 0.890625 0.890625
vt 0.890625 0.609375
vt 1.000000 0.890625
vt 0.890625 0.609375
vt 0.890625 0.890625
vt 0.890625 0.890625
vt 0.781250 0.781250
vt 0.781250 0.890625
vt 0.890625 0.890625
vt 0.781250 0.781250
vt 0.781250 0.890625
vt 0.781250 0.781250
vt 0.781250 0.890625
vt 0.781250 0.890625
vt 0.890625 1.000000
vt 1.000000 0.609375
vt 1.000000 0.609375
vt 1.000000 0.609375
vt 1.000000 0.609375
vt 0.890625 0.781250
vt 0.890625 0.781250
vn 0.7071 0.0000 -0.7071
vn -0.7071 0.0000 -0.7071
vn 0.0000 -1.0000 0.0000
vn 0.0000 1.0000 0.0000
vn -1.0000 -0.0000 0.0000
vn 1.0000 0.0000 0.0000
vn 0.0000 -0.0000 1.0000
vn 0.0000 0.0000 -1.0000
vn 0.7071 -0.0000 0.7071
vn -0.7071 -0.0000 0.7071
usemtl Default_OBJ.001
s 1
f 49/137/35 50/138/36 51/139/36
f 52/140/37 49/141/37 53/142/37
f 54/143/38 55/144/38 56/145/38
f 57/146/37 49/141/37 51/147/37
f 58/148/37 51/147/37 59/149/37
f 52/140/37 59/149/37 60/150/37
f 55/151/39 53/152/39 56/153/39
f 54/154/40 58/155/40 61/156/40
f 56/145/41 57/157/41 54/143/41
f 61/158/42 52/159/42 55/160/42
f 60/161/43 62/162/35 49/163/35
f 59/164/44 50/165/36 63/166/44
f 59/164/44 64/167/43 60/168/43
f 49/137/35 62/169/35 50/138/36
f 52/140/37 60/150/37 49/141/37
f 54/143/38 61/170/38 55/144/38
f 57/146/37 53/142/37 49/141/37
f 58/148/37 57/146/37 51/147/37
f 52/140/37 58/148/37 59/149/37
f 55/151/39 52/171/39 53/152/39
f 54/154/40 57/172/40 58/155/40
f 56/145/41 53/173/41 57/157/41
f 61/158/42 58/174/42 52/159/42
f 60/161/43 64/175/43 62/162/35
f 59/164/44 51/139/36 50/165/36
f 59/164/44 63/176/44 64/167/43
o RightArm
v -0.547296 1.190719 0.130389
v -0.332641 1.031453 0.130389
v -0.547296 1.031453 0.130389
v -0.293800 1.031453 -0.145390
v -0.293800 1.031453 0.172644
v -0.293800 1.597957 0.172644
v -0.586137 1.597957 -0.145390
v -0.586137 1.597957 0.172644
v -0.586137 1.031453 0.172644
v -0.547296 1.031453 -0.103135
v -0.586137 1.031453 -0.145390
v -0.332641 1.031453 -0.103135
v -0.293800 1.597957 -0.145390
v -0.332641 1.190719 0.130389
v -0.332641 1.190719 -0.103135
v -0.547296 1.190719 -0.103135
vt 0.781250 0.890625
vt 0.890625 0.781250
vt 0.781250 0.781250
vt 0.875000 0.984375
vt 0.890625 0.890625
vt 0.890625 1.000000
vt 0.890625 1.000000
vt 1.000000 0.890625
vt 1.000000 1.000000
vt 0.796875 0.984375
vt 0.781250 1.000000
vt 0.796875 0.906250
vt 0.781250 0.890625
vt 0.875000 0.906250
vt 0.890625 0.890625
vt 1.000000 0.609375
vt 1.000000 0.890625
vt 0.890625 0.609375
vt 1.000000 0.890625
vt 0.890625 0.890625
vt 0.890625 0.609375
vt 1.000000 0.890625
vt 0.890625 0.890625
vt 0.890625 0.609375
vt 0.890625 0.890625
vt 0.890625 0.781250
vt 0.781250 0.890625
vt 0.890625 0.890625
vt 0.781250 0.890625
vt 0.890625 0.781250
vt 0.890625 0.781250
vt 0.890625 0.890625
vt 0.890625 0.890625
vt 0.890625 0.609375
vt 1.000000 0.609375
vt 1.000000 0.609375
vt 1.000000 0.609375
vt 0.781250 0.781250
vt 0.890625 0.890625
vt 0.781250 0.781250
vn 0.7071 0.0000 -0.7071
vn -0.7071 0.0000 -0.7071
vn 0.0000 -1.0000 0.0000
vn 0.0000 1.0000 0.0000
vn 1.0000 -0.0000 0.0000
vn -1.0000 -0.0000 0.0000
vn 0.0000 -0.0000 1.0000
vn 0.0000 0.0000 -1.0000
vn -0.7071 -0.0000 0.7071
vn 0.7071 -0.0000 0.7071
usemtl Default_OBJ.001
s 1
f 65/177/45 66/178/46 67/179/45
f 66/180/47 68/181/47 69/182/47
f 70/183/48 71/184/48 72/185/48
f 67/186/47 69/182/47 73/187/47
f 74/188/47 73/187/47 75/189/47
f 76/190/47 75/189/47 68/181/47
f 70/191/49 68/192/49 77/193/49
f 75/194/50 72/195/50 71/196/50
f 73/197/51 70/198/51 72/199/51
f 68/200/52 71/184/52 77/201/52
f 78/202/46 76/203/53 66/204/46
f 74/205/54 65/206/45 67/179/45
f 79/207/53 74/205/54 76/208/53
f 65/177/45 78/209/46 66/178/46
f 66/180/47 76/190/47 68/181/47
f 70/183/48 77/201/48 71/184/48
f 67/186/47 66/180/47 69/182/47
f 74/188/47 67/186/47 73/187/47
f 76/190/47 74/188/47 75/189/47
f 70/191/49 69/210/49 68/192/49
f 75/194/50 73/211/50 72/195/50
f 73/197/51 69/212/51 70/198/51
f 68/200/52 75/213/52 71/184/52
f 78/202/46 79/214/53 76/203/53
f 74/205/54 80/215/54 65/206/45
f 79/207/53 80/216/54 74/205/54
o Chest
v 0.293955 1.601496 0.237552
v -0.284800 0.820597 0.237552
v 0.293955 0.820597 0.237552
v -0.284800 1.601496 0.237552
v -0.284800 0.820597 -0.200052
v -0.284800 1.601496 -0.200052
v 0.293955 0.820597 -0.200052
v 0.293955 1.601496 -0.200052
vt 0.226562 0.296875
vt 0.000000 0.000000
vt 0.226562 0.000000
vt 0.468750 0.000000
vt 0.632812 0.296875
vt 0.468750 0.296875
vt 0.468750 0.296875
vt 0.226562 0.000000
vt 0.468750 0.000000
vt 0.632812 0.000000
vt 0.468750 0.296875
vt 0.632812 0.296875
vt 0.468750 0.296875
vt 0.226562 0.492188
vt 0.468750 0.492188
vt 0.000000 0.492188
vt 0.226562 0.296875
vt 0.000000 0.296875
vt 0.000000 0.296875
vt 0.632812 0.000000
vt 0.468750 0.000000
vt 0.226562 0.296875
vt 0.226562 0.492188
vn 0.0000 -0.0000 1.0000
vn -1.0000 -0.0000 0.0000
vn 0.0000 0.0000 -1.0000
vn 1.0000 -0.0000 0.0000
vn 0.0000 -1.0000 -0.0000
vn 0.0000 1.0000 0.0000
usemtl Default_OBJ.001
s 1
f 81/217/55 82/218/55 83/219/55
f 84/220/56 85/221/56 82/222/56
f 86/223/57 87/224/57 85/225/57
f 88/226/58 83/227/58 87/228/58
f 85/229/59 83/230/59 82/231/59
f 84/232/60 88/233/60 86/234/60
f 81/217/55 84/235/55 82/218/55
f 84/220/56 86/236/56 85/221/56
f 86/223/57 88/233/57 87/224/57
f 88/226/58 81/237/58 83/227/58
f 85/229/59 87/238/59 83/230/59
f 84/232/60 81/239/60 88/233/60
