# Blender v2.79 (sub 0) OBJ File: 'Twohanded.blend'
# www.blender.org
o BigMace
v -0.069933 -0.872962 0.068200
v -0.069933 -0.719064 0.068200
v -0.069933 -0.872962 -0.068200
v -0.069933 -0.719064 -0.068200
v 0.069933 -0.872962 0.068200
v 0.069933 -0.719064 0.068200
v 0.069933 -0.872962 -0.068200
v 0.069933 -0.719064 -0.068200
v -0.069933 -0.565166 0.068200
v -0.069933 -0.565166 -0.068200
v 0.069933 -0.565166 0.068200
v 0.069933 -0.565166 -0.068200
v -0.069933 -0.411268 0.068200
v -0.069933 -0.411268 -0.068200
v 0.069933 -0.411268 0.068200
v 0.069933 -0.411268 -0.068200
v -0.069933 -0.257370 0.068200
v -0.069933 -0.257370 -0.068200
v 0.069933 -0.257370 0.068200
v 0.069933 -0.257370 -0.068200
v -0.069933 -0.103473 0.068200
v -0.069933 -0.103473 -0.068200
v 0.069933 -0.103473 0.068200
v 0.069933 -0.103473 -0.068200
v -0.069933 0.050425 0.068200
v -0.069933 0.050425 -0.068200
v 0.069933 0.050425 0.068200
v 0.069933 0.050425 -0.068200
v -0.069933 0.204323 0.068200
v -0.069933 0.204323 -0.068200
v 0.069933 0.204323 0.068200
v 0.069933 0.204323 -0.068200
v -0.069933 0.358221 0.068200
v -0.069933 0.358221 -0.068200
v 0.069933 0.358221 0.068200
v 0.069933 0.358221 -0.068200
v -0.069933 0.512119 0.068200
v -0.069933 0.512119 -0.068200
v 0.069933 0.512119 0.068200
v 0.069933 0.512119 -0.068200
v -0.069933 0.666017 0.068200
v -0.069933 0.666017 -0.068200
v 0.069933 0.666017 0.068200
v 0.069933 0.666017 -0.068200
v -0.069933 0.819914 0.068200
v -0.069933 0.819914 -0.068200
v 0.069933 0.819914 0.068200
v 0.069933 0.819914 -0.068200
v -0.069933 0.973812 0.068200
v -0.069933 0.973812 -0.068200
v 0.069933 0.973812 0.068200
v 0.069933 0.973812 -0.068200
v -0.069933 1.127710 0.068200
v -0.069933 1.127710 -0.068200
v 0.069933 1.127710 0.068200
v 0.069933 1.127710 -0.068200
v -0.069933 1.281608 0.068200
v -0.069933 1.281608 -0.068200
v 0.069933 1.281608 0.068200
v 0.069933 1.281608 -0.068200
v -0.069933 1.435506 0.068200
v -0.069933 1.435506 -0.068200
v 0.069933 1.435506 0.068200
v 0.069933 1.435506 -0.068200
v -0.069933 1.589403 0.068200
v -0.069933 1.589403 -0.068200
v 0.069933 1.589403 0.068200
v 0.069933 1.589403 -0.068200
v -0.069933 1.743301 0.068200
v -0.069933 1.743301 -0.068200
v 0.069933 1.743301 0.068200
v 0.069933 1.743301 -0.068200
v -0.069933 1.897198 0.068200
v -0.069933 1.897198 -0.068200
v 0.069933 1.897198 0.068200
v 0.069933 1.897198 -0.068200
v -0.069933 2.051096 0.068200
v -0.069933 2.051096 -0.068200
v 0.069933 2.051096 0.068200
v 0.069933 2.051096 -0.068200
v -0.069933 2.204994 0.068200
v -0.069933 2.204994 -0.068200
v 0.069933 2.204994 0.068200
v 0.069933 2.204994 -0.068200
v -0.069933 2.358892 0.068200
v -0.069933 2.358892 -0.068200
v 0.069933 2.358892 0.068200
v 0.069933 2.358892 -0.068200
v -0.140280 2.196773 0.140280
v -0.140280 2.477332 0.140280
v -0.140280 2.196773 -0.140280
v -0.140280 2.477332 -0.140280
v 0.140280 2.196773 0.140280
v 0.140280 2.477332 0.140280
v 0.140280 2.196773 -0.140280
v 0.140280 2.477332 -0.140280
v -0.085942 2.035375 0.085942
v -0.085942 2.206341 0.085942
v -0.085942 2.035375 -0.085942
v -0.085942 2.206341 -0.085942
v 0.085942 2.035375 0.085942
v 0.085942 2.206341 0.085942
v 0.085942 2.035375 -0.085942
v 0.085942 2.206341 -0.085942
v -0.077399 0.507117 0.077399
v -0.077399 0.545339 0.077399
v -0.077399 0.507117 -0.077399
v -0.077399 0.545339 -0.077399
v 0.077399 0.507117 0.077399
v 0.077399 0.545339 0.077399
v 0.077399 0.507117 -0.077399
v 0.077399 0.545339 -0.077399
v -0.077399 -0.740677 0.077399
v -0.077399 -0.702455 0.077399
v -0.077399 -0.740677 -0.077399
v -0.077399 -0.702455 -0.077399
v 0.077399 -0.740677 0.077399
v 0.077399 -0.702455 0.077399
v 0.077399 -0.740677 -0.077399
v 0.077399 -0.702455 -0.077399
vt 0.250000 0.875000
vt 0.375000 1.000000
vt 0.250000 1.000000
vt 0.250000 0.875000
vt 0.375000 1.000000
vt 0.250000 1.000000
vt 0.375000 1.000000
vt 0.250000 0.875000
vt 0.375000 0.875000
vt 0.375000 1.000000
vt 0.250000 0.875000
vt 0.375000 0.875000
vt 0.125000 0.875000
vt 0.250000 1.000000
vt 0.125000 1.000000
vt 0.125000 0.875000
vt 0.250000 1.000000
vt 0.125000 1.000000
vt 0.250000 1.000000
vt 0.125000 0.875000
vt 0.250000 0.875000
vt 0.250000 1.000000
vt 0.125000 0.875000
vt 0.250000 0.875000
vt 0.125000 0.875000
vt 0.250000 1.000000
vt 0.125000 1.000000
vt 0.125000 0.875000
vt 0.125000 1.000000
vt 0.250000 1.000000
vt 0.125000 0.875000
vt 0.250000 0.875000
vt 0.250000 1.000000
vt 0.250000 0.875000
vt 0.125000 0.875000
vt 0.250000 1.000000
vt 0.125000 1.000000
vt 0.125000 0.875000
vt 0.125000 1.000000
vt 0.250000 1.000000
vt 0.125000 0.875000
vt 0.250000 0.875000
vt 0.250000 1.000000
vt 0.250000 0.875000
vt 0.125000 0.875000
vt 0.250000 1.000000
vt 0.125000 1.000000
vt 0.125000 0.875000
vt 0.125000 1.000000
vt 0.250000 1.000000
vt 0.125000 0.875000
vt 0.250000 0.875000
vt 0.250000 1.000000
vt 0.250000 0.875000
vt 0.125000 0.875000
vt 0.250000 1.000000
vt 0.125000 1.000000
vt 0.125000 0.875000
vt 0.125000 1.000000
vt 0.250000 1.000000
vt 0.125000 0.875000
vt 0.250000 0.875000
vt 0.250000 1.000000
vt 0.250000 0.875000
vt 0.125000 0.875000
vt 0.250000 1.000000
vt 0.125000 1.000000
vt 0.125000 0.875000
vt 0.125000 1.000000
vt 0.250000 1.000000
vt 0.125000 0.875000
vt 0.250000 0.875000
vt 0.250000 1.000000
vt 0.250000 0.875000
vt 0.125000 0.875000
vt 0.250000 1.000000
vt 0.125000 1.000000
vt 0.125000 0.875000
vt 0.125000 1.000000
vt 0.250000 1.000000
vt 0.125000 0.875000
vt 0.250000 0.875000
vt 0.250000 1.000000
vt 0.250000 0.875000
vt 0.125000 0.875000
vt 0.250000 1.000000
vt 0.125000 1.000000
vt 0.125000 0.875000
vt 0.125000 1.000000
vt 0.250000 1.000000
vt 0.125000 0.875000
vt 0.250000 0.875000
vt 0.250000 1.000000
vt 0.250000 0.875000
vt 0.250000 0.875000
vt 0.375000 1.000000
vt 0.250000 1.000000
vt 0.250000 0.875000
vt 0.375000 1.000000
vt 0.250000 1.000000
vt 0.375000 1.000000
vt 0.250000 0.875000
vt 0.375000 0.875000
vt 0.375000 1.000000
vt 0.250000 0.875000
vt 0.375000 0.875000
vt 0.250000 0.875000
vt 0.375000 1.000000
vt 0.250000 1.000000
vt 0.250000 0.875000
vt 0.250000 1.000000
vt 0.375000 1.000000
vt 0.250000 0.875000
vt 0.375000 0.875000
vt 0.375000 1.000000
vt 0.375000 0.875000
vt 0.250000 0.875000
vt 0.375000 1.000000
vt 0.250000 1.000000
vt 0.250000 0.875000
vt 0.250000 1.000000
vt 0.375000 1.000000
vt 0.250000 0.875000
vt 0.375000 0.875000
vt 0.375000 1.000000
vt 0.375000 0.875000
vt 0.250000 0.875000
vt 0.375000 1.000000
vt 0.250000 1.000000
vt 0.250000 0.875000
vt 0.250000 1.000000
vt 0.375000 1.000000
vt 0.250000 0.875000
vt 0.375000 0.875000
vt 0.375000 1.000000
vt 0.375000 0.875000
vt 0.250000 0.875000
vt 0.375000 1.000000
vt 0.250000 1.000000
vt 0.250000 0.875000
vt 0.250000 1.000000
vt 0.375000 1.000000
vt 0.250000 0.875000
vt 0.375000 0.875000
vt 0.375000 1.000000
vt 0.375000 0.875000
vt 0.250000 0.875000
vt 0.375000 1.000000
vt 0.250000 1.000000
vt 0.250000 0.875000
vt 0.250000 1.000000
vt 0.375000 1.000000
vt 0.250000 0.875000
vt 0.375000 0.875000
vt 0.375000 1.000000
vt 0.375000 0.875000
vt 0.250000 0.875000
vt 0.375000 1.000000
vt 0.250000 1.000000
vt 0.250000 0.875000
vt 0.250000 1.000000
vt 0.375000 1.000000
vt 0.250000 0.875000
vt 0.375000 0.875000
vt 0.375000 1.000000
vt 0.375000 0.875000
vt 0.250000 0.875000
vt 0.375000 1.000000
vt 0.250000 1.000000
vt 0.250000 0.875000
vt 0.250000 1.000000
vt 0.375000 1.000000
vt 0.250000 0.875000
vt 0.375000 0.875000
vt 0.375000 1.000000
vt 0.375000 0.875000
vt 0.250000 0.875000
vt 0.375000 1.000000
vt 0.250000 1.000000
vt 0.250000 0.875000
vt 0.250000 1.000000
vt 0.375000 1.000000
vt 0.250000 0.875000
vt 0.375000 0.875000
vt 0.375000 1.000000
vt 0.375000 0.875000
vt 0.250000 0.875000
vt 0.375000 1.000000
vt 0.250000 1.000000
vt 0.250000 0.875000
vt 0.250000 1.000000
vt 0.375000 1.000000
vt 0.250000 0.875000
vt 0.375000 0.875000
vt 0.375000 1.000000
vt 0.375000 0.875000
vt 0.250000 0.875000
vt 0.375000 1.000000
vt 0.250000 1.000000
vt 0.250000 0.875000
vt 0.250000 1.000000
vt 0.375000 1.000000
vt 0.250000 0.875000
vt 0.375000 0.875000
vt 0.375000 1.000000
vt 0.375000 0.875000
vt 0.250000 0.875000
vt 0.375000 1.000000
vt 0.250000 1.000000
vt 0.250000 0.875000
vt 0.250000 1.000000
vt 0.375000 1.000000
vt 0.250000 0.875000
vt 0.375000 0.875000
vt 0.375000 1.000000
vt 0.375000 0.875000
vt 0.375000 0.750000
vt 0.250000 0.750000
vt 0.375000 0.750000
vt 0.250000 0.750000
vt 0.875000 0.875000
vt 1.000000 1.000000
vt 0.875000 1.000000
vt 0.875000 1.000000
vt 1.000000 0.875000
vt 0.875000 0.875000
vt 1.000000 1.000000
vt 0.875000 0.875000
vt 1.000000 0.875000
vt 1.000000 1.000000
vt 1.000000 0.750000
vt 0.875000 0.875000
vt 0.875000 0.750000
vt 0.875000 0.875000
vt 0.750000 0.750000
vt 0.875000 0.750000
vt 0.875000 0.875000
vt 0.750000 0.750000
vt 0.875000 0.750000
vt 0.875000 0.875000
vt 0.750000 0.750000
vt 0.875000 0.750000
vt 0.875000 0.875000
vt 0.750000 0.750000
vt 0.875000 0.750000
vt 0.875000 0.875000
vt 0.750000 1.000000
vt 0.750000 0.875000
vt 0.000000 0.000000
vt 0.000000 0.000000
vt 0.000000 0.000000
vt 0.710938 0.062500
vt 1.000000 0.000000
vt 0.710938 0.000000
vt 0.710938 0.062500
vt 1.000000 0.000000
vt 0.710938 0.000000
vt 1.000000 0.062500
vt 0.710938 -0.000000
vt 1.000000 0.062500
vt 1.000000 -0.000000
vt 0.796875 0.109375
vt 0.750000 0.156250
vt 0.750000 0.109375
vt 0.750000 0.156250
vt 0.796875 0.109375
vt 0.796875 0.156250
vt 0.710938 0.062500
vt 1.000000 0.000000
vt 0.710938 0.000000
vt 0.710938 0.062500
vt 1.000000 0.000000
vt 0.710938 0.000000
vt 1.000000 0.062500
vt 0.710938 -0.000000
vt 1.000000 0.062500
vt 1.000000 -0.000000
vt 0.796875 0.109375
vt 0.750000 0.156250
vt 0.750000 0.109375
vt 0.750000 0.156250
vt 0.796875 0.109375
vt 0.796875 0.156250
vt 0.375000 0.875000
vt 0.375000 0.875000
vt 0.250000 1.000000
vt 0.250000 1.000000
vt 0.250000 0.875000
vt 0.125000 1.000000
vt 0.250000 0.875000
vt 0.125000 1.000000
vt 0.250000 0.875000
vt 0.125000 1.000000
vt 0.250000 0.875000
vt 0.125000 1.000000
vt 0.250000 0.875000
vt 0.125000 1.000000
vt 0.250000 0.875000
vt 0.125000 1.000000
vt 0.250000 0.875000
vt 0.125000 1.000000
vt 0.250000 0.875000
vt 0.250000 0.875000
vt 0.125000 1.000000
vt 0.125000 1.000000
vt 0.375000 0.875000
vt 0.250000 1.000000
vt 0.375000 0.875000
vt 0.250000 1.000000
vt 0.375000 0.875000
vt 0.250000 1.000000
vt 0.375000 0.875000
vt 0.250000 1.000000
vt 0.375000 0.875000
vt 0.250000 1.000000
vt 0.375000 0.875000
vt 0.250000 1.000000
vt 0.375000 0.875000
vt 0.250000 1.000000
vt 0.375000 0.875000
vt 0.250000 1.000000
vt 0.375000 0.875000
vt 0.250000 1.000000
vt 0.375000 0.875000
vt 0.250000 1.000000
vt 0.375000 0.875000
vt 0.250000 1.000000
vt 0.375000 0.875000
vt 0.375000 0.875000
vt 0.250000 1.000000
vt 0.250000 1.000000
vt 1.000000 0.875000
vt 0.875000 1.000000
vt 1.000000 0.875000
vt 0.750000 0.875000
vt 0.750000 0.875000
vt 0.750000 0.875000
vt 0.750000 0.875000
vt 0.875000 1.000000
vt 0.000000 0.000000
vt 1.000000 0.062500
vt 0.710938 0.062500
vt 0.796875 0.156250
vt 0.750000 0.109375
vt 1.000000 0.062500
vt 0.710938 0.062500
vt 0.796875 0.156250
vt 0.750000 0.109375
vn -1.0000 0.0000 0.0000
vn 0.0000 0.0000 -1.0000
vn 1.0000 0.0000 0.0000
vn 0.0000 0.0000 1.0000
vn 0.0000 1.0000 0.0000
vn 0.0000 -1.0000 0.0000
s off
f 2/1/1 3/2/1 1/3/1
f 4/4/2 7/5/2 3/6/2
f 8/7/3 5/8/3 7/9/3
f 6/10/4 1/11/4 5/12/4
f 9/13/1 4/14/1 2/15/1
f 10/16/2 8/17/2 4/18/2
f 12/19/3 6/20/3 8/21/3
f 11/22/4 2/23/4 6/24/4
f 13/25/1 10/26/1 9/27/1
f 14/28/2 12/19/2 10/29/2
f 16/30/3 11/31/3 12/32/3
f 15/33/4 9/13/4 11/34/4
f 17/35/1 14/36/1 13/37/1
f 18/38/2 16/30/2 14/39/2
f 20/40/3 15/41/3 16/42/3
f 19/43/4 13/25/4 15/44/4
f 21/45/1 18/46/1 17/47/1
f 22/48/2 20/40/2 18/49/2
f 24/50/3 19/51/3 20/52/3
f 23/53/4 17/35/4 19/54/4
f 25/55/1 22/56/1 21/57/1
f 26/58/2 24/50/2 22/59/2
f 28/60/3 23/61/3 24/62/3
f 27/63/4 21/45/4 23/64/4
f 29/65/1 26/66/1 25/67/1
f 30/68/2 28/60/2 26/69/2
f 32/70/3 27/71/3 28/72/3
f 31/73/4 25/55/4 27/74/4
f 33/75/1 30/76/1 29/77/1
f 34/78/2 32/70/2 30/79/2
f 36/80/3 31/81/3 32/82/3
f 35/83/4 29/65/4 31/84/4
f 37/85/1 34/86/1 33/87/1
f 38/88/2 36/80/2 34/89/2
f 40/90/3 35/91/3 36/92/3
f 39/93/4 33/75/4 35/94/4
f 41/95/1 38/96/1 37/97/1
f 42/98/2 40/99/2 38/100/2
f 44/101/3 39/102/3 40/103/3
f 43/104/4 37/105/4 39/106/4
f 45/107/1 42/108/1 41/109/1
f 46/110/2 44/101/2 42/111/2
f 48/112/3 43/113/3 44/114/3
f 47/115/4 41/95/4 43/116/4
f 49/117/1 46/118/1 45/119/1
f 50/120/2 48/112/2 46/121/2
f 52/122/3 47/123/3 48/124/3
f 51/125/4 45/107/4 47/126/4
f 53/127/1 50/128/1 49/129/1
f 54/130/2 52/122/2 50/131/2
f 56/132/3 51/133/3 52/134/3
f 55/135/4 49/117/4 51/136/4
f 57/137/1 54/138/1 53/139/1
f 58/140/2 56/132/2 54/141/2
f 60/142/3 55/143/3 56/144/3
f 59/145/4 53/127/4 55/146/4
f 61/147/1 58/148/1 57/149/1
f 62/150/2 60/142/2 58/151/2
f 64/152/3 59/153/3 60/154/3
f 63/155/4 57/137/4 59/156/4
f 65/157/1 62/158/1 61/159/1
f 66/160/2 64/152/2 62/161/2
f 68/162/3 63/163/3 64/164/3
f 67/165/4 61/147/4 63/166/4
f 69/167/1 66/168/1 65/169/1
f 70/170/2 68/162/2 66/171/2
f 72/172/3 67/173/3 68/174/3
f 71/175/4 65/157/4 67/176/4
f 73/177/1 70/178/1 69/179/1
f 74/180/2 72/172/2 70/181/2
f 76/182/3 71/183/3 72/184/3
f 75/185/4 69/167/4 71/186/4
f 77/187/1 74/188/1 73/189/1
f 78/190/2 76/182/2 74/191/2
f 80/192/3 75/193/3 76/194/3
f 79/195/4 73/177/4 75/196/4
f 81/197/1 78/198/1 77/199/1
f 82/200/2 80/192/2 78/201/2
f 84/202/3 79/203/3 80/204/3
f 83/205/4 77/187/4 79/206/4
f 85/207/1 82/208/1 81/209/1
f 86/210/2 84/202/2 82/211/2
f 88/212/3 83/213/3 84/214/3
f 87/215/4 81/197/4 83/216/4
f 87/217/5 86/210/5 85/218/5
f 7/219/6 1/11/6 3/220/6
f 90/221/1 91/222/1 89/223/1
f 92/224/2 95/225/2 91/226/2
f 96/227/3 93/228/3 95/225/3
f 94/229/4 89/223/4 93/230/4
f 95/231/6 89/232/6 91/233/6
f 92/224/5 94/229/5 96/227/5
f 98/234/1 99/235/1 97/236/1
f 100/237/2 103/238/2 99/239/2
f 104/240/3 101/241/3 103/242/3
f 102/243/4 97/244/4 101/245/4
f 103/246/6 97/247/6 99/248/6
f 100/249/5 102/250/5 104/251/5
f 106/252/1 107/253/1 105/254/1
f 108/255/2 111/256/2 107/257/2
f 112/258/3 109/259/3 111/256/3
f 110/260/4 105/254/4 109/261/4
f 111/262/6 105/263/6 107/264/6
f 108/265/5 110/266/5 112/267/5
f 114/268/1 115/269/1 113/270/1
f 116/271/2 119/272/2 115/273/2
f 120/274/3 117/275/3 119/272/3
f 118/276/4 113/270/4 117/277/4
f 119/278/6 113/279/6 115/280/6
f 116/281/5 118/282/5 120/283/5
f 2/1/1 4/284/1 3/2/1
f 4/4/2 8/285/2 7/5/2
f 8/7/3 6/286/3 5/8/3
f 6/10/4 2/287/4 1/11/4
f 9/13/1 10/288/1 4/14/1
f 10/16/2 12/32/2 8/17/2
f 12/19/3 11/289/3 6/20/3
f 11/22/4 9/27/4 2/23/4
f 13/25/1 14/290/1 10/26/1
f 14/28/2 16/42/2 12/19/2
f 16/30/3 15/291/3 11/31/3
f 15/33/4 13/37/4 9/13/4
f 17/35/1 18/292/1 14/36/1
f 18/38/2 20/52/2 16/30/2
f 20/40/3 19/293/3 15/41/3
f 19/43/4 17/47/4 13/25/4
f 21/45/1 22/294/1 18/46/1
f 22/48/2 24/62/2 20/40/2
f 24/50/3 23/295/3 19/51/3
f 23/53/4 21/57/4 17/35/4
f 25/55/1 26/296/1 22/56/1
f 26/58/2 28/72/2 24/50/2
f 28/60/3 27/297/3 23/61/3
f 27/63/4 25/67/4 21/45/4
f 29/65/1 30/298/1 26/66/1
f 30/68/2 32/82/2 28/60/2
f 32/70/3 31/299/3 27/71/3
f 31/73/4 29/77/4 25/55/4
f 33/75/1 34/300/1 30/76/1
f 34/78/2 36/92/2 32/70/2
f 36/80/3 35/301/3 31/81/3
f 35/83/4 33/87/4 29/65/4
f 37/85/1 38/302/1 34/86/1
f 38/88/2 40/303/2 36/80/2
f 40/90/3 39/304/3 35/91/3
f 39/93/4 37/305/4 33/75/4
f 41/95/1 42/306/1 38/96/1
f 42/98/2 44/114/2 40/99/2
f 44/101/3 43/307/3 39/102/3
f 43/104/4 41/109/4 37/105/4
f 45/107/1 46/308/1 42/108/1
f 46/110/2 48/124/2 44/101/2
f 48/112/3 47/309/3 43/113/3
f 47/115/4 45/119/4 41/95/4
f 49/117/1 50/310/1 46/118/1
f 50/120/2 52/134/2 48/112/2
f 52/122/3 51/311/3 47/123/3
f 51/125/4 49/129/4 45/107/4
f 53/127/1 54/312/1 50/128/1
f 54/130/2 56/144/2 52/122/2
f 56/132/3 55/313/3 51/133/3
f 55/135/4 53/139/4 49/117/4
f 57/137/1 58/314/1 54/138/1
f 58/140/2 60/154/2 56/132/2
f 60/142/3 59/315/3 55/143/3
f 59/145/4 57/149/4 53/127/4
f 61/147/1 62/316/1 58/148/1
f 62/150/2 64/164/2 60/142/2
f 64/152/3 63/317/3 59/153/3
f 63/155/4 61/159/4 57/137/4
f 65/157/1 66/318/1 62/158/1
f 66/160/2 68/174/2 64/152/2
f 68/162/3 67/319/3 63/163/3
f 67/165/4 65/169/4 61/147/4
f 69/167/1 70/320/1 66/168/1
f 70/170/2 72/184/2 68/162/2
f 72/172/3 71/321/3 67/173/3
f 71/175/4 69/179/4 65/157/4
f 73/177/1 74/322/1 70/178/1
f 74/180/2 76/194/2 72/172/2
f 76/182/3 75/323/3 71/183/3
f 75/185/4 73/189/4 69/167/4
f 77/187/1 78/324/1 74/188/1
f 78/190/2 80/204/2 76/182/2
f 80/192/3 79/325/3 75/193/3
f 79/195/4 77/199/4 73/177/4
f 81/197/1 82/326/1 78/198/1
f 82/200/2 84/214/2 80/192/2
f 84/202/3 83/327/3 79/203/3
f 83/205/4 81/209/4 77/187/4
f 85/207/1 86/328/1 82/208/1
f 86/210/2 88/329/2 84/202/2
f 88/212/3 87/330/3 83/213/3
f 87/215/4 85/331/4 81/197/4
f 87/217/5 88/329/5 86/210/5
f 7/219/6 5/12/6 1/11/6
f 90/221/1 92/332/1 91/222/1
f 92/224/2 96/227/2 95/225/2
f 96/227/3 94/333/3 93/228/3
f 94/229/4 90/221/4 89/223/4
f 95/231/6 93/334/6 89/232/6
f 92/224/5 90/221/5 94/229/5
f 98/234/1 100/335/1 99/235/1
f 100/237/2 104/336/2 103/238/2
f 104/240/3 102/337/3 101/241/3
f 102/243/4 98/338/4 97/244/4
f 103/246/6 101/339/6 97/247/6
f 100/249/5 98/340/5 102/250/5
f 106/252/1 108/341/1 107/253/1
f 108/255/2 112/258/2 111/256/2
f 112/258/3 110/342/3 109/259/3
f 110/260/4 106/252/4 105/254/4
f 111/262/6 109/343/6 105/263/6
f 108/265/5 106/344/5 110/266/5
f 114/268/1 116/345/1 115/269/1
f 116/271/2 120/274/2 119/272/2
f 120/274/3 118/346/3 117/275/3
f 118/276/4 114/268/4 113/270/4
f 119/278/6 117/347/6 113/279/6
f 116/281/5 114/348/5 118/282/5
