# Blender v2.79 (sub 0) OBJ File: ''
# www.blender.org
o BronseAxe
v -0.069488 1.110004 -0.039485
v 0.059882 0.939452 -0.039740
v -0.071816 0.939452 -0.039740
v 0.068848 -0.312801 -0.031731
v -0.068848 -0.312801 0.031731
v -0.068848 -0.312801 -0.031731
v 0.057553 1.110004 0.039486
v 0.057553 1.110004 -0.039485
v -0.071816 0.939452 0.039740
v 0.059882 0.939452 0.039740
v -0.069488 1.110004 0.039486
v -0.059947 0.393885 0.031731
v 0.059947 0.393885 -0.031731
v 0.068848 -0.312801 0.031731
v -0.062250 0.918900 -0.033845
v -0.062250 0.918900 0.033845
v -0.059947 0.393885 -0.031731
v 0.050315 0.918900 -0.033845
v 0.050315 0.918900 0.033845
v 0.059947 0.393885 0.031731
v 0.042182 1.092855 -0.066897
v 0.091711 1.028881 -0.039149
v 0.042182 1.028881 -0.066897
v 0.182294 1.030897 -0.022061
v 0.091711 0.964908 -0.039149
v 0.282675 1.147884 -0.004867
v 0.312042 1.039486 -0.004867
v 0.151444 0.910710 -0.026100
v 0.310230 0.897092 -0.004867
v 0.232831 0.746649 -0.004867
v 0.091711 1.028881 0.039149
v 0.042182 1.092855 0.066898
v 0.042182 1.028881 0.066898
v 0.091711 0.964908 0.039149
v 0.182294 1.030897 0.022062
v 0.282675 1.147884 0.004867
v 0.143887 1.101041 0.030615
v 0.151444 0.910710 0.026100
v 0.232831 0.746649 0.004867
v 0.310230 0.897092 0.004867
v -0.106403 0.964908 -0.043125
v -0.106403 1.028881 0.043125
v -0.106403 1.028881 -0.043125
v 0.042182 0.964908 -0.066897
v 0.042182 0.964908 0.066898
v -0.106403 1.092855 -0.043125
v -0.056874 1.092855 0.066898
v -0.056874 1.092855 -0.066897
v 0.091711 1.092855 -0.039149
v 0.143887 1.101041 -0.030614
v 0.312042 1.039486 0.004867
v 0.091711 1.092855 0.039149
v -0.056874 0.964908 0.066898
v -0.056874 0.964908 -0.066897
v -0.106403 0.964908 0.043125
v -0.056874 1.028881 0.066898
v -0.106403 1.092855 0.043125
v -0.056874 1.028881 -0.066897
vt 0.125000 1.000000
vt 0.000000 0.916667
vt 0.125000 0.916667
vt 0.125000 0.375000
vt -0.000000 0.500000
vt -0.000000 0.375000
vt -0.000000 0.500000
vt 0.125000 0.375000
vt 0.125000 0.500000
vt 0.125000 1.000000
vt 0.000000 0.916667
vt 0.125000 0.916667
vt 0.125000 1.000000
vt 0.000000 0.916667
vt 0.125000 0.916667
vt 0.125000 1.000000
vt 0.000000 0.916667
vt 0.125000 0.916667
vt 0.125000 1.000000
vt 0.000000 0.500000
vt 0.125000 0.500000
vt 0.125000 1.000000
vt 0.000000 0.500000
vt 0.125000 0.500000
vt 0.125000 0.500000
vt -0.000000 1.000000
vt 0.125000 0.500000
vt -0.000000 1.000000
vt 0.000000 0.500000
vt 0.000000 0.906250
vt 0.125000 0.906250
vt 0.000000 0.500000
vt 0.125000 0.500000
vt 0.000000 0.906250
vt 0.125000 0.906250
vt 0.125000 0.500000
vt 0.125000 0.906250
vt 0.000000 0.906250
vt 0.125000 0.500000
vt 0.125000 0.906250
vt 0.000000 0.906250
vt 0.125000 0.500000
vt 0.345703 0.460938
vt 0.304688 0.414063
vt 0.345703 0.414063
vt 0.257812 0.414063
vt 0.304688 0.367188
vt 0.148438 0.460938
vt 0.148438 0.414063
vt 0.273438 0.367188
vt 0.148438 0.367188
vt 0.218750 0.218750
vt 0.304688 0.414063
vt 0.345703 0.460938
vt 0.345703 0.414063
vt 0.304688 0.367188
vt 0.257812 0.414063
vt 0.148438 0.460938
vt 0.242188 0.460938
vt 0.273438 0.367188
vt 0.218750 0.218750
vt 0.148438 0.367188
vt 0.468750 0.367188
vt 0.531250 0.414063
vt 0.468750 0.414063
vt 0.429688 0.242188
vt 0.476562 0.335938
vt 0.429688 0.351563
vt 0.289062 0.343750
vt 0.335938 0.242188
vt 0.335938 0.351563
vt 0.476562 0.335938
vt 0.541062 0.273438
vt 0.541062 0.320313
vt 0.539062 0.273438
vt 0.476562 0.257813
vt 0.164062 0.445313
vt 0.164062 0.406250
vt 0.164062 0.406250
vt 0.656250 0.304688
vt 0.656250 0.289063
vt 0.164062 0.367188
vt 0.226562 0.234375
vt 0.226562 0.234375
vt 0.429688 0.351563
vt 0.476562 0.257813
vt 0.335938 0.351563
vt 0.335938 0.242188
vt 0.289062 0.343750
vt 0.289062 0.250000
vt 0.427734 0.460938
vt 0.427734 0.414063
vt 0.468750 0.460938
vt 0.468750 0.414063
vt 0.427734 0.460938
vt 0.427734 0.414063
vt 0.468750 0.460938
vt 0.429688 0.242188
vt 0.427734 0.367188
vt 0.345703 0.367188
vt 0.427734 0.367188
vt 0.468750 0.367188
vt 0.345703 0.367188
vt 0.164062 0.367188
vt 0.531250 0.460938
vt 0.304688 0.460938
vt 0.242188 0.460938
vt 0.304688 0.460938
vt 0.261230 0.378418
vt 0.261230 0.378418
vt -0.000000 1.000000
vt -0.000000 0.375000
vt -0.000000 1.000000
vt -0.000000 1.000000
vt -0.000000 1.000000
vt -0.000000 1.000000
vt -0.000000 1.000000
vt 0.125000 1.000000
vt 0.125000 1.000000
vt 0.000000 0.500000
vt 0.000000 0.500000
vt 0.000000 0.500000
vt 0.148438 0.414063
vt 0.531250 0.367188
vt 0.289062 0.250000
vt 0.539062 0.320313
vt 0.164062 0.445313
vn 0.0000 0.0015 -1.0000
vn 0.0000 -0.1174 -0.9931
vn 0.0000 -1.0000 0.0000
vn 0.0000 1.0000 0.0000
vn 0.0000 0.0015 1.0000
vn 0.0000 -0.1174 0.9931
vn 0.9999 0.0137 0.0000
vn 0.9818 -0.1898 0.0000
vn -0.9999 0.0137 0.0000
vn -0.9818 -0.1898 0.0000
vn -1.0000 0.0041 0.0000
vn -0.9999 0.0126 0.0000
vn 0.9999 0.0155 0.0000
vn 0.9999 0.0126 0.0000
vn 0.0000 -0.0000 1.0000
vn 0.0000 -0.0020 1.0000
vn 0.0000 0.0000 -1.0000
vn 0.0000 -0.0020 -1.0000
vn -0.9721 -0.2345 0.0000
vn 0.0000 -0.1566 -0.9877
vn 0.0000 -0.1576 -0.9875
vn 0.0000 -0.1566 0.9877
vn 0.0000 -0.1576 0.9875
vn 0.9745 -0.2243 0.0000
vn 0.2526 0.0000 -0.9676
vn 0.3393 -0.0027 -0.9407
vn 0.1643 -0.0043 -0.9864
vn 0.3168 -0.0063 -0.9485
vn 0.1499 0.0167 -0.9886
vn 0.1303 0.0159 -0.9913
vn 0.1514 -0.0247 -0.9882
vn 0.1297 -0.0295 -0.9911
vn 0.1268 -0.0652 -0.9898
vn 0.3393 -0.0027 0.9407
vn 0.2526 -0.0000 0.9676
vn 0.3168 -0.0063 0.9485
vn 0.1643 -0.0043 0.9864
vn 0.1499 0.0167 0.9886
vn 0.1809 -0.0133 0.9834
vn 0.1514 -0.0247 0.9882
vn 0.1268 -0.0652 0.9898
vn 0.1297 -0.0295 0.9911
vn -1.0000 0.0000 0.0000
vn -0.2901 -0.9570 0.0000
vn -0.0628 0.9980 0.0000
vn -0.2294 0.9733 0.0000
vn -0.6720 -0.7406 0.0000
vn 0.9652 0.2615 0.0000
vn 0.9921 0.1256 0.0000
vn -0.3198 0.9475 0.0000
vn 0.9704 -0.2415 0.0000
vn 0.8892 -0.4575 0.0000
vn -0.2219 -0.0000 0.9751
vn -0.4327 -0.0000 0.9015
vn -0.2219 0.0000 -0.9751
vn -0.4327 0.0000 -0.9015
vn 0.3223 -0.0000 0.9466
vn 0.1809 -0.0133 -0.9834
vn 0.3223 0.0000 -0.9466
vn -0.8958 -0.4444 0.0000
vn 0.1303 0.0159 0.9913
s 1
f 1/1/1 2/2/2 3/3/2
f 4/4/3 5/5/3 6/6/3
f 1/7/4 7/8/4 8/9/4
f 7/10/5 9/11/6 10/12/6
f 8/13/7 10/14/8 2/15/8
f 11/16/9 3/17/10 9/18/10
f 12/19/11 6/20/12 5/21/12
f 13/22/13 14/23/14 4/24/14
f 14/25/15 12/26/16 5/5/15
f 6/27/17 13/28/18 4/29/17
f 9/18/10 15/30/19 16/31/19
f 16/31/19 17/32/11 12/33/11
f 3/3/2 18/34/20 15/35/21
f 18/34/20 17/36/18 15/35/21
f 9/11/6 19/37/22 10/12/6
f 16/38/23 20/39/16 19/37/22
f 10/14/8 18/40/24 2/15/8
f 19/41/24 13/42/13 18/40/24
f 21/43/25 22/44/26 23/45/25
f 24/46/27 25/47/28 22/44/26
f 24/46/27 26/48/29 27/49/30
f 28/50/31 29/51/32 30/52/33
f 31/53/34 32/54/35 33/55/35
f 34/56/36 35/57/37 31/53/34
f 35/57/37 36/58/38 37/59/39
f 38/60/40 39/61/41 40/62/42
f 41/63/43 42/64/43 43/65/43
f 44/66/3 34/67/44 45/68/3
f 46/69/4 47/70/4 48/71/4
f 49/72/45 37/73/46 50/74/46
f 28/75/47 34/67/44 25/76/44
f 26/77/48 51/78/49 27/79/49
f 26/80/50 37/73/46 36/81/50
f 29/82/51 39/83/52 30/84/52
f 21/85/4 52/86/45 49/72/45
f 44/66/3 53/87/3 54/88/3
f 54/88/3 55/89/3 41/90/3
f 33/55/35 47/91/53 56/92/53
f 56/92/53 57/93/54 42/94/54
f 48/95/55 23/45/25 58/96/55
f 46/97/56 58/96/55 43/65/56
f 48/71/4 32/98/4 21/85/4
f 43/65/56 54/99/55 41/63/56
f 58/96/55 44/100/25 54/99/55
f 53/101/53 42/94/54 55/102/54
f 45/103/35 56/92/53 53/101/53
f 27/79/49 40/104/51 29/82/51
f 43/65/43 57/105/43 46/97/43
f 40/62/42 35/57/37 38/60/40
f 31/53/34 37/59/39 52/106/57
f 34/56/36 33/55/35 45/103/35
f 24/46/27 29/51/32 28/50/31
f 50/107/58 22/44/26 49/108/59
f 23/45/25 25/47/28 44/100/25
f 30/52/60 38/109/60 28/110/60
f 1/1/1 8/111/1 2/2/2
f 4/4/3 14/25/3 5/5/3
f 1/7/4 11/112/4 7/8/4
f 7/10/5 11/113/5 9/11/6
f 8/13/7 7/114/7 10/14/8
f 11/16/9 1/115/9 3/17/10
f 12/19/11 17/116/11 6/20/12
f 13/22/13 20/117/13 14/23/14
f 14/25/15 20/118/16 12/26/16
f 6/27/17 17/119/18 13/28/18
f 9/18/10 3/17/10 15/30/19
f 16/31/19 15/30/19 17/32/11
f 3/3/2 2/2/2 18/34/20
f 18/34/20 13/120/18 17/36/18
f 9/11/6 16/38/23 19/37/22
f 16/38/23 12/121/16 20/39/16
f 10/14/8 19/41/24 18/40/24
f 19/41/24 20/122/13 13/42/13
f 21/43/25 49/108/59 22/44/26
f 24/46/27 28/50/31 25/47/28
f 24/46/27 50/107/58 26/48/29
f 31/53/34 52/106/57 32/54/35
f 34/56/36 38/60/40 35/57/37
f 35/57/37 51/123/61 36/58/38
f 41/63/43 55/124/43 42/64/43
f 44/66/3 25/76/44 34/67/44
f 46/69/4 57/125/4 47/70/4
f 49/72/45 52/86/45 37/73/46
f 28/75/47 38/126/47 34/67/44
f 26/77/48 36/127/48 51/78/49
f 26/80/50 50/74/46 37/73/46
f 29/82/51 40/104/51 39/83/52
f 21/85/4 32/98/4 52/86/45
f 44/66/3 45/68/3 53/87/3
f 54/88/3 53/87/3 55/89/3
f 33/55/35 32/54/35 47/91/53
f 56/92/53 47/91/53 57/93/54
f 48/95/55 21/43/25 23/45/25
f 46/97/56 48/95/55 58/96/55
f 48/71/4 47/70/4 32/98/4
f 43/65/56 58/96/55 54/99/55
f 58/96/55 23/45/25 44/100/25
f 53/101/53 56/92/53 42/94/54
f 45/103/35 33/55/35 56/92/53
f 27/79/49 51/78/49 40/104/51
f 43/65/43 42/64/43 57/105/43
f 40/62/42 51/123/61 35/57/37
f 31/53/34 35/57/37 37/59/39
f 34/56/36 31/53/34 33/55/35
f 24/46/27 27/49/30 29/51/32
f 50/107/58 24/46/27 22/44/26
f 23/45/25 22/44/26 25/47/28
f 30/52/60 39/61/60 38/109/60
