# Blender v2.79 (sub 0) OBJ File: 'all.blend'
# www.blender.org
o Buckler
v -0.165924 -0.167568 0.199558
v 0.165842 -0.167568 0.199558
v -0.165924 0.164198 0.199558
v 0.165842 0.164198 0.199558
v -0.279384 -0.281028 0.131980
v 0.279302 -0.281028 0.131980
v -0.279384 0.277657 0.131980
v 0.279302 0.277657 0.131980
v -0.279384 0.277657 0.168184
v -0.279384 -0.281028 0.168184
v 0.279302 -0.281028 0.168184
v 0.279302 0.277657 0.168184
v -0.249298 0.247571 0.168184
v -0.249298 -0.250942 0.168184
v 0.249216 -0.250942 0.168184
v 0.249216 0.247571 0.168184
v -0.242416 0.240690 0.156296
v -0.242416 -0.244060 0.156296
v 0.242334 -0.244060 0.156296
v 0.242334 0.240690 0.156296
v -0.235534 0.233808 0.168184
v -0.235534 -0.237178 0.168184
v 0.235452 -0.237178 0.168184
v 0.235452 0.233808 0.168184
v -0.179833 0.178107 0.168184
v -0.179833 -0.181477 0.168184
v 0.179751 -0.181477 0.168184
v 0.179751 0.178107 0.168184
v -0.260989 -0.263713 0.131496
v 0.259754 -0.263713 0.131496
v -0.260989 0.257031 0.131496
v 0.259754 0.257031 0.131496
v -0.260989 -0.263713 0.142591
v 0.259754 -0.263713 0.142591
v -0.260989 0.257031 0.142591
v 0.259754 0.257031 0.142591
v 0.266188 0.266188 0.143659
v -0.266188 0.266188 0.143659
v 0.266188 -0.266188 0.143659
v -0.266188 -0.266188 0.143659
v -0.030883 -0.226615 0.150536
v -0.030883 0.211373 0.151675
v -0.030883 -0.226615 -0.234043
v -0.030883 0.211373 -0.233374
v 0.030788 -0.226615 0.150536
v 0.030788 0.211373 0.151675
v 0.030788 -0.226615 -0.234043
v 0.030788 0.211373 -0.233374
v -0.030883 -0.166283 0.156381
v -0.030883 0.151042 0.157330
v -0.030883 0.151042 -0.230063
v -0.030883 -0.166283 -0.230615
v 0.030788 0.151042 -0.230063
v 0.030788 -0.166283 -0.230615
v 0.030788 0.151042 0.157330
v 0.030788 -0.166283 0.156381
v -0.030883 -0.226615 -0.165915
v -0.030883 0.211373 -0.165108
v 0.030788 -0.226615 -0.165915
v 0.030788 0.211373 -0.165108
v 0.030788 -0.166283 -0.161790
v 0.030788 0.151042 -0.161127
v -0.030883 -0.166283 -0.161790
v -0.030883 0.151042 -0.161127
vt 0.688245 0.561755
vt 0.561755 0.688245
vt 0.561755 0.561755
vt 0.719270 0.719270
vt 0.530730 0.719270
vt 0.719270 0.719270
vt 0.530730 0.530730
vt 0.719270 0.530730
vt 0.530730 0.530730
vt 0.719270 0.530730
vt 0.523438 0.726562
vt 0.534376 0.534376
vt 0.534376 0.715624
vt 0.523438 0.523438
vt 0.715624 0.534376
vt 0.726562 0.523438
vt 0.715624 0.715624
vt 0.726562 0.726562
vt 0.536878 0.536878
vt 0.536878 0.713122
vt 0.713122 0.536878
vt 0.713122 0.713122
vt 0.539380 0.710620
vt 0.710620 0.710620
vt 0.710620 0.539380
vt 0.539380 0.539380
vt 0.559632 0.559632
vt 0.559632 0.690368
vt 0.690368 0.559632
vt 0.690368 0.690368
vt 0.688245 0.688245
vt 0.210938 0.289062
vt 0.046875 0.460938
vt 0.046875 0.289062
vt 0.719270 0.719270
vt 0.530730 0.719270
vt 0.719270 0.530730
vt 0.530730 0.719270
vt 0.719270 0.530730
vt 0.530730 0.719270
vt 0.530730 0.530730
vt 0.719270 0.719270
vt 0.530730 0.530730
vt 0.367188 0.250000
vt 0.421875 0.195312
vt 0.367188 0.195312
vt 0.468750 0.250000
vt 0.421875 0.203125
vt 0.468750 0.203125
vt 0.367188 0.195312
vt 0.296875 0.250000
vt 0.296875 0.195312
vt 0.468750 0.171875
vt 0.421875 0.250000
vt 0.421875 0.171875
vt 0.468750 0.171875
vt 0.421875 0.250000
vt 0.421875 0.171875
vt 0.367188 0.054688
vt 0.296875 0.000000
vt 0.367188 0.000000
vt 0.468750 0.046875
vt 0.421875 0.000000
vt 0.468750 0.000000
vt 0.421875 0.046875
vt 0.367188 0.000000
vt 0.421875 0.054688
vt 0.421875 0.000000
vt 0.367188 0.054688
vt 0.296875 0.000000
vt 0.421875 0.195312
vt 0.421875 0.054688
vt 0.468750 0.125000
vt 0.421875 0.125000
vt 0.468750 0.125000
vt 0.421875 0.125000
vt 0.367188 0.250000
vt 0.296875 0.250000
vt 0.296875 0.195312
vt 0.367188 0.101562
vt 0.296875 0.054688
vt 0.296875 0.101562
vt 0.367188 0.054688
vt 0.367188 0.101562
vt 0.414062 0.054688
vt 0.210938 0.460938
vt 0.421875 0.250000
vt 0.421875 0.250000
vt 0.468750 0.250000
vt 0.468750 0.250000
vt 0.296875 0.054688
vt 0.296875 0.101562
vt 0.296875 0.054688
vt 0.414062 0.195312
vn 0.0000 -0.0000 1.0000
vn 0.0000 1.0000 0.0000
vn 0.0000 -1.0000 0.0000
vn 1.0000 -0.0000 0.0000
vn -1.0000 0.0000 0.0000
vn 0.8655 -0.0000 0.5010
vn 0.0000 0.8655 0.5010
vn -0.8655 0.0000 0.5010
vn 0.0000 -0.8655 0.5010
vn -0.9142 -0.0000 0.4053
vn 0.0000 -0.9142 0.4053
vn 0.9142 -0.0000 0.4053
vn 0.0000 0.9142 0.4053
vn 0.0000 0.0235 -0.9997
vn 0.0000 -0.0280 -0.9996
vn 0.0248 0.0000 -0.9997
vn -0.0263 0.0000 -0.9997
vn 0.0000 -0.0548 -0.9985
vn 0.0000 0.0567 -0.9984
vn 0.0000 0.0017 -1.0000
vn 0.0000 -0.0021 1.0000
s off
f 2/1/1 3/2/1 1/3/1
f 8/4/2 9/5/2 12/6/2
f 5/7/3 11/8/3 10/9/3
f 6/10/4 12/6/4 11/8/4
f 9/5/5 5/7/5 10/9/5
f 9/11/1 14/12/1 13/13/1
f 10/14/1 15/15/1 14/12/1
f 11/16/1 16/17/1 15/15/1
f 12/18/1 13/13/1 16/17/1
f 13/13/6 18/19/6 17/20/6
f 14/12/7 19/21/7 18/19/7
f 15/15/8 20/22/8 19/21/8
f 16/17/9 17/20/9 20/22/9
f 20/22/7 21/23/7 24/24/7
f 19/21/6 24/24/6 23/25/6
f 18/19/9 23/25/9 22/26/9
f 17/20/8 22/26/8 21/23/8
f 21/23/1 26/27/1 25/28/1
f 22/26/1 27/29/1 26/27/1
f 23/25/1 28/30/1 27/29/1
f 24/24/1 25/28/1 28/30/1
f 25/28/10 1/3/10 3/2/10
f 26/27/11 2/1/11 1/3/11
f 27/29/12 4/31/12 2/1/12
f 28/30/13 3/2/13 4/31/13
f 39/32/1 38/33/1 40/34/1
f 32/35/14 7/36/14 8/4/14
f 5/7/15 30/37/15 6/10/15
f 6/10/16 32/35/16 8/4/16
f 31/38/17 5/7/17 7/36/17
f 34/39/5 32/35/5 30/37/5
f 35/40/4 29/41/4 31/38/4
f 36/42/3 31/38/3 32/35/3
f 33/43/2 30/37/2 29/41/2
f 58/44/5 51/45/5 64/46/5
f 44/47/18 53/48/18 51/49/18
f 62/50/4 46/51/4 55/52/4
f 59/53/3 41/54/3 57/55/3
f 58/56/2 46/57/2 60/58/2
f 61/59/4 45/60/4 59/61/4
f 52/62/19 47/63/19 43/64/19
f 51/49/20 54/65/20 52/62/20
f 57/66/5 52/67/5 43/68/5
f 63/69/5 51/45/5 52/67/5
f 41/70/5 63/69/5 57/66/5
f 53/71/4 61/59/4 54/72/4
f 54/72/4 59/61/4 47/63/4
f 44/73/2 60/58/2 48/74/2
f 47/75/3 57/55/3 43/76/3
f 53/71/4 60/77/4 62/50/4
f 42/78/5 64/46/5 50/79/5
f 63/80/2 56/81/2 61/59/2
f 55/82/3 64/83/3 62/84/3
f 61/85/21 64/46/21 63/69/21
f 2/1/1 4/31/1 3/2/1
f 8/4/2 7/36/2 9/5/2
f 5/7/3 6/10/3 11/8/3
f 6/10/4 8/4/4 12/6/4
f 9/5/5 7/36/5 5/7/5
f 9/11/1 10/14/1 14/12/1
f 10/14/1 11/16/1 15/15/1
f 11/16/1 12/18/1 16/17/1
f 12/18/1 9/11/1 13/13/1
f 13/13/6 14/12/6 18/19/6
f 14/12/7 15/15/7 19/21/7
f 15/15/8 16/17/8 20/22/8
f 16/17/9 13/13/9 17/20/9
f 20/22/7 17/20/7 21/23/7
f 19/21/6 20/22/6 24/24/6
f 18/19/9 19/21/9 23/25/9
f 17/20/8 18/19/8 22/26/8
f 21/23/1 22/26/1 26/27/1
f 22/26/1 23/25/1 27/29/1
f 23/25/1 24/24/1 28/30/1
f 24/24/1 21/23/1 25/28/1
f 25/28/10 26/27/10 1/3/10
f 26/27/11 27/29/11 2/1/11
f 27/29/12 28/30/12 4/31/12
f 28/30/13 25/28/13 3/2/13
f 39/32/1 37/86/1 38/33/1
f 32/35/14 31/38/14 7/36/14
f 5/7/15 29/41/15 30/37/15
f 6/10/16 30/37/16 32/35/16
f 31/38/17 29/41/17 5/7/17
f 34/39/5 36/42/5 32/35/5
f 35/40/4 33/43/4 29/41/4
f 36/42/3 35/40/3 31/38/3
f 33/43/2 34/39/2 30/37/2
f 58/44/5 44/87/5 51/45/5
f 44/47/18 48/88/18 53/48/18
f 62/50/4 60/77/4 46/51/4
f 59/53/3 45/89/3 41/54/3
f 58/56/2 42/90/2 46/57/2
f 61/59/4 56/81/4 45/60/4
f 52/62/19 54/65/19 47/63/19
f 51/49/20 53/48/20 54/65/20
f 57/66/5 63/69/5 52/67/5
f 63/69/5 64/46/5 51/45/5
f 41/70/5 49/91/5 63/69/5
f 53/71/4 62/50/4 61/59/4
f 54/72/4 61/59/4 59/61/4
f 44/73/2 58/56/2 60/58/2
f 47/75/3 59/53/3 57/55/3
f 53/71/4 48/88/4 60/77/4
f 42/78/5 58/44/5 64/46/5
f 63/80/2 49/92/2 56/81/2
f 55/82/3 50/93/3 64/83/3
f 61/85/21 62/94/21 64/46/21
