# Blender v2.79 (sub 0) OBJ File: 'n10.blend'
# www.blender.org
o Cinqueda
v -1.745304 4.041097 0.210494
v 1.745304 4.041097 0.210494
v -1.079915 21.262585 0.210500
v 1.079915 21.262585 0.210500
v 0.000000 4.041097 0.210500
v 0.000000 23.724487 0.210500
v -1.745304 4.041097 -0.210494
v 1.745304 4.041097 -0.210494
v -1.079915 21.262585 -0.210500
v 1.079915 21.262585 -0.210500
v 0.000000 4.041097 -0.210500
v 0.000000 23.724487 -0.210500
v -2.204567 4.041097 0.000000
v 2.204567 4.041097 0.000000
v -1.364086 21.262585 0.000000
v 1.364086 21.262585 0.000000
v 0.000000 24.265652 0.000000
v -1.000000 -5.033214 1.000000
v -1.000000 -3.033214 1.000000
v -1.000000 -5.033214 -1.000000
v -1.000000 -3.033214 -1.000000
v 1.000000 -5.033214 1.000000
v 1.000000 -3.033214 1.000000
v 1.000000 -5.033214 -1.000000
v 1.000000 -3.033214 -1.000000
v -3.492695 3.386583 0.523586
v -3.492695 4.537674 0.523586
v -3.492695 3.386583 -0.523586
v -3.492695 4.537674 -0.523586
v -1.746348 3.083921 -0.914821
v -1.746348 4.235012 0.914821
v -1.746348 4.235012 -0.914821
v -1.746348 3.083921 0.914821
v 3.492695 3.386583 0.523586
v 3.492695 4.537674 0.523586
v 3.492695 3.386583 -0.523586
v 3.492695 4.537674 -0.523586
v 0.000000 3.083921 -1.306056
v 0.000000 4.235012 -1.306056
v 0.000000 3.083921 1.306056
v 0.000000 4.235012 1.306056
v 1.746348 3.083921 -0.914821
v 1.746348 4.235012 0.914821
v 1.746348 4.235012 -0.914821
v 1.746348 3.083921 0.914821
v -0.821255 -3.270736 0.821255
v -0.864002 3.270736 0.864002
v -0.821255 -3.270736 -0.821255
v -0.864002 3.270736 -0.864002
v 0.821255 -3.270736 0.821255
v 0.864002 3.270736 0.864002
v 0.821255 -3.270736 -0.821255
v 0.864002 3.270736 -0.864002
v -0.987623 -1.090245 0.987623
v -0.987623 1.090245 0.987623
v -0.987623 1.090245 -0.987623
v -0.987623 -1.090245 -0.987623
v 0.987623 1.090245 -0.987623
v 0.987623 -1.090245 -0.987623
v 0.987623 1.090245 0.987623
v 0.987623 -1.090245 0.987623
vt 0.203125 0.000000
vt 0.226450 0.335938
vt 0.203125 0.371094
vt 0.179800 0.335938
vt 0.179688 0.000000
vt 0.203125 0.000000
vt 0.226450 0.335938
vt 0.226562 0.000000
vt 0.179800 0.335938
vt 0.179688 0.000000
vt 0.179800 0.335938
vt 0.179688 0.000000
vt 0.226450 0.335938
vt 0.203125 0.371094
vt 0.203125 0.371094
vt 0.226562 0.000000
vt 0.937500 0.000000
vt 1.000000 0.062500
vt 0.937500 0.062500
vt 0.937500 0.000000
vt 1.000000 0.062500
vt 0.937500 0.062500
vt 1.000000 0.062500
vt 0.937500 0.000000
vt 1.000000 0.000000
vt 1.000000 0.062500
vt 0.937500 0.000000
vt 1.000000 0.000000
vt 0.937500 0.000000
vt 0.937500 0.062500
vt 1.000000 0.000000
vt 0.843750 0.812500
vt 0.906250 0.875000
vt 0.843750 0.875000
vt 0.953125 0.875000
vt 1.000000 0.812500
vt 0.953125 0.812500
vt 1.000000 0.812500
vt 0.953125 0.750000
vt 0.953125 0.812500
vt 0.906250 0.750000
vt 0.953125 0.750000
vt 0.906250 0.875000
vt 0.953125 0.875000
vt 1.000000 0.875000
vt 1.000000 0.750000
vt 0.906250 0.750000
vt 0.906250 0.812500
vt 0.906250 0.875000
vt 0.906250 0.812500
vt 0.906250 0.875000
vt 0.843750 0.812500
vt 0.843750 0.875000
vt 1.000000 0.812500
vt 0.953125 0.875000
vt 0.953125 0.812500
vt 0.953125 0.750000
vt 1.000000 0.812500
vt 0.953125 0.812500
vt 0.953125 0.750000
vt 0.953125 0.875000
vt 1.000000 0.875000
vt 1.000000 0.750000
vt 0.125000 0.812500
vt 0.062500 0.751302
vt 0.125000 0.751302
vt 0.125000 0.812500
vt 0.062500 0.751302
vt 0.125000 0.751302
vt 0.125000 0.812500
vt 0.062500 0.751302
vt 0.125000 0.751302
vt 0.125000 0.812500
vt 0.062500 0.751302
vt 0.125000 0.751302
vt 0.125000 0.690104
vt 0.062500 0.628906
vt 0.125000 0.628906
vt 0.062500 0.690104
vt 0.125000 0.690104
vt 0.062500 0.628906
vt 0.125000 0.628906
vt 0.062500 0.690104
vt 0.125000 0.690104
vt 0.062500 0.628906
vt 0.125000 0.628906
vt 0.062500 0.690104
vt 0.125000 0.690104
vt 0.062500 0.628906
vt 0.125000 0.628906
vt 0.062500 0.690104
vt 0.226562 0.000000
vt 1.000000 0.000000
vt 1.000000 0.000000
vt 0.937500 0.062500
vt 0.937500 0.062500
vt 1.000000 0.062500
vt 0.906250 0.812500
vt 1.000000 0.875000
vt 1.000000 0.750000
vt 0.906250 0.812500
vt 1.000000 0.875000
vt 1.000000 0.750000
vt 0.062500 0.812500
vt 0.062500 0.812500
vt 0.062500 0.812500
vt 0.062500 0.812500
vn -0.0000 0.0000 1.0000
vn 0.0000 -0.0000 -1.0000
vn -0.4166 0.0203 -0.9089
vn 0.5951 0.0230 -0.8033
vn -0.5759 0.2526 -0.7775
vn 0.6238 0.2833 -0.7284
vn 0.6238 0.2833 0.7284
vn -0.5759 0.2526 0.7775
vn 0.5951 0.0230 0.8033
vn -0.4166 0.0203 0.9089
vn -1.0000 0.0000 0.0000
vn 1.0000 0.0000 0.0000
vn 0.0000 -1.0000 0.0000
vn 0.0000 1.0000 0.0000
vn -0.2186 0.0000 0.9758
vn 0.1708 0.9853 0.0000
vn -0.2186 0.0000 -0.9758
vn -0.1708 -0.9853 0.0000
vn 0.2186 0.0000 0.9758
vn -0.1708 0.9853 0.0000
vn 0.2186 0.0000 -0.9758
vn 0.1708 -0.9853 0.0000
vn -0.9984 0.0566 0.0000
vn 0.0000 0.0566 -0.9984
vn 0.9984 0.0566 0.0000
vn 0.0000 0.0566 0.9984
vn 0.0000 -0.0761 0.9971
vn 0.9971 -0.0761 0.0000
vn 0.0000 -0.0761 -0.9971
vn -0.9971 -0.0761 0.0000
vn -0.5951 0.0230 -0.8033
vn 0.4166 0.0203 -0.9089
vn -0.6238 0.2833 -0.7284
vn 0.5759 0.2526 -0.7775
vn 0.5759 0.2526 0.7775
vn -0.6238 0.2833 0.7284
vn 0.4166 0.0203 0.9089
vn -0.5951 0.0230 0.8033
s off
f 5/1/1 4/2/1 6/3/1
f 5/1/1 3/4/1 1/5/1
f 11/6/2 10/7/2 8/8/2
f 9/9/2 11/6/2 7/10/2
f 15/11/3 7/10/3 13/12/3
f 16/13/4 8/8/4 10/7/4
f 15/11/5 12/14/5 9/9/5
f 16/13/6 12/14/6 17/15/6
f 6/3/7 16/13/7 17/15/7
f 6/3/8 15/11/8 3/4/8
f 2/16/9 16/13/9 4/2/9
f 1/5/10 15/11/10 13/12/10
f 19/17/11 20/18/11 18/19/11
f 21/20/2 24/21/2 20/22/2
f 25/23/12 22/24/12 24/25/12
f 23/26/1 18/27/1 22/28/1
f 24/25/13 18/19/13 20/29/13
f 21/30/14 23/31/14 25/23/14
f 27/32/11 28/33/11 26/34/11
f 31/35/15 26/36/15 33/37/15
f 29/38/16 31/39/16 32/40/16
f 38/41/13 33/37/13 30/42/13
f 32/40/17 38/43/17 30/44/17
f 28/45/17 32/40/17 30/44/17
f 30/42/18 26/36/18 28/46/18
f 32/40/14 41/47/14 39/48/14
f 41/49/15 33/37/15 40/50/15
f 36/51/12 35/52/12 34/53/12
f 34/54/19 43/55/19 45/56/19
f 43/57/20 37/58/20 44/59/20
f 45/56/13 38/41/13 42/60/13
f 38/43/21 44/59/21 42/61/21
f 36/62/21 44/59/21 37/58/21
f 34/54/22 42/60/22 36/63/22
f 41/47/14 44/59/14 39/48/14
f 45/56/19 41/49/19 40/50/19
f 47/64/23 56/65/23 55/66/23
f 49/67/24 58/68/24 56/69/24
f 53/70/25 60/71/25 58/72/25
f 51/73/26 55/74/26 60/75/26
f 61/76/27 46/77/27 50/78/27
f 60/75/1 54/79/1 61/76/1
f 59/80/28 50/81/28 52/82/28
f 58/72/12 61/83/12 59/80/12
f 57/84/29 52/85/29 48/86/29
f 56/69/2 59/87/2 57/84/2
f 54/88/30 48/89/30 46/90/30
f 55/66/11 57/91/11 54/88/11
f 5/1/1 2/16/1 4/2/1
f 5/1/1 6/3/1 3/4/1
f 11/6/2 12/14/2 10/7/2
f 9/9/2 12/14/2 11/6/2
f 15/11/31 9/9/31 7/10/31
f 16/13/32 14/92/32 8/8/32
f 15/11/33 17/15/33 12/14/33
f 16/13/34 10/7/34 12/14/34
f 6/3/35 4/2/35 16/13/35
f 6/3/36 17/15/36 15/11/36
f 2/16/37 14/92/37 16/13/37
f 1/5/38 3/4/38 15/11/38
f 19/17/11 21/93/11 20/18/11
f 21/20/2 25/94/2 24/21/2
f 25/23/12 23/95/12 22/24/12
f 23/26/1 19/96/1 18/27/1
f 24/25/13 22/97/13 18/19/13
f 21/30/14 19/17/14 23/31/14
f 27/32/11 29/98/11 28/33/11
f 31/35/15 27/99/15 26/36/15
f 29/38/16 27/100/16 31/39/16
f 38/41/13 40/50/13 33/37/13
f 32/40/17 39/48/17 38/43/17
f 28/45/17 29/38/17 32/40/17
f 30/42/18 33/37/18 26/36/18
f 32/40/14 31/39/14 41/47/14
f 41/49/15 31/35/15 33/37/15
f 36/51/12 37/101/12 35/52/12
f 34/54/19 35/102/19 43/55/19
f 43/57/20 35/103/20 37/58/20
f 45/56/13 40/50/13 38/41/13
f 38/43/21 39/48/21 44/59/21
f 36/62/21 42/61/21 44/59/21
f 34/54/22 45/56/22 42/60/22
f 41/47/14 43/57/14 44/59/14
f 45/56/19 43/55/19 41/49/19
f 47/64/23 49/104/23 56/65/23
f 49/67/24 53/105/24 58/68/24
f 53/70/25 51/106/25 60/71/25
f 51/73/26 47/107/26 55/74/26
f 61/76/27 54/79/27 46/77/27
f 60/75/1 55/74/1 54/79/1
f 59/80/28 61/83/28 50/81/28
f 58/72/12 60/71/12 61/83/12
f 57/84/29 59/87/29 52/85/29
f 56/69/2 58/68/2 59/87/2
f 54/88/30 57/91/30 48/89/30
f 55/66/11 56/65/11 57/91/11
