# Blender v2.79 (sub 0) OBJ File: 'all.blend'
# www.blender.org
o Cinqueda
v 0.000000 0.248371 0.014209
v 0.072894 1.410822 0.014209
v 0.000000 1.576999 0.014209
v -0.072894 1.410822 0.014209
v -0.117808 0.248371 0.014208
v 0.000000 0.248371 -0.014209
v 0.072894 1.410822 -0.014209
v 0.117808 0.248371 -0.014208
v -0.072894 1.410822 -0.014209
v -0.117808 0.248371 -0.014208
v -0.092076 1.410822 0.000000
v -0.148808 0.248371 0.000000
v 0.092076 1.410822 0.000000
v 0.000000 1.576999 -0.014208
v 0.000000 1.613528 0.000000
v 0.117808 0.248371 0.014208
v -0.067500 -0.229145 0.067500
v -0.067500 -0.364145 -0.067500
v -0.067500 -0.364145 0.067500
v -0.067500 -0.229145 -0.067500
v 0.067500 -0.364145 -0.067500
v 0.067500 -0.229145 -0.067500
v 0.067500 -0.364145 0.067500
v 0.067500 -0.229145 0.067500
v -0.235757 0.281890 0.035342
v -0.235757 0.204191 -0.035342
v -0.235757 0.204191 0.035342
v -0.117878 0.261460 0.061750
v -0.117878 0.183761 0.061750
v -0.235757 0.281890 -0.035342
v -0.117878 0.261460 -0.061750
v 0.000000 0.183761 -0.088159
v -0.117878 0.183761 -0.061750
v 0.000000 0.261460 0.088159
v 0.000000 0.261460 -0.088159
v 0.000000 0.183761 0.088159
v 0.235757 0.204191 -0.035342
v 0.235757 0.281890 0.035342
v 0.235757 0.204191 0.035342
v 0.117878 0.261460 0.061750
v 0.117878 0.183761 0.061750
v 0.235757 0.281890 -0.035342
v 0.117878 0.261460 -0.061750
v 0.117878 0.183761 -0.061750
v -0.058320 0.196371 0.058320
v -0.066665 0.049188 -0.066665
v -0.066665 0.049188 0.066665
v -0.058320 0.196371 -0.058320
v 0.066665 0.049188 -0.066665
v 0.058320 0.196371 -0.058320
v 0.066665 0.049188 0.066665
v 0.058320 0.196371 0.058320
v 0.066665 -0.097995 0.066665
v -0.055435 -0.245178 0.055435
v 0.055435 -0.245178 0.055435
v -0.066665 -0.097995 0.066665
v 0.066665 -0.097995 -0.066665
v 0.055435 -0.245178 -0.055435
v -0.066665 -0.097995 -0.066665
v -0.055435 -0.245178 -0.055435
v 0.148808 0.248371 0.000000
vt 0.203125 0.001846
vt 0.225645 0.334442
vt 0.203125 0.369248
vt 0.180605 0.334442
vt 0.180497 0.001846
vt 0.203125 0.001846
vt 0.225645 0.334442
vt 0.225753 0.001846
vt 0.180605 0.334442
vt 0.180497 0.001846
vt 0.182688 0.334442
vt 0.182590 0.001846
vt 0.182590 0.001846
vt 0.223562 0.334442
vt 0.223660 0.001846
vt 0.223562 0.334442
vt 0.203125 0.369248
vt 0.182688 0.334442
vt 0.203125 0.369248
vt 0.182688 0.334442
vt 0.223660 0.001846
vt 0.223562 0.334442
vt 0.182590 0.001846
vt 0.937500 0.000000
vt 1.000000 0.062500
vt 0.937500 0.062500
vt 0.937500 0.000000
vt 1.000000 0.062500
vt 0.937500 0.062500
vt 1.000000 0.062500
vt 0.937500 0.000000
vt 1.000000 0.000000
vt 1.000000 0.062500
vt 0.937500 0.000000
vt 1.000000 0.000000
vt 0.937500 0.000000
vt 0.937500 0.062500
vt 1.000000 0.000000
vt 0.843750 0.812500
vt 0.906250 0.875000
vt 0.843750 0.875000
vt 0.953125 0.875000
vt 1.000000 0.812500
vt 0.953125 0.812500
vt 1.000000 0.812500
vt 0.953125 0.750000
vt 0.953125 0.812500
vt 0.906250 0.750000
vt 0.953125 0.750000
vt 0.906250 0.875000
vt 0.953125 0.875000
vt 1.000000 0.875000
vt 1.000000 0.750000
vt 0.906250 0.750000
vt 0.906250 0.812500
vt 0.906250 0.875000
vt 0.906250 0.812500
vt 0.906250 0.875000
vt 0.843750 0.812500
vt 0.843750 0.875000
vt 1.000000 0.812500
vt 0.953125 0.875000
vt 0.953125 0.812500
vt 0.953125 0.750000
vt 1.000000 0.812500
vt 0.953125 0.812500
vt 0.953125 0.750000
vt 0.953125 0.875000
vt 1.000000 0.875000
vt 1.000000 0.750000
vt 0.125000 0.812500
vt 0.062500 0.751302
vt 0.125000 0.751302
vt 0.125000 0.812500
vt 0.062500 0.751302
vt 0.125000 0.751302
vt 0.125000 0.812500
vt 0.062500 0.751302
vt 0.125000 0.751302
vt 0.125000 0.812500
vt 0.062500 0.751302
vt 0.125000 0.751302
vt 0.125000 0.690104
vt 0.062500 0.628906
vt 0.125000 0.628906
vt 0.062500 0.690104
vt 0.125000 0.690104
vt 0.062500 0.628906
vt 0.125000 0.628906
vt 0.062500 0.690104
vt 0.125000 0.690104
vt 0.062500 0.628906
vt 0.125000 0.628906
vt 0.062500 0.690104
vt 0.125000 0.690104
vt 0.062500 0.628906
vt 0.125000 0.628906
vt 0.062500 0.690104
vt 0.225753 0.001846
vt 0.223660 0.001846
vt 1.000000 0.000000
vt 1.000000 0.000000
vt 0.937500 0.062500
vt 0.937500 0.062500
vt 1.000000 0.062500
vt 0.906250 0.812500
vt 1.000000 0.875000
vt 1.000000 0.750000
vt 0.906250 0.812500
vt 1.000000 0.875000
vt 1.000000 0.750000
vt 0.062500 0.812500
vt 0.062500 0.812500
vt 0.062500 0.812500
vt 0.062500 0.812500
vn 0.0000 -0.0000 1.0000
vn -0.0000 -0.0000 -1.0000
vn -0.4166 0.0203 -0.9089
vn 0.5951 0.0230 -0.8033
vn -0.5759 0.2526 -0.7775
vn 0.6238 0.2833 -0.7284
vn 0.6238 0.2833 0.7284
vn -0.5759 0.2526 0.7775
vn 0.5951 0.0230 0.8033
vn -0.4166 0.0203 0.9089
vn -1.0000 0.0000 0.0000
vn 1.0000 -0.0000 0.0000
vn 0.0000 -1.0000 0.0000
vn 0.0000 1.0000 0.0000
vn -0.2186 -0.0000 0.9758
vn 0.1708 0.9853 0.0000
vn -0.2186 0.0000 -0.9758
vn -0.1708 -0.9853 -0.0000
vn 0.2186 -0.0000 0.9758
vn -0.1708 0.9853 0.0000
vn 0.2186 0.0000 -0.9758
vn 0.1708 -0.9853 -0.0000
vn -0.9984 0.0566 0.0000
vn 0.0000 0.0566 -0.9984
vn 0.9984 0.0566 0.0000
vn 0.0000 0.0566 0.9984
vn 0.0000 -0.0761 0.9971
vn 0.9971 -0.0761 -0.0000
vn 0.0000 -0.0761 -0.9971
vn -0.9971 -0.0761 -0.0000
vn -0.5951 0.0230 -0.8033
vn 0.4166 0.0203 -0.9089
vn -0.6238 0.2833 -0.7284
vn 0.5759 0.2526 -0.7775
vn 0.5759 0.2526 0.7775
vn -0.6238 0.2833 0.7284
vn 0.4166 0.0203 0.9089
vn -0.5951 0.0230 0.8033
s 1
f 1/1/1 2/2/1 3/3/1
f 1/1/1 4/4/1 5/5/1
f 6/6/2 7/7/2 8/8/2
f 9/9/2 6/6/2 10/10/2
f 11/11/3 10/12/3 12/13/3
f 13/14/4 8/15/4 7/16/4
f 11/11/5 14/17/5 9/18/5
f 13/14/6 14/17/6 15/19/6
f 3/3/7 13/14/7 15/19/7
f 3/3/8 11/11/8 4/20/8
f 16/21/9 13/14/9 2/22/9
f 5/23/10 11/11/10 12/13/10
f 17/24/11 18/25/11 19/26/11
f 20/27/2 21/28/2 18/29/2
f 22/30/12 23/31/12 21/32/12
f 24/33/1 19/34/1 23/35/1
f 21/32/13 19/26/13 18/36/13
f 20/37/14 24/38/14 22/30/14
f 25/39/11 26/40/11 27/41/11
f 28/42/15 27/43/15 29/44/15
f 30/45/16 28/46/16 31/47/16
f 32/48/13 29/44/13 33/49/13
f 31/47/17 32/50/17 33/51/17
f 26/52/17 31/47/17 33/51/17
f 33/49/18 27/43/18 26/53/18
f 31/47/14 34/54/14 35/55/14
f 34/56/15 29/44/15 36/57/15
f 37/58/12 38/59/12 39/60/12
f 39/61/19 40/62/19 41/63/19
f 40/64/20 42/65/20 43/66/20
f 41/63/13 32/48/13 44/67/13
f 32/50/21 43/66/21 44/68/21
f 37/69/21 43/66/21 42/65/21
f 39/61/22 44/67/22 37/70/22
f 34/54/14 43/66/14 35/55/14
f 41/63/19 34/56/19 36/57/19
f 45/71/23 46/72/23 47/73/23
f 48/74/24 49/75/24 46/76/24
f 50/77/25 51/78/25 49/79/25
f 52/80/26 47/81/26 51/82/26
f 53/83/27 54/84/27 55/85/27
f 51/82/1 56/86/1 53/83/1
f 57/87/28 55/88/28 58/89/28
f 49/79/12 53/90/12 57/87/12
f 59/91/29 58/92/29 60/93/29
f 46/76/2 57/94/2 59/91/2
f 56/95/30 60/96/30 54/97/30
f 47/73/11 59/98/11 56/95/11
f 1/1/1 16/99/1 2/2/1
f 1/1/1 3/3/1 4/4/1
f 6/6/2 14/17/2 7/7/2
f 9/9/2 14/17/2 6/6/2
f 11/11/31 9/18/31 10/12/31
f 13/14/32 61/100/32 8/15/32
f 11/11/33 15/19/33 14/17/33
f 13/14/34 7/16/34 14/17/34
f 3/3/35 2/22/35 13/14/35
f 3/3/36 15/19/36 11/11/36
f 16/21/37 61/100/37 13/14/37
f 5/23/38 4/20/38 11/11/38
f 17/24/11 20/101/11 18/25/11
f 20/27/2 22/102/2 21/28/2
f 22/30/12 24/103/12 23/31/12
f 24/33/1 17/104/1 19/34/1
f 21/32/13 23/105/13 19/26/13
f 20/37/14 17/24/14 24/38/14
f 25/39/11 30/106/11 26/40/11
f 28/42/15 25/107/15 27/43/15
f 30/45/16 25/108/16 28/46/16
f 32/48/13 36/57/13 29/44/13
f 31/47/17 35/55/17 32/50/17
f 26/52/17 30/45/17 31/47/17
f 33/49/18 29/44/18 27/43/18
f 31/47/14 28/46/14 34/54/14
f 34/56/15 28/42/15 29/44/15
f 37/58/12 42/109/12 38/59/12
f 39/61/19 38/110/19 40/62/19
f 40/64/20 38/111/20 42/65/20
f 41/63/13 36/57/13 32/48/13
f 32/50/21 35/55/21 43/66/21
f 37/69/21 44/68/21 43/66/21
f 39/61/22 41/63/22 44/67/22
f 34/54/14 40/64/14 43/66/14
f 41/63/19 40/62/19 34/56/19
f 45/71/23 48/112/23 46/72/23
f 48/74/24 50/113/24 49/75/24
f 50/77/25 52/114/25 51/78/25
f 52/80/26 45/115/26 47/81/26
f 53/83/27 56/86/27 54/84/27
f 51/82/1 47/81/1 56/86/1
f 57/87/28 53/90/28 55/88/28
f 49/79/12 51/78/12 53/90/12
f 59/91/29 57/94/29 58/92/29
f 46/76/2 49/75/2 57/94/2
f 56/95/30 59/98/30 60/96/30
f 47/73/11 46/72/11 59/98/11
