# Blender v2.79 (sub 0) OBJ File: 'all.blend'
# www.blender.org
o commongugger
v -0.000000 0.805655 -0.009953
v -0.054060 0.183966 -0.009952
v 0.054060 0.183966 -0.009952
v -0.023746 0.742175 -0.009953
v -0.033790 0.677272 -0.009953
v 0.033790 0.677272 -0.009953
v 0.023746 0.742175 -0.009953
v -0.000000 0.805655 0.009953
v -0.054060 0.183966 0.009953
v 0.054060 0.183966 0.009953
v -0.023746 0.742175 0.00993
v -0.033790 0.677272 0.009953
v 0.033790 0.677272 0.009953
v 0.023746 0.742175 0.009953
v -0.000000 0.820762 -0.000000
v -0.068223 0.183966 0.000000
v 0.068223 0.183966 0.000000
v -0.029967 0.745498 -0.000000
v -0.042643 0.677272 -0.000000
v 0.042643 0.677272 -0.000000
v 0.029967 0.745498 -0.000000
v 0.121529 0.160542 0.020855
v 0.121529 0.205151 0.020855
v -0.121529 0.160542 0.020855
v -0.121529 0.205151 0.020855
v 0.121529 0.160542 -0.020855
v 0.121529 0.205151 -0.020855
v -0.121529 0.160542 -0.020855
v -0.121529 0.205151 -0.020855
v -0.049358 0.145751 0.048663
v 0.049358 0.145751 0.048663
v 0.049358 0.190359 0.048663
v -0.049358 0.190359 0.048663
v 0.049358 0.145751 -0.048663
v -0.049358 0.145751 -0.048663
v -0.049358 0.190359 -0.048663
v 0.049358 0.190359 -0.048663
v 0.045498 -0.173592 0.035575
v 0.048698 0.173592 0.038077
v -0.045498 -0.173592 0.035575
v -0.048698 0.173592 0.038077
v 0.045498 -0.173592 -0.035575
v 0.048698 0.173592 -0.038077
v -0.045498 -0.173592 -0.035575
v -0.048698 0.173592 -0.038077
v 0.056899 -0.222199 0.042646
v 0.056899 -0.165300 0.042646
v -0.056899 -0.222199 0.042646
v -0.056899 -0.165300 0.042646
v 0.056899 -0.222199 -0.042646
v 0.056899 -0.165300 -0.042646
v -0.056899 -0.222199 -0.042646
v -0.056899 -0.165300 -0.042646
v 0.055237 0.000000 0.043190
v -0.055237 0.000000 0.043190
v -0.055237 0.000000 -0.043190
v 0.055237 0.000000 -0.043190
v 0.074532 0.186286 0.013925
v 0.074532 0.234928 0.013925
v -0.074532 0.186286 0.013925
v -0.074532 0.234928 0.013925
v 0.074532 0.186286 -0.013925
v 0.074532 0.234928 -0.013925
v -0.074532 0.186286 -0.013925
v -0.074532 0.234928 -0.013925
v -0.074532 0.186286 0.000000
v -0.074532 0.234928 0.000000
v 0.074532 0.186286 -0.000000
v 0.074532 0.234928 -0.000000
v 0.000000 0.186286 0.026487
v 0.000000 0.234928 0.026487
v -0.000000 0.186286 -0.026487
v -0.000000 0.234928 -0.026487
v 0.000000 0.234928 0.000000
v 0.000000 0.186286 0.000000
vt 0.034009 0.445660
vt 0.090991 0.445660
vt 0.054688 0.492188
vt 0.021991 0.395835
vt 0.103009 0.395835
vt 0.000000 0.000000
vt 0.034009 0.445660
vt 0.054688 0.492188
vt 0.090991 0.445660
vt 0.103009 0.395835
vt 0.000000 0.000000
vt 0.021991 0.395835
vt 0.062500 0.478104
vt 0.085872 0.434239
vt 0.062500 0.478104
vt 0.039128 0.434239
vt 0.062500 0.478104
vt 0.039128 0.434239
vt 0.095730 0.387266
vt 0.085872 0.434239
vt 0.029270 0.387266
vt 0.029270 0.387266
vt 0.011230 0.014084
vt 0.011230 0.014084
vt 0.113770 0.014084
vt 0.095730 0.387266
vt 0.113770 0.014084
vt 0.095730 0.387266
vt 0.011230 0.014084
vt 0.039128 0.434239
vt 0.029270 0.387266
vt 0.085872 0.434239
vt 0.304688 0.937500
vt 0.375000 1.000000
vt 0.304688 1.000000
vt 0.375000 0.937500
vt 0.437500 0.812500
vt 0.437500 0.937500
vt 0.203125 1.000000
vt 0.125000 0.937500
vt 0.203125 0.937500
vt 0.437500 0.812500
vt 0.375000 0.937500
vt 0.375000 0.812500
vt 0.125000 0.812500
vt 0.203125 0.812500
vt 0.203125 0.937500
vt 0.125000 0.812500
vt 0.203125 0.812500
vt 0.375000 0.812500
vt 0.304688 0.812500
vt 0.375000 0.937500
vt 0.296875 0.812500
vt 0.375000 0.812500
vt 0.296875 0.937500
vt 0.304688 1.000000
vt 0.304688 0.937500
vt 0.125000 1.000000
vt 0.203125 1.000000
vt 0.125000 1.000000
vt 0.000000 0.875000
vt 0.125000 0.875000
vt 0.125000 1.000000
vt 0.000000 0.875000
vt 0.125000 0.875000
vt 0.125000 1.000000
vt 0.000000 0.875000
vt 0.125000 0.875000
vt 0.125000 1.000000
vt 0.000000 0.875000
vt 0.125000 0.875000
vt -0.000000 0.562500
vt 0.125000 0.625000
vt -0.000000 0.625000
vt -0.000000 0.562500
vt 0.125000 0.625000
vt -0.000000 0.625000
vt 0.125000 0.625000
vt -0.000000 0.562500
vt 0.125000 0.562500
vt 0.125000 0.625000
vt -0.000000 0.562500
vt 0.125000 0.562500
vt 0.000000 0.750000
vt 0.000000 0.750000
vt 0.125000 0.750000
vt 0.000000 0.750000
vt 0.125000 0.750000
vt 0.125000 0.750000
vt 0.000000 0.750000
vt 0.000000 0.750000
vt 0.125000 0.750000
vt 0.000000 0.750000
vt 0.125000 0.750000
vt 0.062500 0.562500
vt 0.125000 0.625000
vt 0.062500 0.625000
vt 0.062500 0.562500
vt 0.125000 0.625000
vt 0.062500 0.625000
vt 0.062500 0.625000
vt -0.000000 0.562500
vt 0.062500 0.562500
vt 0.062500 0.625000
vt -0.000000 0.562500
vt 0.062500 0.562500
vt 0.062500 0.687500
vt 0.125000 0.750000
vt 0.062500 0.750000
vt 0.062500 0.687500
vt 0.000000 0.625000
vt 0.125000 0.625000
vt 0.125000 0.687500
vt 0.000000 0.750000
vt 0.000000 0.687500
vt 0.125000 0.562500
vt -0.000000 0.562500
vt -0.000000 0.625000
vt 0.125000 0.750000
vt 0.000000 0.750000
vt 0.062500 0.750000
vt 0.125000 0.625000
vt 0.125000 0.562500
vt -0.000000 0.562500
vt -0.000000 0.625000
vt 0.125000 0.000000
vt 0.125000 0.000000
vt 0.113770 0.014084
vt 0.125000 1.000000
vt 0.437500 0.937500
vt 0.125000 0.937500
vt 0.375000 1.000000
vt 0.000000 1.000000
vt 0.000000 1.000000
vt 0.000000 1.000000
vt 0.000000 1.000000
vt 0.125000 0.562500
vt 0.125000 0.562500
vt -0.000000 0.625000
vt -0.000000 0.625000
vt 0.125000 0.750000
vt 0.125000 0.562500
vt 0.125000 0.562500
vt -0.000000 0.625000
vt 0.125000 0.687500
vt 0.000000 0.687500
vn -0.0000 -0.0000 -1.0000
vn 0.0000 -0.0000 1.0000
vn -0.8101 0.3226 -0.4896
vn 0.7664 0.2867 0.5748
vn -0.8147 0.1514 0.5598
vn 0.7423 0.1149 0.6602
vn 0.5747 0.0298 0.8178
vn -0.7469 0.0307 0.6643
vn -0.8101 0.3226 0.4896
vn -0.7469 0.0307 -0.6643
vn 0.5747 0.0298 -0.8178
vn 0.7423 0.1149 -0.6602
vn -0.8147 0.1514 -0.5598
vn 0.7664 0.2867 -0.5748
vn -0.3595 0.0000 0.9331
vn -1.0000 0.0000 0.0000
vn 0.3595 0.0000 -0.9331
vn 1.0000 0.0000 0.0000
vn 0.2008 -0.9796 -0.0000
vn -0.2008 0.9796 0.0000
vn 0.2008 0.9796 -0.0000
vn 0.0000 1.0000 0.0000
vn -0.2008 -0.9796 0.0000
vn 0.0000 -1.0000 0.0000
vn -0.3595 0.0000 -0.9331
vn 0.3595 0.0000 0.9331
vn 0.0000 0.0294 0.9996
vn -0.9993 0.0376 0.0000
vn -0.0000 0.0294 -0.9996
vn 0.9993 0.0376 -0.0000
vn 0.9984 -0.0560 -0.0000
vn -0.0000 -0.0438 -0.9990
vn -0.9984 -0.0560 0.0000
vn 0.0000 -0.0438 0.9990
vn -0.1662 0.0000 0.9861
vn 0.1662 0.0000 -0.9861
vn -0.1662 0.0000 -0.9861
vn 0.1662 0.0000 0.9861
vn -0.7664 0.2867 -0.5748
vn 0.8101 0.3226 0.4896
vn -0.7423 0.1149 0.6602
vn 0.8147 0.1514 0.5598
vn 0.7469 0.0307 0.6643
vn -0.5747 0.0298 0.8178
vn -0.7664 0.2867 0.5748
vn -0.5747 0.0298 -0.8178
vn 0.7469 0.0307 -0.6643
vn 0.8147 0.1514 -0.5598
vn -0.7423 0.1149 -0.6602
vn 0.8101 0.3226 -0.4896
s off
f 7/1/1 4/2/1 1/3/1
f 4/2/1 6/4/1 5/5/1
f 3/6/1 5/5/1 6/4/1
f 14/7/2 8/8/2 11/9/2
f 12/10/2 14/7/2 11/9/2
f 12/10/2 10/11/2 13/12/2
f 1/13/3 18/14/3 15/15/3
f 21/16/4 8/17/4 14/18/4
f 19/19/5 11/20/5 18/14/5
f 20/21/6 14/18/6 13/22/6
f 20/21/7 10/23/7 17/24/7
f 19/19/8 9/25/8 12/26/8
f 18/14/9 8/17/9 15/15/9
f 2/27/10 19/19/10 5/28/10
f 3/29/11 20/21/11 17/24/11
f 7/30/12 20/21/12 6/31/12
f 4/32/13 19/19/13 18/14/13
f 1/13/14 21/16/14 7/30/14
f 33/33/15 24/34/15 30/35/15
f 25/36/16 28/37/16 24/38/16
f 37/39/17 26/40/17 34/41/17
f 27/42/18 22/43/18 26/44/18
f 34/41/19 22/45/19 31/46/19
f 32/47/20 27/48/20 37/49/20
f 29/50/21 33/33/21 36/51/21
f 33/33/22 37/49/22 36/51/22
f 28/52/23 30/53/23 24/54/23
f 35/55/24 31/46/24 30/53/24
f 28/52/25 36/56/25 35/57/25
f 36/56/1 34/41/1 35/57/1
f 22/58/26 32/47/26 31/59/26
f 32/47/2 30/35/2 31/59/2
f 39/60/27 55/61/27 54/62/27
f 41/63/28 56/64/28 55/65/28
f 45/66/29 57/67/29 56/68/29
f 43/69/30 54/70/30 57/71/30
f 47/72/2 48/73/2 46/74/2
f 49/75/16 52/76/16 48/77/16
f 53/78/1 50/79/1 52/80/1
f 51/81/18 46/82/18 50/83/18
f 52/76/24 46/84/24 48/77/24
f 49/85/22 51/81/22 53/86/22
f 57/71/31 38/87/31 42/88/31
f 44/89/32 57/67/32 42/90/32
f 55/65/33 44/91/33 40/92/33
f 54/62/34 40/93/34 38/94/34
f 71/95/35 60/96/35 70/97/35
f 67/98/16 64/99/16 66/100/16
f 73/101/36 62/102/36 72/103/36
f 69/104/18 58/105/18 68/106/18
f 75/107/24 62/108/24 68/109/24
f 74/110/22 59/111/22 69/104/22
f 74/110/22 63/112/22 73/113/22
f 75/107/24 58/114/24 70/115/24
f 63/112/18 68/106/18 62/116/18
f 61/117/16 66/100/16 60/118/16
f 60/118/24 75/107/24 70/115/24
f 65/119/22 74/110/22 73/113/22
f 61/120/22 74/110/22 67/121/22
f 64/99/24 75/107/24 66/100/24
f 65/122/37 72/103/37 64/123/37
f 59/124/38 70/97/38 58/125/38
f 4/2/1 7/1/1 6/4/1
f 3/6/1 2/126/1 5/5/1
f 12/10/2 13/12/2 14/7/2
f 12/10/2 9/127/2 10/11/2
f 1/13/39 4/32/39 18/14/39
f 21/16/40 15/15/40 8/17/40
f 19/19/41 12/26/41 11/20/41
f 20/21/42 21/16/42 14/18/42
f 20/21/43 13/22/43 10/23/43
f 19/19/44 16/128/44 9/25/44
f 18/14/45 11/20/45 8/17/45
f 2/27/46 16/128/46 19/19/46
f 3/29/47 6/31/47 20/21/47
f 7/30/48 21/16/48 20/21/48
f 4/32/49 5/28/49 19/19/49
f 1/13/50 15/15/50 21/16/50
f 33/33/15 25/36/15 24/34/15
f 25/36/16 29/50/16 28/37/16
f 37/39/17 27/129/17 26/40/17
f 27/42/18 23/130/18 22/43/18
f 34/41/19 26/40/19 22/45/19
f 32/47/20 23/131/20 27/48/20
f 29/50/21 25/36/21 33/33/21
f 33/33/22 32/47/22 37/49/22
f 28/52/23 35/55/23 30/53/23
f 35/55/24 34/41/24 31/46/24
f 28/52/25 29/132/25 36/56/25
f 36/56/1 37/39/1 34/41/1
f 22/58/26 23/131/26 32/47/26
f 32/47/2 33/33/2 30/35/2
f 39/60/27 41/133/27 55/61/27
f 41/63/28 45/134/28 56/64/28
f 45/66/29 43/135/29 57/67/29
f 43/69/30 39/136/30 54/70/30
f 47/72/2 49/137/2 48/73/2
f 49/75/16 53/138/16 52/76/16
f 53/78/1 51/139/1 50/79/1
f 51/81/18 47/140/18 46/82/18
f 52/76/24 50/141/24 46/84/24
f 49/85/22 47/140/22 51/81/22
f 57/71/31 54/70/31 38/87/31
f 44/89/32 56/68/32 57/67/32
f 55/65/33 56/64/33 44/91/33
f 54/62/34 55/61/34 40/93/34
f 71/95/35 61/142/35 60/96/35
f 67/98/16 65/143/16 64/99/16
f 73/101/36 63/144/36 62/102/36
f 69/104/18 59/111/18 58/105/18
f 75/107/24 72/145/24 62/108/24
f 74/110/22 71/146/22 59/111/22
f 74/110/22 69/104/22 63/112/22
f 75/107/24 68/109/24 58/114/24
f 63/112/18 69/104/18 68/106/18
f 61/117/16 67/98/16 66/100/16
f 60/118/24 66/100/24 75/107/24
f 65/119/22 67/121/22 74/110/22
f 61/120/22 71/146/22 74/110/22
f 64/99/24 72/145/24 75/107/24
f 65/122/37 73/101/37 72/103/37
f 59/124/38 71/95/38 70/97/38
