# Blender v2.79 (sub 0) OBJ File: 'all.blend'
# www.blender.org
o Degen
v 0.052352 -0.172719 0.040274
v 0.051961 0.147518 0.039973
v -0.052352 -0.172719 0.040274
v -0.051961 0.147518 0.039973
v 0.052352 -0.172719 -0.040274
v 0.051961 0.147518 -0.039973
v -0.052352 -0.172719 -0.040274
v -0.051961 0.147518 -0.039973
v 0.055298 -0.012602 0.042540
v -0.055298 -0.012602 0.042540
v -0.055298 -0.012602 -0.042540
v 0.055298 -0.012602 -0.042540
v 0.056899 -0.222199 0.042646
v 0.056899 -0.165300 0.042646
v -0.056899 -0.222199 0.042646
v -0.056899 -0.165300 0.042646
v 0.056899 -0.222199 -0.042646
v 0.056899 -0.165300 -0.042646
v -0.056899 -0.222199 -0.042646
v -0.056899 -0.165300 -0.042646
v 0.056899 0.201271 0.022837
v 0.056899 0.269597 0.022837
v -0.056899 0.201271 0.022837
v -0.056899 0.269597 0.022837
v 0.056899 0.201271 -0.022837
v 0.056899 0.269597 -0.022837
v -0.056899 0.201271 -0.022837
v -0.056899 0.269597 -0.022837
v -0.191007 0.161002 0.021772
v -0.191007 0.225472 0.021772
v -0.191007 0.161002 -0.021772
v -0.191007 0.225472 -0.021772
v -0.071679 0.140966 -0.040236
v -0.071679 0.205436 0.040236
v -0.071679 0.205436 -0.040236
v -0.071679 0.140966 0.040236
v 0.191007 0.161002 0.021772
v 0.191007 0.225472 0.021772
v 0.191007 0.161002 -0.021772
v 0.191007 0.225472 -0.021772
v 0.000000 0.136611 -0.044249
v 0.000000 0.201081 -0.044249
v 0.000000 0.136611 0.044249
v 0.000000 0.201081 0.044249
v 0.071679 0.140966 -0.040236
v 0.071679 0.205436 0.040236
v 0.071679 0.205436 -0.040236
v 0.071679 0.140966 0.040236
v 0.054706 0.252949 -0.004177
v -0.047985 0.252949 -0.010000
v 0.054706 0.756654 -0.004177
v -0.047985 0.756654 -0.010000
v 0.054706 0.288928 -0.004177
v -0.047985 0.288928 -0.010000
v -0.047985 0.324907 -0.010000
v -0.047985 0.360886 -0.010000
v -0.047985 0.396865 -0.010000
v -0.047985 0.432843 -0.010000
v -0.047985 0.468822 -0.010000
v -0.047985 0.504801 -0.010000
v -0.047985 0.540780 -0.010000
v -0.047985 0.576759 -0.010000
v -0.047985 0.612738 -0.010000
v -0.047985 0.648717 -0.010000
v -0.047985 0.684696 -0.010000
v -0.047985 0.720675 -0.010000
v 0.003360 0.252949 -0.010000
v 0.003360 0.877086 -0.004177
v 0.003360 0.288928 -0.010000
v 0.003360 0.324907 -0.010000
v 0.003360 0.360886 -0.010000
v 0.003360 0.396865 -0.010000
v 0.003360 0.432843 -0.010000
v 0.003360 0.468822 -0.010000
v 0.003360 0.504801 -0.010000
v 0.003360 0.540780 -0.010000
v 0.003360 0.576759 -0.010000
v 0.003360 0.612738 -0.010000
v 0.003360 0.648717 -0.010000
v 0.003360 0.684696 -0.010000
v 0.003360 0.720675 -0.010000
v 0.003360 0.756654 -0.010000
v 0.054706 0.252949 0.004177
v -0.047985 0.252949 0.010000
v 0.054706 0.756654 0.004177
v -0.047985 0.756654 0.010000
v 0.054706 0.288928 0.004177
v -0.047985 0.288928 0.010000
v -0.047985 0.324907 0.010000
v -0.047985 0.360886 0.010000
v -0.047985 0.396865 0.010000
v -0.047985 0.432843 0.010000
v -0.047985 0.468822 0.010000
v -0.047985 0.504801 0.010000
v -0.047985 0.540780 0.010000
v -0.047985 0.576759 0.010000
v -0.047985 0.612738 0.010000
v -0.047985 0.648717 0.010000
v -0.047985 0.684696 0.010000
v -0.047985 0.720675 0.010000
v 0.003360 0.252949 0.010000
v 0.003360 0.877086 0.004177
v 0.003360 0.288928 0.010000
v 0.003360 0.324907 0.010000
v 0.003360 0.360886 0.010000
v 0.003360 0.396865 0.010000
v 0.003360 0.432843 0.010000
v 0.003360 0.468822 0.010000
v 0.003360 0.504801 0.010000
v 0.003360 0.540780 0.010000
v 0.003360 0.576759 0.010000
v 0.003360 0.612738 0.010000
v 0.003360 0.648717 0.010000
v 0.003360 0.684696 0.010000
v 0.003360 0.720675 0.010000
v 0.003360 0.756654 0.010000
vt 0.998313 0.875000
vt 0.875000 1.000000
vt 0.876687 0.875000
vt 0.998313 0.875000
vt 0.875000 1.000000
vt 0.876687 0.875000
vt 0.998313 0.875000
vt 0.875000 1.000000
vt 0.876687 0.875000
vt 0.875000 0.750000
vt 1.000000 0.750000
vt 1.000000 0.750000
vt 0.875000 0.750000
vt 1.000000 0.750000
vt 0.876687 0.875000
vt 1.000000 0.750000
vt 0.998313 0.875000
vt 1.000000 1.000000
vt -0.000000 0.562500
vt 0.125000 0.625000
vt -0.000000 0.625000
vt -0.000000 0.562500
vt 0.125000 0.625000
vt -0.000000 0.625000
vt 0.125000 0.625000
vt -0.000000 0.562500
vt 0.125000 0.562500
vt 0.125000 0.625000
vt -0.000000 0.562500
vt 0.125000 0.562500
vt 0.000000 0.750000
vt 0.000000 0.750000
vt 0.125000 0.750000
vt -0.000000 0.562500
vt 0.125000 0.625000
vt -0.000000 0.625000
vt -0.000000 0.562500
vt 0.125000 0.625000
vt -0.000000 0.625000
vt 0.125000 0.625000
vt -0.000000 0.562500
vt 0.125000 0.562500
vt 0.125000 0.625000
vt -0.000000 0.562500
vt 0.125000 0.562500
vt 0.000000 0.750000
vt 0.000000 0.750000
vt 0.125000 0.750000
vt 0.875000 0.250000
vt 1.000000 0.125000
vt 0.875000 0.125000
vt 0.898438 0.125000
vt 1.000000 0.000000
vt 0.898438 0.000000
vt 0.796875 0.125000
vt 0.695312 0.000000
vt 0.695312 0.125000
vt 0.601562 0.000000
vt 0.695312 0.125000
vt 0.695312 0.000000
vt 0.898438 0.000000
vt 0.804688 0.125000
vt 0.804688 0.000000
vt 1.000000 0.000000
vt 0.898438 0.125000
vt 0.796875 0.125000
vt 0.796875 0.000000
vt 0.601562 0.125000
vt 0.601562 0.000000
vt 0.804688 0.125000
vt 0.804688 0.000000
vt 1.000000 0.125000
vt 0.875000 0.250000
vt 0.875000 0.125000
vt 1.000000 0.000000
vt 0.898438 0.125000
vt 0.898438 0.000000
vt 0.695312 0.000000
vt 0.796875 0.125000
vt 0.695312 0.125000
vt 0.695312 0.125000
vt 0.695312 0.000000
vt 0.898438 0.000000
vt 0.898438 0.125000
vt 1.000000 0.000000
vt 1.000000 0.125000
vt 0.796875 0.125000
vt 0.796875 0.000000
vt 0.359375 0.421875
vt 0.414062 0.421875
vt 0.359375 0.523438
vt 0.414062 0.000000
vt 0.359375 0.031250
vt 0.359375 -0.000000
vt 0.414062 0.054688
vt 0.359375 0.085938
vt 0.359375 0.054688
vt 0.414062 0.117188
vt 0.359375 0.148438
vt 0.359375 0.117188
vt 0.414062 0.179688
vt 0.359375 0.210938
vt 0.359375 0.179688
vt 0.414062 0.234375
vt 0.359375 0.265625
vt 0.359375 0.234375
vt 0.414062 0.296875
vt 0.359375 0.328125
vt 0.359375 0.296875
vt 0.414062 0.359375
vt 0.359375 0.390625
vt 0.359375 0.359375
vt 0.304688 0.421875
vt 0.304688 0.031250
vt 0.304688 -0.000000
vt 0.359375 0.421875
vt 0.359375 0.523438
vt 0.414062 0.421875
vt 0.359375 0.031250
vt 0.414062 0.000000
vt 0.359375 -0.000000
vt 0.359375 0.085938
vt 0.414062 0.054688
vt 0.359375 0.054688
vt 0.359375 0.148438
vt 0.414062 0.117188
vt 0.359375 0.117188
vt 0.359375 0.210938
vt 0.414062 0.179688
vt 0.359375 0.179688
vt 0.359375 0.265625
vt 0.414062 0.234375
vt 0.359375 0.234375
vt 0.359375 0.328125
vt 0.414062 0.296875
vt 0.359375 0.296875
vt 0.359375 0.390625
vt 0.414062 0.359375
vt 0.359375 0.359375
vt 0.304688 0.421875
vt 0.304688 0.031250
vt 0.304688 -0.000000
vt 0.314553 0.007751
vt 0.314553 0.031250
vt 0.314553 0.007751
vt 0.359375 0.007751
vt 0.404197 0.007751
vt 0.404197 0.007751
vt 0.314553 0.421875
vt 0.314553 0.421875
vt 0.314553 0.031250
vt 0.404197 0.022949
vt 0.404197 0.022949
vt 0.404197 0.063214
vt 0.404197 0.077637
vt 0.404197 0.077637
vt 0.404197 0.125714
vt 0.404197 0.140137
vt 0.404197 0.140137
vt 0.404197 0.188214
vt 0.404197 0.202637
vt 0.404197 0.202637
vt 0.404197 0.242901
vt 0.404197 0.257324
vt 0.404197 0.257324
vt 0.404197 0.305401
vt 0.404197 0.319824
vt 0.404197 0.319824
vt 0.404197 0.367901
vt 0.404197 0.382324
vt 0.404197 0.382324
vt 0.359375 0.007751
vt 0.404197 0.430401
vt 0.359375 0.022949
vt 0.359375 0.022949
vt 0.359375 0.063214
vt 0.404197 0.063214
vt 0.359375 0.077637
vt 0.359375 0.077637
vt 0.359375 0.125714
vt 0.404197 0.125714
vt 0.359375 0.140137
vt 0.359375 0.140137
vt 0.359375 0.188214
vt 0.404197 0.188214
vt 0.359375 0.202637
vt 0.359375 0.202637
vt 0.359375 0.242901
vt 0.404197 0.242901
vt 0.359375 0.257324
vt 0.359375 0.257324
vt 0.359375 0.305401
vt 0.404197 0.305401
vt 0.359375 0.319824
vt 0.359375 0.319824
vt 0.359375 0.367901
vt 0.404197 0.367901
vt 0.359375 0.382324
vt 0.359375 0.382324
vt 0.354724 0.319824
vt 0.354724 0.367901
vt 0.354724 0.367901
vt 0.354724 0.305401
vt 0.354724 0.257324
vt 0.354724 0.305401
vt 0.354724 0.202637
vt 0.354724 0.242901
vt 0.354724 0.242901
vt 0.354724 0.188214
vt 0.354724 0.140137
vt 0.354724 0.188214
vt 0.354724 0.077637
vt 0.354724 0.125714
vt 0.354724 0.125714
vt 0.354724 0.022949
vt 0.354724 0.063214
vt 0.354724 0.063214
vt 0.354724 0.382324
vt 0.354724 0.430401
vt 0.354724 0.430401
vt 0.359375 0.430401
vt 0.404197 0.430401
vt 1.000000 1.000000
vt 1.000000 1.000000
vt 1.000000 1.000000
vt 0.875000 0.750000
vt 0.875000 0.750000
vt 0.875000 1.000000
vt 0.125000 0.562500
vt 0.125000 0.562500
vt -0.000000 0.625000
vt -0.000000 0.625000
vt 0.125000 0.750000
vt 0.125000 0.562500
vt 0.125000 0.562500
vt -0.000000 0.625000
vt -0.000000 0.625000
vt 0.125000 0.750000
vt 1.000000 0.250000
vt 1.000000 0.125000
vt 0.796875 0.000000
vt 0.601562 0.125000
vt 1.000000 0.125000
vt 1.000000 0.250000
vt 1.000000 0.125000
vt 0.796875 0.000000
vt 0.414062 0.031250
vt 0.414062 0.085938
vt 0.414062 0.148438
vt 0.414062 0.210938
vt 0.414062 0.265625
vt 0.414062 0.328125
vt 0.414062 0.390625
vt 0.414062 0.031250
vt 0.414062 0.085938
vt 0.414062 0.148438
vt 0.414062 0.210938
vt 0.414062 0.265625
vt 0.414062 0.328125
vt 0.414062 0.390625
vt 0.359375 0.063214
vt 0.359375 0.125714
vt 0.359375 0.188214
vt 0.359375 0.242901
vt 0.359375 0.305401
vt 0.359375 0.367901
vt 0.354724 0.319824
vt 0.354724 0.257324
vt 0.354724 0.202637
vt 0.354724 0.140137
vt 0.354724 0.077637
vt 0.354724 0.022949
vt 0.354724 0.382324
vt 0.359375 0.430401
vn -0.0000 0.0160 -0.9999
vn -0.9998 0.0208 0.0000
vn 0.0000 0.0160 0.9999
vn -0.0000 -0.0142 -0.9999
vn -0.9998 -0.0184 0.0000
vn 0.0000 -0.0142 0.9999
vn 0.9998 -0.0184 -0.0000
vn 0.9998 0.0208 -0.0000
vn 0.0000 0.0000 1.0000
vn -1.0000 0.0000 0.0000
vn -0.0000 0.0000 -1.0000
vn 1.0000 0.0000 -0.0000
vn 0.0000 -1.0000 0.0000
vn 0.0000 1.0000 0.0000
vn -0.1529 0.0000 0.9882
vn 0.1656 0.9862 0.0000
vn -0.0606 -0.9982 0.0000
vn -0.0559 0.0000 -0.9984
vn -0.1529 0.0000 -0.9882
vn -0.1656 -0.9862 0.0000
vn 0.0606 0.9982 0.0000
vn -0.0559 0.0000 0.9984
vn 0.1529 0.0000 0.9882
vn -0.1656 0.9862 0.0000
vn 0.0606 -0.9982 0.0000
vn 0.0559 0.0000 -0.9984
vn 0.1529 0.0000 -0.9882
vn 0.1656 -0.9862 0.0000
vn -0.0606 0.9982 0.0000
vn 0.0559 0.0000 0.9984
vn 0.0000 0.0483 -0.9988
vn 0.1127 0.0000 -0.9936
vn 0.1126 0.0480 -0.9925
vn 0.0000 0.0483 0.9988
vn 0.1127 0.0000 0.9936
vn 0.1126 0.0480 0.9925
vn 0.9199 0.3922 0.0000
vn -0.9199 0.3922 0.0000
s off
f 11/1/1 6/2/1 12/3/1
f 10/4/2 8/5/2 11/6/2
f 9/7/3 4/8/3 10/9/3
f 11/1/4 5/10/4 7/11/4
f 11/6/5 3/12/5 10/4/5
f 9/7/6 3/13/6 1/14/6
f 9/15/7 5/16/7 12/17/7
f 6/18/8 9/15/8 12/17/8
f 14/19/9 15/20/9 13/21/9
f 16/22/10 19/23/10 15/24/10
f 20/25/11 17/26/11 19/27/11
f 18/28/12 13/29/12 17/30/12
f 19/23/13 13/31/13 15/24/13
f 16/32/14 18/28/14 20/33/14
f 22/34/9 23/35/9 21/36/9
f 24/37/10 27/38/10 23/39/10
f 28/40/11 25/41/11 27/42/11
f 26/43/12 21/44/12 25/45/12
f 27/38/13 21/46/13 23/39/13
f 24/47/14 26/43/14 28/48/14
f 30/49/10 31/50/10 29/51/10
f 34/52/15 29/53/15 36/54/15
f 32/55/16 34/56/16 35/57/16
f 41/58/17 36/59/17 33/60/17
f 33/61/18 42/62/18 41/63/18
f 31/64/19 35/65/19 33/61/19
f 33/60/20 29/66/20 31/67/20
f 42/68/21 34/56/21 44/69/21
f 44/70/22 36/54/22 43/71/22
f 39/72/12 38/73/12 37/74/12
f 37/75/23 46/76/23 48/77/23
f 46/78/24 40/79/24 47/80/24
f 48/81/25 41/58/25 45/82/25
f 45/83/26 42/62/26 47/84/26
f 39/85/27 47/84/27 40/86/27
f 37/87/28 45/82/28 39/88/28
f 44/69/29 47/80/29 42/68/29
f 48/77/30 44/70/30 43/71/30
f 82/89/31 52/90/31 68/91/31
f 50/92/11 69/93/11 67/94/11
f 55/95/11 71/96/11 70/97/11
f 57/98/11 73/99/11 72/100/11
f 59/101/11 75/102/11 74/103/11
f 61/104/11 77/105/11 76/106/11
f 63/107/11 79/108/11 78/109/11
f 65/110/11 81/111/11 80/112/11
f 79/108/32 51/113/32 78/109/32
f 67/94/32 53/114/32 49/115/32
f 51/113/33 82/89/33 68/91/33
f 116/116/34 102/117/34 86/118/34
f 103/119/9 84/120/9 101/121/9
f 105/122/9 89/123/9 104/124/9
f 107/125/9 91/126/9 106/127/9
f 109/128/9 93/129/9 108/130/9
f 111/131/9 95/132/9 110/133/9
f 113/134/9 97/135/9 112/136/9
f 115/137/9 99/138/9 114/139/9
f 85/140/35 111/131/35 110/133/35
f 87/141/35 101/121/35 83/142/35
f 85/140/36 102/117/36 116/116/36
f 49/143/12 87/144/12 83/145/12
f 67/146/13 84/147/13 50/148/13
f 68/91/37 85/149/37 51/150/37
f 85/149/12 53/151/12 51/150/12
f 54/152/10 84/147/10 88/153/10
f 55/154/10 90/155/10 56/156/10
f 57/157/10 92/158/10 58/159/10
f 59/160/10 94/161/10 60/162/10
f 61/163/10 96/164/10 62/165/10
f 63/166/10 98/167/10 64/168/10
f 65/169/10 100/170/10 66/171/10
f 49/143/13 101/172/13 67/146/13
f 52/173/38 102/117/38 68/91/38
f 54/152/14 103/174/14 69/175/14
f 70/176/13 89/177/13 55/154/13
f 56/156/14 105/178/14 71/179/14
f 72/180/13 91/181/13 57/157/13
f 58/159/14 107/182/14 73/183/14
f 74/184/13 93/185/13 59/160/13
f 60/162/14 109/186/14 75/187/14
f 76/188/13 95/189/13 61/163/13
f 62/165/14 111/190/14 77/191/14
f 78/192/13 97/193/13 63/166/13
f 64/168/14 113/194/14 79/195/14
f 80/196/13 99/197/13 65/169/13
f 66/171/14 115/198/14 81/199/14
f 79/200/10 114/201/10 80/202/10
f 78/203/10 111/204/10 112/205/10
f 75/206/10 110/207/10 76/208/10
f 74/209/10 107/210/10 108/211/10
f 71/212/10 106/213/10 72/214/10
f 69/215/10 104/216/10 70/217/10
f 81/218/10 116/219/10 82/220/10
f 82/221/13 86/222/13 52/173/13
f 11/1/1 8/223/1 6/2/1
f 10/4/2 4/224/2 8/5/2
f 9/7/3 2/225/3 4/8/3
f 11/1/4 12/3/4 5/10/4
f 11/6/5 7/226/5 3/12/5
f 9/7/6 10/9/6 3/13/6
f 9/15/7 1/227/7 5/16/7
f 6/18/8 2/228/8 9/15/8
f 14/19/9 16/229/9 15/20/9
f 16/22/10 20/230/10 19/23/10
f 20/25/11 18/231/11 17/26/11
f 18/28/12 14/232/12 13/29/12
f 19/23/13 17/233/13 13/31/13
f 16/32/14 14/232/14 18/28/14
f 22/34/9 24/234/9 23/35/9
f 24/37/10 28/235/10 27/38/10
f 28/40/11 26/236/11 25/41/11
f 26/43/12 22/237/12 21/44/12
f 27/38/13 25/238/13 21/46/13
f 24/47/14 22/237/14 26/43/14
f 30/49/10 32/239/10 31/50/10
f 34/52/15 30/240/15 29/53/15
f 32/55/16 30/241/16 34/56/16
f 41/58/17 43/242/17 36/59/17
f 33/61/18 35/65/18 42/62/18
f 31/64/19 32/243/19 35/65/19
f 33/60/20 36/59/20 29/66/20
f 42/68/21 35/57/21 34/56/21
f 44/70/22 34/52/22 36/54/22
f 39/72/12 40/244/12 38/73/12
f 37/75/23 38/245/23 46/76/23
f 46/78/24 38/246/24 40/79/24
f 48/81/25 43/242/25 41/58/25
f 45/83/26 41/63/26 42/62/26
f 39/85/27 45/83/27 47/84/27
f 37/87/28 48/81/28 45/82/28
f 44/69/29 46/78/29 47/80/29
f 48/77/30 46/76/30 44/70/30
f 50/92/11 54/247/11 69/93/11
f 55/95/11 56/248/11 71/96/11
f 57/98/11 58/249/11 73/99/11
f 59/101/11 60/250/11 75/102/11
f 61/104/11 62/251/11 77/105/11
f 63/107/11 64/252/11 79/108/11
f 65/110/11 66/253/11 81/111/11
f 71/96/32 72/100/32 53/114/32
f 72/100/32 73/99/32 53/114/32
f 73/99/32 74/103/32 53/114/32
f 53/114/32 69/93/32 70/97/32
f 70/97/32 71/96/32 53/114/32
f 75/102/32 76/106/32 51/113/32
f 76/106/32 77/105/32 51/113/32
f 77/105/32 78/109/32 51/113/32
f 53/114/32 74/103/32 75/102/32
f 82/89/32 51/113/32 81/111/32
f 51/113/32 53/114/32 75/102/32
f 81/111/32 51/113/32 80/112/32
f 79/108/32 80/112/32 51/113/32
f 67/94/32 69/93/32 53/114/32
f 103/119/9 88/254/9 84/120/9
f 105/122/9 90/255/9 89/123/9
f 107/125/9 92/256/9 91/126/9
f 109/128/9 94/257/9 93/129/9
f 111/131/9 96/258/9 95/132/9
f 113/134/9 98/259/9 97/135/9
f 115/137/9 100/260/9 99/138/9
f 103/119/35 87/141/35 104/124/35
f 87/141/35 85/140/35 110/133/35
f 104/124/35 87/141/35 105/122/35
f 85/140/35 116/116/35 115/137/35
f 85/140/35 115/137/35 114/139/35
f 106/127/35 87/141/35 107/125/35
f 106/127/35 105/122/35 87/141/35
f 109/128/35 108/130/35 87/141/35
f 108/130/35 107/125/35 87/141/35
f 110/133/35 109/128/35 87/141/35
f 85/140/35 114/139/35 113/134/35
f 113/134/35 112/136/35 85/140/35
f 112/136/35 111/131/35 85/140/35
f 87/141/35 103/119/35 101/121/35
f 49/143/12 53/151/12 87/144/12
f 67/146/13 101/172/13 84/147/13
f 68/91/37 102/117/37 85/149/37
f 85/149/12 87/144/12 53/151/12
f 54/152/10 50/148/10 84/147/10
f 55/154/10 89/177/10 90/155/10
f 57/157/10 91/181/10 92/158/10
f 59/160/10 93/185/10 94/161/10
f 61/163/10 95/189/10 96/164/10
f 63/166/10 97/193/10 98/167/10
f 65/169/10 99/197/10 100/170/10
f 49/143/13 83/145/13 101/172/13
f 52/173/38 86/222/38 102/117/38
f 54/152/14 88/153/14 103/174/14
f 70/176/13 104/261/13 89/177/13
f 56/156/14 90/155/14 105/178/14
f 72/180/13 106/262/13 91/181/13
f 58/159/14 92/158/14 107/182/14
f 74/184/13 108/263/13 93/185/13
f 60/162/14 94/161/14 109/186/14
f 76/188/13 110/264/13 95/189/13
f 62/165/14 96/164/14 111/190/14
f 78/192/13 112/265/13 97/193/13
f 64/168/14 98/167/14 113/194/14
f 80/196/13 114/266/13 99/197/13
f 66/171/14 100/170/14 115/198/14
f 79/200/10 113/267/10 114/201/10
f 78/203/10 77/268/10 111/204/10
f 75/206/10 109/269/10 110/207/10
f 74/209/10 73/270/10 107/210/10
f 71/212/10 105/271/10 106/213/10
f 69/215/10 103/272/10 104/216/10
f 81/218/10 115/273/10 116/219/10
f 82/221/13 116/274/13 86/222/13
