# Blender v2.79 (sub 0) OBJ File: 'n2.blend'
# www.blender.org
o Erzac
v -0.589359 -2.539044 0.368146
v -0.746403 2.539044 0.466244
v -0.589359 -2.539044 -0.368146
v -0.746403 2.539044 -0.466244
v 0.589359 -2.539044 0.368146
v 0.746403 2.539044 0.466244
v 0.589359 -2.539044 -0.368146
v 0.746403 2.539044 -0.466244
v -0.873055 -4.162434 0.652763
v -0.873055 -2.416325 0.652763
v -0.873055 -4.162434 -0.652763
v -0.873055 -2.416325 -0.652763
v 0.873055 -4.162434 0.652763
v 0.873055 -2.416325 0.652763
v 0.873055 -4.162434 -0.652763
v 0.873055 -2.416325 -0.652763
v -0.746403 0.000000 0.466244
v -0.746403 0.000000 -0.466244
v 0.746403 0.000000 -0.466244
v 0.746403 0.000000 0.466244
v -1.922549 2.731484 0.626290
v -1.734460 3.196957 0.626290
v -1.922549 2.731484 -0.626290
v -1.734460 3.196957 -0.626290
v 2.374264 1.864867 0.721764
v 2.580036 2.322798 0.721764
v 2.374264 1.864867 -0.721764
v 2.580036 2.322798 -0.721764
v -0.926701 2.481772 -0.785537
v -0.926701 2.983811 -0.785537
v -0.926701 2.481772 0.785537
v -0.926701 2.983811 0.785537
v 0.918454 2.983811 -0.785537
v 0.918454 2.481772 0.785537
v 0.918454 2.481772 -0.785537
v 0.918454 2.983811 0.785537
v -1.029705 2.891969 0.124500
v -1.029705 11.376993 0.124500
v -1.029705 2.891969 -0.124500
v -1.029705 11.376993 -0.124500
v 0.976702 2.891969 0.124500
v 1.174142 11.376993 0.124500
v 0.976702 2.891969 -0.124500
v 1.174142 11.376993 -0.124500
v -0.360903 14.425980 0.124500
v 1.672082 14.425980 0.124500
v 1.672082 14.425980 -0.124500
v -0.360903 14.425980 -0.124500
v 0.307900 2.891969 -0.124500
v -0.360903 2.891969 -0.124500
v -0.360903 11.376993 -0.124500
v 0.505340 11.376993 -0.124500
v -0.360903 2.891969 0.124500
v 0.307900 2.891969 0.124500
v 0.505340 11.376993 0.124500
v -0.360903 11.376993 0.124500
v 2.340885 14.425980 -0.124500
v 2.340885 14.425980 0.124500
v -1.029705 14.425980 -0.124500
v -1.029705 14.425980 0.124500
v -0.360903 16.428745 0.124500
v 0.282769 16.428745 0.124500
v 0.282769 16.428745 -0.124500
v -0.360903 16.428745 -0.124500
v 0.951572 16.428745 -0.124500
v 0.951572 16.428745 0.124500
v -1.029705 16.428745 -0.124500
v -1.029705 16.428745 0.124500
v -0.574315 17.587753 0.124500
v -0.257220 17.587753 0.124500
v -0.257220 17.587753 -0.124500
v -0.574315 17.587753 -0.124500
v 0.215954 17.587753 -0.124500
v 0.215954 17.587753 0.124500
v -1.029705 17.587753 -0.124500
v -1.029705 17.587753 0.124500
vt 0.125000 1.000000
vt 0.062500 0.908203
vt 0.125000 0.908203
vt 0.125000 1.000000
vt 0.062500 0.908203
vt 0.125000 0.908203
vt 0.125000 1.000000
vt 0.062500 0.908203
vt 0.125000 0.908203
vt 0.125000 1.000000
vt 0.062500 0.908203
vt 0.125000 0.908203
vt 0.937500 0.312500
vt 0.902344 0.253906
vt 0.937500 0.253906
vt 0.937500 0.250000
vt 1.000000 0.312500
vt 0.937500 0.312500
vt 0.937500 0.312500
vt 0.902344 0.253906
vt 0.937500 0.253906
vt 1.000000 0.312500
vt 0.937500 0.250000
vt 1.000000 0.250000
vt 0.902344 0.253906
vt 0.937500 0.312500
vt 0.902344 0.312500
vt 0.937500 0.312500
vt 0.902344 0.253906
vt 0.937500 0.253906
vt 0.062500 0.816406
vt 0.125000 0.816406
vt 0.062500 0.816406
vt 0.125000 0.816406
vt 0.062500 0.816406
vt 0.125000 0.816406
vt 0.062500 0.816406
vt 0.125000 0.816406
vt 0.667969 1.000000
vt 0.687500 0.937500
vt 0.687500 1.000000
vt 0.769531 0.914062
vt 0.812500 0.937500
vt 0.812500 0.914062
vt 0.687500 0.937500
vt 0.667969 1.000000
vt 0.667969 0.937500
vt 0.707031 0.937500
vt 0.687500 0.917969
vt 0.707031 0.917969
vt 0.687500 0.937500
vt 0.734375 1.000000
vt 0.734375 0.937500
vt 0.812500 0.937500
vt 0.789062 1.000000
vt 0.789062 0.937500
vt 0.734375 1.000000
vt 0.734375 0.937500
vt 0.789062 0.937500
vt 0.812500 1.000000
vt 0.812500 0.937500
vt 0.769531 0.937500
vt 0.769531 0.917969
vt 0.687500 0.914062
vt 0.707031 0.937500
vt 0.707031 0.914062
vt 0.812500 0.937500
vt 0.812500 0.917969
vt 0.687500 1.000000
vt 0.789062 1.000000
vt 0.164062 0.210938
vt 0.156250 0.000000
vt 0.164062 0.000000
vt 0.125000 0.210938
vt 0.109375 0.000000
vt 0.125000 0.000000
vt 0.117188 0.207031
vt 0.109375 -0.000000
vt 0.117188 -0.000000
vt 0.144531 0.210938
vt 0.144531 -0.000000
vt 0.156250 0.285156
vt 0.156250 0.210938
vt 0.144531 0.285156
vt 0.164062 0.335938
vt 0.164062 0.285156
vt 0.112882 0.215273
vt 0.092497 0.253010
vt 0.109902 0.213945
vt 0.144531 0.285156
vt 0.093750 0.285156
vt 0.164062 0.210938
vt 0.144531 0.210938
vt 0.125000 0.210938
vt 0.128906 0.335938
vt 0.128906 0.335938
vt 0.144531 0.335938
vt 0.109375 0.210938
vt 0.093750 0.285156
vt 0.109375 0.210938
vt 0.078125 0.285156
vt 0.125000 0.000000
vt 0.144531 -0.000000
vt 0.164062 -0.000000
vt 0.156250 0.332031
vt 0.113281 0.335938
vt 0.164062 0.285156
vt 0.144531 0.335938
vt 0.113281 0.335938
vt 0.090818 0.295667
vt 0.112026 0.332719
vt 0.087291 0.298194
vt 0.164062 0.335938
vt 0.152344 0.363281
vt 0.132812 0.363281
vt 0.144531 0.363281
vt 0.115553 0.330193
vt 0.125957 0.352164
vt 0.152344 0.363281
vt 0.164062 0.363281
vt 0.144531 0.363281
vt 0.164062 0.332031
vt 0.156250 0.363281
vt 0.132812 0.363281
vt 0.164062 0.355469
vt 0.152344 0.363281
vt 0.152344 0.355469
vt 0.140625 0.363281
vt 0.140625 0.355469
vt 0.128906 0.363281
vt 0.128906 0.355469
vt 0.062500 1.000000
vt 0.062500 1.000000
vt 0.062500 1.000000
vt 0.062500 1.000000
vt 0.902344 0.312500
vt 1.000000 0.250000
vt 0.902344 0.312500
vt 0.937500 0.253906
vt 0.902344 0.312500
vt 0.667969 0.937500
vt 0.769531 0.937500
vt 0.687500 0.937500
vt 0.687500 1.000000
vt 0.812500 1.000000
vt 0.687500 0.937500
vt 0.109375 0.207031
vt 0.095476 0.254337
vt 0.078125 0.285156
vt 0.164062 0.363281
vt 0.129484 0.349637
vt 0.164062 0.363281
vn -1.0000 0.0000 0.0000
vn 0.0000 0.0000 -1.0000
vn 1.0000 0.0000 0.0000
vn 0.0000 0.0000 1.0000
vn 0.0000 -1.0000 0.0000
vn 0.0000 1.0000 0.0000
vn 0.0000 -0.0386 0.9993
vn 0.9981 -0.0617 0.0000
vn 0.0000 -0.0386 -0.9993
vn -0.9981 -0.0617 0.0000
vn -0.9272 0.3747 0.0000
vn 0.0368 -0.0165 -0.9992
vn 0.9121 -0.4099 0.0000
vn -0.1579 0.0000 0.9875
vn -0.3902 -0.9207 0.0000
vn 0.2551 0.9669 0.0000
vn -0.2432 -0.9700 0.0000
vn -0.1579 0.0000 -0.9875
vn 0.0368 -0.0165 0.9992
vn 0.3696 0.9292 0.0000
vn 0.9997 -0.0233 0.0000
vn 0.9340 -0.3574 0.0000
vn 0.8217 0.5700 0.0000
vn 0.8443 0.5359 0.0000
vn 0.0384 0.0000 -0.9993
vn -0.1750 0.0707 0.9820
vn -0.1750 0.0707 -0.9820
vn 0.0384 0.0000 0.9993
s off
f 2/1/1 18/2/1 17/3/1
f 4/4/2 19/5/2 18/6/2
f 8/7/3 20/8/3 19/9/3
f 6/10/4 17/11/4 20/12/4
f 10/13/1 11/14/1 9/15/1
f 12/16/2 15/17/2 11/18/2
f 16/19/3 13/20/3 15/21/3
f 14/22/4 9/23/4 13/24/4
f 15/25/5 9/26/5 11/27/5
f 12/28/6 14/29/6 16/30/6
f 20/12/7 1/31/7 5/32/7
f 19/9/8 5/33/8 7/34/8
f 18/6/9 7/35/9 3/36/9
f 17/3/10 3/37/10 1/38/10
f 22/39/11 23/40/11 21/41/11
f 35/42/12 28/43/12 27/44/12
f 28/45/13 25/46/13 27/47/13
f 32/48/14 21/49/14 31/50/14
f 27/51/15 34/52/15 35/53/15
f 24/54/16 32/55/16 30/56/16
f 30/56/6 36/57/6 33/58/6
f 29/59/17 21/60/17 23/61/17
f 36/62/4 31/50/4 34/63/4
f 23/64/18 30/65/18 29/66/18
f 26/67/19 34/63/19 25/68/19
f 33/58/20 26/69/20 28/45/20
f 35/53/5 31/70/5 29/59/5
f 30/65/2 35/42/2 29/66/2
f 38/71/1 39/72/1 37/73/1
f 52/74/2 43/75/2 49/76/2
f 44/77/21 41/78/21 43/79/21
f 56/80/4 37/73/4 53/81/4
f 38/71/1 59/82/1 40/83/1
f 45/84/4 68/85/4 60/86/4
f 44/87/22 58/88/22 42/89/22
f 56/80/4 60/86/4 38/71/4
f 52/74/2 48/90/2 47/91/2
f 40/92/2 48/90/2 51/93/2
f 55/94/4 45/84/4 56/80/4
f 48/90/2 63/95/2 47/91/2
f 45/84/4 62/96/4 61/97/4
f 42/98/4 46/99/4 55/94/4
f 44/100/2 47/91/2 57/101/2
f 41/78/4 55/94/4 54/102/4
f 54/102/4 56/80/4 53/81/4
f 40/92/2 50/103/2 39/104/2
f 51/93/2 49/76/2 50/103/2
f 60/86/1 67/105/1 59/82/1
f 46/99/4 66/106/4 62/96/4
f 59/107/2 64/108/2 48/90/2
f 47/91/2 65/109/2 57/101/2
f 57/110/23 66/111/23 58/112/23
f 67/113/2 72/114/2 64/108/2
f 63/95/2 73/115/2 65/109/2
f 64/108/2 71/116/2 63/95/2
f 65/117/24 74/118/24 66/111/24
f 68/85/4 69/119/4 76/120/4
f 61/97/4 70/121/4 69/119/4
f 68/122/1 75/123/1 67/105/1
f 62/96/4 74/124/4 70/121/4
f 74/125/6 71/126/6 70/127/6
f 70/127/6 72/128/6 69/129/6
f 69/129/6 75/130/6 76/131/6
f 2/1/1 4/132/1 18/2/1
f 4/4/2 8/133/2 19/5/2
f 8/7/3 6/134/3 20/8/3
f 6/10/4 2/135/4 17/11/4
f 10/13/1 12/136/1 11/14/1
f 12/16/2 16/137/2 15/17/2
f 16/19/3 14/138/3 13/20/3
f 14/22/4 10/13/4 9/23/4
f 15/25/5 13/139/5 9/26/5
f 12/28/6 10/140/6 14/29/6
f 20/12/7 17/11/7 1/31/7
f 19/9/8 20/8/8 5/33/8
f 18/6/9 19/5/9 7/35/9
f 17/3/10 18/2/10 3/37/10
f 22/39/11 24/141/11 23/40/11
f 35/42/25 33/142/25 28/43/25
f 28/45/13 26/69/13 25/46/13
f 32/48/26 22/143/26 21/49/26
f 27/51/15 25/144/15 34/52/15
f 24/54/16 22/145/16 32/55/16
f 30/56/6 32/55/6 36/57/6
f 29/59/17 31/70/17 21/60/17
f 36/62/4 32/48/4 31/50/4
f 23/64/27 24/146/27 30/65/27
f 26/67/28 36/62/28 34/63/28
f 33/58/20 36/57/20 26/69/20
f 35/53/5 34/52/5 31/70/5
f 30/65/2 33/142/2 35/42/2
f 38/71/1 40/83/1 39/72/1
f 52/74/2 44/100/2 43/75/2
f 44/77/21 42/147/21 41/78/21
f 56/80/4 38/71/4 37/73/4
f 38/71/1 60/86/1 59/82/1
f 45/84/4 61/97/4 68/85/4
f 44/87/22 57/148/22 58/88/22
f 56/80/4 45/84/4 60/86/4
f 52/74/2 51/93/2 48/90/2
f 40/92/2 59/107/2 48/90/2
f 55/94/4 46/99/4 45/84/4
f 48/90/2 64/108/2 63/95/2
f 45/84/4 46/99/4 62/96/4
f 42/98/4 58/149/4 46/99/4
f 44/100/2 52/74/2 47/91/2
f 41/78/4 42/98/4 55/94/4
f 54/102/4 55/94/4 56/80/4
f 40/92/2 51/93/2 50/103/2
f 51/93/2 52/74/2 49/76/2
f 60/86/1 68/122/1 67/105/1
f 46/99/4 58/149/4 66/106/4
f 59/107/2 67/113/2 64/108/2
f 47/91/2 63/95/2 65/109/2
f 57/110/23 65/117/23 66/111/23
f 67/113/2 75/150/2 72/114/2
f 63/95/2 71/116/2 73/115/2
f 64/108/2 72/114/2 71/116/2
f 65/117/24 73/151/24 74/118/24
f 68/85/4 61/97/4 69/119/4
f 61/97/4 62/96/4 70/121/4
f 68/122/1 76/120/1 75/123/1
f 62/96/4 66/106/4 74/124/4
f 74/125/6 73/152/6 71/126/6
f 70/127/6 71/126/6 72/128/6
f 69/129/6 72/128/6 75/130/6
