# Blender v2.79 (sub 0) OBJ File: 'all.blend'
# www.blender.org
o FullMetalAxe
v -0.059008 -0.333809 0.049419
v -0.059008 0.293450 0.049419
v -0.059008 -0.333809 -0.049419
v -0.059008 0.293450 -0.049419
v 0.059008 -0.333809 0.049419
v 0.059008 0.293450 0.049419
v 0.059008 -0.333809 -0.049419
v 0.059008 0.293450 -0.049419
v -0.042073 0.257601 0.035236
v -0.042073 0.257601 -0.035236
v 0.042073 0.257601 0.035236
v 0.042073 0.257601 -0.035236
v -0.042073 1.011148 0.035236
v -0.042073 1.011148 -0.035236
v 0.042073 1.011148 0.035236
v 0.042073 1.011148 -0.035236
v 0.048802 1.046853 -0.040871
v 0.048802 1.046853 0.040871
v -0.048802 1.046853 -0.040871
v -0.048802 1.046853 0.040871
v -0.048802 1.007394 -0.040871
v 0.048802 1.007394 0.040871
v -0.048802 1.007394 0.040871
v 0.048802 1.007394 -0.040871
v 0.083458 0.998411 -0.046054
v 0.083458 0.850625 -0.046054
v 0.245389 1.112703 -0.003459
v 0.245389 0.736334 -0.003459
v 0.308930 0.998411 -0.003459
v 0.308930 0.850625 -0.003459
v 0.158080 0.827818 -0.026987
v 0.158080 1.021219 -0.026986
v 0.083458 0.998411 0.046054
v 0.083458 0.850625 0.046054
v 0.245389 1.112703 0.003459
v 0.245389 0.736334 0.003459
v 0.308930 0.998411 0.003459
v 0.308930 0.850625 0.003459
v 0.158080 0.827818 0.026987
v 0.158080 1.021219 0.026986
v -0.050863 0.998411 -0.057951
v -0.090935 0.998411 -0.021271
v -0.090935 0.850625 -0.021271
v -0.050863 0.850625 -0.057951
v -0.090935 0.998411 0.021271
v -0.050863 0.998411 0.057951
v -0.050863 0.850625 0.057951
v -0.090935 0.850625 0.021271
vt 1.000000 0.500000
vt 0.875000 -0.000000
vt 1.000000 0.000000
vt 1.000000 0.500000
vt 0.875000 -0.000000
vt 1.000000 0.000000
vt 1.000000 0.500000
vt 0.875000 -0.000000
vt 1.000000 0.000000
vt 1.000000 0.500000
vt 0.875000 -0.000000
vt 1.000000 0.000000
vt 0.750000 0.125000
vt 0.750000 0.000000
vt 0.750000 0.125000
vt 0.875000 0.000000
vt 0.875000 0.125000
vt 0.976562 1.000000
vt 0.898438 0.500000
vt 0.976562 0.500000
vt 0.976562 1.000000
vt 0.898438 0.500000
vt 0.976562 0.500000
vt 0.976562 1.000000
vt 0.898438 0.500000
vt 0.976562 0.500000
vt 0.820312 1.000000
vt 0.898438 0.921875
vt 0.898438 1.000000
vt 0.976562 0.968750
vt 0.898438 0.968750
vt 0.976562 0.968750
vt 0.898438 1.000000
vt 0.898438 0.968750
vt 0.976562 0.968750
vt 0.898438 1.000000
vt 0.898438 0.968750
vt 0.976562 1.000000
vt 0.898438 0.500000
vt 0.976562 0.500000
vt 0.898438 0.921875
vt 0.820312 1.000000
vt 0.820312 0.921875
vt 0.976562 0.968750
vt 0.898438 1.000000
vt 0.898438 0.968750
vt 0.626245 0.647081
vt 0.711577 0.647081
vt 0.626245 0.647081
vt 0.828125 0.835938
vt 0.851562 0.640625
vt 0.851562 0.750000
vt 0.710938 0.640625
vt 0.773438 0.765625
vt 0.710938 0.750000
vt 0.773438 0.625000
vt 0.828125 0.835938
vt 0.851562 0.640625
vt 0.828125 0.554688
vt 0.773438 0.765625
vt 0.710938 0.640625
vt 0.710938 0.750000
vt 0.626245 0.743544
vt 0.600787 0.743544
vt 0.626245 0.743544
vt 0.620677 0.750000
vt 0.620677 0.640625
vt 0.770665 0.757324
vt 0.711577 0.743544
vt 0.711577 0.743544
vt 0.773438 0.625000
vt 0.620677 0.750000
vt 0.620677 0.640625
vt 0.844525 0.743544
vt 0.822367 0.819335
vt 0.822367 0.819335
vt 0.822367 0.571290
vt 0.844525 0.647081
vt 0.844525 0.647081
vt 0.770665 0.633301
vt 0.822367 0.571290
vt 0.711577 0.647081
vt 0.770665 0.633301
vt 0.844525 0.743544
vt 0.530662 0.640625
vt 0.500000 0.750000
vt 0.500000 0.640625
vt 0.593750 0.640625
vt 0.593750 0.750000
vt 0.563088 0.750000
vt 0.530662 0.750000
vt 0.770665 0.757324
vt 0.875000 0.500000
vt 0.875000 0.500000
vt 0.875000 0.500000
vt 0.875000 0.500000
vt 0.875000 0.125000
vt 0.750000 0.000000
vt 0.898438 1.000000
vt 0.898438 1.000000
vt 0.898438 1.000000
vt 0.820312 0.921875
vt 0.976562 1.000000
vt 0.976562 1.000000
vt 0.976562 1.000000
vt 0.898438 1.000000
vt 0.898438 1.000000
vt 0.976562 1.000000
vt 0.600787 0.647081
vt 0.600787 0.647081
vt 0.828125 0.554688
vt 0.851562 0.750000
vt 0.600787 0.743544
vt 0.563088 0.640625
vn -1.0000 0.0000 0.0000
vn 0.0000 0.0000 -1.0000
vn 1.0000 0.0000 0.0000
vn 0.0000 0.0000 1.0000
vn 0.0000 -1.0000 0.0000
vn 0.0000 1.0000 0.0000
vn 0.2476 -0.0000 -0.9689
vn 0.2602 0.0000 -0.9656
vn 0.2476 -0.0000 0.9689
vn 0.0882 -0.0000 -0.9961
vn -0.2923 -0.9563 0.0000
vn 0.2602 0.0000 0.9656
vn 0.0882 -0.0000 0.9961
vn 0.8740 -0.4859 0.0000
vn 0.8740 0.4859 0.0000
vn -0.7234 0.6904 0.0000
vn -0.2923 0.9563 0.0000
vn -0.6752 -0.0000 -0.7376
vn -0.6752 -0.0000 0.7376
vn -0.7234 -0.6904 0.0000
s off
f 2/1/1 3/2/1 1/3/1
f 4/4/2 7/5/2 3/6/2
f 8/7/3 5/8/3 7/9/3
f 6/10/4 1/11/4 5/12/4
f 7/5/5 1/13/5 3/14/5
f 4/15/6 6/16/6 8/17/6
f 16/18/3 11/19/3 12/20/3
f 13/21/1 10/22/1 9/23/1
f 15/24/4 9/25/4 11/26/4
f 19/27/6 18/28/6 17/29/6
f 21/30/2 17/29/2 24/31/2
f 22/32/4 20/33/4 23/34/4
f 23/35/1 19/36/1 21/37/1
f 14/38/2 12/39/2 10/40/2
f 24/41/5 23/42/5 21/43/5
f 24/44/3 18/45/3 22/46/3
f 46/47/6 33/48/6 41/49/6
f 28/50/2 29/51/2 30/52/2
f 25/53/7 31/54/7 26/55/7
f 32/56/8 28/50/8 31/54/8
f 36/57/4 37/58/4 35/59/4
f 39/60/9 33/61/9 34/62/9
f 47/63/5 48/64/5 44/65/5
f 25/53/10 44/66/10 41/67/10
f 31/68/11 34/69/11 26/70/11
f 36/57/12 40/71/12 39/60/12
f 47/72/13 33/61/13 46/73/13
f 30/74/14 36/75/14 28/76/14
f 27/77/15 37/78/15 29/79/15
f 32/80/16 35/81/16 27/77/16
f 25/82/17 40/83/17 32/80/17
f 29/79/3 38/84/3 30/74/3
f 43/85/18 41/86/18 44/87/18
f 47/72/19 45/88/19 48/89/19
f 43/85/1 45/90/1 42/91/1
f 28/76/20 39/92/20 31/68/20
f 2/1/1 4/93/1 3/2/1
f 4/4/2 8/94/2 7/5/2
f 8/7/3 6/95/3 5/8/3
f 6/10/4 2/96/4 1/11/4
f 7/5/5 5/97/5 1/13/5
f 4/15/6 2/98/6 6/16/6
f 16/18/3 15/99/3 11/19/3
f 13/21/1 14/100/1 10/22/1
f 15/24/4 13/101/4 9/25/4
f 19/27/6 20/102/6 18/28/6
f 21/30/2 19/103/2 17/29/2
f 22/32/4 18/104/4 20/33/4
f 23/35/1 20/105/1 19/36/1
f 14/38/2 16/106/2 12/39/2
f 24/41/5 22/107/5 23/42/5
f 24/44/3 17/108/3 18/45/3
f 33/48/6 25/82/6 41/49/6
f 41/49/6 42/109/6 45/110/6
f 45/110/6 46/47/6 41/49/6
f 28/50/2 27/111/2 29/51/2
f 25/53/7 32/56/7 31/54/7
f 32/56/8 27/111/8 28/50/8
f 36/57/4 38/112/4 37/58/4
f 39/60/9 40/71/9 33/61/9
f 48/64/5 43/113/5 44/65/5
f 44/65/5 26/70/5 34/69/5
f 34/69/5 47/63/5 44/65/5
f 25/53/10 26/55/10 44/66/10
f 31/68/11 39/92/11 34/69/11
f 36/57/12 35/59/12 40/71/12
f 47/72/13 34/62/13 33/61/13
f 30/74/14 38/84/14 36/75/14
f 27/77/15 35/81/15 37/78/15
f 32/80/16 40/83/16 35/81/16
f 25/82/17 33/48/17 40/83/17
f 29/79/3 37/78/3 38/84/3
f 43/85/18 42/91/18 41/86/18
f 47/72/19 46/73/19 45/88/19
f 43/85/1 48/114/1 45/90/1
f 28/76/20 36/75/20 39/92/20
