# Blender v2.79 (sub 0) OBJ File: 'all.blend'
# www.blender.org
o FullMetalShield
v -0.483038 -0.515011 0.144054
v 0.483038 -0.515011 0.144054
v -0.483038 0.512709 0.144054
v 0.483038 0.512709 0.144054
v -0.184226 0.213897 0.269800
v -0.184226 -0.216200 0.269800
v 0.184226 -0.216200 0.269800
v 0.184226 0.213897 0.269800
v -0.394869 0.424541 0.198687
v -0.394869 -0.426843 0.198687
v 0.394869 -0.426843 0.198687
v 0.394869 0.424541 0.198687
v -0.522708 -0.557213 0.164116
v 0.522708 -0.557213 0.164116
v -0.522708 0.554911 0.164116
v 0.522708 0.554911 0.164116
v -0.522708 -0.557213 0.101537
v 0.522708 -0.557213 0.101537
v -0.522708 0.554911 0.101537
v 0.522708 0.554911 0.101537
v -0.446109 -0.475727 0.102328
v 0.446109 -0.475727 0.102328
v -0.446109 0.473424 0.102328
v 0.446109 0.473424 0.102328
v -0.446109 -0.475727 0.148185
v 0.446109 -0.475727 0.148185
v -0.446109 0.473424 0.148185
v 0.446109 0.473424 0.148185
v -0.495277 -0.496428 0.117487
v 0.495277 -0.496428 0.117487
v -0.495277 0.494126 0.117487
v 0.495277 0.494126 0.117487
v -0.033276 -0.264084 0.123335
v -0.033276 0.255115 0.123335
v -0.033276 -0.264084 -0.238324
v -0.033276 0.255115 -0.237602
v 0.033276 -0.264084 0.123335
v 0.033276 0.255115 0.123335
v 0.033276 -0.264084 -0.238324
v 0.033276 0.255115 -0.237602
v -0.033276 -0.192566 0.123335
v -0.033276 0.183598 0.123335
v -0.033276 0.183598 -0.234029
v -0.033276 -0.192566 -0.234626
v 0.033276 0.183598 -0.234029
v 0.033276 -0.192566 -0.234626
v 0.033276 0.183598 0.123335
v 0.033276 -0.192566 0.123335
v -0.033276 -0.264084 -0.164804
v -0.033276 0.255115 -0.163933
v 0.033276 -0.264084 -0.164804
v 0.033276 0.255115 -0.163933
v 0.033276 -0.192566 -0.160352
v 0.033276 0.183598 -0.159637
v -0.033276 -0.192566 -0.160352
v -0.033276 0.183598 -0.159637
v 0.000000 -0.426843 0.212003
v 0.000000 0.424541 0.212003
v 0.000000 -0.515011 0.153272
v 0.000000 0.512709 0.153272
v 0.000000 -0.216200 0.276271
v 0.000000 0.213897 0.276271
v 0.000000 -0.557213 0.170335
v 0.000000 0.554911 0.170335
v 0.000000 -0.557213 0.106950
v 0.000000 0.554911 0.106950
v 0.000000 -0.475727 0.113271
v 0.000000 0.473424 0.113271
v 0.000000 -0.475727 0.159852
v 0.000000 0.473424 0.159852
v -0.394869 -0.001151 0.215155
v 0.394869 -0.001151 0.215155
v -0.483038 -0.001151 0.155919
v 0.483038 -0.001151 0.155919
v -0.184226 -0.001151 0.278871
v 0.184226 -0.001151 0.278871
v -0.522708 -0.001151 0.172888
v 0.522708 -0.001151 0.172888
v -0.522708 -0.001151 0.109330
v 0.522708 -0.001151 0.109330
v -0.446109 -0.001151 0.115820
v 0.446109 -0.001151 0.115820
v -0.446109 -0.001151 0.162516
v 0.446109 -0.001151 0.162516
v 0.000000 -0.001151 0.287111
vt 0.257812 0.250000
vt 0.000000 0.500000
vt 0.000000 0.250000
vt 0.367188 0.250000
vt 0.421875 0.195312
vt 0.367188 0.195312
vt 0.468750 0.250000
vt 0.421875 0.203125
vt 0.468750 0.203125
vt 0.367188 0.195312
vt 0.296875 0.250000
vt 0.296875 0.195312
vt 0.468750 0.171875
vt 0.421875 0.250000
vt 0.421875 0.171875
vt 0.468750 0.171875
vt 0.421875 0.250000
vt 0.421875 0.171875
vt 0.367188 0.054688
vt 0.296875 0.000000
vt 0.367188 0.000000
vt 0.468750 0.046875
vt 0.421875 0.000000
vt 0.468750 0.000000
vt 0.421875 0.046875
vt 0.367188 0.000000
vt 0.421875 0.054688
vt 0.421875 0.000000
vt 0.367188 0.054688
vt 0.296875 0.000000
vt 0.421875 0.195312
vt 0.421875 0.054688
vt 0.468750 0.125000
vt 0.421875 0.125000
vt 0.468750 0.125000
vt 0.421875 0.125000
vt 0.367188 0.250000
vt 0.296875 0.250000
vt 0.296875 0.195312
vt 0.367188 0.101562
vt 0.296875 0.054688
vt 0.296875 0.101562
vt 0.367188 0.054688
vt 0.367188 0.101562
vt 0.414062 0.054688
vt 0.257812 0.500000
vt 0.421875 0.250000
vt 0.421875 0.250000
vt 0.468750 0.250000
vt 0.468750 0.250000
vt 0.296875 0.054688
vt 0.296875 0.101562
vt 0.296875 0.054688
vt 0.414062 0.195312
vt 0.297674 0.875000
vt 0.250000 0.927312
vt 0.250000 0.875000
vt 0.147816 0.978552
vt 0.125000 0.875000
vt 0.147816 0.875000
vt 0.147816 0.771447
vt 0.250000 0.750000
vt 0.250000 0.771447
vt 0.352184 0.771447
vt 0.375000 0.875000
vt 0.352184 0.875000
vt 0.352184 0.978552
vt 0.250000 1.000000
vt 0.250000 0.978552
vt 0.202326 0.927312
vt 0.202326 0.875000
vt 0.202326 0.822688
vt 0.250000 0.822688
vt 0.297674 0.822688
vt 0.297674 0.927312
vt 0.133099 0.991901
vt 0.133099 0.875000
vt 0.133099 0.875000
vt 0.366901 0.991901
vt 0.250000 0.991901
vt 0.250000 0.991901
vt 0.133099 0.758099
vt 0.250000 0.758099
vt 0.250000 0.758099
vt 0.366901 0.758099
vt 0.366901 0.875000
vt 0.366901 0.875000
vt 0.366901 0.758099
vt 0.366901 0.875000
vt 0.133099 0.991901
vt 0.133099 0.875000
vt 0.366901 0.991901
vt 0.250000 0.991901
vt 0.133099 0.758099
vt 0.250000 0.758099
vt 0.366901 0.991901
vt 0.250000 0.991901
vt 0.133099 0.758099
vt 0.250000 0.758099
vt 0.366901 0.758099
vt 0.366901 0.875000
vt 0.133099 0.991901
vt 0.133099 0.875000
vt 0.133099 0.758099
vt 0.250000 0.758099
vt 0.366901 0.758099
vt 0.366901 0.875000
vt 0.133099 0.991901
vt 0.133099 0.875000
vt 0.366901 0.991901
vt 0.250000 0.991901
vt 0.366901 0.758099
vt 0.133099 0.991901
vt 0.125000 1.000000
vt 0.375000 0.750000
vt 0.133099 0.758099
vt 0.366901 0.991901
vt 0.375000 1.000000
vt 0.125000 0.750000
vn 0.0000 0.0000 1.0000
vn -1.0000 0.0000 0.0000
vn 0.0000 -0.0499 -0.9988
vn 1.0000 0.0000 0.0000
vn 0.0000 -1.0000 0.0000
vn 0.0000 1.0000 0.0000
vn 0.0000 0.0517 -0.9987
vn 0.0000 0.0016 -1.0000
vn 0.0000 -0.0019 1.0000
vn 0.1657 0.0000 0.9862
vn 0.0000 0.1697 0.9855
vn -0.2534 0.2567 0.9327
vn -0.5510 -0.0000 0.8345
vn -0.4262 0.0000 0.9046
vn -0.2534 -0.2567 0.9327
vn 0.0000 -0.5481 0.8364
vn 0.0000 -0.4262 0.9046
vn 0.2534 -0.2567 0.9327
vn 0.5510 -0.0000 0.8345
vn 0.4262 0.0000 0.9046
vn 0.2534 0.2567 0.9327
vn -0.0000 0.5481 0.8364
vn -0.0000 0.4262 0.9046
vn -0.1307 0.1359 0.9821
vn -0.1657 0.0000 0.9862
vn -0.1307 -0.1359 0.9821
vn 0.0000 -0.1697 0.9855
vn 0.1307 -0.1359 0.9821
vn 0.1307 0.1359 0.9821
vn 0.2407 -0.2197 0.9454
vn 0.3972 -0.0000 0.9177
vn 0.3933 -0.0000 0.9194
vn -0.2407 -0.2197 0.9454
vn 0.0000 -0.3788 0.9255
vn 0.0000 -0.3748 0.9271
vn 0.2407 0.2197 0.9454
vn 0.0000 0.3788 0.9255
vn 0.0000 0.3748 0.9271
vn -0.2407 0.2197 0.9454
vn -0.3972 -0.0000 0.9177
vn -0.3933 -0.0000 0.9194
vn 0.0000 -0.0685 -0.9977
vn -0.0064 -0.0105 -0.9999
vn 0.0000 -0.0773 -0.9970
vn -0.0000 0.0685 -0.9977
vn 0.0064 0.0105 -0.9999
vn 0.0000 0.0773 -0.9970
vn -0.0754 0.0000 -0.9972
vn -0.0064 0.0105 -0.9999
vn -0.0844 0.0000 -0.9964
vn 0.0754 0.0000 -0.9972
vn 0.0064 -0.0105 -0.9999
vn 0.0844 0.0000 -0.9964
vn -0.0032 0.0067 -1.0000
vn 0.0032 -0.0067 -1.0000
vn -0.2314 0.2316 0.9449
vn 0.2314 -0.2316 0.9449
vn -0.2819 0.2857 0.9159
vn 0.2819 -0.2857 0.9159
vn 0.0032 0.0067 -1.0000
vn -0.0032 -0.0067 -1.0000
vn -0.2314 -0.2316 0.9449
vn 0.2314 0.2316 0.9449
vn 0.2819 0.2857 0.9159
vn -0.2819 -0.2857 0.9159
s off
f 30/1/1 31/2/1 29/3/1
f 50/4/2 43/5/2 56/6/2
f 36/7/3 45/8/3 43/9/3
f 54/10/4 38/11/4 47/12/4
f 51/13/5 33/14/5 49/15/5
f 50/16/6 38/17/6 52/18/6
f 53/19/4 37/20/4 51/21/4
f 44/22/7 39/23/7 35/24/7
f 43/9/8 46/25/8 44/22/8
f 49/26/2 44/27/2 35/28/2
f 55/29/2 43/5/2 44/27/2
f 33/30/2 55/29/2 49/26/2
f 45/31/4 53/19/4 46/32/4
f 46/32/4 51/21/4 39/23/4
f 36/33/6 52/18/6 40/34/6
f 39/35/5 49/15/5 35/36/5
f 45/31/4 52/37/4 54/10/4
f 34/38/2 56/6/2 42/39/2
f 55/40/6 48/41/6 53/19/6
f 47/42/5 56/43/5 54/44/5
f 53/45/9 56/6/9 55/29/9
f 30/1/1 32/46/1 31/2/1
f 50/4/2 36/47/2 43/5/2
f 36/7/3 40/48/3 45/8/3
f 54/10/4 52/37/4 38/11/4
f 51/13/5 37/49/5 33/14/5
f 50/16/6 34/50/6 38/17/6
f 53/19/4 48/41/4 37/20/4
f 44/22/7 46/25/7 39/23/7
f 43/9/8 45/8/8 46/25/8
f 49/26/2 55/29/2 44/27/2
f 55/29/2 56/6/2 43/5/2
f 33/30/2 41/51/2 55/29/2
f 45/31/4 54/10/4 53/19/4
f 46/32/4 53/19/4 51/21/4
f 36/33/6 50/16/6 52/18/6
f 39/35/5 51/13/5 49/15/5
f 45/31/4 40/48/4 52/37/4
f 34/38/2 50/4/2 56/6/2
f 55/40/6 41/52/6 48/41/6
f 47/42/5 42/53/5 56/43/5
f 53/45/9 54/54/9 56/6/9
s 1
f 76/55/10 62/56/11 85/57/1
f 9/58/12 73/59/13 71/60/14
f 10/61/15 59/62/16 57/63/17
f 11/64/18 74/65/19 72/66/20
f 12/67/21 60/68/22 58/69/23
f 5/70/24 71/60/14 75/71/25
f 6/72/26 57/63/17 61/73/27
f 7/74/28 72/66/20 76/55/10
f 8/75/29 58/69/23 62/56/11
f 3/76/30 77/77/31 73/78/32
f 4/79/33 64/80/34 60/81/35
f 1/82/36 63/83/37 59/84/38
f 2/85/39 78/86/40 74/87/41
f 14/88/4 80/89/4 78/86/4
f 15/90/2 79/91/2 77/77/2
f 16/92/6 66/93/6 64/80/6
f 13/94/5 65/95/5 63/83/5
f 66/93/42 24/96/43 68/97/44
f 65/95/45 21/98/46 67/99/47
f 80/89/48 22/100/49 82/101/50
f 79/91/51 23/102/52 81/103/53
f 67/99/6 25/104/6 69/105/6
f 82/101/2 26/106/2 84/107/2
f 81/103/4 27/108/4 83/109/4
f 68/97/5 28/110/5 70/111/5
f 68/97/5 27/108/5 23/102/5
f 67/99/6 26/106/6 22/100/6
f 65/95/45 22/100/49 18/112/54
f 66/93/42 23/102/52 19/113/55
f 14/88/5 65/95/5 18/112/5
f 15/90/6 66/93/6 19/113/6
f 2/85/39 63/83/37 14/88/56
f 3/76/30 64/80/34 15/90/57
f 5/70/24 58/69/23 9/58/12
f 7/74/28 57/63/17 11/64/18
f 9/58/12 60/68/22 3/114/58
f 11/64/18 59/62/16 2/115/59
f 75/71/25 62/56/11 5/70/24
f 61/73/27 75/71/25 6/72/26
f 81/103/4 25/104/4 21/98/4
f 82/101/2 28/110/2 24/96/2
f 79/91/51 21/98/46 17/116/60
f 80/89/48 24/96/43 20/117/61
f 13/94/2 79/91/2 17/116/2
f 16/92/4 80/89/4 20/117/4
f 4/79/33 78/86/40 16/92/62
f 1/82/36 77/77/31 13/94/63
f 8/75/29 72/66/20 12/67/21
f 6/72/26 71/60/14 10/61/15
f 12/67/21 74/65/19 4/118/64
f 10/61/15 73/59/13 1/119/65
f 61/73/27 76/55/10 85/57/1
f 76/55/10 8/75/29 62/56/11
f 9/58/12 3/114/58 73/59/13
f 10/61/15 1/119/65 59/62/16
f 11/64/18 2/115/59 74/65/19
f 12/67/21 4/118/64 60/68/22
f 5/70/24 9/58/12 71/60/14
f 6/72/26 10/61/15 57/63/17
f 7/74/28 11/64/18 72/66/20
f 8/75/29 12/67/21 58/69/23
f 3/76/30 15/90/57 77/77/31
f 4/79/33 16/92/62 64/80/34
f 1/82/36 13/94/63 63/83/37
f 2/85/39 14/88/56 78/86/40
f 14/88/4 18/112/4 80/89/4
f 15/90/2 19/113/2 79/91/2
f 16/92/6 20/117/6 66/93/6
f 13/94/5 17/116/5 65/95/5
f 66/93/42 20/117/61 24/96/43
f 65/95/45 17/116/60 21/98/46
f 80/89/48 18/112/54 22/100/49
f 79/91/51 19/113/55 23/102/52
f 67/99/6 21/98/6 25/104/6
f 82/101/2 22/100/2 26/106/2
f 81/103/4 23/102/4 27/108/4
f 68/97/5 24/96/5 28/110/5
f 68/97/5 70/111/5 27/108/5
f 67/99/6 69/105/6 26/106/6
f 65/95/45 67/99/47 22/100/49
f 66/93/42 68/97/44 23/102/52
f 14/88/5 63/83/5 65/95/5
f 15/90/6 64/80/6 66/93/6
f 2/85/39 59/84/38 63/83/37
f 3/76/30 60/81/35 64/80/34
f 5/70/24 62/56/11 58/69/23
f 7/74/28 61/73/27 57/63/17
f 9/58/12 58/69/23 60/68/22
f 11/64/18 57/63/17 59/62/16
f 75/71/25 85/57/1 62/56/11
f 61/73/27 85/57/1 75/71/25
f 81/103/4 83/109/4 25/104/4
f 82/101/2 84/107/2 28/110/2
f 79/91/51 81/103/53 21/98/46
f 80/89/48 82/101/50 24/96/43
f 13/94/2 77/77/2 79/91/2
f 16/92/4 78/86/4 80/89/4
f 4/79/33 74/87/41 78/86/40
f 1/82/36 73/78/32 77/77/31
f 8/75/29 76/55/10 72/66/20
f 6/72/26 75/71/25 71/60/14
f 12/67/21 72/66/20 74/65/19
f 10/61/15 71/60/14 73/59/13
f 61/73/27 7/74/28 76/55/10
