# Blender v2.79 (sub 0) OBJ File: 'untitled.blend'
# www.blender.org
o Sword
v 0.022972 0.099079 -0.022972
v 0.022972 -0.075419 -0.022972
v 0.022972 0.099079 0.022972
v 0.022972 -0.075419 0.022972
v -0.022972 0.099079 -0.022972
v -0.022972 -0.075419 -0.022972
v -0.022972 0.099079 0.022972
v -0.022972 -0.075419 0.022972
v 0.029886 -0.073294 -0.029886
v 0.029886 -0.133066 -0.029886
v 0.029886 -0.073294 0.029886
v 0.029886 -0.133066 0.029886
v -0.029886 -0.073294 -0.029886
v -0.029886 -0.133066 -0.029886
v -0.029886 -0.073294 0.029886
v -0.029886 -0.133066 0.029886
v -0.045815 0.090230 -0.029569
v 0.045815 0.090230 -0.029569
v 0.045815 0.140778 -0.029569
v -0.045815 0.140778 -0.029569
v -0.045815 0.140778 0.029569
v 0.045815 0.140778 0.029569
v 0.042119 0.620306 -0.008081
v 0.042119 0.131968 -0.008081
v 0.042119 0.620306 0.008081
v 0.042119 0.131968 0.008081
v -0.042119 0.620306 -0.008081
v -0.042119 0.131968 -0.008081
v -0.042119 0.620306 0.008081
v -0.042119 0.131968 0.008081
v -0.000000 0.131968 -0.008081
v -0.000000 0.675152 -0.008081
v -0.000000 0.675152 0.008081
v -0.000000 0.131968 0.008081
v 0.045815 0.090230 0.029569
v -0.045815 0.090230 0.029569
v 0.070438 0.170941 -0.023991
v 0.070438 0.120392 -0.023991
v 0.070438 0.170941 0.023991
v 0.070438 0.120392 0.023991
v -0.070438 0.170941 -0.023991
v -0.070438 0.120392 -0.023991
v -0.070438 0.170941 0.023991
v -0.070438 0.120392 0.023991
v -0.000000 0.620306 0.008081
v -0.000000 0.620306 -0.008081
vt 1.000000 0.156250
vt 0.828125 0.000000
vt 1.000000 0.000000
vt 0.156250 0.609375
vt 0.000000 0.000000
vt 0.156250 0.000000
vt 0.156250 0.609375
vt 0.000000 0.000000
vt 0.156250 0.000000
vt 0.156250 0.609375
vt 0.000000 0.000000
vt 0.156250 0.000000
vt 0.156250 0.609375
vt 0.000000 0.000000
vt 0.156250 0.000000
vt 1.000000 0.156250
vt 0.828125 0.000000
vt 1.000000 0.000000
vt 1.000000 0.156250
vt 0.828125 0.000000
vt 1.000000 0.000000
vt 1.000000 0.000000
vt 0.828125 0.156250
vt 1.000000 0.156250
vt 0.828125 0.000000
vt 0.828125 0.156250
vt 1.000000 0.000000
vt 0.000000 0.859375
vt 0.140625 1.000000
vt 0.140625 0.859375
vt 0.515625 0.859375
vt 0.515625 1.000000
vt 0.140625 0.859375
vt 0.515625 0.859375
vt 0.171875 0.640625
vt 0.000000 0.859375
vt 0.000000 0.640625
vt 0.140625 1.000000
vt 0.656250 1.000000
vt 0.828125 0.859375
vt 0.656250 0.859375
vt 0.656250 0.859375
vt 0.828125 0.640625
vt 0.828125 0.859375
vt 0.671875 0.640625
vt 0.171875 0.859375
vt 0.906250 0.187500
vt 0.812500 0.218750
vt 0.812500 0.187500
vt 0.906250 0.281250
vt 1.000000 0.281250
vt 0.906250 0.375000
vt 0.906250 0.343750
vt 0.156250 0.375000
vt 0.156250 0.343750
vt 0.906250 0.187500
vt 0.156250 0.218750
vt 0.156250 0.187500
vt 0.906250 0.281250
vt 1.000000 0.281250
vt 0.906250 0.375000
vt 0.000000 0.000000
vt 0.000000 0.000000
vt 0.000000 0.000000
vt 0.000000 0.000000
vt 0.000000 0.000000
vt 0.906250 0.187500
vt 0.906250 0.343750
vt 0.812500 0.375000
vt 0.812500 0.343750
vt 0.828125 0.640625
vt 0.671875 0.859375
vt 0.656250 0.859375
vt 0.515625 1.000000
vt 0.656250 0.859375
vt 0.828125 1.000000
vt 0.828125 0.859375
vt -0.000000 0.859375
vt 0.156250 0.640625
vt 0.156250 0.859375
vt 0.656250 0.640625
vt 0.156250 0.375000
vt 0.156250 0.281250
vt 0.156250 0.187500
vt 0.156250 0.281250
vt 0.156250 0.187500
vt 0.156250 0.375000
vt 0.828125 0.156250
vt 0.000000 0.609375
vt 0.000000 0.609375
vt 0.000000 0.609375
vt 0.000000 0.609375
vt 0.828125 0.156250
vt 1.000000 0.156250
vt 0.828125 0.156250
vt 0.828125 0.000000
vt 0.000000 1.000000
vt 0.000000 1.000000
vt 0.828125 1.000000
vt 0.906250 0.218750
vt 0.906250 0.375000
vt 0.906250 0.218750
vt 0.000000 0.000000
vt 0.906250 0.375000
vt 0.828125 0.859375
vt 0.656250 1.000000
vt 0.656250 1.000000
vt -0.000000 0.640625
vn 0.0000 0.0000 -1.0000
vn 0.0000 0.0000 1.0000
vn -1.0000 0.0000 0.0000
vn 1.0000 0.0000 0.0000
vn 0.0000 -1.0000 0.0000
vn 0.0000 1.0000 0.0000
vn -0.2209 0.0000 -0.9753
vn -0.7746 -0.6324 0.0000
vn -0.2209 0.0000 0.9753
vn -0.7746 0.6324 0.0000
vn -0.7931 0.6091 0.0000
vn 0.7931 0.6091 0.0000
vn 0.7746 -0.6324 0.0000
vn 0.2209 0.0000 0.9753
vn 0.2209 0.0000 -0.9753
vn 0.7746 0.6324 0.0000
s off
f 13/1/1 10/2/1 14/3/1
f 3/4/2 8/5/2 4/6/2
f 7/7/3 6/8/3 8/9/3
f 5/10/1 2/11/1 6/12/1
f 1/13/4 4/14/4 2/15/4
f 11/16/2 16/17/2 12/18/2
f 15/19/3 14/20/3 16/21/3
f 10/22/5 16/23/5 14/20/5
f 9/24/4 12/25/4 10/22/4
f 13/26/6 11/27/6 9/24/6
f 42/28/7 20/29/7 17/30/7
f 20/29/1 18/31/1 17/30/1
f 22/32/2 36/33/2 35/34/2
f 17/35/8 44/36/8 42/37/8
f 21/38/9 44/36/9 36/33/9
f 43/39/3 42/40/3 44/41/3
f 19/42/10 39/43/10 37/44/10
f 18/45/5 36/46/5 17/35/5
f 27/47/11 33/48/11 32/49/11
f 46/50/1 32/51/1 23/52/1
f 29/53/3 28/54/3 30/55/3
f 23/56/4 26/57/4 24/58/4
f 45/59/2 33/60/2 29/61/2
f 24/62/5 34/63/5 31/64/5
f 31/64/5 30/65/5 28/66/5
f 25/67/2 33/60/2 45/59/2
f 27/47/1 32/51/1 46/50/1
f 32/68/12 25/69/12 23/70/12
f 38/71/13 35/72/13 18/45/13
f 40/73/14 22/32/14 35/34/14
f 19/74/15 38/75/15 18/31/15
f 37/76/4 40/73/4 38/77/4
f 41/78/16 21/79/16 20/80/16
f 20/80/6 22/81/6 19/42/6
f 45/59/2 30/82/2 34/83/2
f 25/67/2 34/83/2 26/84/2
f 27/47/1 31/85/1 28/86/1
f 46/50/1 24/87/1 31/85/1
f 13/1/1 9/88/1 10/2/1
f 3/4/2 7/89/2 8/5/2
f 7/7/3 5/90/3 6/8/3
f 5/10/1 1/91/1 2/11/1
f 1/13/4 3/92/4 4/14/4
f 11/16/2 15/93/2 16/17/2
f 15/19/3 13/26/3 14/20/3
f 10/22/5 12/94/5 16/23/5
f 9/24/4 11/95/4 12/25/4
f 13/26/6 15/96/6 11/27/6
f 42/28/7 41/97/7 20/29/7
f 20/29/1 19/74/1 18/31/1
f 22/32/2 21/38/2 36/33/2
f 17/35/8 36/46/8 44/36/8
f 21/38/9 43/98/9 44/36/9
f 43/39/3 41/99/3 42/40/3
f 19/42/10 22/81/10 39/43/10
f 18/45/5 35/72/5 36/46/5
f 27/47/11 29/100/11 33/48/11
f 29/53/3 27/101/3 28/54/3
f 23/56/4 25/102/4 26/57/4
f 24/62/5 26/103/5 34/63/5
f 31/64/5 34/63/5 30/65/5
f 32/68/12 33/104/12 25/69/12
f 38/71/13 40/105/13 35/72/13
f 40/73/14 39/106/14 22/32/14
f 19/74/15 37/107/15 38/75/15
f 37/76/4 39/106/4 40/73/4
f 41/78/16 43/108/16 21/79/16
f 20/80/6 21/79/6 22/81/6
f 45/59/2 29/61/2 30/82/2
f 25/67/2 45/59/2 34/83/2
f 27/47/1 46/50/1 31/85/1
f 46/50/1 23/52/1 24/87/1
