# Blender v2.79 (sub 0) OBJ File: 'n1.blend'
# www.blender.org
o Karloving
v -1.000000 -2.272999 0.693735
v -1.000000 3.477855 0.693735
v -1.000000 -2.272999 -0.693735
v -1.000000 3.477855 -0.693735
v 1.000000 -2.272999 0.693735
v 1.000000 3.477855 0.693735
v 1.000000 -2.272999 -0.693735
v 1.000000 3.477855 -0.693735
v -1.488214 -2.688486 0.861562
v -0.000000 -1.200273 0.861562
v -1.488214 -2.688486 -0.861562
v -0.000000 -1.200273 -0.861562
v -0.000000 -4.176700 0.861562
v 1.488214 -2.688486 0.861562
v -0.000000 -4.176700 -0.861562
v 1.488214 -2.688486 -0.861562
v -1.718055 5.306905 0.081124
v -1.076266 22.457867 0.081124
v -1.718055 5.306905 -0.081124
v -1.076266 22.457867 -0.081124
v 1.718055 5.306905 0.081124
v 1.076266 22.457867 0.081124
v 1.718055 5.306905 -0.081124
v 1.076266 22.457867 -0.081124
v 0.572685 5.306905 -0.325764
v -0.572685 5.306905 -0.325764
v -0.358755 23.253771 -0.073603
v 0.358755 23.253771 -0.073603
v -0.572685 5.306905 0.325764
v 0.572685 5.306905 0.325764
v 0.358755 23.253771 0.073603
v -0.358755 23.253771 0.073603
v -2.807970 4.228364 0.754817
v -2.232970 6.040956 0.754817
v -2.807970 4.228364 -0.754817
v -2.232970 6.040956 -0.754817
v -1.162943 3.448986 -0.980389
v -0.886268 5.441270 -0.976990
v -1.162943 3.448986 0.980389
v -0.886268 5.441270 0.976990
v -2.721117 5.197257 0.754817
v -2.721117 5.197257 -0.754817
v -1.068852 4.492079 0.986259
v -1.068852 4.492079 -0.986259
v -3.033634 4.298548 0.000000
v -2.458633 6.111140 0.000000
v -0.909700 5.448558 0.000000
v -1.183280 3.455312 0.000000
v -2.946781 5.267441 0.000000
v 2.807970 4.228364 0.754817
v 2.232970 6.040956 0.754817
v 2.807970 4.228364 -0.754817
v 2.232970 6.040956 -0.754817
v 1.162943 3.448986 -0.980389
v 0.886268 5.441270 -0.976990
v 1.162943 3.448986 0.980389
v 0.886268 5.441270 0.976990
v 2.721117 5.197257 0.754817
v 2.721117 5.197257 -0.754817
v 1.068852 4.492079 0.986259
v 1.068852 4.492079 -0.986259
v 0.000000 3.371788 -1.002732
v 0.000000 5.612560 -1.002732
v 0.000000 3.371788 1.002732
v 0.000000 5.612560 1.002732
v 0.000000 4.371788 -1.002732
v 0.000000 4.371788 1.002732
v 3.033634 4.298548 0.000000
v 2.458633 6.111140 0.000000
v 0.909700 5.448558 0.000000
v 1.183280 3.455312 0.000000
v 2.946781 5.267441 0.000000
v 0.000000 3.371788 0.000000
v 0.000000 5.612560 0.000000
vt 0.062500 1.000000
vt 0.000000 0.816406
vt 0.062500 0.816406
vt 0.062500 1.000000
vt 0.000000 0.816406
vt 0.062500 0.816406
vt 0.062500 1.000000
vt 0.000000 0.816406
vt 0.062500 0.816406
vt 0.062500 1.000000
vt 0.000000 0.816406
vt 0.062500 0.816406
vt 0.937500 0.312500
vt 0.902344 0.250000
vt 0.937500 0.250000
vt 0.937500 0.312500
vt 1.000000 0.250000
vt 0.937500 0.250000
vt 0.937500 0.312500
vt 0.902344 0.250000
vt 0.937500 0.250000
vt 1.000000 0.250000
vt 0.937500 0.312500
vt 0.902344 0.250000
vt 0.902344 0.250000
vt 0.937500 0.312500
vt 0.902344 0.312500
vt 0.003906 0.351562
vt -0.000000 0.000000
vt 0.003906 -0.000000
vt 0.019531 -0.000000
vt -0.000000 0.347656
vt -0.000000 -0.000000
vt 0.003906 0.351562
vt -0.000000 0.000000
vt 0.003906 -0.000000
vt 0.019531 -0.000000
vt -0.000000 0.347656
vt -0.000000 -0.000000
vt 0.003906 0.351562
vt -0.000000 0.312500
vt 0.003906 0.312500
vt 0.058594 0.351562
vt 0.062500 0.312500
vt 0.062500 0.351562
vt 0.015625 0.367188
vt 0.046875 0.363281
vt 0.046875 0.367188
vt 0.062500 0.347656
vt 0.042969 -0.000000
vt 0.062500 -0.000000
vt 0.042969 0.363281
vt 0.062500 0.347656
vt 0.042969 -0.000000
vt 0.062500 -0.000000
vt 0.042969 0.363281
vt 0.875000 0.937500
vt 0.906250 0.968750
vt 0.875000 0.968750
vt 0.937500 1.000000
vt 1.000000 0.968750
vt 0.937500 0.968750
vt 0.937500 0.906250
vt 1.000000 0.875000
vt 0.937500 0.875000
vt 0.906250 0.906250
vt 0.906250 0.875000
vt 0.937500 0.906250
vt 1.000000 0.937500
vt 1.000000 0.906250
vt 0.906250 0.968750
vt 1.000000 0.968750
vt 0.937500 1.000000
vt 0.937500 0.968750
vt 1.000000 0.937500
vt 0.937500 0.937500
vt 0.937500 0.937500
vt 0.906250 0.937500
vt 0.875000 1.000000
vt 0.906250 1.000000
vt 0.906250 0.968750
vt 0.906250 0.937500
vt 0.906250 0.906250
vt 0.937500 0.875000
vt 0.843750 0.968750
vt 0.843750 1.000000
vt 1.000000 0.875000
vt 0.937500 0.937500
vt 0.906250 0.937500
vt 1.000000 0.937500
vt 0.906250 0.968750
vt 0.875000 0.937500
vt 0.875000 0.968750
vt 1.000000 0.968750
vt 0.937500 1.000000
vt 0.937500 0.968750
vt 0.937500 0.906250
vt 1.000000 0.875000
vt 1.000000 0.906250
vt 0.937500 0.875000
vt 1.000000 0.937500
vt 0.937500 0.906250
vt 1.000000 0.906250
vt 0.906250 1.000000
vt 1.000000 0.968750
vt 0.937500 1.000000
vt 1.000000 1.000000
vt 1.000000 0.937500
vt 0.937500 0.968750
vt 0.937500 0.937500
vt 0.875000 1.000000
vt 0.937500 0.937500
vt 0.937500 0.875000
vt 0.906250 0.875000
vt 0.843750 0.968750
vt 0.843750 1.000000
vt 1.000000 0.875000
vt 0.937500 0.937500
vt 1.000000 0.937500
vt 0.843750 0.937500
vt 0.000000 1.000000
vt 0.000000 1.000000
vt 0.000000 1.000000
vt 0.000000 1.000000
vt 0.902344 0.312500
vt 1.000000 0.312500
vt 0.902344 0.312500
vt 1.000000 0.312500
vt 0.902344 0.312500
vt 0.937500 0.250000
vt 0.000000 0.351562
vt 0.019531 0.363281
vt 0.000000 0.351562
vt 0.019531 0.363281
vt -0.000000 0.351562
vt 0.058594 0.312500
vt 0.015625 0.363281
vt 0.906250 0.937500
vt 1.000000 1.000000
vt 1.000000 0.906250
vt 1.000000 1.000000
vt 0.906250 1.000000
vt 0.843750 0.937500
vt 0.906250 0.937500
vt 1.000000 1.000000
vt 0.906250 1.000000
vn -1.0000 0.0000 0.0000
vn 0.0000 0.0000 -1.0000
vn 1.0000 0.0000 0.0000
vn 0.0000 0.0000 1.0000
vn -0.7071 0.7071 0.0000
vn 0.7071 -0.7071 0.0000
vn -0.7071 -0.7071 0.0000
vn 0.7071 0.7071 0.0000
vn -0.9993 0.0374 0.0000
vn 0.2089 0.0078 -0.9779
vn 0.9993 0.0374 0.0000
vn -0.2089 0.0078 0.9779
vn 0.7427 0.6696 0.0000
vn -0.7427 0.6696 -0.0000
vn 0.0000 1.0000 0.0000
vn 0.2089 0.0078 0.9779
vn 0.0000 0.0140 0.9999
vn -0.2089 0.0078 -0.9779
vn 0.0000 0.0140 -0.9999
vn -0.8278 0.4790 -0.2920
vn -0.1245 0.0336 0.9916
vn 0.4072 0.9133 -0.0030
vn -0.1898 0.9818 0.0000
vn -0.4144 -0.9093 0.0393
vn -0.0140 0.0125 0.9998
vn -0.1245 0.0336 -0.9916
vn -0.1329 0.0064 -0.9911
vn -0.0192 0.0000 0.9998
vn -0.1329 0.0064 0.9911
vn -0.9524 0.0854 -0.2927
vn -0.0192 0.0000 -0.9998
vn -0.0140 0.0125 -0.9998
vn -0.0704 -0.9975 -0.0050
vn -0.0704 -0.9975 0.0050
vn -0.9524 0.0854 0.2927
vn -0.4144 -0.9093 -0.0393
vn 0.4072 0.9133 0.0030
vn -0.8278 0.4790 0.2920
vn 0.8278 0.4790 -0.2920
vn 0.1245 0.0336 0.9916
vn -0.3931 0.9189 -0.0321
vn 0.1774 0.9841 0.0116
vn 0.4144 -0.9093 0.0393
vn 0.0290 0.0000 0.9996
vn 0.1297 0.0750 -0.9887
vn 0.1337 0.0120 -0.9910
vn 0.0192 0.0000 0.9998
vn 0.1329 0.0064 0.9911
vn 0.9524 0.0854 -0.2927
vn 0.0159 -0.0042 -0.9999
vn 0.0140 0.0125 -0.9998
vn 0.0704 -0.9975 -0.0050
vn 0.0662 -0.9978 0.0000
vn 0.9524 0.0854 0.2927
vn 0.4285 -0.9035 -0.0031
vn 0.1898 0.9818 0.0000
vn -0.4072 0.9133 0.0030
vn 0.8278 0.4790 0.2920
vn 0.0052 0.0141 -0.9999
vn -0.0052 0.0141 0.9999
vn 0.0052 0.0141 0.9999
vn -0.0052 0.0141 -0.9999
vn -0.1297 0.0750 0.9887
vn 0.3931 0.9189 -0.0321
vn -0.1774 0.9841 0.0116
vn -0.4285 -0.9035 0.0031
vn -0.0290 0.0000 0.9996
vn -0.1297 0.0750 -0.9887
vn -0.1337 0.0120 -0.9910
vn -0.0159 -0.0042 0.9999
vn -0.1337 0.0120 0.9910
vn -0.0159 -0.0042 -0.9999
vn -0.0290 0.0000 -0.9996
vn -0.0662 -0.9978 0.0000
vn -0.4285 -0.9035 -0.0031
vn -0.1774 0.9841 -0.0116
vn 0.3931 0.9189 0.0321
vn 0.1297 0.0750 0.9887
vn -0.4072 0.9133 -0.0030
vn 0.4285 -0.9035 0.0031
vn 0.0140 0.0125 0.9998
vn 0.1245 0.0336 -0.9916
vn 0.1329 0.0064 -0.9911
vn 0.0159 -0.0042 0.9999
vn 0.1337 0.0120 0.9910
vn 0.0192 0.0000 -0.9998
vn 0.0290 0.0000 -0.9996
vn 0.0704 -0.9975 0.0050
vn 0.4144 -0.9093 -0.0393
vn 0.1774 0.9841 -0.0116
vn -0.3931 0.9189 0.0321
s off
f 2/1/1 3/2/1 1/3/1
f 4/4/2 7/5/2 3/6/2
f 8/7/3 5/8/3 7/9/3
f 6/10/4 1/11/4 5/12/4
f 10/13/5 11/14/5 9/15/5
f 12/16/2 15/17/2 11/18/2
f 16/19/6 13/20/6 15/21/6
f 13/22/4 10/13/4 9/15/4
f 15/23/7 9/24/7 11/18/7
f 12/25/8 14/26/8 16/27/8
f 18/28/9 19/29/9 17/30/9
f 25/31/10 24/32/10 23/33/10
f 24/34/11 21/35/11 23/36/11
f 29/37/12 18/38/12 17/39/12
f 28/40/13 22/41/13 24/42/13
f 27/43/14 18/44/14 32/45/14
f 27/46/15 31/47/15 28/48/15
f 22/49/16 30/50/16 21/51/16
f 31/52/17 29/37/17 30/50/17
f 20/53/18 26/54/18 19/55/18
f 27/56/19 25/31/19 26/54/19
f 46/57/20 42/58/20 49/59/20
f 40/60/21 41/61/21 43/62/21
f 47/63/22 34/64/22 40/65/22
f 74/66/23 40/65/23 65/67/23
f 48/68/24 33/69/24 45/70/24
f 67/71/25 40/60/25 43/62/25
f 42/72/26 38/73/26 44/74/26
f 35/75/27 44/74/27 37/76/27
f 67/71/28 39/77/28 64/78/28
f 43/62/29 33/69/29 39/77/29
f 45/79/30 42/58/30 35/80/30
f 37/76/31 66/81/31 62/82/31
f 38/73/32 66/81/32 44/74/32
f 73/83/33 39/77/33 48/68/33
f 37/84/34 73/83/34 48/68/34
f 41/85/35 45/79/35 33/86/35
f 35/87/36 48/68/36 45/70/36
f 38/88/23 74/66/23 63/89/23
f 36/90/37 47/63/37 38/88/37
f 41/85/38 46/57/38 49/59/38
f 59/91/39 69/92/39 72/93/39
f 58/94/40 57/95/40 60/96/40
f 70/97/41 51/98/41 69/99/41
f 74/66/42 57/100/42 70/97/42
f 50/101/43 71/102/43 68/103/43
f 67/71/44 57/95/44 65/104/44
f 59/105/45 55/106/45 53/107/45
f 52/108/46 61/109/46 59/105/46
f 56/110/47 67/71/47 64/78/47
f 50/101/48 60/96/48 56/110/48
f 68/111/49 59/91/49 72/93/49
f 54/112/50 66/81/50 61/109/50
f 66/81/51 55/106/51 61/109/51
f 56/110/52 73/83/52 71/102/52
f 54/113/53 73/83/53 62/114/53
f 68/111/54 58/115/54 50/116/54
f 52/117/55 71/102/55 54/113/55
f 74/66/56 55/118/56 63/89/56
f 70/97/57 53/119/57 55/118/57
f 58/115/58 69/92/58 51/120/58
f 2/1/1 4/121/1 3/2/1
f 4/4/2 8/122/2 7/5/2
f 8/7/3 6/123/3 5/8/3
f 6/10/4 2/124/4 1/11/4
f 10/13/5 12/125/5 11/14/5
f 12/16/2 16/126/2 15/17/2
f 16/19/6 14/127/6 13/20/6
f 13/22/4 14/128/4 10/13/4
f 15/23/7 13/129/7 9/24/7
f 12/25/8 10/130/8 14/26/8
f 18/28/9 20/131/9 19/29/9
f 25/31/59 28/132/59 24/32/59
f 24/34/11 22/133/11 21/35/11
f 29/37/60 32/134/60 18/38/60
f 28/40/13 31/135/13 22/41/13
f 27/43/14 20/136/14 18/44/14
f 27/46/15 32/137/15 31/47/15
f 22/49/61 31/52/61 30/50/61
f 31/52/17 32/134/17 29/37/17
f 20/53/62 27/56/62 26/54/62
f 27/56/19 28/132/19 25/31/19
f 46/57/20 36/138/20 42/58/20
f 40/60/63 34/139/63 41/61/63
f 47/63/64 46/140/64 34/64/64
f 74/66/65 47/63/65 40/65/65
f 48/68/66 39/77/66 33/69/66
f 67/71/67 65/104/67 40/60/67
f 42/72/68 36/141/68 38/73/68
f 35/75/69 42/72/69 44/74/69
f 67/71/70 43/62/70 39/77/70
f 43/62/71 41/61/71 33/69/71
f 45/79/30 49/59/30 42/58/30
f 37/76/72 44/74/72 66/81/72
f 38/73/73 63/142/73 66/81/73
f 73/83/74 64/78/74 39/77/74
f 37/84/74 62/114/74 73/83/74
f 41/85/35 49/59/35 45/79/35
f 35/87/75 37/84/75 48/68/75
f 38/88/76 47/63/76 74/66/76
f 36/90/77 46/140/77 47/63/77
f 41/85/38 34/143/38 46/57/38
f 59/91/39 53/144/39 69/92/39
f 58/94/78 51/145/78 57/95/78
f 70/97/79 57/100/79 51/98/79
f 74/66/56 65/67/56 57/100/56
f 50/101/80 56/110/80 71/102/80
f 67/71/81 60/96/81 57/95/81
f 59/105/82 61/109/82 55/106/82
f 52/108/83 54/112/83 61/109/83
f 56/110/84 60/96/84 67/71/84
f 50/101/85 58/94/85 60/96/85
f 68/111/49 52/146/49 59/91/49
f 54/112/86 62/82/86 66/81/86
f 66/81/87 63/142/87 55/106/87
f 56/110/53 64/78/53 73/83/53
f 54/113/88 71/102/88 73/83/88
f 68/111/54 72/93/54 58/115/54
f 52/117/89 68/103/89 71/102/89
f 74/66/90 70/97/90 55/118/90
f 70/97/91 69/99/91 53/119/91
f 58/115/58 72/93/58 69/92/58
