# Blender v2.79 (sub 0) OBJ File: 'n4.blend'
# www.blender.org
o Katana
v -0.615696 -2.728401 0.549480
v -0.885068 2.636571 0.549480
v -0.615696 -2.728401 -0.549480
v -0.885068 2.636571 -0.549480
v 1.154439 -2.728401 0.549480
v 0.885068 2.636571 0.549480
v 1.154439 -2.728401 -0.549480
v 0.885068 2.636571 -0.549480
v -1.344972 2.895239 -1.000000
v -1.344972 2.456820 -1.000000
v -1.344972 2.895239 1.000000
v -1.344972 2.456820 1.000000
v 1.344972 2.456820 1.000000
v 1.344972 2.895239 1.000000
v 1.344972 2.456820 -1.000000
v 1.344972 2.895239 -1.000000
v -0.817983 -2.969852 0.664051
v -0.817983 -2.561476 0.664051
v -0.817983 -2.969852 -0.664051
v -0.817983 -2.561476 -0.664051
v 1.356726 -2.969852 0.664051
v 1.356726 -2.561476 0.664051
v 1.356726 -2.969852 -0.664051
v 1.356726 -2.561476 -0.664051
v -0.817983 -2.969852 0.664051
v -0.817983 -2.561476 0.664051
v 1.356726 -2.969852 0.664051
v 1.356726 -2.561476 0.664051
v -0.885068 1.173623 0.549480
v -0.762911 -1.262387 0.549480
v -0.762911 -1.262387 -0.549480
v -0.885068 1.173623 -0.549480
v 1.007224 -1.262387 -0.549480
v 0.885068 1.173623 -0.549480
v 1.007224 -1.262387 0.549480
v 0.885068 1.173623 0.549480
v -0.962596 2.844717 0.113318
v 0.492240 19.861286 0.113318
v -0.962596 2.844717 -0.113318
v 0.492240 19.861286 -0.113318
v 0.962596 2.844717 0.113318
v 2.417431 22.031311 0.113318
v 0.962596 2.844717 -0.113318
v 2.417431 22.031311 -0.113318
v -0.241083 15.572606 0.113318
v -0.962595 7.242441 0.113318
v -0.962596 7.242441 -0.113318
v -0.241083 15.572606 -0.113318
v 0.962595 8.327454 -0.113318
v 1.594877 16.607330 -0.113318
v 0.962596 8.327454 0.113318
v 1.594877 16.607330 0.113318
vt 0.523438 1.000000
vt 0.539062 0.937500
vt 0.539062 1.000000
vt 0.187500 0.866574
vt 0.125000 0.816406
vt 0.187500 0.816406
vt 0.187500 0.866574
vt 0.125000 0.816406
vt 0.187500 0.816406
vt 0.625000 0.937500
vt 0.539062 0.921875
vt 0.625000 0.921875
vt 0.625000 0.937500
vt 0.539062 0.937500
vt 0.523438 1.000000
vt 0.523438 0.937500
vt 0.539062 0.921875
vt 0.187500 0.866574
vt 0.125000 0.816406
vt 0.187500 0.816406
vt 0.539062 1.000000
vt 0.625000 1.000000
vt 0.519531 0.917969
vt 0.539062 0.875000
vt 0.539062 0.917969
vt 0.539062 0.855469
vt 0.625000 0.875000
vt 0.539062 0.875000
vt 0.519531 0.917969
vt 0.519531 0.875000
vt 0.539062 0.917969
vt 0.625000 0.875000
vt 0.625000 0.917969
vt 0.625000 0.875000
vt 0.539062 0.855469
vt 0.625000 0.855469
vt 0.187500 0.816406
vt 0.125000 0.866574
vt 0.125000 0.816406
vt 0.187500 1.000000
vt 0.125000 0.949937
vt 0.187500 0.949937
vt 0.187500 1.000000
vt 0.125000 0.949937
vt 0.187500 0.949937
vt 0.187500 1.000000
vt 0.125000 0.949937
vt 0.187500 0.949937
vt 0.187500 0.949937
vt 0.125000 0.866574
vt 0.187500 0.866574
vt 0.187500 1.000000
vt 0.125000 0.949937
vt 0.242188 0.000000
vt 0.285156 0.084800
vt 0.285156 0.000000
vt 0.246094 0.106043
vt 0.246094 0.000000
vt 0.285156 0.085809
vt 0.281250 0.000000
vt 0.000000 0.000000
vt 0.000000 0.000000
vt 0.000000 0.000000
vt 0.285156 0.084800
vt 0.242188 0.000000
vt 0.285156 0.000000
vt 0.246094 0.371094
vt 0.242188 0.266187
vt 0.246094 0.266187
vt 0.285156 0.328125
vt 0.242188 0.266187
vt 0.285156 0.245428
vt 0.285156 0.248350
vt 0.281250 0.332031
vt 0.281250 0.248350
vt 0.285156 0.245428
vt 0.242188 0.106043
vt 0.242188 0.106043
vt 0.285156 0.328125
vt 0.523438 0.937500
vt 0.125000 0.866574
vt 0.539062 0.937500
vt 0.625000 1.000000
vt 0.539062 1.000000
vt 0.625000 0.921875
vt 0.125000 0.866574
vt 0.519531 0.875000
vt 0.625000 0.855469
vt 0.539062 0.917969
vt 0.625000 0.917969
vt 0.539062 0.875000
vt 0.539062 0.875000
vt 0.125000 1.000000
vt 0.125000 1.000000
vt 0.125000 1.000000
vt 0.125000 1.000000
vt 0.281250 0.085809
vt 0.000000 0.000000
vt 0.242188 0.371094
vt 0.242188 0.371094
vt 0.285156 0.332031
vn -1.0000 0.0000 0.0000
vn 0.0000 0.0000 1.0000
vn 0.9950 0.0999 0.0000
vn 0.0000 -1.0000 0.0000
vn 1.0000 0.0000 0.0000
vn 0.0000 0.0000 -1.0000
vn -0.9950 -0.0999 0.0000
vn 0.0000 1.0000 0.0000
vn 0.9987 0.0501 0.0000
vn -0.9987 -0.0501 0.0000
vn -0.7480 0.6636 0.0000
vn 0.9887 -0.1499 0.0000
vn -0.9857 0.1685 0.0000
vn 0.9971 -0.0761 0.0000
vn -0.9963 0.0863 0.0000
s off
f 11/1/1 10/2/1 12/3/1
f 35/4/2 1/5/2 5/6/2
f 33/7/3 5/8/3 7/9/3
f 14/10/2 12/11/2 13/12/2
f 15/13/4 12/3/4 10/2/4
f 16/14/5 13/15/5 15/16/5
f 9/17/6 15/13/6 10/2/6
f 30/18/7 3/19/7 1/20/7
f 9/21/8 14/10/8 16/22/8
f 18/23/1 19/24/1 17/25/1
f 20/26/6 23/27/6 19/24/6
f 24/28/5 21/29/5 23/30/5
f 23/27/4 17/25/4 19/24/4
f 20/31/8 22/32/8 24/33/8
f 28/34/2 25/35/2 27/36/2
f 3/37/6 33/38/6 7/39/6
f 8/40/5 36/41/5 34/42/5
f 4/43/6 34/44/6 32/45/6
f 2/46/1 32/47/1 29/48/1
f 36/49/2 30/50/2 35/4/2
f 36/41/9 33/7/9 34/42/9
f 34/44/6 31/51/6 32/45/6
f 32/47/10 30/18/10 29/48/10
f 6/52/2 29/53/2 36/49/2
f 41/54/2 46/55/2 37/56/2
f 49/57/5 41/54/5 43/58/5
f 46/59/1 39/60/1 37/56/1
f 40/61/11 42/62/11 44/63/11
f 47/64/6 43/65/6 39/66/6
f 44/67/12 52/68/12 50/69/12
f 40/70/6 50/71/6 48/72/6
f 45/73/13 40/74/13 48/75/13
f 45/76/2 51/77/2 52/68/2
f 52/68/14 49/57/14 50/69/14
f 48/72/6 49/78/6 47/64/6
f 48/75/15 46/59/15 45/73/15
f 52/68/2 38/79/2 45/76/2
f 11/1/1 9/80/1 10/2/1
f 35/4/2 30/50/2 1/5/2
f 33/7/3 35/81/3 5/8/3
f 14/10/2 11/82/2 12/11/2
f 15/13/4 13/83/4 12/3/4
f 16/14/5 14/84/5 13/15/5
f 9/17/6 16/85/6 15/13/6
f 30/18/7 31/86/7 3/19/7
f 9/21/8 11/82/8 14/10/8
f 18/23/1 20/87/1 19/24/1
f 20/26/6 24/88/6 23/27/6
f 24/28/5 22/89/5 21/29/5
f 23/27/4 21/90/4 17/25/4
f 20/31/8 18/91/8 22/32/8
f 28/34/2 26/92/2 25/35/2
f 3/37/6 31/51/6 33/38/6
f 8/40/5 6/93/5 36/41/5
f 4/43/6 8/94/6 34/44/6
f 2/46/1 4/95/1 32/47/1
f 36/49/2 29/53/2 30/50/2
f 36/41/9 35/81/9 33/7/9
f 34/44/6 33/38/6 31/51/6
f 32/47/10 31/86/10 30/18/10
f 6/52/2 2/96/2 29/53/2
f 41/54/2 51/77/2 46/55/2
f 49/57/5 51/77/5 41/54/5
f 46/59/1 47/97/1 39/60/1
f 40/61/11 38/98/11 42/62/11
f 47/64/6 49/78/6 43/65/6
f 44/67/12 42/99/12 52/68/12
f 40/70/6 44/100/6 50/71/6
f 45/73/13 38/101/13 40/74/13
f 45/76/2 46/55/2 51/77/2
f 52/68/14 51/77/14 49/57/14
f 48/72/6 50/71/6 49/78/6
f 48/75/15 47/97/15 46/59/15
f 52/68/2 42/99/2 38/79/2
