# Blender v2.79 (sub 0) OBJ File: 'all.blend'
# www.blender.org
o Katana
v 0.107641 0.214658 0.080032
v 0.107641 0.179570 -0.080032
v 0.107641 0.179570 0.080032
v -0.080610 -0.118087 0.043976
v 0.049276 -0.235415 0.043976
v -0.092392 -0.235415 0.043976
v -0.080610 -0.118087 -0.043976
v -0.092392 -0.235415 -0.043976
v -0.107641 0.214658 0.080032
v -0.107641 0.179570 0.080032
v -0.107641 0.179570 -0.080032
v -0.107641 0.214658 -0.080032
v 0.107641 0.214658 -0.080032
v 0.061057 -0.118087 0.043976
v 0.049276 -0.235415 -0.043976
v 0.065465 -0.222055 0.053145
v 0.065465 -0.254739 -0.053146
v 0.065465 -0.222055 -0.053146
v -0.108582 -0.254739 -0.053146
v -0.108582 -0.222055 -0.053146
v -0.108582 -0.222055 0.053145
v 0.065465 -0.254739 0.053145
v -0.108582 -0.254739 0.053145
v -0.070834 0.193956 -0.043976
v -0.070834 0.076873 0.043976
v -0.070834 0.076873 -0.043976
v 0.070834 0.193956 -0.043976
v 0.070834 0.076873 -0.043976
v 0.070834 0.193956 0.043976
v 0.070834 0.076873 0.043976
v 0.061057 -0.118087 -0.043976
v -0.070834 0.193956 0.043976
v -0.077039 0.210614 0.009069
v 0.077039 0.562574 0.009069
v 0.077039 0.210614 0.009069
v -0.077039 0.649410 -0.009069
v -0.077039 0.210614 -0.009069
v 0.077039 0.210614 -0.009069
v -0.039395 1.572489 -0.009069
v -0.193473 1.746160 0.009069
v -0.193473 1.746160 -0.009069
v 0.077039 0.562574 -0.009069
v -0.127642 1.312067 0.009069
v -0.127642 1.312067 -0.009069
v 0.019294 1.229256 -0.009069
v 0.019294 1.229256 0.009069
v -0.077039 0.649410 0.009069
v -0.039395 1.572489 0.009069
vt 0.523438 1.000000
vt 0.539062 1.000000
vt 0.539062 0.937500
vt 0.187500 0.866574
vt 0.187500 0.816406
vt 0.125000 0.816406
vt 0.187500 0.866574
vt 0.187500 0.816406
vt 0.125000 0.816406
vt 0.625000 0.937500
vt 0.625000 0.921875
vt 0.539062 0.921875
vt 0.625000 0.937500
vt 0.539062 0.937500
vt 0.523438 0.937500
vt 0.523438 1.000000
vt 0.539062 0.921875
vt 0.187500 0.866574
vt 0.187500 0.816406
vt 0.125000 0.816406
vt 0.539062 1.000000
vt 0.625000 1.000000
vt 0.519531 0.917969
vt 0.539062 0.917969
vt 0.539062 0.875000
vt 0.539062 0.855469
vt 0.625000 0.875000
vt 0.539062 0.875000
vt 0.519531 0.875000
vt 0.519531 0.917969
vt 0.539062 0.917969
vt 0.625000 0.917969
vt 0.625000 0.875000
vt 0.625000 0.855469
vt 0.539062 0.855469
vt 0.187500 0.816406
vt 0.125000 0.816406
vt 0.125000 0.866574
vt 0.187500 1.000000
vt 0.187500 0.949937
vt 0.125000 0.949937
vt 0.187500 1.000000
vt 0.187500 0.949937
vt 0.125000 0.949937
vt 0.187500 1.000000
vt 0.187500 0.949937
vt 0.125000 0.949937
vt 0.187500 0.949937
vt 0.125000 0.866574
vt 0.187500 0.866574
vt 0.187500 1.000000
vt 0.125000 0.949937
vt 0.242188 0.000000
vt 0.285156 0.000000
vt 0.285156 0.084800
vt 0.246094 0.106043
vt 0.246094 0.000000
vt 0.285156 0.085809
vt 0.281250 0.000000
vt 0.253069 0.357514
vt 0.253069 0.357514
vt 0.253069 0.357514
vt 0.285156 0.084800
vt 0.285156 0.000000
vt 0.242188 0.000000
vt 0.246094 0.371094
vt 0.246094 0.266187
vt 0.242188 0.266187
vt 0.285156 0.328125
vt 0.285156 0.245428
vt 0.242188 0.266187
vt 0.285156 0.248350
vt 0.281250 0.248350
vt 0.281250 0.332031
vt 0.285156 0.245428
vt 0.242188 0.106043
vt 0.242188 0.106043
vt 0.285156 0.328125
vt 0.523438 0.937500
vt 0.125000 0.866574
vt 0.539062 0.937500
vt 0.625000 1.000000
vt 0.539062 1.000000
vt 0.625000 0.921875
vt 0.125000 0.866574
vt 0.519531 0.875000
vt 0.625000 0.855469
vt 0.539062 0.917969
vt 0.625000 0.917969
vt 0.539062 0.875000
vt 0.125000 1.000000
vt 0.125000 1.000000
vt 0.125000 1.000000
vt 0.125000 1.000000
vt 0.281250 0.085809
vt 0.253069 0.357514
vt 0.242188 0.371094
vt 0.242188 0.371094
vt 0.285156 0.332031
vn 1.0000 -0.0000 0.0000
vn 0.0000 -0.0000 1.0000
vn -0.9950 0.0999 0.0000
vn 0.0000 -1.0000 -0.0000
vn -1.0000 0.0000 0.0000
vn 0.0000 0.0000 -1.0000
vn 0.9950 -0.0999 0.0000
vn 0.0000 1.0000 0.0000
vn 0.4970 0.6136 0.6136
vn 0.6865 -0.2396 0.6865
vn -0.6865 0.2396 0.6865
vn -0.4970 -0.6136 0.6136
vn -0.9987 0.0501 0.0000
vn 0.9987 -0.0501 -0.0000
vn 0.7480 0.6636 0.0000
vn -0.9887 -0.1499 0.0000
vn 0.9857 0.1685 0.0000
vn -0.9971 -0.0761 -0.0000
vn 0.9963 0.0863 0.0000
s 1
f 1/1/1 3/2/1 2/3/1
f 4/4/2 6/5/2 5/6/2
f 7/7/3 8/8/3 6/9/3
f 9/10/2 10/11/2 3/12/2
f 11/13/4 2/3/4 3/2/4
f 12/14/5 11/15/5 10/16/5
f 13/17/6 2/3/6 11/13/6
f 14/18/7 5/19/7 15/20/7
f 13/21/8 12/22/8 9/10/8
f 16/23/9 22/24/10 17/25/1
f 18/26/6 17/25/6 19/27/6
f 20/28/5 19/29/5 23/30/5
f 19/27/4 17/25/4 22/24/4
f 18/31/8 20/32/8 21/33/8
f 21/33/11 23/34/12 22/35/10
f 15/36/6 8/37/6 7/38/6
f 24/39/5 26/40/5 25/41/5
f 27/42/6 28/43/6 26/44/6
f 29/45/1 30/46/1 28/47/1
f 25/48/2 4/4/2 14/49/2
f 25/41/13 26/40/13 7/7/13
f 26/44/6 28/43/6 31/50/6
f 28/47/14 30/46/14 14/18/14
f 32/51/2 25/48/2 30/52/2
f 33/53/2 35/54/2 34/55/2
f 36/56/5 37/57/5 33/53/5
f 34/58/1 35/54/1 38/59/1
f 39/60/15 41/61/15 40/62/15
f 42/63/6 38/64/6 37/65/6
f 41/66/16 44/67/16 43/68/16
f 39/69/6 45/70/6 44/71/6
f 46/72/17 45/73/17 39/74/17
f 46/75/2 43/68/2 47/76/2
f 43/68/18 44/67/18 36/56/18
f 45/70/6 42/63/6 36/77/6
f 45/73/19 46/72/19 34/58/19
f 43/68/2 46/75/2 48/78/2
f 1/1/1 2/3/1 13/79/1
f 4/4/2 5/6/2 14/49/2
f 7/7/3 6/9/3 4/80/3
f 9/10/2 3/12/2 1/81/2
f 11/13/4 3/2/4 10/82/4
f 12/14/5 10/16/5 9/83/5
f 13/17/6 11/13/6 12/84/6
f 14/18/7 15/20/7 31/85/7
f 13/21/8 9/10/8 1/81/8
f 16/23/1 17/25/1 18/86/1
f 18/26/6 19/27/6 20/87/6
f 20/28/5 23/30/12 21/88/11
f 19/27/4 22/24/10 23/89/12
f 18/31/8 21/33/11 16/90/9
f 21/33/11 22/35/10 16/90/9
f 15/36/6 7/38/6 31/50/6
f 24/39/5 25/41/5 32/91/5
f 27/42/6 26/44/6 24/92/6
f 29/45/1 28/47/1 27/93/1
f 25/48/2 14/49/2 30/52/2
f 25/41/13 7/7/13 4/80/13
f 26/44/6 31/50/6 7/38/6
f 28/47/14 14/18/14 31/85/14
f 32/51/2 30/52/2 29/94/2
f 33/53/2 34/55/2 47/76/2
f 36/56/5 33/53/5 47/76/5
f 34/58/1 38/59/1 42/95/1
f 39/60/15 40/62/15 48/96/15
f 42/63/6 37/65/6 36/77/6
f 41/66/16 43/68/16 40/97/16
f 39/69/6 44/71/6 41/98/6
f 46/72/17 39/74/17 48/99/17
f 46/75/2 47/76/2 34/55/2
f 43/68/18 36/56/18 47/76/18
f 45/70/6 36/77/6 44/71/6
f 45/73/19 34/58/19 42/95/19
f 43/68/2 48/78/2 40/97/2
