# Blender v2.79 (sub 0) OBJ File: 'All.blend'
# www.blender.org
o Mace
v -0.060870 1.687260 0.060870
v -0.060870 2.160786 0.060870
v -0.060870 1.687260 -0.060870
v -0.060870 2.160786 -0.060870
v 0.060870 1.687260 0.060870
v 0.060870 2.160786 0.060870
v 0.060870 1.687260 -0.060870
v 0.060870 2.160786 -0.060870
v -0.059020 1.712821 0.012044
v -0.059020 1.736947 0.012044
v -0.077532 1.712821 0.012044
v -0.077532 1.736947 0.012044
v -0.059020 1.712821 -0.012081
v -0.059020 1.736947 -0.012081
v -0.077532 1.712821 -0.012081
v -0.077532 1.736947 -0.012081
v -0.059020 1.779167 0.012044
v -0.059020 1.803292 0.012044
v -0.077532 1.779167 0.012044
v -0.077532 1.803292 0.012044
v -0.059020 1.779167 -0.012081
v -0.059020 1.803292 -0.012081
v -0.077532 1.779167 -0.012081
v -0.077532 1.803292 -0.012081
v -0.059020 1.845512 0.012044
v -0.059020 1.869638 0.012044
v -0.077532 1.845512 0.012044
v -0.077532 1.869638 0.012044
v -0.059020 1.845512 -0.012081
v -0.059020 1.869638 -0.012081
v -0.077532 1.845512 -0.012081
v -0.077532 1.869638 -0.012081
v -0.059020 1.911858 0.012044
v -0.059020 1.935983 0.012044
v -0.077532 1.911858 0.012044
v -0.077532 1.935983 0.012044
v -0.059020 1.911858 -0.012081
v -0.059020 1.935983 -0.012081
v -0.077532 1.911858 -0.012081
v -0.077532 1.935983 -0.012081
v -0.059020 1.978203 0.012044
v -0.059020 2.002329 0.012044
v -0.077532 1.978203 0.012044
v -0.077532 2.002329 0.012044
v -0.059020 1.978203 -0.012081
v -0.059020 2.002329 -0.012081
v -0.077532 1.978203 -0.012081
v -0.077532 2.002329 -0.012081
v -0.059020 2.044549 0.012044
v -0.059020 2.068674 0.012044
v -0.077532 2.044549 0.012044
v -0.077532 2.068674 0.012044
v -0.059020 2.044549 -0.012081
v -0.059020 2.068674 -0.012081
v -0.077532 2.044549 -0.012081
v -0.077532 2.068674 -0.012081
v -0.059020 2.110894 0.012044
v -0.059020 2.135020 0.012044
v -0.077532 2.110894 0.012044
v -0.077532 2.135020 0.012044
v -0.059020 2.110894 -0.012081
v -0.059020 2.135020 -0.012081
v -0.077532 2.110894 -0.012081
v -0.077532 2.135020 -0.012081
v 0.059019 1.712821 0.012044
v 0.059019 1.736947 0.012044
v 0.077531 1.712821 0.012044
v 0.077531 1.736947 0.012044
v 0.059019 1.712821 -0.012081
v 0.059019 1.736947 -0.012081
v 0.077531 1.712821 -0.012081
v 0.077531 1.736947 -0.012081
v 0.059019 1.779167 0.012044
v 0.059019 1.803292 0.012044
v 0.077531 1.779167 0.012044
v 0.077531 1.803292 0.012044
v 0.059019 1.779167 -0.012081
v 0.059019 1.803292 -0.012081
v 0.077531 1.779167 -0.012081
v 0.077531 1.803292 -0.012081
v 0.059019 1.845512 0.012044
v 0.059019 1.869638 0.012044
v 0.077531 1.845512 0.012044
v 0.077531 1.869638 0.012044
v 0.059019 1.845512 -0.012081
v 0.059019 1.869638 -0.012081
v 0.077531 1.845512 -0.012081
v 0.077531 1.869638 -0.012081
v 0.059019 1.911858 0.012044
v 0.059019 1.935983 0.012044
v 0.077531 1.911858 0.012044
v 0.077531 1.935983 0.012044
v 0.059019 1.911858 -0.012081
v 0.059019 1.935983 -0.012081
v 0.077531 1.911858 -0.012081
v 0.077531 1.935983 -0.012081
v 0.059019 1.978203 0.012044
v 0.059019 2.002329 0.012044
v 0.077531 1.978203 0.012044
v 0.077531 2.002329 0.012044
v 0.059019 1.978203 -0.012081
v 0.059019 2.002329 -0.012081
v 0.077531 1.978203 -0.012081
v 0.077531 2.002329 -0.012081
v 0.059019 2.044549 0.012044
v 0.059019 2.068674 0.012044
v 0.077531 2.044549 0.012044
v 0.077531 2.068674 0.012044
v 0.059019 2.044549 -0.012081
v 0.059019 2.068674 -0.012081
v 0.077531 2.044549 -0.012081
v 0.077531 2.068674 -0.012081
v 0.059019 2.110894 0.012044
v 0.059019 2.135020 0.012044
v 0.077531 2.110894 0.012044
v 0.077531 2.135020 0.012044
v 0.059019 2.110894 -0.012081
v 0.059019 2.135020 -0.012081
v 0.077531 2.110894 -0.012081
v 0.077531 2.135020 -0.012081
v -0.012044 1.712821 -0.059019
v -0.012044 1.736947 -0.059019
v -0.012044 1.712821 -0.077531
v -0.012044 1.736947 -0.077531
v 0.012081 1.712821 -0.059019
v 0.012081 1.736947 -0.059019
v 0.012081 1.712821 -0.077531
v 0.012081 1.736947 -0.077531
v -0.012044 1.779167 -0.059019
v -0.012044 1.803292 -0.059019
v -0.012044 1.779167 -0.077531
v -0.012044 1.803292 -0.077531
v 0.012081 1.779167 -0.059019
v 0.012081 1.803292 -0.059019
v 0.012081 1.779167 -0.077531
v 0.012081 1.803292 -0.077531
v -0.012044 1.845512 -0.059019
v -0.012044 1.869638 -0.059019
v -0.012044 1.845512 -0.077531
v -0.012044 1.869638 -0.077531
v 0.012081 1.845512 -0.059019
v 0.012081 1.869638 -0.059019
v 0.012081 1.845512 -0.077531
v 0.012081 1.869638 -0.077531
v -0.012044 1.911858 -0.059019
v -0.012044 1.935983 -0.059019
v -0.012044 1.911858 -0.077531
v -0.012044 1.935983 -0.077531
v 0.012081 1.911858 -0.059019
v 0.012081 1.935983 -0.059019
v 0.012081 1.911858 -0.077531
v 0.012081 1.935983 -0.077531
v -0.012044 1.978203 -0.059019
v -0.012044 2.002329 -0.059019
v -0.012044 1.978203 -0.077531
v -0.012044 2.002329 -0.077531
v 0.012081 1.978203 -0.059019
v 0.012081 2.002329 -0.059019
v 0.012081 1.978203 -0.077531
v 0.012081 2.002329 -0.077531
v -0.012044 2.044549 -0.059019
v -0.012044 2.068674 -0.059019
v -0.012044 2.044549 -0.077531
v -0.012044 2.068674 -0.077531
v 0.012081 2.044549 -0.059019
v 0.012081 2.068674 -0.059019
v 0.012081 2.044549 -0.077531
v 0.012081 2.068674 -0.077531
v -0.012044 2.110894 -0.059019
v -0.012044 2.135020 -0.059019
v -0.012044 2.110894 -0.077531
v -0.012044 2.135020 -0.077531
v 0.012081 2.110894 -0.059019
v 0.012081 2.135020 -0.059019
v 0.012081 2.110894 -0.077531
v 0.012081 2.135020 -0.077531
v -0.012044 1.712821 0.059020
v -0.012044 1.736947 0.059020
v -0.012044 1.712821 0.077532
v -0.012044 1.736947 0.077532
v 0.012081 1.712821 0.059020
v 0.012081 1.736947 0.059020
v 0.012081 1.712821 0.077532
v 0.012081 1.736947 0.077532
v -0.012044 1.779167 0.059020
v -0.012044 1.803292 0.059020
v -0.012044 1.779167 0.077532
v -0.012044 1.803292 0.077532
v 0.012081 1.779167 0.059020
v 0.012081 1.803292 0.059020
v 0.012081 1.779167 0.077532
v 0.012081 1.803292 0.077532
v -0.012044 1.845512 0.059020
v -0.012044 1.869638 0.059020
v -0.012044 1.845512 0.077532
v -0.012044 1.869638 0.077532
v 0.012081 1.845512 0.059020
v 0.012081 1.869638 0.059020
v 0.012081 1.845512 0.077532
v 0.012081 1.869638 0.077532
v -0.012044 1.911858 0.059020
v -0.012044 1.935983 0.059020
v -0.012044 1.911858 0.077532
v -0.012044 1.935983 0.077532
v 0.012081 1.911858 0.059020
v 0.012081 1.935983 0.059020
v 0.012081 1.911858 0.077532
v 0.012081 1.935983 0.077532
v -0.012044 1.978203 0.059020
v -0.012044 2.002329 0.059020
v -0.012044 1.978203 0.077532
v -0.012044 2.002329 0.077532
v 0.012081 1.978203 0.059020
v 0.012081 2.002329 0.059020
v 0.012081 1.978203 0.077532
v 0.012081 2.002329 0.077532
v -0.012044 2.044549 0.059020
v -0.012044 2.068674 0.059020
v -0.012044 2.044549 0.077532
v -0.012044 2.068674 0.077532
v 0.012081 2.044549 0.059020
v 0.012081 2.068674 0.059020
v 0.012081 2.044549 0.077532
v 0.012081 2.068674 0.077532
v -0.012044 2.110894 0.059020
v -0.012044 2.135020 0.059020
v -0.012044 2.110894 0.077532
v -0.012044 2.135020 0.077532
v 0.012081 2.110894 0.059020
v 0.012081 2.135020 0.059020
v 0.012081 2.110894 0.077532
v 0.012081 2.135020 0.077532
vn -1.0000 0.0000 0.0000
vn 0.0000 0.0000 -1.0000
vn 1.0000 0.0000 0.0000
vn 0.0000 0.0000 1.0000
vn 0.0000 -1.0000 0.0000
vn 0.0000 1.0000 0.0000
s off
f 2//1 3//1 1//1
f 4//2 7//2 3//2
f 8//3 5//3 7//3
f 6//4 1//4 5//4
f 7//5 1//5 3//5
f 4//6 6//6 8//6
f 10//4 11//4 9//4
f 12//1 15//1 11//1
f 16//2 13//2 15//2
f 15//5 9//5 11//5
f 12//6 14//6 16//6
f 18//4 19//4 17//4
f 20//1 23//1 19//1
f 24//2 21//2 23//2
f 23//5 17//5 19//5
f 20//6 22//6 24//6
f 26//4 27//4 25//4
f 28//1 31//1 27//1
f 32//2 29//2 31//2
f 31//5 25//5 27//5
f 28//6 30//6 32//6
f 34//4 35//4 33//4
f 36//1 39//1 35//1
f 40//2 37//2 39//2
f 39//5 33//5 35//5
f 36//6 38//6 40//6
f 42//4 43//4 41//4
f 44//1 47//1 43//1
f 48//2 45//2 47//2
f 47//5 41//5 43//5
f 44//6 46//6 48//6
f 50//4 51//4 49//4
f 52//1 55//1 51//1
f 56//2 53//2 55//2
f 55//5 49//5 51//5
f 52//6 54//6 56//6
f 58//4 59//4 57//4
f 60//1 63//1 59//1
f 64//2 61//2 63//2
f 63//5 57//5 59//5
f 60//6 62//6 64//6
f 67//4 66//4 65//4
f 71//3 68//3 67//3
f 69//2 72//2 71//2
f 65//5 71//5 67//5
f 70//6 68//6 72//6
f 75//4 74//4 73//4
f 79//3 76//3 75//3
f 77//2 80//2 79//2
f 73//5 79//5 75//5
f 78//6 76//6 80//6
f 83//4 82//4 81//4
f 87//3 84//3 83//3
f 85//2 88//2 87//2
f 81//5 87//5 83//5
f 86//6 84//6 88//6
f 91//4 90//4 89//4
f 95//3 92//3 91//3
f 93//2 96//2 95//2
f 89//5 95//5 91//5
f 94//6 92//6 96//6
f 99//4 98//4 97//4
f 103//3 100//3 99//3
f 101//2 104//2 103//2
f 97//5 103//5 99//5
f 102//6 100//6 104//6
f 107//4 106//4 105//4
f 111//3 108//3 107//3
f 109//2 112//2 111//2
f 105//5 111//5 107//5
f 110//6 108//6 112//6
f 115//4 114//4 113//4
f 119//3 116//3 115//3
f 117//2 120//2 119//2
f 113//5 119//5 115//5
f 118//6 116//6 120//6
f 122//1 123//1 121//1
f 124//2 127//2 123//2
f 128//3 125//3 127//3
f 127//5 121//5 123//5
f 124//6 126//6 128//6
f 130//1 131//1 129//1
f 132//2 135//2 131//2
f 136//3 133//3 135//3
f 135//5 129//5 131//5
f 132//6 134//6 136//6
f 138//1 139//1 137//1
f 140//2 143//2 139//2
f 144//3 141//3 143//3
f 143//5 137//5 139//5
f 140//6 142//6 144//6
f 146//1 147//1 145//1
f 148//2 151//2 147//2
f 152//3 149//3 151//3
f 151//5 145//5 147//5
f 148//6 150//6 152//6
f 154//1 155//1 153//1
f 156//2 159//2 155//2
f 160//3 157//3 159//3
f 159//5 153//5 155//5
f 156//6 158//6 160//6
f 162//1 163//1 161//1
f 164//2 167//2 163//2
f 168//3 165//3 167//3
f 167//5 161//5 163//5
f 164//6 166//6 168//6
f 170//1 171//1 169//1
f 172//2 175//2 171//2
f 176//3 173//3 175//3
f 175//5 169//5 171//5
f 172//6 174//6 176//6
f 179//1 178//1 177//1
f 183//4 180//4 179//4
f 181//3 184//3 183//3
f 177//5 183//5 179//5
f 182//6 180//6 184//6
f 187//1 186//1 185//1
f 191//4 188//4 187//4
f 189//3 192//3 191//3
f 185//5 191//5 187//5
f 190//6 188//6 192//6
f 195//1 194//1 193//1
f 199//4 196//4 195//4
f 197//3 200//3 199//3
f 193//5 199//5 195//5
f 198//6 196//6 200//6
f 203//1 202//1 201//1
f 207//4 204//4 203//4
f 205//3 208//3 207//3
f 201//5 207//5 203//5
f 206//6 204//6 208//6
f 211//1 210//1 209//1
f 215//4 212//4 211//4
f 213//3 216//3 215//3
f 209//5 215//5 211//5
f 214//6 212//6 216//6
f 219//1 218//1 217//1
f 223//4 220//4 219//4
f 221//3 224//3 223//3
f 217//5 223//5 219//5
f 222//6 220//6 224//6
f 227//1 226//1 225//1
f 231//4 228//4 227//4
f 229//3 232//3 231//3
f 225//5 231//5 227//5
f 230//6 228//6 232//6
f 2//1 4//1 3//1
f 4//2 8//2 7//2
f 8//3 6//3 5//3
f 6//4 2//4 1//4
f 7//5 5//5 1//5
f 4//6 2//6 6//6
f 10//4 12//4 11//4
f 12//1 16//1 15//1
f 16//2 14//2 13//2
f 15//5 13//5 9//5
f 12//6 10//6 14//6
f 18//4 20//4 19//4
f 20//1 24//1 23//1
f 24//2 22//2 21//2
f 23//5 21//5 17//5
f 20//6 18//6 22//6
f 26//4 28//4 27//4
f 28//1 32//1 31//1
f 32//2 30//2 29//2
f 31//5 29//5 25//5
f 28//6 26//6 30//6
f 34//4 36//4 35//4
f 36//1 40//1 39//1
f 40//2 38//2 37//2
f 39//5 37//5 33//5
f 36//6 34//6 38//6
f 42//4 44//4 43//4
f 44//1 48//1 47//1
f 48//2 46//2 45//2
f 47//5 45//5 41//5
f 44//6 42//6 46//6
f 50//4 52//4 51//4
f 52//1 56//1 55//1
f 56//2 54//2 53//2
f 55//5 53//5 49//5
f 52//6 50//6 54//6
f 58//4 60//4 59//4
f 60//1 64//1 63//1
f 64//2 62//2 61//2
f 63//5 61//5 57//5
f 60//6 58//6 62//6
f 67//4 68//4 66//4
f 71//3 72//3 68//3
f 69//2 70//2 72//2
f 65//5 69//5 71//5
f 70//6 66//6 68//6
f 75//4 76//4 74//4
f 79//3 80//3 76//3
f 77//2 78//2 80//2
f 73//5 77//5 79//5
f 78//6 74//6 76//6
f 83//4 84//4 82//4
f 87//3 88//3 84//3
f 85//2 86//2 88//2
f 81//5 85//5 87//5
f 86//6 82//6 84//6
f 91//4 92//4 90//4
f 95//3 96//3 92//3
f 93//2 94//2 96//2
f 89//5 93//5 95//5
f 94//6 90//6 92//6
f 99//4 100//4 98//4
f 103//3 104//3 100//3
f 101//2 102//2 104//2
f 97//5 101//5 103//5
f 102//6 98//6 100//6
f 107//4 108//4 106//4
f 111//3 112//3 108//3
f 109//2 110//2 112//2
f 105//5 109//5 111//5
f 110//6 106//6 108//6
f 115//4 116//4 114//4
f 119//3 120//3 116//3
f 117//2 118//2 120//2
f 113//5 117//5 119//5
f 118//6 114//6 116//6
f 122//1 124//1 123//1
f 124//2 128//2 127//2
f 128//3 126//3 125//3
f 127//5 125//5 121//5
f 124//6 122//6 126//6
f 130//1 132//1 131//1
f 132//2 136//2 135//2
f 136//3 134//3 133//3
f 135//5 133//5 129//5
f 132//6 130//6 134//6
f 138//1 140//1 139//1
f 140//2 144//2 143//2
f 144//3 142//3 141//3
f 143//5 141//5 137//5
f 140//6 138//6 142//6
f 146//1 148//1 147//1
f 148//2 152//2 151//2
f 152//3 150//3 149//3
f 151//5 149//5 145//5
f 148//6 146//6 150//6
f 154//1 156//1 155//1
f 156//2 160//2 159//2
f 160//3 158//3 157//3
f 159//5 157//5 153//5
f 156//6 154//6 158//6
f 162//1 164//1 163//1
f 164//2 168//2 167//2
f 168//3 166//3 165//3
f 167//5 165//5 161//5
f 164//6 162//6 166//6
f 170//1 172//1 171//1
f 172//2 176//2 175//2
f 176//3 174//3 173//3
f 175//5 173//5 169//5
f 172//6 170//6 174//6
f 179//1 180//1 178//1
f 183//4 184//4 180//4
f 181//3 182//3 184//3
f 177//5 181//5 183//5
f 182//6 178//6 180//6
f 187//1 188//1 186//1
f 191//4 192//4 188//4
f 189//3 190//3 192//3
f 185//5 189//5 191//5
f 190//6 186//6 188//6
f 195//1 196//1 194//1
f 199//4 200//4 196//4
f 197//3 198//3 200//3
f 193//5 197//5 199//5
f 198//6 194//6 196//6
f 203//1 204//1 202//1
f 207//4 208//4 204//4
f 205//3 206//3 208//3
f 201//5 205//5 207//5
f 206//6 202//6 204//6
f 211//1 212//1 210//1
f 215//4 216//4 212//4
f 213//3 214//3 216//3
f 209//5 213//5 215//5
f 214//6 210//6 212//6
f 219//1 220//1 218//1
f 223//4 224//4 220//4
f 221//3 222//3 224//3
f 217//5 221//5 223//5
f 222//6 218//6 220//6
f 227//1 228//1 226//1
f 231//4 232//4 228//4
f 229//3 230//3 232//3
f 225//5 229//5 231//5
f 230//6 226//6 228//6
o Staff
v -0.047224 -1.377259 0.047224
v -0.047224 -1.249519 0.047224
v -0.047224 -1.377259 -0.047224
v -0.047224 -1.249519 -0.047224
v 0.047224 -1.377259 0.047224
v 0.047224 -1.249519 0.047224
v 0.047224 -1.377259 -0.047224
v 0.047224 -1.249519 -0.047224
v -0.047224 -1.121779 0.047224
v -0.047224 -1.121779 -0.047224
v 0.047224 -1.121779 0.047224
v 0.047224 -1.121779 -0.047224
v -0.047224 -0.994039 0.047224
v -0.047224 -0.994039 -0.047224
v 0.047224 -0.994039 0.047224
v 0.047224 -0.994039 -0.047224
v -0.047224 -0.866300 0.047224
v -0.047224 -0.866300 -0.047224
v 0.047224 -0.866300 0.047224
v 0.047224 -0.866300 -0.047224
v -0.047224 -0.738560 0.047224
v -0.047224 -0.738560 -0.047224
v 0.047224 -0.738560 0.047224
v 0.047224 -0.738560 -0.047224
v -0.047224 -0.610820 0.047224
v -0.047224 -0.610820 -0.047224
v 0.047224 -0.610820 0.047224
v 0.047224 -0.610820 -0.047224
v -0.047224 -0.483080 0.047224
v -0.047224 -0.483080 -0.047224
v 0.047224 -0.483080 0.047224
v 0.047224 -0.483080 -0.047224
v -0.047224 -0.355340 0.047224
v -0.047224 -0.355340 -0.047224
v 0.047224 -0.355340 0.047224
v 0.047224 -0.355340 -0.047224
v -0.047224 -0.227601 0.047224
v -0.047224 -0.227601 -0.047224
v 0.047224 -0.227601 0.047224
v 0.047224 -0.227601 -0.047224
v -0.047224 -0.099861 0.047224
v -0.047224 -0.099861 -0.047224
v 0.047224 -0.099861 0.047224
v 0.047224 -0.099861 -0.047224
v -0.047224 0.027879 0.047224
v -0.047224 0.027879 -0.047224
v 0.047224 0.027879 0.047224
v 0.047224 0.027879 -0.047224
v -0.047224 0.155619 0.047224
v -0.047224 0.155619 -0.047224
v 0.047224 0.155619 0.047224
v 0.047224 0.155619 -0.047224
v -0.047224 0.283359 0.047224
v -0.047224 0.283359 -0.047224
v 0.047224 0.283359 0.047224
v 0.047224 0.283359 -0.047224
v -0.047224 0.411098 0.047224
v -0.047224 0.411098 -0.047224
v 0.047224 0.411098 0.047224
v 0.047224 0.411098 -0.047224
v -0.047224 0.538838 0.047224
v -0.047224 0.538838 -0.047224
v 0.047224 0.538838 0.047224
v 0.047224 0.538838 -0.047224
v -0.047224 0.666578 0.047224
v -0.047224 0.666578 -0.047224
v 0.047224 0.666578 0.047224
v 0.047224 0.666578 -0.047224
v -0.047224 0.794318 0.047224
v -0.047224 0.794318 -0.047224
v 0.047224 0.794318 0.047224
v 0.047224 0.794318 -0.047224
v -0.047224 0.922058 0.047224
v -0.047224 0.922058 -0.047224
v 0.047224 0.922058 0.047224
v 0.047224 0.922058 -0.047224
v -0.047224 1.049798 0.047224
v -0.047224 1.049798 -0.047224
v 0.047224 1.049798 0.047224
v 0.047224 1.049798 -0.047224
v -0.047224 1.177537 0.047224
v -0.047224 1.177537 -0.047224
v 0.047224 1.177537 0.047224
v 0.047224 1.177537 -0.047224
v -0.047224 1.305277 0.047224
v -0.047224 1.305277 -0.047224
v 0.047224 1.305277 0.047224
v 0.047224 1.305277 -0.047224
v -0.047224 1.433017 0.047224
v -0.047224 1.433017 -0.047224
v 0.047224 1.433017 0.047224
v 0.047224 1.433017 -0.047224
v -0.047224 1.560757 0.047224
v -0.047224 1.560757 -0.047224
v 0.047224 1.560757 0.047224
v 0.047224 1.560757 -0.047224
v -0.047224 1.688497 0.047224
v -0.047224 1.688497 -0.047224
v 0.047224 1.688497 0.047224
v 0.047224 1.688497 -0.047224
v -0.047224 1.816236 0.047224
v -0.047224 1.816236 -0.047224
v 0.047224 1.816236 0.047224
v 0.047224 1.816236 -0.047224
v -0.047224 1.943976 0.047224
v -0.047224 1.943976 -0.047224
v 0.047224 1.943976 0.047224
v 0.047224 1.943976 -0.047224
vn -1.0000 0.0000 0.0000
vn 0.0000 0.0000 -1.0000
vn 1.0000 0.0000 0.0000
vn 0.0000 0.0000 1.0000
vn 0.0000 1.0000 0.0000
vn 0.0000 -1.0000 0.0000
s off
f 234//7 235//7 233//7
f 236//8 239//8 235//8
f 240//9 237//9 239//9
f 238//10 233//10 237//10
f 241//7 236//7 234//7
f 242//8 240//8 236//8
f 244//9 238//9 240//9
f 243//10 234//10 238//10
f 245//7 242//7 241//7
f 246//8 244//8 242//8
f 248//9 243//9 244//9
f 247//10 241//10 243//10
f 249//7 246//7 245//7
f 250//8 248//8 246//8
f 252//9 247//9 248//9
f 251//10 245//10 247//10
f 253//7 250//7 249//7
f 254//8 252//8 250//8
f 256//9 251//9 252//9
f 255//10 249//10 251//10
f 257//7 254//7 253//7
f 258//8 256//8 254//8
f 260//9 255//9 256//9
f 259//10 253//10 255//10
f 261//7 258//7 257//7
f 262//8 260//8 258//8
f 264//9 259//9 260//9
f 263//10 257//10 259//10
f 265//7 262//7 261//7
f 266//8 264//8 262//8
f 268//9 263//9 264//9
f 267//10 261//10 263//10
f 269//7 266//7 265//7
f 270//8 268//8 266//8
f 272//9 267//9 268//9
f 271//10 265//10 267//10
f 273//7 270//7 269//7
f 274//8 272//8 270//8
f 276//9 271//9 272//9
f 275//10 269//10 271//10
f 277//7 274//7 273//7
f 278//8 276//8 274//8
f 280//9 275//9 276//9
f 279//10 273//10 275//10
f 281//7 278//7 277//7
f 282//8 280//8 278//8
f 284//9 279//9 280//9
f 283//10 277//10 279//10
f 285//7 282//7 281//7
f 286//8 284//8 282//8
f 288//9 283//9 284//9
f 287//10 281//10 283//10
f 289//7 286//7 285//7
f 290//8 288//8 286//8
f 292//9 287//9 288//9
f 291//10 285//10 287//10
f 293//7 290//7 289//7
f 294//8 292//8 290//8
f 296//9 291//9 292//9
f 295//10 289//10 291//10
f 297//7 294//7 293//7
f 298//8 296//8 294//8
f 300//9 295//9 296//9
f 299//10 293//10 295//10
f 301//7 298//7 297//7
f 302//8 300//8 298//8
f 304//9 299//9 300//9
f 303//10 297//10 299//10
f 305//7 302//7 301//7
f 306//8 304//8 302//8
f 308//9 303//9 304//9
f 307//10 301//10 303//10
f 309//7 306//7 305//7
f 310//8 308//8 306//8
f 312//9 307//9 308//9
f 311//10 305//10 307//10
f 313//7 310//7 309//7
f 314//8 312//8 310//8
f 316//9 311//9 312//9
f 315//10 309//10 311//10
f 317//7 314//7 313//7
f 318//8 316//8 314//8
f 320//9 315//9 316//9
f 319//10 313//10 315//10
f 321//7 318//7 317//7
f 322//8 320//8 318//8
f 324//9 319//9 320//9
f 323//10 317//10 319//10
f 325//7 322//7 321//7
f 326//8 324//8 322//8
f 328//9 323//9 324//9
f 327//10 321//10 323//10
f 329//7 326//7 325//7
f 330//8 328//8 326//8
f 332//9 327//9 328//9
f 331//10 325//10 327//10
f 333//7 330//7 329//7
f 334//8 332//8 330//8
f 336//9 331//9 332//9
f 335//10 329//10 331//10
f 337//7 334//7 333//7
f 338//8 336//8 334//8
f 340//9 335//9 336//9
f 339//10 333//10 335//10
f 339//11 338//11 337//11
f 239//12 233//12 235//12
f 234//7 236//7 235//7
f 236//8 240//8 239//8
f 240//9 238//9 237//9
f 238//10 234//10 233//10
f 241//7 242//7 236//7
f 242//8 244//8 240//8
f 244//9 243//9 238//9
f 243//10 241//10 234//10
f 245//7 246//7 242//7
f 246//8 248//8 244//8
f 248//9 247//9 243//9
f 247//10 245//10 241//10
f 249//7 250//7 246//7
f 250//8 252//8 248//8
f 252//9 251//9 247//9
f 251//10 249//10 245//10
f 253//7 254//7 250//7
f 254//8 256//8 252//8
f 256//9 255//9 251//9
f 255//10 253//10 249//10
f 257//7 258//7 254//7
f 258//8 260//8 256//8
f 260//9 259//9 255//9
f 259//10 257//10 253//10
f 261//7 262//7 258//7
f 262//8 264//8 260//8
f 264//9 263//9 259//9
f 263//10 261//10 257//10
f 265//7 266//7 262//7
f 266//8 268//8 264//8
f 268//9 267//9 263//9
f 267//10 265//10 261//10
f 269//7 270//7 266//7
f 270//8 272//8 268//8
f 272//9 271//9 267//9
f 271//10 269//10 265//10
f 273//7 274//7 270//7
f 274//8 276//8 272//8
f 276//9 275//9 271//9
f 275//10 273//10 269//10
f 277//7 278//7 274//7
f 278//8 280//8 276//8
f 280//9 279//9 275//9
f 279//10 277//10 273//10
f 281//7 282//7 278//7
f 282//8 284//8 280//8
f 284//9 283//9 279//9
f 283//10 281//10 277//10
f 285//7 286//7 282//7
f 286//8 288//8 284//8
f 288//9 287//9 283//9
f 287//10 285//10 281//10
f 289//7 290//7 286//7
f 290//8 292//8 288//8
f 292//9 291//9 287//9
f 291//10 289//10 285//10
f 293//7 294//7 290//7
f 294//8 296//8 292//8
f 296//9 295//9 291//9
f 295//10 293//10 289//10
f 297//7 298//7 294//7
f 298//8 300//8 296//8
f 300//9 299//9 295//9
f 299//10 297//10 293//10
f 301//7 302//7 298//7
f 302//8 304//8 300//8
f 304//9 303//9 299//9
f 303//10 301//10 297//10
f 305//7 306//7 302//7
f 306//8 308//8 304//8
f 308//9 307//9 303//9
f 307//10 305//10 301//10
f 309//7 310//7 306//7
f 310//8 312//8 308//8
f 312//9 311//9 307//9
f 311//10 309//10 305//10
f 313//7 314//7 310//7
f 314//8 316//8 312//8
f 316//9 315//9 311//9
f 315//10 313//10 309//10
f 317//7 318//7 314//7
f 318//8 320//8 316//8
f 320//9 319//9 315//9
f 319//10 317//10 313//10
f 321//7 322//7 318//7
f 322//8 324//8 320//8
f 324//9 323//9 319//9
f 323//10 321//10 317//10
f 325//7 326//7 322//7
f 326//8 328//8 324//8
f 328//9 327//9 323//9
f 327//10 325//10 321//10
f 329//7 330//7 326//7
f 330//8 332//8 328//8
f 332//9 331//9 327//9
f 331//10 329//10 325//10
f 333//7 334//7 330//7
f 334//8 336//8 332//8
f 336//9 335//9 331//9
f 335//10 333//10 329//10
f 337//7 338//7 334//7
f 338//8 340//8 336//8
f 340//9 339//9 335//9
f 339//10 337//10 333//10
f 339//11 340//11 338//11
f 239//12 237//12 233//12
