# Blender v2.79 (sub 0) OBJ File: 'all.blend'
# www.blender.org
o LongEstok
v -0.065724 -0.596763 -0.065724
v -0.065724 -0.471111 -0.065724
v 0.065724 -0.596763 -0.065724
v 0.065724 -0.471111 -0.065724
v -0.065724 -0.596763 0.065724
v -0.065724 -0.471111 0.065724
v 0.065724 -0.596763 0.065724
v 0.065724 -0.471111 0.065724
v 0.072174 0.240963 0.071002
v 0.072174 0.201768 -0.071002
v 0.072174 0.201768 0.071002
v 0.072174 0.240963 -0.071002
v 0.278986 0.201768 0.023227
v 0.278986 0.240963 0.023227
v 0.278986 0.201768 -0.023227
v 0.278986 0.240963 -0.023227
v -0.072174 0.240963 0.071002
v -0.072174 0.201768 -0.071002
v -0.072174 0.201768 0.071002
v -0.072174 0.240963 -0.071002
v -0.278986 0.201768 0.023227
v -0.278986 0.240963 0.023227
v -0.278986 0.201768 -0.023227
v -0.278986 0.240963 -0.023227
v 0.000000 0.201768 -0.071002
v 0.000000 0.240963 -0.071002
v 0.000000 0.201768 0.071002
v 0.000000 0.240963 0.071002
v -0.080889 0.231842 0.011861
v -0.080889 0.283089 0.011861
v -0.080889 0.231842 -0.011861
v -0.080889 0.283089 -0.011861
v 0.080889 0.231842 0.011861
v 0.080889 0.283089 0.011861
v 0.080889 0.231842 -0.011861
v 0.080889 0.283089 -0.011861
v 0.000000 0.231842 -0.029710
v 0.000000 0.283089 -0.029710
v 0.000000 0.231842 0.029710
v 0.000000 0.283089 0.029710
v 0.022028 2.097432 0.002432
v -0.022028 2.097432 0.002432
v 0.068703 0.236468 0.002432
v -0.068703 0.236468 0.002432
v 0.008157 2.287358 0.002432
v -0.008157 2.287358 0.002432
v 0.022028 2.097432 -0.002432
v -0.022028 2.097432 -0.002432
v 0.068703 0.236468 -0.002432
v -0.068703 0.236468 -0.002432
v 0.008157 2.287358 -0.002432
v -0.008157 2.287358 -0.002432
v 0.000000 2.097432 0.014500
v 0.000000 0.236468 0.014500
v 0.000000 2.287358 0.002432
v 0.000000 2.097432 -0.014500
v 0.000000 0.236468 -0.014500
v 0.000000 2.287358 -0.002432
v -0.056015 -0.473481 -0.045903
v -0.058763 -0.369637 -0.048155
v 0.056015 -0.473481 -0.045903
v 0.058763 -0.369637 -0.048155
v -0.056015 -0.473481 0.045903
v -0.058763 -0.369637 0.048155
v 0.056015 -0.473481 0.045903
v 0.058763 -0.369637 0.048155
v -0.064306 -0.261966 -0.052697
v 0.064306 -0.261966 -0.052697
v -0.064306 -0.261966 0.052697
v 0.064306 -0.261966 0.052697
v -0.068588 -0.147946 -0.056206
v 0.068588 -0.147946 -0.056206
v -0.068588 -0.147946 0.056206
v 0.068588 -0.147946 0.056206
v -0.069042 -0.033021 -0.056578
v 0.069042 -0.033021 -0.056578
v -0.069042 -0.033021 0.056578
v 0.069042 -0.033021 0.056578
v -0.069042 0.098643 -0.056578
v 0.069042 0.098643 -0.056578
v -0.069042 0.098643 0.056578
v 0.069042 0.098643 0.056578
v -0.069042 0.230858 -0.056578
v 0.069042 0.230858 -0.056578
v -0.069042 0.230858 0.056578
v 0.069042 0.230858 0.056578
vt 0.226562 0.054688
vt 0.500000 0.000000
vt 0.226562 0.000000
vt 0.125000 0.054688
vt 0.062500 -0.000000
vt 0.125000 -0.000000
vt 0.125000 0.054688
vt 0.125000 0.000000
vt 0.500000 0.148438
vt 0.218750 0.054688
vt 0.218750 0.179688
vt 0.125000 0.054688
vt 0.125000 0.179688
vt 0.125000 0.179688
vt 0.218750 0.054688
vt 0.218750 0.179688
vt 0.500000 0.085938
vt 0.500000 0.148438
vt 0.226562 0.054688
vt 0.125000 0.000000
vt 0.226562 0.000000
vt 0.500000 0.054688
vt 0.500000 0.000000
vt 0.500000 0.000000
vt 0.226562 0.054688
vt 0.226562 0.000000
vt 0.062500 -0.000000
vt 0.125000 0.054688
vt 0.125000 -0.000000
vt 0.218750 0.054688
vt 0.500000 0.148438
vt 0.218750 0.179688
vt 0.218750 0.054688
vt 0.218750 0.179688
vt 0.500000 0.085938
vt 0.500000 0.148438
vt 0.226562 0.054688
vt 0.226562 0.000000
vt 0.500000 0.054688
vt 0.500000 0.000000
vt 0.406250 0.054688
vt 0.359375 -0.000000
vt 0.406250 -0.000000
vt 0.304688 0.000000
vt 0.398438 0.054688
vt 0.304688 0.054688
vt 0.406250 0.054688
vt 0.359375 -0.000000
vt 0.406250 -0.000000
vt 0.304688 0.054688
vt 0.218750 0.000000
vt 0.304688 0.000000
vt 0.195312 0.132812
vt 0.250000 0.101562
vt 0.250000 0.132812
vt 0.132812 0.132812
vt 0.195312 0.101562
vt 0.398438 0.054688
vt 0.398438 0.000000
vt 0.218750 0.000000
vt 0.218750 0.054688
vt 0.500000 0.054688
vt 0.062500 0.054688
vt 0.500000 0.085938
vt 0.125000 0.054688
vt 0.500000 0.054688
vt 0.062500 0.054688
vt 0.500000 0.085938
vt 0.359375 0.054688
vt 0.398438 0.000000
vt 0.359375 0.054688
vt 0.218750 0.054688
vt 0.132812 0.101562
vt 0.500000 0.125000
vt 0.625000 0.000000
vt 0.500000 0.000000
vt 0.625000 0.125000
vt 0.500000 -0.000000
vt 0.500000 0.000000
vt 0.625000 0.125000
vt 0.500000 0.125000
vt 0.625000 0.000000
vt 0.500000 0.125000
vt 0.625000 -0.000000
vt 0.500000 -0.000000
vt 0.500000 0.000000
vt 0.500000 0.125000
vt 0.031250 0.004628
vt 0.047665 0.551236
vt 0.031250 0.551236
vt 0.038624 0.619562
vt 0.031250 0.619562
vt 0.031250 0.004628
vt 0.047665 0.551236
vt 0.057396 0.004628
vt 0.031250 0.551236
vt 0.038624 0.619562
vt 0.051321 0.013200
vt 0.043851 0.544569
vt 0.043851 0.544569
vt 0.018649 0.544569
vt 0.011179 0.013200
vt 0.011179 0.013200
vt 0.036911 0.610990
vt 0.031250 0.610990
vt 0.031250 0.610990
vt 0.025589 0.610990
vt 0.018649 0.544569
vt 0.036911 0.610990
vt 0.025589 0.610990
vt 0.023876 0.619562
vt 0.014835 0.551236
vt 0.005104 0.004628
vt 0.023876 0.619562
vt 0.014835 0.551236
vt 0.005104 0.004628
vt 0.250000 0.875000
vt 0.375000 1.000000
vt 0.250000 1.000000
vt 0.250000 1.000000
vt 0.375000 0.875000
vt 0.375000 1.000000
vt 0.375000 1.000000
vt 0.250000 0.875000
vt 0.375000 0.875000
vt 0.375000 0.875000
vt 0.250000 1.000000
vt 0.250000 0.875000
vt 0.250000 0.875000
vt 0.375000 1.000000
vt 0.250000 0.875000
vt 0.250000 1.000000
vt 0.375000 1.000000
vt 0.250000 0.875000
vt 0.375000 1.000000
vt 0.375000 0.875000
vt 0.250000 0.875000
vt 0.375000 1.000000
vt 0.250000 1.000000
vt 0.250000 0.875000
vt 0.250000 1.000000
vt 0.375000 1.000000
vt 0.250000 0.875000
vt 0.375000 0.875000
vt 0.375000 1.000000
vt 0.375000 0.875000
vt 0.250000 0.875000
vt 0.375000 1.000000
vt 0.250000 1.000000
vt 0.250000 0.875000
vt 0.250000 1.000000
vt 0.375000 1.000000
vt 0.250000 0.875000
vt 0.375000 0.875000
vt 0.375000 1.000000
vt 0.375000 0.875000
vt 0.250000 0.875000
vt 0.375000 1.000000
vt 0.250000 1.000000
vt 0.250000 0.875000
vt 0.250000 1.000000
vt 0.375000 1.000000
vt 0.250000 0.875000
vt 0.375000 0.875000
vt 0.375000 1.000000
vt 0.375000 0.875000
vt 0.250000 0.875000
vt 0.375000 1.000000
vt 0.250000 1.000000
vt 0.250000 0.875000
vt 0.250000 1.000000
vt 0.375000 1.000000
vt 0.250000 0.875000
vt 0.375000 0.875000
vt 0.375000 1.000000
vt 0.375000 0.875000
vt 0.500000 0.000000
vt 0.625000 0.000000
vt 0.057396 0.004628
vt 0.031250 0.619562
vt 0.051321 0.013200
vt 0.375000 0.875000
vt 0.250000 0.875000
vt 0.250000 1.000000
vt 0.375000 1.000000
vt 0.375000 0.875000
vt 0.250000 1.000000
vt 0.375000 0.875000
vt 0.250000 1.000000
vt 0.375000 0.875000
vt 0.250000 1.000000
vt 0.375000 0.875000
vt 0.250000 1.000000
vt 0.375000 0.875000
vt 0.375000 0.875000
vt 0.250000 1.000000
vt 0.250000 1.000000
vn 0.2251 0.0000 -0.9743
vn 1.0000 0.0000 0.0000
vn 0.0000 0.0000 -1.0000
vn 0.0000 -1.0000 0.0000
vn 0.0000 1.0000 0.0000
vn 0.0000 0.0000 1.0000
vn 0.2251 0.0000 0.9743
vn -0.2251 0.0000 -0.9743
vn -1.0000 0.0000 0.0000
vn -0.2251 0.0000 0.9743
vn 0.2155 0.0000 -0.9765
vn -0.2155 0.0000 0.9765
vn 0.2155 0.0000 0.9765
vn -0.2155 0.0000 -0.9765
vn -0.5774 0.5774 -0.5774
vn 0.5774 -0.5774 -0.5774
vn -0.5774 -0.5774 -0.5774
vn 0.5774 0.5774 -0.5774
vn 0.5774 -0.5774 0.5774
vn 0.5774 0.5774 0.5773
vn -0.5774 -0.5774 0.5774
vn -0.5774 0.5774 0.5774
vn 0.0000 0.0044 1.0000
vn 0.8606 0.0386 0.5078
vn 0.0000 0.0202 0.9998
vn 0.5577 0.6114 0.5614
vn 0.0000 0.7292 0.6843
vn -0.0000 0.0044 -1.0000
vn 0.8606 0.0386 -0.5078
vn 0.7699 0.0193 -0.6379
vn 0.0000 0.0202 -0.9998
vn 0.5578 0.6114 -0.5614
vn 0.7699 0.0193 0.6379
vn -0.8606 0.0386 0.5078
vn -0.7699 0.0193 -0.6379
vn -0.7699 0.0193 0.6379
vn 0.0000 0.7292 -0.6843
vn -0.5578 0.6114 0.5614
vn -0.8606 0.0386 -0.5078
vn -0.5577 0.6114 -0.5614
vn -0.7056 -0.0504 -0.7068
vn 0.7056 -0.0340 -0.7078
vn -0.7056 -0.0340 -0.7078
vn 0.7056 -0.0504 0.7068
vn 0.7056 -0.0340 0.7078
vn -0.7056 -0.0340 0.7078
vn -0.7061 -0.0570 -0.7058
vn 0.7056 -0.0504 -0.7068
vn 0.7061 -0.0570 -0.7058
vn 0.7061 -0.0570 0.7058
vn -0.7056 -0.0504 0.7068
vn -0.7061 -0.0570 0.7058
vn -0.7075 -0.0264 -0.7062
vn 0.7075 -0.0264 -0.7062
vn 0.7075 -0.0264 0.7062
vn -0.7075 -0.0264 0.7062
vn -0.7072 -0.0025 -0.7070
vn 0.7072 -0.0025 -0.7070
vn 0.7072 -0.0025 0.7070
vn -0.7072 -0.0025 0.7070
vn -0.7071 0.0000 -0.7071
vn 0.7071 0.0000 -0.7071
vn 0.7071 0.0000 0.7071
vn -0.7071 0.0000 0.7071
s off
f 12/1/1 15/2/1 10/3/1
f 16/4/2 13/5/2 15/6/2
f 26/7/3 10/3/3 25/8/3
f 15/9/4 11/10/4 10/11/4
f 10/11/4 27/12/4 25/13/4
f 26/14/5 9/15/5 12/16/5
f 12/16/5 14/17/5 16/18/5
f 9/19/6 27/20/6 11/21/6
f 14/22/7 11/21/7 13/23/7
f 23/24/8 20/25/8 18/26/8
f 21/27/9 24/28/9 23/29/9
f 18/26/3 26/7/3 25/8/3
f 19/30/4 23/31/4 18/32/4
f 27/12/4 18/32/4 25/13/4
f 17/33/5 26/14/5 20/34/5
f 22/35/5 20/34/5 24/36/5
f 27/20/6 17/37/6 19/38/6
f 19/38/10 22/39/10 21/40/10
f 30/41/9 31/42/9 29/43/9
f 38/44/11 35/45/11 37/46/11
f 36/47/2 33/48/2 35/49/2
f 40/50/12 29/51/12 39/52/12
f 38/53/5 34/54/5 36/55/5
f 32/56/5 40/57/5 38/53/5
f 34/58/13 39/52/13 33/59/13
f 32/60/14 37/46/14 31/61/14
f 12/1/1 16/62/1 15/2/1
f 16/4/2 14/63/2 13/5/2
f 26/7/3 12/1/3 10/3/3
f 15/9/4 13/64/4 11/10/4
f 10/11/4 11/10/4 27/12/4
f 26/14/5 28/65/5 9/15/5
f 12/16/5 9/15/5 14/17/5
f 9/19/6 28/65/6 27/20/6
f 14/22/7 9/19/7 11/21/7
f 23/24/8 24/66/8 20/25/8
f 21/27/9 22/67/9 24/28/9
f 18/26/3 20/25/3 26/7/3
f 19/30/4 21/68/4 23/31/4
f 27/12/4 19/30/4 18/32/4
f 17/33/5 28/65/5 26/14/5
f 22/35/5 17/33/5 20/34/5
f 27/20/6 28/65/6 17/37/6
f 19/38/10 17/37/10 22/39/10
f 30/41/9 32/69/9 31/42/9
f 38/44/11 36/70/11 35/45/11
f 36/47/2 34/71/2 33/48/2
f 40/50/12 30/72/12 29/51/12
f 38/53/5 40/57/5 34/54/5
f 32/56/5 30/73/5 40/57/5
f 34/58/13 40/50/13 39/52/13
f 32/60/14 38/44/14 37/46/14
s 1
f 2/74/15 3/75/16 1/76/17
f 4/77/18 7/78/19 3/75/16
f 8/79/20 5/80/21 7/81/19
f 6/82/22 1/83/17 5/80/21
f 7/84/19 1/83/17 3/85/16
f 4/77/18 6/86/22 8/87/20
f 54/88/23 41/89/24 53/90/25
f 53/90/25 45/91/26 55/92/27
f 57/93/28 47/94/29 49/95/30
f 56/96/31 51/97/32 47/94/29
f 43/98/33 47/99/29 41/100/24
f 42/101/34 50/102/35 44/103/36
f 45/104/26 58/105/37 55/106/27
f 46/107/38 48/108/39 42/101/34
f 41/100/24 51/109/32 45/104/26
f 55/106/27 52/110/40 46/107/38
f 52/111/40 56/96/31 48/112/39
f 48/112/39 57/93/28 50/113/35
f 53/90/25 46/114/38 42/115/34
f 54/88/23 42/115/34 44/116/36
f 60/117/41 61/118/42 59/119/43
f 61/120/42 66/121/44 65/122/45
f 66/123/44 63/124/46 65/125/45
f 63/126/46 60/127/41 59/128/43
f 67/129/47 62/130/48 60/127/41
f 68/131/49 66/123/44 62/132/48
f 70/133/50 64/134/51 66/121/44
f 69/135/52 60/117/41 64/136/51
f 71/137/53 68/138/49 67/139/47
f 72/140/54 70/133/50 68/141/49
f 74/142/55 69/143/52 70/144/50
f 73/145/56 67/129/47 69/146/52
f 75/147/57 72/148/54 71/149/53
f 76/150/58 74/142/55 72/151/54
f 78/152/59 73/153/56 74/154/55
f 77/155/60 71/137/53 73/156/56
f 79/157/61 76/158/58 75/159/57
f 80/160/62 78/152/59 76/161/58
f 82/162/63 77/163/60 78/164/59
f 81/165/64 75/147/57 77/166/60
f 83/167/61 80/168/62 79/169/61
f 84/170/62 82/162/63 80/171/62
f 86/172/63 81/173/64 82/174/63
f 85/175/64 79/157/61 81/176/64
f 2/74/15 4/77/18 3/75/16
f 4/77/18 8/87/20 7/78/19
f 8/79/20 6/82/22 5/80/21
f 6/82/22 2/177/15 1/83/17
f 7/84/19 5/80/21 1/83/17
f 4/77/18 2/178/15 6/86/22
f 54/88/23 43/179/33 41/89/24
f 53/90/25 41/89/24 45/91/26
f 57/93/28 56/96/31 47/94/29
f 56/96/31 58/180/37 51/97/32
f 43/98/33 49/181/30 47/99/29
f 42/101/34 48/108/39 50/102/35
f 45/104/26 51/109/32 58/105/37
f 46/107/38 52/110/40 48/108/39
f 41/100/24 47/99/29 51/109/32
f 55/106/27 58/105/37 52/110/40
f 52/111/40 58/180/37 56/96/31
f 48/112/39 56/96/31 57/93/28
f 53/90/25 55/92/27 46/114/38
f 54/88/23 53/90/25 42/115/34
f 60/117/41 62/182/48 61/118/42
f 61/120/42 62/183/48 66/121/44
f 66/123/44 64/184/51 63/124/46
f 63/126/46 64/185/51 60/127/41
f 67/129/47 68/186/49 62/130/48
f 68/131/49 70/144/50 66/123/44
f 70/133/50 69/187/52 64/134/51
f 69/135/52 67/139/47 60/117/41
f 71/137/53 72/188/54 68/138/49
f 72/140/54 74/154/55 70/133/50
f 74/142/55 73/189/56 69/143/52
f 73/145/56 71/149/53 67/129/47
f 75/147/57 76/190/58 72/148/54
f 76/150/58 78/164/59 74/142/55
f 78/152/59 77/191/60 73/153/56
f 77/155/60 75/159/57 71/137/53
f 79/157/61 80/192/62 76/158/58
f 80/160/62 82/174/63 78/152/59
f 82/162/63 81/193/64 77/163/60
f 81/165/64 79/169/61 75/147/57
f 83/167/61 84/194/62 80/168/62
f 84/170/62 86/195/63 82/162/63
f 86/172/63 85/196/64 81/173/64
f 85/175/64 83/197/61 79/157/61
