# Blender v2.79 (sub 0) OBJ File: 'n5.blend'
# www.blender.org
o ninzato
v -1.344972 2.895239 1.000000
v -1.344972 2.456820 -1.000000
v -1.344972 2.456820 1.000000
v -0.883126 -2.728401 0.549480
v 0.887009 -2.728401 0.549480
v 0.887009 -2.728401 -0.549480
v 1.344972 2.895239 1.000000
v 1.344972 2.456820 1.000000
v 1.344972 2.456820 -1.000000
v 1.344972 2.895239 -1.000000
v -1.344972 2.895239 -1.000000
v -0.883126 -2.728401 -0.549480
v -1.085413 -2.561476 0.664051
v -1.085413 -2.969852 -0.664051
v -1.085413 -2.969852 0.664051
v -1.085413 -2.561476 -0.664051
v 1.089296 -2.969852 -0.664051
v 1.089296 -2.561476 -0.664051
v 1.089296 -2.969852 0.664051
v 1.089296 -2.561476 0.664051
v 1.089296 -2.561476 0.664051
v -1.085413 -2.969852 0.664051
v 1.089296 -2.969852 0.664051
v 0.885068 2.636571 -0.549480
v -0.885068 2.636571 -0.549480
v -0.885068 2.636571 0.549480
v 0.885068 2.636571 0.549480
v 0.843135 19.403543 -0.123218
v 0.843135 2.882501 -0.123218
v 0.843135 19.403543 0.123218
v 0.843135 2.882501 0.123218
v -0.843135 21.795755 -0.123218
v -0.843135 2.882501 -0.123218
v -0.843135 21.795755 0.123218
v -0.843135 2.882501 0.123218
v -1.085413 -2.561476 0.664051
vt 0.285156 0.328125
vt 0.273438 0.257812
vt 0.273438 0.328125
vt 0.273438 0.332031
vt 0.285156 0.000000
vt 0.273438 0.000000
vt 0.242188 0.371094
vt 0.246094 0.000000
vt 0.242188 0.000000
vt 0.242188 -0.000000
vt 0.285156 -0.000000
vt 0.285156 0.328125
vt 0.285156 0.257812
vt 0.285156 0.332031
vt 0.246094 0.371094
vt 0.242188 0.371094
vt 0.523438 1.000000
vt 0.539062 0.937500
vt 0.539062 1.000000
vt 0.625000 0.937500
vt 0.539062 0.921875
vt 0.625000 0.921875
vt 0.625000 0.937500
vt 0.539062 0.937500
vt 0.523438 1.000000
vt 0.523438 0.937500
vt 0.539062 0.921875
vt 0.187500 0.628906
vt 0.125000 0.812500
vt 0.125000 0.628906
vt 0.539062 1.000000
vt 0.625000 1.000000
vt 0.519531 0.917969
vt 0.539062 0.875000
vt 0.539062 0.917969
vt 0.539062 0.855469
vt 0.625000 0.875000
vt 0.539062 0.875000
vt 0.519531 0.917969
vt 0.519531 0.875000
vt 0.539062 0.917969
vt 0.625000 0.875000
vt 0.625000 0.917969
vt 0.625000 0.875000
vt 0.539062 0.855469
vt 0.625000 0.855469
vt 0.125000 0.628906
vt 0.187500 0.812500
vt 0.125000 0.812500
vt 0.125000 0.812500
vt 0.187500 0.628906
vt 0.187500 0.812500
vt 0.125000 0.812500
vt 0.187500 0.628906
vt 0.187500 0.812500
vt 0.523438 0.937500
vt 0.539062 0.937500
vt 0.625000 1.000000
vt 0.539062 1.000000
vt 0.625000 0.921875
vt 0.519531 0.875000
vt 0.625000 0.855469
vt 0.539062 0.917969
vt 0.625000 0.917969
vt 0.539062 0.875000
vt 0.539062 0.875000
vt 0.187500 0.812500
vt 0.187500 0.628906
vt 0.125000 0.628906
vt 0.125000 0.628906
vn 0.8173 0.5761 0.0000
vn 1.0000 0.0000 0.0000
vn -1.0000 0.0000 0.0000
vn 0.0000 0.0000 -1.0000
vn 0.0000 0.0000 1.0000
vn 0.0000 -1.0000 -0.0000
vn 1.0000 0.0004 0.0000
vn 0.0000 1.0000 0.0000
vn -1.0000 -0.0004 0.0000
s off
f 28/1/1 34/2/1 30/3/1
f 28/4/2 31/5/2 29/6/2
f 34/7/3 33/8/3 35/9/3
f 33/10/4 28/1/4 29/11/4
f 30/12/5 35/9/5 31/5/5
f 28/1/1 32/13/1 34/2/1
f 28/4/2 30/14/2 31/5/2
f 34/7/3 32/15/3 33/8/3
f 33/10/4 32/16/4 28/1/4
f 30/12/5 34/7/5 35/9/5
s 1
f 1/17/3 2/18/3 3/19/3
f 7/20/5 3/21/5 8/22/5
f 9/23/6 3/19/6 2/18/6
f 10/24/2 8/25/2 9/26/2
f 11/27/4 9/23/4 2/18/4
f 6/28/7 27/29/7 5/30/7
f 11/31/8 7/20/8 10/32/8
f 13/33/3 14/34/3 15/35/3
f 16/36/4 17/37/4 14/34/4
f 18/38/2 19/39/2 17/40/2
f 17/37/6 15/35/6 14/34/6
f 16/41/8 20/42/8 18/43/8
f 21/44/5 22/45/5 23/46/5
f 4/47/5 27/48/5 26/49/5
f 24/50/4 12/51/4 25/52/4
f 25/53/9 4/54/9 26/55/9
f 1/17/3 11/56/3 2/18/3
f 7/20/5 1/57/5 3/21/5
f 9/23/6 8/58/6 3/19/6
f 10/24/2 7/59/2 8/25/2
f 11/27/4 10/60/4 9/23/4
f 11/31/8 1/57/8 7/20/8
f 13/33/3 16/61/3 14/34/3
f 16/36/4 18/62/4 17/37/4
f 18/38/2 20/63/2 19/39/2
f 17/37/6 19/64/6 15/35/6
f 16/41/8 13/65/8 20/42/8
f 21/44/5 36/66/5 22/45/5
f 6/28/7 24/67/7 27/29/7
f 4/47/5 5/68/5 27/48/5
f 24/50/4 6/69/4 12/51/4
f 25/53/9 12/70/9 4/54/9
