# Blender v2.79 (sub 0) OBJ File: 'Twohanded.blend'
# www.blender.org
o Poleaxe
v 0.002387 -1.175861 0.055115
v -0.049934 -0.990236 0.055115
v 0.002387 -1.175861 -0.055115
v -0.049934 -0.990236 -0.055115
v 0.127031 -1.112406 0.055115
v 0.089933 -0.990236 0.055115
v 0.127031 -1.112406 -0.055115
v 0.089933 -0.990236 -0.055115
v -0.069899 -0.836338 0.055115
v -0.069899 -0.836338 -0.055115
v 0.069968 -0.836338 0.055115
v 0.069968 -0.836338 -0.055115
v -0.069933 -0.682440 0.055115
v -0.069933 -0.682440 -0.055115
v 0.069933 -0.682440 0.055115
v 0.069933 -0.682440 -0.055115
v -0.069933 -0.528542 0.055115
v -0.069933 -0.528542 -0.055115
v 0.069933 -0.528542 0.055115
v 0.069933 -0.528542 -0.055115
v -0.069933 -0.374644 0.055115
v -0.069933 -0.374644 -0.055115
v 0.069933 -0.374644 0.055115
v 0.069933 -0.374644 -0.055115
v -0.069933 -0.220747 0.055115
v -0.069933 -0.220747 -0.055115
v 0.069933 -0.220747 0.055115
v 0.069933 -0.220747 -0.055115
v -0.069933 -0.066849 0.055115
v -0.069933 -0.066849 -0.055115
v 0.069933 -0.066849 0.055115
v 0.069933 -0.066849 -0.055115
v -0.069933 0.087049 0.055115
v -0.069933 0.087049 -0.055115
v 0.069933 0.087049 0.055115
v 0.069933 0.087049 -0.055115
v -0.069933 0.240947 0.055115
v -0.069933 0.240947 -0.055115
v 0.069933 0.240947 0.055115
v 0.069933 0.240947 -0.055115
v -0.069933 0.394845 0.055115
v -0.069933 0.394845 -0.055115
v 0.069933 0.394845 0.055115
v 0.069933 0.394845 -0.055115
v -0.069933 0.548742 0.055115
v -0.069933 0.548742 -0.055115
v 0.069933 0.548742 0.055115
v 0.069933 0.548742 -0.055115
v -0.069933 0.702640 0.055115
v -0.069933 0.702640 -0.055115
v 0.069933 0.702640 0.055115
v 0.069933 0.702640 -0.055115
v -0.069933 0.856538 0.055115
v -0.069933 0.856538 -0.055115
v 0.069933 0.856538 0.055115
v 0.069933 0.856538 -0.055115
v -0.069933 1.010436 0.055115
v -0.069933 1.010436 -0.055115
v 0.069933 1.010436 0.055115
v 0.069933 1.010436 -0.055115
v -0.069933 1.164334 0.055115
v -0.069933 1.164334 -0.055115
v 0.069933 1.164334 0.055115
v 0.069933 1.164334 -0.055115
v -0.069933 1.472129 0.055115
v -0.069933 1.472129 -0.055115
v 0.069933 1.472129 0.055115
v 0.069933 1.472129 -0.055115
v -0.069933 1.626027 0.055115
v -0.069933 1.626027 -0.055115
v 0.069933 1.626027 0.055115
v 0.069933 1.626027 -0.055115
v -0.069933 1.779925 0.055115
v -0.069933 1.779925 -0.055115
v 0.069933 1.779925 0.055115
v 0.069933 1.779925 -0.055115
v -0.069933 1.933822 0.055115
v -0.069933 1.933822 -0.055115
v 0.069933 1.933822 0.055115
v 0.069933 1.933822 -0.055115
v -0.069933 2.087720 0.055115
v -0.069933 2.087720 -0.055115
v 0.069933 2.087720 0.055115
v 0.069933 2.087720 -0.055115
v 0.248223 1.368988 0.004496
v -0.112482 2.010902 0.051060
v 0.410580 2.109797 0.004496
v -0.112482 1.810473 0.051060
v 0.402378 1.810473 0.004496
v 0.173790 1.368988 0.017887
v 0.173790 2.010902 0.053554
v 0.173790 1.810473 0.053556
v 0.248223 1.368988 -0.004496
v -0.112482 2.010902 -0.051060
v 0.410580 2.109797 -0.004496
v -0.112482 1.810473 -0.051060
v 0.402378 1.810473 -0.004496
v 0.173790 1.368988 -0.017887
v 0.173790 2.010902 -0.053554
v 0.173790 1.810473 -0.053556
v 0.069310 2.010902 0.075307
v 0.069310 1.810473 0.075309
v 0.069310 2.010902 -0.075307
v 0.069310 1.810473 -0.075309
v -0.082184 2.010902 0.075309
v -0.082184 1.810473 0.075309
v -0.082184 2.010902 -0.075309
v -0.082184 1.810473 -0.075309
v 0.345927 1.589731 0.004496
v 0.194417 1.589731 0.035721
v 0.345927 1.589731 -0.004496
v 0.194417 1.589731 -0.035721
v -0.069933 1.312476 0.055115
v -0.069933 1.323987 0.055115
v -0.064013 1.318231 0.050450
v -0.069933 1.323987 -0.055115
v -0.069933 1.312476 -0.055115
v -0.064013 1.318231 -0.050450
v 0.069933 1.323987 0.055115
v 0.069933 1.312476 0.055115
v 0.064013 1.318231 0.050450
v 0.069933 1.323987 -0.055115
v 0.069933 1.312476 -0.055115
v 0.064013 1.318231 -0.050450
v -0.069933 2.042176 0.055115
v -0.069933 2.030665 0.055115
v -0.064013 2.036420 0.050450
v -0.069933 2.030665 -0.055115
v -0.069933 2.042176 -0.055115
v -0.064013 2.036420 -0.050450
v 0.069933 2.030665 -0.055115
v 0.069933 2.042176 -0.055115
v 0.064013 2.036420 -0.050450
v 0.069933 2.030665 0.055115
v 0.069933 2.042176 0.055115
v 0.064013 2.036420 0.050450
vt 0.250000 0.875000
vt 0.375000 1.000000
vt 0.250000 1.000000
vt 0.250000 1.000000
vt 0.375000 0.875000
vt 0.375000 1.000000
vt 0.375000 1.000000
vt 0.250000 0.875000
vt 0.375000 0.875000
vt 0.375000 1.000000
vt 0.250000 0.875000
vt 0.375000 0.875000
vt 0.250000 0.875000
vt 0.375000 1.000000
vt 0.250000 1.000000
vt 0.250000 1.000000
vt 0.375000 0.875000
vt 0.375000 1.000000
vt 0.250000 0.875000
vt 0.375000 1.000000
vt 0.375000 0.875000
vt 0.250000 0.875000
vt 0.375000 1.000000
vt 0.250000 1.000000
vt 0.250000 1.000000
vt 0.375000 0.875000
vt 0.375000 1.000000
vt 0.250000 0.875000
vt 0.375000 1.000000
vt 0.375000 0.875000
vt 0.250000 0.875000
vt 0.375000 1.000000
vt 0.250000 1.000000
vt 0.250000 0.875000
vt 0.250000 1.000000
vt 0.375000 1.000000
vt 0.250000 0.875000
vt 0.375000 1.000000
vt 0.375000 0.875000
vt 0.250000 0.875000
vt 0.375000 1.000000
vt 0.250000 1.000000
vt 0.250000 0.875000
vt 0.250000 1.000000
vt 0.375000 1.000000
vt 0.250000 0.875000
vt 0.375000 0.875000
vt 0.375000 1.000000
vt 0.375000 0.875000
vt 0.250000 0.875000
vt 0.375000 1.000000
vt 0.250000 1.000000
vt 0.250000 0.875000
vt 0.250000 1.000000
vt 0.375000 1.000000
vt 0.250000 0.875000
vt 0.375000 0.875000
vt 0.375000 1.000000
vt 0.375000 0.875000
vt 0.250000 0.875000
vt 0.375000 1.000000
vt 0.250000 1.000000
vt 0.250000 0.875000
vt 0.250000 1.000000
vt 0.375000 1.000000
vt 0.250000 0.875000
vt 0.375000 0.875000
vt 0.375000 1.000000
vt 0.375000 0.875000
vt 0.250000 0.875000
vt 0.375000 1.000000
vt 0.250000 1.000000
vt 0.250000 0.875000
vt 0.250000 1.000000
vt 0.375000 1.000000
vt 0.250000 0.875000
vt 0.375000 0.875000
vt 0.375000 1.000000
vt 0.375000 0.875000
vt 0.250000 0.875000
vt 0.375000 1.000000
vt 0.250000 1.000000
vt 0.250000 0.875000
vt 0.250000 1.000000
vt 0.375000 1.000000
vt 0.250000 0.875000
vt 0.375000 0.875000
vt 0.375000 1.000000
vt 0.375000 0.875000
vt 0.250000 0.875000
vt 0.375000 1.000000
vt 0.250000 1.000000
vt 0.250000 0.875000
vt 0.250000 1.000000
vt 0.375000 1.000000
vt 0.250000 0.875000
vt 0.375000 0.875000
vt 0.375000 1.000000
vt 0.375000 0.875000
vt 0.250000 0.875000
vt 0.375000 1.000000
vt 0.250000 1.000000
vt 0.250000 0.875000
vt 0.250000 1.000000
vt 0.375000 1.000000
vt 0.250000 0.875000
vt 0.375000 0.875000
vt 0.375000 1.000000
vt 0.375000 0.875000
vt 0.250000 0.875000
vt 0.375000 1.000000
vt 0.250000 1.000000
vt 0.250000 0.875000
vt 0.250000 1.000000
vt 0.375000 1.000000
vt 0.250000 0.875000
vt 0.375000 0.875000
vt 0.375000 1.000000
vt 0.375000 0.875000
vt 0.250000 0.875000
vt 0.375000 1.000000
vt 0.250000 1.000000
vt 0.250000 0.875000
vt 0.250000 1.000000
vt 0.375000 1.000000
vt 0.250000 0.875000
vt 0.375000 0.875000
vt 0.375000 1.000000
vt 0.375000 0.875000
vt 0.250000 0.875000
vt 0.375000 1.000000
vt 0.250000 1.000000
vt 0.250000 0.875000
vt 0.250000 1.000000
vt 0.375000 1.000000
vt 0.250000 0.875000
vt 0.375000 0.875000
vt 0.375000 1.000000
vt 0.375000 0.875000
vt 0.250000 0.875000
vt 0.375000 1.000000
vt 0.250000 1.000000
vt 0.250000 0.875000
vt 0.250000 1.000000
vt 0.375000 1.000000
vt 0.250000 0.875000
vt 0.375000 0.875000
vt 0.375000 1.000000
vt 0.375000 0.875000
vt 0.125000 0.875000
vt 0.000000 0.754675
vt 0.125000 0.754675
vt 0.000000 0.750000
vt 0.125000 0.870325
vt 0.000000 0.870325
vt 0.375000 1.000000
vt 0.250000 0.963008
vt 0.375000 0.963008
vt 0.250000 0.879675
vt 0.375000 1.000000
vt 0.250000 1.000000
vt 0.250000 0.879675
vt 0.250000 1.000000
vt 0.125000 0.875000
vt 0.000000 0.754675
vt 0.125000 0.754675
vt 0.375000 0.995325
vt 0.250000 0.875000
vt 0.375000 0.875000
vt 0.000000 0.750000
vt 0.125000 0.870325
vt 0.000000 0.870325
vt -0.000000 0.750000
vt 0.125000 0.875000
vt -0.000000 0.875000
vt -0.000000 0.750000
vt -0.000000 0.875000
vt 0.125000 0.875000
vt -0.000000 0.750000
vt 0.125000 0.750000
vt 0.125000 0.875000
vt 0.125000 0.750000
vt -0.000000 0.750000
vt 0.125000 0.875000
vt -0.000000 0.875000
vt -0.000000 0.750000
vt -0.000000 0.875000
vt 0.125000 0.875000
vt -0.000000 0.750000
vt 0.125000 0.750000
vt 0.125000 0.875000
vt 0.125000 0.750000
vt -0.000000 0.750000
vt 0.125000 0.875000
vt -0.000000 0.875000
vt -0.000000 0.750000
vt -0.000000 0.875000
vt 0.125000 0.875000
vt -0.000000 0.750000
vt 0.125000 0.750000
vt 0.125000 0.875000
vt 0.125000 0.750000
vt 0.125000 0.831117
vt 0.125000 0.750000
vt 0.000000 0.793883
vt 0.000000 0.875000
vt 0.125000 0.831117
vt 0.000000 0.750000
vt 0.125000 0.750000
vt 0.000000 0.793883
vt 0.125000 0.875000
vt 0.000000 0.875000
vt 0.375000 0.750000
vt 0.250000 0.875000
vt 0.250000 0.750000
vt 0.375000 0.750000
vt 0.250000 0.750000
vt 0.375000 1.000000
vt 0.250000 0.963008
vt 0.375000 0.963008
vt 0.250000 0.875000
vt 0.375000 0.911992
vt 0.250000 0.911992
vt 0.375000 0.911992
vt 0.250000 0.911992
vt 0.000000 0.875000
vt 0.375000 0.875000
vt 0.250000 0.875000
vt 0.125000 0.875000
vt 0.000000 0.875000
vt 0.250000 0.875000
vt 0.375000 0.879675
vt 0.125000 0.750000
vt 0.250000 1.000000
vt 0.375000 1.000000
vt 0.000000 0.750000
vt 0.125000 0.750000
vt 0.375000 1.000000
vt 0.250000 0.995325
vt 0.375000 0.995325
vt 0.250000 0.958333
vt 0.375000 0.958333
vt 0.125000 0.835938
vt 0.000000 0.831117
vt 0.375000 0.958333
vt 0.000000 0.835938
vt 0.125000 0.835938
vt 0.375000 0.916667
vt 0.250000 0.916667
vt 0.000000 0.789062
vt 0.125000 0.793883
vt 0.250000 0.916667
vt 0.125000 0.789062
vt 0.000000 0.789062
vt 0.375000 0.875000
vt 0.375000 0.875000
vt 0.250000 0.875000
vt 0.250000 1.000000
vt 0.375000 0.875000
vt 0.250000 0.875000
vt 0.250000 1.000000
vt 0.375000 0.875000
vt 0.250000 0.875000
vt 0.250000 1.000000
vt 0.375000 0.875000
vt 0.250000 1.000000
vt 0.375000 0.875000
vt 0.250000 1.000000
vt 0.375000 0.875000
vt 0.250000 1.000000
vt 0.375000 0.875000
vt 0.250000 1.000000
vt 0.375000 0.875000
vt 0.250000 1.000000
vt 0.375000 0.875000
vt 0.250000 1.000000
vt 0.375000 0.875000
vt 0.250000 1.000000
vt 0.375000 0.875000
vt 0.250000 1.000000
vt 0.375000 0.875000
vt 0.250000 1.000000
vt 0.375000 0.875000
vt 0.250000 1.000000
vt 0.375000 0.875000
vt 0.250000 1.000000
vt 0.375000 0.875000
vt 0.250000 1.000000
vt 0.250000 1.000000
vt 0.375000 0.879675
vt 0.000000 0.875000
vt 0.250000 0.995325
vt 0.125000 0.750000
vt 0.125000 0.750000
vt -0.000000 0.875000
vt 0.125000 0.750000
vt -0.000000 0.875000
vt 0.125000 0.750000
vt -0.000000 0.875000
vt 0.000000 0.831117
vt 0.125000 0.793883
vt 0.375000 0.875000
vt 0.250000 1.000000
vt 0.375000 0.875000
vt 0.125000 0.875000
vt 0.375000 0.875000
vt 0.000000 0.750000
vt 0.250000 1.000000
vt 0.000000 0.835938
vt 0.250000 0.958333
vt 0.125000 0.789062
vt 0.375000 0.916667
vt 0.375000 0.179688
vt 0.234375 0.304688
vt 0.234375 0.179688
vt 0.179688 0.304688
vt 0.179687 0.179688
vt 0.234375 0.304688
vt 0.375000 0.179688
vt 0.234375 0.179688
vt 0.328125 0.089844
vt 0.234375 0.089844
vt 0.179688 0.304688
vt 0.179687 0.179688
vt 0.275824 0.022146
vt 0.243055 0.022146
vt 0.275824 0.022146
vt 0.360892 0.183996
vt 0.360892 0.291331
vt 0.360892 0.291331
vt 0.164062 0.070312
vt 0.226562 0.148438
vt 0.164062 0.164062
vt 0.187500 0.304688
vt 0.085938 0.179688
vt 0.187500 0.179688
vt 0.328125 0.089844
vt 0.234375 0.089844
vt 0.359375 0.299262
vt 0.234375 0.299262
vt 0.234375 0.299262
vt 0.318358 0.103071
vt 0.318358 0.103071
vt 0.164062 0.164062
vt 0.226562 0.085938
vt 0.226562 0.148438
vt 0.070312 0.164062
vt 0.085938 0.070312
vt 0.085938 0.164062
vt 0.243055 0.183996
vt 0.243055 0.103071
vt 0.243055 0.103071
vt 0.164062 0.070312
vt 0.088542 0.179688
vt 0.070312 0.179688
vt 0.088542 0.304688
vt 0.070312 0.304688
vt 0.088542 0.304688
vt 0.070312 0.179688
vt 0.088542 0.179688
vt 0.085938 0.164062
vt 0.085938 0.070312
vt 0.070312 0.164062
vt 0.070312 0.070312
vt 0.243055 0.022146
vt 0.360892 0.183996
vt 0.281250 0.000000
vt 0.234375 0.000000
vt 0.281250 0.000000
vt 0.234375 0.000000
vt 0.375000 0.304688
vt 0.375000 0.304688
vt 0.226562 0.085938
vt 0.085938 0.304688
vt 0.359375 0.299262
vt 0.070312 0.070312
vt 0.243055 0.183996
vt 0.070312 0.304688
vn -0.9625 -0.2713 0.0000
vn 0.0000 0.0000 -1.0000
vn 0.9569 0.2906 0.0000
vn 0.0000 0.0000 1.0000
vn -0.9917 -0.1287 0.0000
vn 0.9917 0.1287 0.0000
vn -1.0000 -0.0002 0.0000
vn 1.0000 0.0002 0.0000
vn -1.0000 0.0000 0.0000
vn 1.0000 0.0000 0.0000
vn 0.0000 1.0000 0.0000
vn 0.4537 -0.8912 0.0000
vn -0.6971 -0.7170 0.0000
vn -0.6971 0.7170 0.0000
vn 0.0000 -0.6297 -0.7768
vn 0.0000 0.6297 -0.7768
vn 0.6971 -0.7170 0.0000
vn 0.6971 0.7170 0.0000
vn 0.0000 -0.6297 0.7768
vn 0.0000 0.6297 0.7768
vn 0.2083 -0.0260 0.9777
vn 0.2057 -0.0017 0.9786
vn 0.2068 -0.0178 0.9782
vn 0.1025 0.0000 0.9947
vn 0.2057 -0.0017 -0.9786
vn 0.2083 -0.0260 -0.9777
vn 0.2068 -0.0178 -0.9782
vn 0.2038 -0.0694 0.9765
vn 0.1988 -0.0751 0.9772
vn 0.1025 0.0000 -0.9947
vn 0.0000 -1.0000 0.0000
vn 0.9904 -0.1384 0.0000
vn 0.9996 -0.0274 0.0000
vn -0.1719 0.9851 0.0000
vn 0.2038 -0.0694 -0.9765
vn 0.1988 -0.0751 -0.9772
vn -0.3854 0.9228 0.0000
vn 0.9144 -0.4047 0.0000
vn 0.9449 -0.3274 0.0000
vn -0.9957 -0.0930 0.0000
vn -1.0000 -0.0048 0.0000
vn -0.6248 0.0000 0.7807
vn -0.6248 0.0000 -0.7807
vn -0.9957 0.0930 0.0000
vn 0.1846 -0.0934 -0.9784
vn 0.1762 -0.0956 -0.9797
vn 0.1846 -0.0934 0.9784
vn 0.1762 -0.0956 0.9797
vn 0.2051 -0.0056 0.9787
vn 0.2051 -0.0056 -0.9787
s off
f 2/1/1 3/2/1 1/3/1
f 3/4/2 8/5/2 7/6/2
f 8/7/3 5/8/3 7/9/3
f 6/10/4 1/11/4 5/12/4
f 9/13/5 4/14/5 2/15/5
f 4/16/2 12/17/2 8/7/2
f 12/18/6 6/19/6 8/5/6
f 11/20/4 2/1/4 6/21/4
f 13/22/7 10/23/7 9/24/7
f 10/25/2 16/26/2 12/18/2
f 16/27/8 11/28/8 12/17/8
f 15/29/4 9/13/4 11/30/4
f 17/31/9 14/32/9 13/33/9
f 18/34/2 16/27/2 14/35/2
f 20/36/10 15/37/10 16/26/10
f 19/38/4 13/22/4 15/39/4
f 21/40/9 18/41/9 17/42/9
f 22/43/2 20/36/2 18/44/2
f 24/45/10 19/46/10 20/47/10
f 23/48/4 17/31/4 19/49/4
f 25/50/9 22/51/9 21/52/9
f 26/53/2 24/45/2 22/54/2
f 28/55/10 23/56/10 24/57/10
f 27/58/4 21/40/4 23/59/4
f 29/60/9 26/61/9 25/62/9
f 30/63/2 28/55/2 26/64/2
f 32/65/10 27/66/10 28/67/10
f 31/68/4 25/50/4 27/69/4
f 33/70/9 30/71/9 29/72/9
f 34/73/2 32/65/2 30/74/2
f 36/75/10 31/76/10 32/77/10
f 35/78/4 29/60/4 31/79/4
f 37/80/9 34/81/9 33/82/9
f 38/83/2 36/75/2 34/84/2
f 40/85/10 35/86/10 36/87/10
f 39/88/4 33/70/4 35/89/4
f 41/90/9 38/91/9 37/92/9
f 42/93/2 40/85/2 38/94/2
f 44/95/10 39/96/10 40/97/10
f 43/98/4 37/80/4 39/99/4
f 45/100/9 42/101/9 41/102/9
f 46/103/2 44/95/2 42/104/2
f 48/105/10 43/106/10 44/107/10
f 47/108/4 41/90/4 43/109/4
f 49/110/9 46/111/9 45/112/9
f 50/113/2 48/105/2 46/114/2
f 52/115/10 47/116/10 48/117/10
f 51/118/4 45/100/4 47/119/4
f 53/120/9 50/121/9 49/122/9
f 54/123/2 52/115/2 50/124/2
f 56/125/10 51/126/10 52/127/10
f 55/128/4 49/110/4 51/129/4
f 57/130/9 54/131/9 53/132/9
f 58/133/2 56/125/2 54/134/2
f 60/135/10 55/136/10 56/137/10
f 59/138/4 53/120/4 55/139/4
f 61/140/9 58/141/9 57/142/9
f 62/143/2 60/135/2 58/144/2
f 64/145/10 59/146/10 60/147/10
f 63/148/4 57/130/4 59/149/4
f 67/150/4 114/151/4 119/152/4
f 66/153/2 122/154/2 116/155/2
f 83/156/4 125/157/4 135/158/4
f 113/159/9 62/160/9 61/161/9
f 117/162/2 64/145/2 62/163/2
f 68/164/10 119/165/10 122/166/10
f 123/167/10 63/168/10 64/169/10
f 65/170/9 116/171/9 114/172/9
f 69/173/9 66/174/9 65/175/9
f 70/176/2 68/164/2 66/177/2
f 72/178/10 67/179/10 68/180/10
f 71/181/4 65/170/4 67/182/4
f 73/183/9 70/184/9 69/185/9
f 74/186/2 72/178/2 70/187/2
f 76/188/10 71/189/10 72/190/10
f 75/191/4 69/173/4 71/192/4
f 77/193/9 74/194/9 73/195/9
f 78/196/2 76/188/2 74/197/2
f 80/198/10 75/199/10 76/200/10
f 79/201/4 73/183/4 75/202/4
f 134/203/4 77/193/4 79/204/4
f 128/205/2 80/198/2 78/206/2
f 131/207/10 79/208/10 80/209/10
f 126/210/9 78/211/9 77/212/9
f 83/213/11 82/214/11 81/215/11
f 7/216/12 1/11/12 3/217/12
f 84/218/10 135/219/10 132/220/10
f 81/221/9 129/222/9 125/223/9
f 82/214/2 132/224/2 129/225/2
f 116/171/13 115/226/13 114/172/13
f 118/227/14 113/159/14 115/228/14
f 116/155/15 124/229/15 118/230/15
f 118/231/16 123/232/16 117/162/16
f 119/165/17 124/233/17 122/166/17
f 121/234/18 123/167/18 124/235/18
f 119/152/19 115/236/19 121/237/19
f 121/238/20 113/239/20 120/240/20
f 135/158/19 127/241/19 136/242/19
f 136/243/20 126/244/20 134/203/20
f 135/219/17 133/245/17 132/220/17
f 136/246/18 131/207/18 133/247/18
f 129/225/15 133/248/15 130/249/15
f 130/250/16 131/251/16 128/205/16
f 129/222/13 127/252/13 125/223/13
f 130/253/14 126/210/14 127/254/14
f 120/240/4 61/140/4 63/255/4
f 2/1/1 4/256/1 3/2/1
f 3/4/2 4/257/2 8/5/2
f 8/7/3 6/258/3 5/8/3
f 6/10/4 2/15/4 1/11/4
f 9/13/5 10/259/5 4/14/5
f 4/16/2 10/260/2 12/17/2
f 12/18/6 11/261/6 6/19/6
f 11/20/4 9/24/4 2/1/4
f 13/22/7 14/262/7 10/23/7
f 10/25/2 14/263/2 16/26/2
f 16/27/8 15/264/8 11/28/8
f 15/29/4 13/33/4 9/13/4
f 17/31/9 18/265/9 14/32/9
f 18/34/2 20/47/2 16/27/2
f 20/36/10 19/266/10 15/37/10
f 19/38/4 17/42/4 13/22/4
f 21/40/9 22/267/9 18/41/9
f 22/43/2 24/57/2 20/36/2
f 24/45/10 23/268/10 19/46/10
f 23/48/4 21/52/4 17/31/4
f 25/50/9 26/269/9 22/51/9
f 26/53/2 28/67/2 24/45/2
f 28/55/10 27/270/10 23/56/10
f 27/58/4 25/62/4 21/40/4
f 29/60/9 30/271/9 26/61/9
f 30/63/2 32/77/2 28/55/2
f 32/65/10 31/272/10 27/66/10
f 31/68/4 29/72/4 25/50/4
f 33/70/9 34/273/9 30/71/9
f 34/73/2 36/87/2 32/65/2
f 36/75/10 35/274/10 31/76/10
f 35/78/4 33/82/4 29/60/4
f 37/80/9 38/275/9 34/81/9
f 38/83/2 40/97/2 36/75/2
f 40/85/10 39/276/10 35/86/10
f 39/88/4 37/92/4 33/70/4
f 41/90/9 42/277/9 38/91/9
f 42/93/2 44/107/2 40/85/2
f 44/95/10 43/278/10 39/96/10
f 43/98/4 41/102/4 37/80/4
f 45/100/9 46/279/9 42/101/9
f 46/103/2 48/117/2 44/95/2
f 48/105/10 47/280/10 43/106/10
f 47/108/4 45/112/4 41/90/4
f 49/110/9 50/281/9 46/111/9
f 50/113/2 52/127/2 48/105/2
f 52/115/10 51/282/10 47/116/10
f 51/118/4 49/122/4 45/100/4
f 53/120/9 54/283/9 50/121/9
f 54/123/2 56/137/2 52/115/2
f 56/125/10 55/284/10 51/126/10
f 55/128/4 53/132/4 49/110/4
f 57/130/9 58/285/9 54/131/9
f 58/133/2 60/147/2 56/125/2
f 60/135/10 59/286/10 55/136/10
f 59/138/4 57/142/4 53/120/4
f 61/140/9 62/287/9 58/141/9
f 62/143/2 64/169/2 60/135/2
f 64/145/10 63/288/10 59/146/10
f 63/148/4 61/161/4 57/130/4
f 67/150/4 65/175/4 114/151/4
f 66/153/2 68/180/2 122/154/2
f 83/156/4 81/289/4 125/157/4
f 113/159/9 117/290/9 62/160/9
f 117/162/2 123/232/2 64/145/2
f 68/164/10 67/291/10 119/165/10
f 123/167/10 120/292/10 63/168/10
f 65/170/9 66/293/9 116/171/9
f 69/173/9 70/294/9 66/174/9
f 70/176/2 72/190/2 68/164/2
f 72/178/10 71/295/10 67/179/10
f 71/181/4 69/185/4 65/170/4
f 73/183/9 74/296/9 70/184/9
f 74/186/2 76/200/2 72/178/2
f 76/188/10 75/297/10 71/189/10
f 75/191/4 73/195/4 69/173/4
f 77/193/9 78/298/9 74/194/9
f 78/196/2 80/209/2 76/188/2
f 80/198/10 79/299/10 75/199/10
f 79/201/4 77/212/4 73/183/4
f 134/203/4 126/244/4 77/193/4
f 128/205/2 131/251/2 80/198/2
f 131/207/10 134/300/10 79/208/10
f 126/210/9 128/301/9 78/211/9
f 83/213/11 84/302/11 82/214/11
f 7/216/12 5/12/12 1/11/12
f 84/218/10 83/303/10 135/219/10
f 81/221/9 82/304/9 129/222/9
f 82/214/2 84/302/2 132/224/2
f 116/171/13 118/305/13 115/226/13
f 118/227/14 117/290/14 113/159/14
f 116/155/15 122/154/15 124/229/15
f 118/231/16 124/306/16 123/232/16
f 119/165/17 121/307/17 124/233/17
f 121/234/18 120/292/18 123/167/18
f 119/152/19 114/151/19 115/236/19
f 121/238/20 115/308/20 113/239/20
f 135/158/19 125/157/19 127/241/19
f 136/243/20 127/309/20 126/244/20
f 135/219/17 136/310/17 133/245/17
f 136/246/18 134/300/18 131/207/18
f 129/225/15 132/224/15 133/248/15
f 130/250/16 133/311/16 131/251/16
f 129/222/13 130/312/13 127/252/13
f 130/253/14 128/301/14 126/210/14
f 120/240/4 113/239/4 61/140/4
s 1
f 89/313/21 91/314/22 92/315/23
f 92/315/23 101/316/24 102/317/24
f 99/318/25 97/319/26 100/320/27
f 109/321/28 92/315/23 110/322/29
f 103/323/30 100/320/27 104/324/30
f 85/325/31 98/326/31 93/327/31
f 89/328/32 95/329/33 87/330/33
f 101/331/11 99/332/34 103/333/11
f 86/334/9 96/335/9 88/336/9
f 100/320/27 111/337/35 112/338/36
f 87/339/37 99/340/34 91/341/34
f 85/325/38 111/342/39 109/343/39
f 102/344/31 100/345/31 92/346/31
f 88/347/31 108/348/31 106/349/31
f 92/350/40 112/351/41 110/352/41
f 106/349/31 104/353/31 102/344/31
f 101/316/24 106/354/4 102/317/24
f 88/355/42 105/356/42 86/357/42
f 104/324/30 107/358/2 103/323/30
f 96/359/43 107/358/43 108/360/43
f 101/331/11 107/361/11 105/362/11
f 105/362/11 94/363/11 86/364/11
f 110/352/41 98/326/44 90/365/44
f 109/343/39 97/366/32 89/328/32
f 112/338/36 93/367/45 98/368/46
f 85/369/47 110/322/29 90/370/48
f 89/313/21 87/371/49 91/314/22
f 92/315/23 91/314/22 101/316/24
f 99/318/25 95/372/50 97/319/26
f 109/321/28 89/313/21 92/315/23
f 103/323/30 99/318/25 100/320/27
f 85/325/31 90/365/31 98/326/31
f 89/328/32 97/366/32 95/329/33
f 101/331/11 91/373/34 99/332/34
f 86/334/9 94/374/9 96/335/9
f 100/320/27 97/319/26 111/337/35
f 87/339/37 95/375/37 99/340/34
f 85/325/38 93/327/38 111/342/39
f 102/344/31 104/353/31 100/345/31
f 88/347/31 96/376/31 108/348/31
f 92/350/40 100/377/40 112/351/41
f 106/349/31 108/348/31 104/353/31
f 101/316/24 105/356/4 106/354/4
f 88/355/42 106/354/42 105/356/42
f 104/324/30 108/360/2 107/358/2
f 96/359/43 94/378/43 107/358/43
f 101/331/11 103/333/11 107/361/11
f 105/362/11 107/361/11 94/363/11
f 110/352/41 112/351/41 98/326/44
f 109/343/39 111/342/39 97/366/32
f 112/338/36 111/337/35 93/367/45
f 85/369/47 109/321/28 110/322/29
