# Blender v2.79 (sub 0) OBJ File: 'all.blend'
# www.blender.org
o Sabre
v -0.016155 0.116989 0.051628
v -0.077976 0.233928 0.043985
v -0.094130 0.116989 0.043985
v -0.094130 0.116989 -0.043985
v 0.000000 0.233928 -0.051628
v 0.061821 0.116989 -0.030004
v -0.016155 0.116989 -0.051628
v 0.077976 0.233928 -0.030004
v 0.061821 0.116989 0.030004
v 0.056570 0.000051 -0.030004
v 0.052602 -0.116939 0.025665
v 0.052602 -0.116938 -0.025665
v -0.015891 -0.116938 -0.042440
v -0.099382 0.000051 0.043985
v -0.084385 -0.116938 -0.037624
v -0.084385 -0.116938 0.037624
v -0.021406 0.000051 0.051628
v -0.015891 -0.116938 0.042440
v -0.080329 0.289512 0.056476
v -0.149359 0.257390 0.044441
v -0.080329 0.232689 0.056476
v -0.149359 0.314212 0.044441
v -0.149359 0.257390 -0.044441
v -0.001509 0.289512 -0.056476
v -0.080329 0.289512 -0.056476
v -0.080329 0.232689 -0.056476
v -0.001509 0.232689 0.056476
v -0.001509 0.232689 -0.056476
v 0.098616 0.232689 0.056476
v 0.203491 0.249261 0.044860
v 0.098616 0.289512 0.056476
v 0.203491 0.192439 -0.044860
v 0.203491 0.192439 0.044860
v 0.098616 0.289512 -0.056476
v 0.098616 0.232689 -0.056476
v 0.203491 0.249261 -0.044860
v -0.001509 0.289512 0.056476
v -0.149359 0.314212 -0.044441
v -0.077976 -0.222690 0.045205
v -0.077976 -0.378641 -0.045205
v -0.077976 -0.378641 0.045205
v -0.077976 -0.222690 -0.045205
v 0.077976 -0.378641 -0.045205
v 0.077976 -0.222690 -0.045205
v 0.077976 -0.378641 0.045205
v 0.077976 -0.222690 0.045205
v -0.021406 0.000051 -0.051628
v -0.077976 0.233928 -0.043985
v 0.056570 0.000051 0.030004
v 0.000000 0.233928 0.051628
v -0.099382 0.000051 -0.043985
v 0.000000 -0.233928 0.031190
v 0.054556 -0.233928 0.019821
v -0.054556 -0.233928 -0.029058
v 0.000000 -0.233928 -0.031190
v -0.054556 -0.233928 0.029058
v 0.054556 -0.233928 -0.019821
v 0.000048 1.424922 0.007720
v -0.071703 1.136364 0.007720
v 0.062016 1.159649 0.007720
v -0.133313 1.394315 0.007720
v -0.078089 1.537066 0.007720
v -0.204658 1.592344 0.007720
v 0.067307 0.266159 0.007720
v -0.066722 0.362508 0.007720
v -0.067307 0.266159 0.007720
v 0.068068 0.363831 0.007720
v -0.057010 0.878412 0.007720
v 0.077066 0.894377 0.007720
v -0.071703 1.136364 -0.007719
v 0.000048 1.424922 -0.007719
v 0.062016 1.159649 -0.007719
v -0.133313 1.394315 -0.007719
v -0.078089 1.537066 -0.007719
v 0.067307 0.266159 -0.007720
v -0.066722 0.362508 -0.007720
v 0.068068 0.363831 -0.007720
v -0.057010 0.878412 -0.007719
v 0.077066 0.894377 -0.007719
v -0.204658 1.592344 -0.007719
v -0.067307 0.266159 -0.007720
v 0.077976 0.233928 0.030004
vt 0.281250 0.954102
vt 0.250000 1.000000
vt 0.250000 0.954102
vt 0.312500 1.000000
vt 0.250000 0.954102
vt 0.312500 0.954102
vt 0.281250 1.000000
vt 0.250000 0.954102
vt 0.281250 0.954102
vt 0.312500 1.000000
vt 0.250000 0.954102
vt 0.312500 0.954102
vt 0.312500 0.908203
vt 0.250000 0.862305
vt 0.312500 0.862305
vt 0.281250 0.862305
vt 0.250000 0.908203
vt 0.251953 0.862305
vt 0.312500 0.908203
vt 0.250000 0.862305
vt 0.312500 0.862305
vt 0.281250 0.908203
vt 0.251953 0.862305
vt 0.281250 0.862305
vt 0.953125 0.687500
vt 1.000000 0.750000
vt 0.953125 0.750000
vt 0.906250 0.750000
vt 0.843750 0.687500
vt 0.906250 0.687500
vt 0.906250 0.625000
vt 0.953125 0.625000
vt 0.953125 0.687500
vt 0.906250 0.625000
vt 0.953125 0.625000
vt 0.953125 0.750000
vt 0.906250 0.687500
vt 0.953125 0.750000
vt 1.000000 0.687500
vt 0.953125 0.687500
vt 0.843750 0.687500
vt 0.906250 0.750000
vt 0.906250 0.687500
vt 0.953125 0.625000
vt 0.953125 0.625000
vt 0.953125 0.687500
vt 0.953125 0.750000
vt 1.000000 0.750000
vt 1.000000 0.687500
vt 1.000000 0.625000
vt 1.000000 0.625000
vt 0.906250 0.687500
vt 0.906250 0.750000
vt 1.000000 0.687500
vt 1.000000 0.625000
vt 1.000000 0.687500
vt 1.000000 0.625000
vt 0.937500 0.187500
vt 0.902344 0.125000
vt 0.937500 0.125000
vt 0.937500 0.125000
vt 1.000000 0.187500
vt 0.937500 0.187500
vt 0.937500 0.187500
vt 0.902344 0.125000
vt 0.937500 0.125000
vt 1.000000 0.187500
vt 1.000000 0.125000
vt 0.902344 0.125000
vt 0.937500 0.187500
vt 0.902344 0.187500
vt 0.937500 0.187500
vt 0.902344 0.125000
vt 0.937500 0.125000
vt 0.310547 0.862305
vt 0.281250 0.908203
vt 0.312500 1.000000
vt 0.312500 0.954102
vt 0.312500 0.908203
vt 0.310547 0.862305
vt 0.312500 0.954102
vt 0.281250 1.000000
vt 0.312500 0.908203
vt 0.250000 0.908203
vt 0.250000 0.908203
vt 0.250000 0.908203
vt 0.281250 0.816406
vt 0.308594 0.816406
vt 0.308594 0.816406
vt 0.281250 0.816406
vt 0.253906 0.816406
vt 0.250000 0.816406
vt 0.312500 0.816406
vt 0.253906 0.816406
vt 0.250000 0.816406
vt 0.312500 0.816406
vt 0.351562 0.332031
vt 0.312500 0.257080
vt 0.351562 0.257080
vt 0.312500 0.332031
vt 0.339844 0.355469
vt 0.312500 0.378906
vt 0.351562 0.000000
vt 0.312500 0.032227
vt 0.312500 -0.000000
vt 0.351562 0.032227
vt 0.312500 0.182129
vt 0.351562 0.182129
vt 0.312500 0.257080
vt 0.351562 0.332031
vt 0.351562 0.257080
vt 0.312500 0.332031
vt 0.339844 0.355469
vt 0.351562 0.000000
vt 0.312500 0.032227
vt 0.351562 0.032227
vt 0.312500 0.182129
vt 0.351562 0.182129
vt 0.338882 0.347384
vt 0.314905 0.369680
vt 0.314905 0.369680
vt 0.349157 0.325088
vt 0.338882 0.347384
vt 0.314905 0.325088
vt 0.314905 0.325088
vt 0.349157 0.253787
vt 0.349157 0.325088
vt 0.314905 0.039884
vt 0.314905 0.009226
vt 0.314905 0.009226
vt 0.349157 0.009226
vt 0.349157 0.039884
vt 0.349157 0.039884
vt 0.314905 0.182486
vt 0.314905 0.039884
vt 0.349157 0.182486
vt 0.349157 0.182486
vt 0.314905 0.253787
vt 0.314905 0.182486
vt 0.349157 0.253787
vt 0.314905 0.253787
vt 0.250000 1.000000
vt 0.250000 1.000000
vt 0.250000 1.000000
vt 0.843750 0.750000
vt 0.906250 0.750000
vt 1.000000 0.750000
vt 0.843750 0.750000
vt 1.000000 0.750000
vt 0.902344 0.187500
vt 1.000000 0.125000
vt 0.902344 0.187500
vt 0.937500 0.125000
vt 0.902344 0.187500
vt 0.312500 1.000000
vt 0.312500 0.378906
vt 0.312500 -0.000000
vt 0.349157 0.009226
vn -0.0973 0.0128 0.9952
vn -0.0975 0.0135 0.9951
vn -0.0974 0.0042 0.9952
vn -0.9906 0.1368 0.0000
vn 0.2670 -0.0369 -0.9630
vn 0.9906 -0.1368 -0.0000
vn 0.9994 -0.0339 -0.0000
vn 0.2377 -0.0441 -0.9704
vn -0.9919 -0.1271 -0.0000
vn -0.0699 -0.0814 0.9942
vn -0.0701 -0.0819 0.9942
vn -0.0701 -0.0901 0.9935
vn -0.1717 -0.0000 0.9851
vn -1.0000 -0.0000 0.0000
vn 0.0000 1.0000 0.0000
vn 0.0000 -1.0000 -0.0000
vn 0.0000 0.0000 -1.0000
vn 0.1101 -0.0000 0.9939
vn 1.0000 0.0000 0.0000
vn 0.1101 0.0000 -0.9939
vn -0.3583 -0.9336 -0.0000
vn 0.3583 0.9336 0.0000
vn 0.0000 -0.0000 1.0000
vn -0.1717 0.0000 -0.9851
vn -0.3369 -0.9415 0.0000
vn 0.3369 0.9415 0.0000
vn -0.0701 -0.0819 -0.9942
vn -0.0699 -0.0814 -0.9942
vn -0.0701 -0.0901 -0.9935
vn -0.0975 0.0135 -0.9951
vn -0.0974 0.0136 -0.9952
vn -0.0974 0.0042 -0.9952
vn 0.2377 -0.0441 0.9704
vn 0.2670 -0.0369 0.9630
vn 0.2672 -0.0120 0.9636
vn -0.0975 0.0044 -0.9952
vn 0.9990 -0.0449 -0.0000
vn 0.2672 -0.0120 -0.9636
vn -0.9990 0.0449 0.0000
vn -0.0975 0.0044 0.9952
vn 0.2038 -0.0454 0.9780
vn -0.0389 -0.1009 -0.9941
vn -0.0389 -0.1009 0.9941
vn -0.9690 -0.2471 -0.0000
vn 0.2038 -0.0454 -0.9780
vn 0.9999 0.0167 0.0000
vn 0.4002 0.9164 0.0000
vn 0.8205 0.5717 0.0000
vn -0.9408 -0.3389 0.0000
vn 0.9738 0.2275 0.0000
vn -1.0000 0.0061 -0.0000
vn 1.0000 -0.0078 0.0000
vn 0.9999 -0.0170 -0.0000
vn -0.9998 0.0188 0.0000
vn -0.9984 -0.0569 0.0000
vn 0.9984 0.0566 0.0000
vn -0.9726 -0.2323 0.0000
vn 0.2667 -0.0630 -0.9617
vn -0.0973 -0.0665 0.9930
vn -0.0973 -0.0665 -0.9930
vn 0.2667 -0.0630 0.9617
vn 0.2374 -0.0610 0.9695
vn -0.0699 -0.0906 -0.9934
vn -0.0699 -0.0906 0.9934
vn 0.2374 -0.0610 -0.9695
s 1
f 1/1/1 2/2/2 3/3/3
f 2/4/4 4/5/4 3/6/4
f 5/7/5 6/8/5 7/9/5
f 8/10/6 9/11/6 6/12/6
f 10/13/7 11/14/7 12/15/7
f 13/16/8 10/17/8 12/18/8
f 14/19/9 15/20/9 16/21/9
f 17/22/10 16/23/11 18/24/12
f 19/25/13 20/26/13 21/27/13
f 22/28/14 23/29/14 20/30/14
f 19/25/15 24/31/15 25/32/15
f 26/33/16 27/34/16 21/35/16
f 25/36/17 28/37/17 26/33/17
f 29/38/18 30/39/18 31/40/18
f 32/41/19 30/42/19 33/43/19
f 24/31/15 31/40/15 34/44/15
f 29/45/16 28/37/16 35/46/16
f 28/37/17 34/47/17 35/46/17
f 35/46/20 36/48/20 32/49/20
f 29/45/21 32/49/21 33/50/21
f 34/44/22 30/39/22 36/51/22
f 29/38/23 37/52/23 27/53/23
f 23/54/24 25/36/24 26/33/24
f 23/54/25 21/35/25 20/55/25
f 22/56/26 25/32/26 38/57/26
f 37/52/23 21/27/23 27/53/23
f 39/58/14 40/59/14 41/60/14
f 42/61/17 43/62/17 40/63/17
f 44/64/19 45/65/19 43/66/19
f 46/67/23 41/60/23 45/68/23
f 43/69/16 41/70/16 40/71/16
f 42/72/15 46/73/15 44/74/15
f 15/75/27 47/76/28 13/16/29
f 48/77/30 7/9/31 4/78/32
f 49/79/33 18/24/33 11/80/33
f 9/81/34 50/82/34 1/1/34
f 49/79/35 1/1/35 17/22/35
f 4/78/32 47/76/36 51/83/36
f 6/12/37 49/84/37 10/13/7
f 7/9/38 10/17/38 47/76/38
f 3/6/39 51/85/39 14/19/39
f 17/22/40 3/3/3 14/86/40
f 11/80/41 52/87/41 53/88/41
f 54/89/42 13/16/42 55/90/42
f 18/24/43 56/91/43 52/87/43
f 16/21/44 54/92/44 56/93/44
f 55/90/45 12/18/45 57/94/45
f 12/15/46 53/95/46 57/96/46
f 58/97/23 59/98/23 60/99/23
f 61/100/23 62/101/23 63/102/23
f 64/103/23 65/104/23 66/105/23
f 67/106/23 68/107/23 65/104/23
f 69/108/23 59/98/23 68/107/23
f 70/109/17 71/110/17 72/111/17
f 73/112/17 74/113/17 71/110/17
f 75/114/17 76/115/17 77/116/17
f 77/116/17 78/117/17 79/118/17
f 79/118/17 70/109/17 72/111/17
f 66/105/16 75/114/16 64/103/16
f 62/119/47 80/120/47 63/121/47
f 58/122/48 74/123/48 62/119/48
f 63/121/49 73/124/49 61/125/49
f 60/126/50 71/127/50 58/122/50
f 65/128/51 81/129/51 66/130/51
f 64/131/52 77/132/52 67/133/53
f 68/134/54 76/135/54 65/128/51
f 67/133/53 79/136/53 69/137/53
f 59/138/55 78/139/55 68/134/55
f 69/137/56 72/140/56 60/126/56
f 61/125/57 70/141/57 59/138/57
f 1/1/2 50/82/2 2/2/2
f 2/4/4 48/142/4 4/5/4
f 5/7/5 8/143/5 6/8/5
f 8/10/6 82/144/6 9/11/6
f 10/13/7 49/84/37 11/14/7
f 13/16/58 47/76/58 10/17/58
f 14/19/9 51/85/9 15/20/9
f 17/22/59 14/86/59 16/23/59
f 19/25/13 22/56/13 20/26/13
f 22/28/14 38/145/14 23/29/14
f 19/25/15 37/52/15 24/31/15
f 26/33/16 28/37/16 27/34/16
f 25/36/17 24/146/17 28/37/17
f 29/38/18 33/147/18 30/39/18
f 32/41/19 36/148/19 30/42/19
f 24/31/15 37/52/15 31/40/15
f 29/45/16 27/34/16 28/37/16
f 28/37/17 24/146/17 34/47/17
f 35/46/20 34/47/20 36/48/20
f 29/45/21 35/46/21 32/49/21
f 34/44/22 31/40/22 30/39/22
f 29/38/23 31/40/23 37/52/23
f 23/54/24 38/149/24 25/36/24
f 23/54/25 26/33/25 21/35/25
f 22/56/26 19/25/26 25/32/26
f 37/52/23 19/25/23 21/27/23
f 39/58/14 42/150/14 40/59/14
f 42/61/17 44/151/17 43/62/17
f 44/64/19 46/152/19 45/65/19
f 46/67/23 39/58/23 41/60/23
f 43/69/16 45/153/16 41/70/16
f 42/72/15 39/154/15 46/73/15
f 15/75/60 51/83/60 47/76/60
f 48/77/30 5/7/30 7/9/31
f 49/79/61 17/22/61 18/24/61
f 9/81/34 82/155/34 50/82/34
f 49/79/35 9/81/35 1/1/35
f 4/78/32 7/9/31 47/76/36
f 6/12/37 9/11/37 49/84/37
f 7/9/38 6/8/38 10/17/38
f 3/6/39 4/5/39 51/85/39
f 17/22/40 1/1/1 3/3/3
f 11/80/62 18/24/62 52/87/62
f 54/89/63 15/75/27 13/16/29
f 18/24/12 16/23/11 56/91/64
f 16/21/44 15/20/44 54/92/44
f 55/90/65 13/16/65 12/18/65
f 12/15/46 11/14/46 53/95/46
f 58/97/23 61/100/23 59/98/23
f 61/100/23 58/97/23 62/101/23
f 64/103/23 67/106/23 65/104/23
f 67/106/23 69/108/23 68/107/23
f 69/108/23 60/99/23 59/98/23
f 70/109/17 73/112/17 71/110/17
f 73/112/17 80/156/17 74/113/17
f 75/114/17 81/157/17 76/115/17
f 77/116/17 76/115/17 78/117/17
f 79/118/17 78/117/17 70/109/17
f 66/105/16 81/157/16 75/114/16
f 62/119/47 74/123/47 80/120/47
f 58/122/48 71/127/48 74/123/48
f 63/121/49 80/120/49 73/124/49
f 60/126/50 72/140/50 71/127/50
f 65/128/51 76/135/54 81/129/51
f 64/131/52 75/158/52 77/132/52
f 68/134/54 78/139/54 76/135/54
f 67/133/53 77/132/52 79/136/53
f 59/138/55 70/141/55 78/139/55
f 69/137/56 79/136/56 72/140/56
f 61/125/57 73/124/57 70/141/57
