# Blender v2.79 (sub 0) OBJ File: 'all.blend'
# www.blender.org
o Scimitar
v -0.061727 -0.077077 0.035009
v -0.061727 -0.196755 -0.027293
v -0.061727 -0.196755 0.035009
v 0.054010 -0.077077 0.025068
v 0.069443 -0.196755 0.025067
v 0.054010 -0.077077 -0.017351
v 0.069443 -0.196755 -0.017351
v 0.054010 0.077077 0.025068
v -0.061727 0.196755 0.035009
v -0.061727 0.077077 0.035009
v 0.054010 0.077077 -0.017351
v 0.069443 0.196755 0.025068
v -0.061727 0.196755 -0.027293
v -0.061727 0.077077 -0.027293
v -0.061727 -0.077077 -0.027293
v 0.076757 0.196556 0.004467
v 0.076757 0.382529 -0.004467
v 0.076757 0.382529 0.004467
v -0.104907 0.968139 -0.016630
v 0.076757 1.222285 -0.004467
v 0.076757 0.950783 -0.004467
v -0.116493 1.297465 0.016630
v -0.144464 1.198228 -0.016630
v -0.144464 1.198228 0.016630
v 0.076757 1.222285 0.004467
v -0.078565 0.736246 0.016630
v -0.070511 0.590737 -0.016630
v -0.070511 0.590737 0.016630
v 0.076757 0.196556 -0.004467
v -0.067341 0.382529 -0.016630
v -0.116493 1.297465 -0.016629
v 0.057316 1.334074 -0.004467
v 0.076757 0.721386 -0.004467
v 0.076757 0.590739 -0.004467
v 0.002368 1.503636 0.004467
v -0.058580 1.631135 0.004467
v -0.077455 1.486778 0.011809
v -0.071969 0.196556 0.016630
v -0.104907 0.968139 0.016630
v 0.076757 0.950783 0.004467
v 0.002368 1.503636 -0.004467
v -0.058580 1.631135 -0.004467
v 0.076757 0.721386 0.004467
v 0.076757 0.590739 0.004467
v -0.067341 0.382529 0.016630
v -0.077455 1.486778 -0.011809
v 0.057316 1.334074 0.004467
v -0.071969 0.196556 -0.016630
v 0.001127 -0.196243 0.032458
v -0.072389 -0.231577 0.037067
v 0.001127 -0.231577 0.032458
v -0.072389 -0.196243 0.037067
v -0.072389 -0.231577 -0.034719
v 0.001127 -0.231577 -0.030109
v 0.001127 -0.196243 -0.030109
v -0.072389 -0.196243 -0.034719
v 0.074643 -0.231577 0.026735
v 0.074643 -0.231577 -0.024386
v 0.074643 -0.196243 0.026735
v 0.074643 -0.196243 -0.024386
v -0.067843 0.221783 0.035568
v -0.095558 0.179466 0.027048
v -0.067843 0.172217 0.035568
v -0.095558 0.229032 0.027048
v -0.095558 0.179466 -0.024699
v -0.067843 0.172217 -0.033220
v -0.067843 0.221783 -0.033220
v -0.041193 0.221783 -0.031757
v 0.025832 0.172217 -0.028774
v -0.041193 0.172217 -0.031757
v 0.067024 0.172217 0.027593
v 0.108215 0.206307 0.024063
v 0.067024 0.221783 0.027593
v 0.108215 0.156741 -0.021715
v 0.108215 0.156741 0.024063
v 0.067024 0.172217 -0.025244
v 0.067024 0.221783 -0.025244
v 0.025832 0.221783 -0.028774
v -0.041193 0.221783 0.034106
v 0.025832 0.221783 0.031122
v -0.041193 0.172217 0.034106
v 0.025832 0.172217 0.031122
v 0.108215 0.206307 -0.021715
v -0.067196 0.486646 0.016630
v 0.076757 0.486633 0.004467
v -0.067196 0.486646 -0.016630
v 0.076757 0.486633 -0.004467
v -0.088941 0.852226 0.016630
v 0.076757 0.836084 0.004467
v -0.078565 0.736246 -0.016630
v 0.076757 0.836084 -0.004467
v -0.088941 0.852226 -0.016630
v 0.035038 1.419296 0.004467
v -0.094023 1.392068 0.015218
v -0.094023 1.392068 -0.015217
v 0.035038 1.419296 -0.004467
v 0.069443 0.196755 -0.017351
v -0.095558 0.229032 -0.024699
vt 0.062500 0.684742
vt 0.000000 0.628906
vt 0.062500 0.628906
vt 0.062500 0.684742
vt 0.000000 0.628906
vt 0.062500 0.628906
vt 0.062500 0.628906
vt 0.000000 0.684742
vt 0.000000 0.628906
vt 0.062500 0.756664
vt 0.000000 0.812500
vt 0.000000 0.756664
vt 0.062500 0.684742
vt 0.000000 0.628906
vt 0.062500 0.628906
vt 0.062500 0.756664
vt 0.000000 0.812500
vt 0.000000 0.756664
vt 0.062500 0.812500
vt 0.000000 0.756664
vt 0.062500 0.756664
vt 0.000000 0.756664
vt 0.062500 0.756664
vt 0.000000 0.684742
vt 0.062500 0.684742
vt 0.062500 0.812500
vt 0.554820 0.000845
vt 0.554820 0.050701
vt 0.554820 0.050701
vt 0.602804 0.191555
vt 0.554820 0.269161
vt 0.554820 0.189736
vt 0.605183 0.289266
vt 0.613149 0.261384
vt 0.613149 0.261384
vt 0.554820 0.269161
vt 0.597595 0.131710
vt 0.597595 0.100757
vt 0.597595 0.100757
vt 0.554820 0.000845
vt 0.597595 0.050701
vt 0.605183 0.289266
vt 0.561418 0.302155
vt 0.554820 0.130754
vt 0.554820 0.101735
vt 0.578816 0.345987
vt 0.597595 0.374155
vt 0.597595 0.338945
vt 0.597595 0.000845
vt 0.602804 0.191555
vt 0.554820 0.189736
vt 0.578816 0.345987
vt 0.597595 0.374155
vt 0.554820 0.130754
vt 0.554820 0.101735
vt 0.597595 0.050701
vt 0.597595 0.338945
vt 0.561418 0.302155
vt 0.597595 0.000845
vt 0.906250 0.500000
vt 1.000000 0.437500
vt 0.906250 0.437500
vt 0.906250 0.500000
vt 0.843750 0.437500
vt 0.906250 0.437500
vt 1.000000 0.375000
vt 0.906250 0.375000
vt 0.906250 0.437500
vt 1.000000 0.375000
vt 0.906250 0.375000
vt 1.000000 0.437500
vt 0.906250 0.500000
vt 1.000000 0.500000
vt 1.000000 0.437500
vt 0.843750 0.437500
vt 0.906250 0.500000
vt 0.906250 0.437500
vt 1.000000 0.375000
vt 1.000000 0.437500
vt 1.000000 0.500000
vt 0.976562 0.500000
vt 1.000000 0.437500
vt 0.976562 0.437500
vt 0.906250 0.500000
vt 0.843750 0.437500
vt 0.906250 0.437500
vt 0.976562 0.375000
vt 1.000000 0.375000
vt 0.976562 0.437500
vt 1.000000 0.375000
vt 0.976562 0.375000
vt 0.953125 0.500000
vt 0.906250 0.437500
vt 0.953125 0.437500
vt 0.953125 0.437500
vt 1.000000 0.500000
vt 0.953125 0.500000
vt 0.843750 0.437500
vt 0.906250 0.500000
vt 0.906250 0.437500
vt 1.000000 0.375000
vt 0.953125 0.375000
vt 1.000000 0.375000
vt 0.953125 0.437500
vt 0.953125 0.375000
vt 0.953125 0.500000
vt 0.953125 0.437500
vt 0.976562 0.437500
vt 0.906250 0.437500
vt 0.953125 0.375000
vt 0.906250 0.375000
vt 0.906250 0.375000
vt 0.953125 0.437500
vt 0.953125 0.375000
vt 0.906250 0.500000
vt 0.906250 0.437500
vt 1.000000 0.437500
vt 0.976562 0.500000
vt 0.953125 0.437500
vt 0.953125 0.500000
vt 1.000000 0.500000
vt 1.000000 0.437500
vt 0.597595 0.078618
vt 0.554820 0.078618
vt 0.597595 0.078618
vt 0.554820 0.078618
vt 0.597595 0.156391
vt 0.554820 0.156391
vt 0.597595 0.131710
vt 0.554820 0.156391
vt 0.597595 0.156391
vt 0.567321 0.327178
vt 0.597595 0.315825
vt 0.597595 0.315825
vt 0.567321 0.327178
vt 0.000000 0.684742
vt 0.000000 0.684742
vt 0.062500 0.812500
vt 0.062500 0.812500
vt 0.000000 0.812500
vt 0.000000 0.812500
vt 1.000000 0.500000
vt 0.843750 0.500000
vt 1.000000 0.500000
vt 0.843750 0.500000
vt 1.000000 0.375000
vt 1.000000 0.500000
vt 0.843750 0.500000
vt 1.000000 0.437500
vt 0.906250 0.500000
vt 1.000000 0.437500
vt 0.843750 0.500000
vt 1.000000 0.437500
vt 1.000000 0.500000
vn -1.0000 -0.0000 0.0000
vn 0.0872 -0.0015 0.9962
vn 0.0854 0.0000 0.9963
vn 0.0756 0.0097 0.9971
vn 0.0756 0.0097 -0.9971
vn 0.0856 -0.0000 0.9963
vn 0.9918 0.1279 0.0000
vn 0.9918 -0.1279 0.0000
vn 0.0854 -0.0000 -0.9963
vn 0.0872 0.0015 -0.9962
vn 0.0856 0.0000 -0.9963
vn 1.0000 0.0000 0.0000
vn 0.0669 0.0006 -0.9978
vn 0.0668 0.0000 -0.9978
vn 0.0697 0.0072 -0.9975
vn -0.9625 0.2713 -0.0000
vn 0.0566 -0.0160 0.9983
vn -0.9985 -0.0553 0.0000
vn 0.0838 -0.0001 -0.9965
vn 0.0823 -0.0013 -0.9966
vn 0.0841 -0.0000 -0.9965
vn 0.0673 0.0117 -0.9977
vn 0.0677 0.0098 -0.9977
vn 0.0696 0.0006 -0.9976
vn 0.0796 0.0006 -0.9968
vn 0.0813 0.0030 -0.9967
vn 0.0831 0.0020 -0.9965
vn 0.0835 0.0394 0.9957
vn 0.0832 0.0398 0.9957
vn 0.0889 0.0342 0.9955
vn -0.0000 -1.0000 0.0000
vn 0.0668 -0.0000 0.9978
vn 0.0669 0.0006 0.9978
vn 0.0697 0.0072 0.9975
vn 0.9022 0.4313 0.0000
vn 0.0813 0.0030 0.9967
vn 0.0796 0.0006 0.9968
vn 0.0831 0.0020 0.9965
vn 0.0823 -0.0013 0.9966
vn 0.0839 -0.0001 0.9965
vn 0.0841 -0.0000 0.9965
vn 0.0832 0.0398 -0.9957
vn 0.9852 0.1713 0.0000
vn -0.9997 0.0249 0.0000
vn 0.0626 -0.0000 0.9980
vn 0.0000 1.0000 0.0000
vn 0.0626 0.0000 -0.9980
vn 0.0776 -0.0000 0.9970
vn 0.0776 0.0000 -0.9970
vn -0.2939 -0.0000 0.9558
vn -0.2530 -0.9675 0.0000
vn 0.2530 0.9675 0.0000
vn 0.0496 0.0000 -0.9988
vn 0.0445 0.0000 -0.9990
vn -0.3517 -0.9361 0.0000
vn 0.3517 0.9361 0.0000
vn 0.0548 0.0000 -0.9985
vn 0.0445 -0.0000 0.9990
vn -0.2939 0.0000 -0.9558
vn 0.0548 -0.0000 0.9985
vn 0.0844 -0.0003 0.9964
vn 0.0842 -0.0000 0.9964
vn 0.0845 -0.0004 -0.9964
vn 0.0842 0.0000 -0.9964
vn -0.9995 -0.0318 0.0000
vn -1.0000 0.0014 0.0000
vn 0.0720 0.0015 0.9974
vn 0.0756 0.0052 0.9971
vn 0.0768 0.0008 0.9970
vn 0.0768 0.0008 -0.9970
vn 0.0756 0.0052 -0.9971
vn 0.0720 0.0014 -0.9974
vn -0.9906 -0.1365 0.0000
vn -0.9960 -0.0891 0.0000
vn -0.9855 -0.1694 0.0000
vn 0.0824 0.0295 0.9962
vn 0.0786 0.0209 0.9967
vn 0.0787 0.0206 0.9967
vn 0.0787 0.0206 -0.9967
vn 0.0786 0.0209 -0.9967
vn 0.0824 0.0295 -0.9962
vn 0.0840 0.0317 -0.9960
vn 0.0847 0.0328 -0.9959
vn -0.9850 0.1723 0.0000
vn -0.9729 0.2311 -0.0000
vn 0.9675 0.2529 0.0000
vn 0.9325 0.3612 0.0000
vn -0.9916 0.1297 0.0000
vn 0.0756 -0.0097 0.9971
vn 0.0756 -0.0097 -0.9971
vn 0.0539 0.0093 -0.9985
vn 0.0673 0.0117 0.9977
vn 0.0696 0.0006 0.9976
vn 0.0677 0.0098 0.9977
vn 0.0815 -0.0020 -0.9967
vn 0.0566 -0.0160 -0.9983
vn 0.0539 0.0093 0.9985
vn 0.0815 -0.0020 0.9967
vn 0.0702 -0.0018 0.9975
vn 0.0702 -0.0018 -0.9975
s 1
f 1/1/1 2/2/1 3/3/1
f 4/4/2 3/5/3 5/6/4
f 2/7/5 6/8/5 7/9/5
f 8/10/6 9/11/6 10/12/6
f 6/13/7 5/14/7 7/15/7
f 11/16/8 12/17/8 8/18/8
f 13/19/9 11/20/10 14/21/11
f 14/22/1 1/1/1 10/23/1
f 10/12/6 4/4/2 8/10/6
f 11/16/12 4/24/12 6/13/12
f 11/20/10 15/25/11 14/21/11
f 9/26/1 14/22/1 10/23/1
f 16/27/12 17/28/12 18/29/12
f 19/30/13 20/31/14 21/32/15
f 22/33/16 23/34/16 24/35/16
f 25/36/17 22/33/17 24/35/17
f 26/37/18 27/38/18 28/39/18
f 29/40/19 30/41/20 17/28/21
f 20/31/22 31/42/23 32/43/24
f 27/38/25 33/44/26 34/45/27
f 35/46/28 36/47/29 37/48/30
f 38/49/31 29/40/31 16/27/31
f 25/36/32 39/50/33 40/51/34
f 36/47/35 41/52/35 42/53/35
f 43/54/36 28/39/37 44/55/38
f 44/55/12 33/44/12 43/54/12
f 45/56/39 16/27/40 18/29/41
f 41/52/42 46/57/42 42/53/42
f 25/36/43 32/43/43 47/58/43
f 45/56/44 48/59/44 38/49/44
f 49/60/45 50/61/45 51/62/45
f 52/63/1 53/64/1 50/65/1
f 51/62/31 53/66/31 54/67/31
f 55/68/46 52/69/46 49/70/46
f 56/71/47 54/72/47 53/73/47
f 57/74/48 49/60/48 51/62/48
f 58/75/12 59/76/12 57/77/12
f 54/67/31 57/74/31 51/62/31
f 59/78/46 55/68/46 49/70/46
f 54/72/49 60/79/49 58/80/49
f 61/81/50 62/82/50 63/83/50
f 64/84/1 65/85/1 62/86/1
f 66/87/51 62/82/51 65/88/51
f 67/89/52 64/90/52 61/91/52
f 68/92/53 69/93/54 70/94/53
f 71/95/3 72/96/3 73/97/3
f 74/98/12 72/99/12 75/100/12
f 74/101/55 71/95/55 76/102/55
f 72/103/56 77/104/56 73/105/56
f 69/93/9 77/106/9 76/107/9
f 66/108/57 68/92/53 70/94/53
f 78/109/46 79/110/46 80/111/46
f 69/112/31 81/113/31 70/114/31
f 80/115/58 81/113/58 82/116/58
f 65/117/59 67/118/59 66/108/59
f 68/119/46 61/91/46 79/110/46
f 70/114/31 63/83/31 66/87/31
f 79/120/60 63/83/60 81/113/58
f 76/107/9 83/121/9 74/122/9
f 80/111/46 77/104/46 78/109/46
f 76/102/31 82/116/31 69/112/31
f 71/95/3 80/115/3 82/116/3
f 44/55/38 84/123/61 85/124/62
f 84/123/61 18/29/41 85/124/62
f 17/28/21 86/125/63 87/126/64
f 86/125/63 34/45/27 87/126/64
f 17/28/12 85/124/12 18/29/12
f 87/126/12 44/55/12 85/124/12
f 27/38/65 84/123/65 28/39/65
f 86/125/66 45/56/66 84/123/66
f 40/51/12 20/31/12 25/36/12
f 40/51/34 88/127/67 89/128/68
f 89/128/68 26/37/69 43/54/36
f 90/129/70 91/130/71 33/44/26
f 92/131/72 21/32/15 91/130/71
f 19/30/73 88/127/73 39/50/73
f 88/127/74 90/129/74 26/37/74
f 33/44/12 89/128/12 43/54/12
f 91/130/12 40/51/12 89/128/12
f 39/50/75 23/34/75 19/30/75
f 37/48/30 93/132/76 35/46/28
f 94/133/77 47/58/78 93/132/76
f 32/43/79 95/134/80 96/135/81
f 96/135/81 46/57/82 41/52/83
f 46/57/84 94/133/84 37/48/84
f 95/134/85 22/33/85 94/133/85
f 32/43/86 93/132/86 47/58/86
f 96/135/87 35/46/87 93/132/87
f 36/47/88 46/57/88 37/48/88
f 1/1/1 15/136/1 2/2/1
f 4/4/2 1/137/6 3/5/3
f 2/7/11 15/25/11 6/8/11
f 8/10/89 12/138/89 9/11/89
f 6/13/7 4/24/7 5/14/7
f 11/16/8 97/139/8 12/17/8
f 13/19/9 97/140/90 11/20/10
f 14/22/1 15/136/1 1/1/1
f 10/12/6 1/137/6 4/4/2
f 11/16/12 8/18/12 4/24/12
f 11/20/10 6/8/11 15/25/11
f 9/26/1 13/141/1 14/22/1
f 16/27/12 29/40/12 17/28/12
f 19/30/91 23/34/91 20/31/91
f 22/33/16 31/42/16 23/34/16
f 25/36/92 47/58/93 22/33/94
f 26/37/18 90/129/18 27/38/18
f 29/40/19 48/59/95 30/41/20
f 20/31/96 23/34/96 31/42/96
f 27/38/25 90/129/70 33/44/26
f 38/49/31 48/59/31 29/40/31
f 25/36/97 24/35/97 39/50/97
f 36/47/35 35/46/35 41/52/35
f 43/54/36 26/37/69 28/39/37
f 44/55/12 34/45/12 33/44/12
f 45/56/39 38/49/98 16/27/40
f 25/36/43 20/31/43 32/43/43
f 45/56/44 30/41/44 48/59/44
f 49/60/45 52/142/45 50/61/45
f 52/63/1 56/143/1 53/64/1
f 51/62/31 50/61/31 53/66/31
f 55/68/46 56/71/46 52/69/46
f 56/71/47 55/68/47 54/72/47
f 57/74/48 59/144/48 49/60/48
f 58/75/12 60/145/12 59/76/12
f 54/67/31 58/146/31 57/74/31
f 59/78/46 60/79/46 55/68/46
f 54/72/49 55/68/49 60/79/49
f 61/81/50 64/147/50 62/82/50
f 64/84/1 98/148/1 65/85/1
f 66/87/51 63/83/51 62/82/51
f 67/89/52 98/149/52 64/90/52
f 68/92/53 78/150/54 69/93/54
f 71/95/3 75/151/3 72/96/3
f 74/98/12 83/152/12 72/99/12
f 74/101/55 75/151/55 71/95/55
f 72/103/56 83/153/56 77/104/56
f 69/93/9 78/150/9 77/106/9
f 66/108/57 67/118/57 68/92/53
f 78/109/46 68/119/46 79/110/46
f 69/112/31 82/116/31 81/113/31
f 80/115/58 79/120/60 81/113/58
f 65/117/59 98/154/59 67/118/59
f 68/119/46 67/89/46 61/91/46
f 70/114/31 81/113/31 63/83/31
f 79/120/60 61/81/60 63/83/60
f 76/107/9 77/106/9 83/121/9
f 80/111/46 73/105/46 77/104/46
f 76/102/31 71/95/31 82/116/31
f 71/95/3 73/97/3 80/115/3
f 44/55/38 28/39/37 84/123/61
f 84/123/61 45/56/39 18/29/41
f 17/28/21 30/41/20 86/125/63
f 86/125/63 27/38/25 34/45/27
f 17/28/12 87/126/12 85/124/12
f 87/126/12 34/45/12 44/55/12
f 27/38/65 86/125/65 84/123/65
f 86/125/66 30/41/66 45/56/66
f 40/51/12 21/32/12 20/31/12
f 40/51/34 39/50/33 88/127/67
f 89/128/68 88/127/67 26/37/69
f 90/129/70 92/131/72 91/130/71
f 92/131/72 19/30/13 21/32/15
f 19/30/73 92/131/73 88/127/73
f 88/127/74 92/131/74 90/129/74
f 33/44/12 91/130/12 89/128/12
f 91/130/12 21/32/12 40/51/12
f 39/50/75 24/35/75 23/34/75
f 37/48/30 94/133/77 93/132/76
f 94/133/99 22/33/94 47/58/93
f 32/43/24 31/42/23 95/134/100
f 96/135/81 95/134/80 46/57/82
f 46/57/84 95/134/84 94/133/84
f 95/134/85 31/42/85 22/33/85
f 32/43/86 96/135/86 93/132/86
f 96/135/87 41/52/87 35/46/87
f 36/47/88 42/53/88 46/57/88
