# Blender v2.79 (sub 0) OBJ File: 'All.blend'
# www.blender.org
o Spear
v 0.151303 1.914583 0.029160
v 0.151303 1.949579 0.029160
v 0.151303 1.914583 -0.029160
v 0.151303 1.949579 -0.029160
v 0.059011 1.914583 0.071821
v 0.059011 1.949579 -0.071821
v 0.059011 1.949579 0.071821
v 0.059011 1.914583 -0.071821
v -0.151303 1.914583 0.029160
v -0.151303 1.949579 0.029160
v -0.151303 1.914583 -0.029160
v -0.151303 1.949579 -0.029160
v 0.000000 1.914583 0.071821
v 0.000000 1.949579 0.071821
v 0.000000 1.914583 -0.071821
v 0.000000 1.949579 -0.071821
v -0.059011 1.914583 0.071821
v -0.059011 1.949579 -0.071821
v -0.059011 1.949579 0.071821
v -0.059011 1.914583 -0.071821
v 0.056646 1.881752 0.056646
v 0.056646 1.916164 0.056646
v -0.056646 1.881752 0.056646
v -0.056646 1.916164 0.056646
v 0.056646 1.881752 -0.056646
v 0.056646 1.916164 -0.056646
v -0.056646 1.881752 -0.056646
v -0.056646 1.916164 -0.056646
v 0.072615 2.113711 -0.004417
v 0.065255 1.942120 -0.005331
v -0.072615 2.113711 -0.004417
v -0.065255 1.942120 -0.005331
v 0.004150 2.602464 -0.004417
v -0.004150 2.602464 -0.004417
v 0.072615 2.113711 0.004417
v 0.065255 1.942120 0.005331
v -0.072615 2.113711 0.004417
v -0.065255 1.942120 0.005331
v 0.004150 2.602464 0.004417
v -0.004150 2.602464 0.004417
v 0.000000 2.113711 -0.031451
v 0.000000 1.942120 -0.024741
v 0.000000 2.602464 -0.004972
v 0.000000 2.113711 0.031451
v 0.000000 1.942120 0.024741
v 0.000000 2.602464 0.004972
vt 0.765625 0.062500
vt 0.562500 -0.000000
vt 0.765625 -0.000000
vt 0.765625 0.062500
vt 0.852431 0.000000
vt 0.765625 0.000000
vt 0.765625 0.062500
vt 0.678819 0.156250
vt 0.678819 0.062500
vt 0.765625 0.156250
vt 0.852431 0.062500
vt 1.000000 0.062500
vt 0.531250 0.062500
vt 0.531250 0.156250
vt 0.852431 0.156250
vt 1.000000 0.156250
vt 0.852431 0.062500
vt 0.765625 0.000000
vt 0.852431 0.000000
vt 1.000000 0.000000
vt 1.000000 0.062500
vt 0.562500 -0.000000
vt 0.765625 0.062500
vt 0.765625 -0.000000
vt 0.852431 0.000000
vt 0.678819 0.062500
vt 0.765625 0.156250
vt 0.852431 0.062500
vt 1.000000 0.062500
vt 0.531250 0.156250
vt 0.531250 0.062500
vt 0.852431 0.156250
vt 1.000000 0.156250
vt 0.852431 0.062500
vt 0.852431 0.000000
vt 1.000000 0.000000
vt 1.000000 0.062500
vt 0.562500 0.000000
vt 0.765625 0.062500
vt 0.562500 0.062500
vt 0.562500 0.062500
vt 0.765625 0.000000
vt 0.562500 0.000000
vt 0.765625 0.000000
vt 0.562500 0.062500
vt 0.765625 0.062500
vt 0.765625 0.062500
vt 0.562500 0.000000
vt 0.765625 0.000000
vt 0.531250 0.000000
vt 0.398438 0.132812
vt 0.398438 0.000000
vt 0.898438 0.312500
vt 0.967724 0.164062
vt 0.998518 0.312500
vt 0.906136 0.742188
vt 0.898438 0.742188
vt 0.898438 0.312500
vt 0.967724 0.164062
vt 0.894588 0.164062
vt 0.906136 0.742188
vt 0.998518 0.312500
vt 0.810137 0.312500
vt 0.836050 0.175752
vt 0.836050 0.175752
vt 0.953127 0.175752
vt 0.986738 0.312500
vt 0.986738 0.312500
vt 0.906136 0.729532
vt 0.898438 0.729532
vt 0.898438 0.729532
vt 0.890739 0.729532
vt 0.810137 0.312500
vt 0.906136 0.729532
vt 0.890739 0.729532
vt 0.890739 0.742188
vt 0.798357 0.312500
vt 0.821452 0.164062
vt 0.890739 0.742188
vt 0.798357 0.312500
vt 0.821452 0.164062
vt 0.562500 0.062500
vt 1.000000 0.000000
vt 0.765625 0.062500
vt 0.562500 0.062500
vt 0.678819 0.156250
vt 1.000000 0.000000
vt 0.765625 0.000000
vt 0.765625 0.062500
vt 0.562500 0.000000
vt 0.562500 0.062500
vt 0.531250 0.132812
vt 0.894588 0.164062
vt 0.898438 0.742188
vt 0.953127 0.175752
vn 1.0000 0.0000 0.0000
vn -0.0000 0.0000 -1.0000
vn 0.2148 0.0000 -0.9767
vn 0.0000 -1.0000 0.0000
vn 0.0000 1.0000 -0.0000
vn 0.4196 0.0000 -0.9077
vn 0.2148 0.0000 0.9767
vn 0.0000 0.0000 1.0000
vn 0.4196 0.0000 0.9077
vn -1.0000 0.0000 0.0000
vn -0.2148 0.0000 -0.9767
vn -0.4196 0.0000 -0.9077
vn -0.2148 0.0000 0.9767
vn -0.4196 0.0000 0.9077
vn -0.0000 0.0171 -0.9999
vn -0.3021 -0.0301 -0.9528
vn -0.3488 0.0186 -0.9370
vn -0.1526 0.0533 -0.9869
vn 0.0000 0.0541 -0.9985
vn 0.0000 0.0171 0.9999
vn -0.3021 -0.0301 0.9528
vn -0.2849 -0.0375 0.9578
vn -0.1526 0.0533 0.9869
vn -0.3488 0.0186 0.9370
vn 0.9988 0.0480 0.0000
vn 0.9991 -0.0429 0.0000
vn -0.9991 -0.0429 0.0000
vn -0.9988 0.0480 0.0000
vn 0.9903 0.1387 0.0000
vn -0.9903 0.1387 0.0000
vn 0.1526 0.0533 0.9869
vn 0.3488 0.0186 0.9370
vn 0.3021 -0.0301 0.9528
vn 0.1526 0.0533 -0.9869
vn 0.3488 0.0186 -0.9370
vn 0.3021 -0.0301 -0.9528
vn -0.2849 -0.0375 -0.9578
vn -0.0000 0.0541 0.9985
vn 0.2849 -0.0375 0.9578
vn 0.2849 -0.0375 -0.9578
s 1
f 4/1/1 1/2/1 3/3/1
f 16/4/2 8/5/3 15/6/2
f 13/7/4 8/8/4 5/9/4
f 14/10/5 6/11/5 16/4/5
f 4/12/6 8/5/3 6/11/3
f 1/13/4 8/8/4 3/14/4
f 4/12/5 7/15/5 2/16/5
f 7/17/7 13/18/8 5/19/7
f 7/17/7 1/20/9 2/21/9
f 9/22/10 12/23/10 11/24/10
f 20/25/11 16/4/2 15/6/2
f 17/26/4 15/27/4 13/7/4
f 18/28/5 14/10/5 16/4/5
f 20/25/11 12/29/12 18/28/11
f 11/30/4 17/26/4 9/31/4
f 19/32/5 12/29/5 10/33/5
f 13/18/8 19/34/13 17/35/13
f 9/36/14 19/34/13 10/37/14
f 22/38/8 23/39/8 21/40/8
f 24/41/10 27/42/10 23/43/10
f 28/44/2 25/45/2 27/46/2
f 26/47/1 21/48/1 25/49/1
f 27/50/4 21/51/4 23/52/4
f 41/53/15 32/54/16 31/55/17
f 41/53/15 34/56/18 43/57/19
f 44/58/20 38/59/21 45/60/22
f 44/58/20 40/61/23 37/62/24
f 29/63/25 36/64/26 30/65/26
f 32/66/27 37/67/28 31/68/28
f 34/69/5 46/70/5 43/71/5
f 33/72/29 35/73/25 29/63/25
f 31/68/28 40/74/30 34/69/30
f 33/72/5 46/70/5 39/75/5
f 39/76/31 44/58/20 35/77/32
f 44/58/20 36/78/33 35/77/32
f 41/53/15 33/79/34 29/80/35
f 30/81/36 41/53/15 29/80/35
f 4/1/1 2/82/1 1/2/1
f 16/4/2 6/11/3 8/5/3
f 13/7/4 15/27/4 8/8/4
f 14/10/5 7/15/5 6/11/5
f 4/12/6 3/83/6 8/5/3
f 1/13/4 5/9/4 8/8/4
f 4/12/5 6/11/5 7/15/5
f 7/17/7 14/84/8 13/18/8
f 7/17/7 5/19/7 1/20/9
f 9/22/10 10/85/10 12/23/10
f 20/25/11 18/28/11 16/4/2
f 17/26/4 20/86/4 15/27/4
f 18/28/5 19/32/5 14/10/5
f 20/25/11 11/87/12 12/29/12
f 11/30/4 20/86/4 17/26/4
f 19/32/5 18/28/5 12/29/5
f 13/18/8 14/84/8 19/34/13
f 9/36/14 17/35/13 19/34/13
f 22/38/8 24/88/8 23/39/8
f 24/41/10 28/89/10 27/42/10
f 28/44/2 26/90/2 25/45/2
f 26/47/1 22/91/1 21/48/1
f 27/50/4 25/92/4 21/51/4
f 41/53/15 42/93/37 32/54/16
f 41/53/15 31/55/17 34/56/18
f 44/58/20 37/62/24 38/59/21
f 44/58/20 46/94/38 40/61/23
f 29/63/25 35/73/25 36/64/26
f 32/66/27 38/95/27 37/67/28
f 34/69/5 40/74/5 46/70/5
f 33/72/29 39/75/29 35/73/25
f 31/68/28 37/67/28 40/74/30
f 33/72/5 43/71/5 46/70/5
f 39/76/31 46/94/38 44/58/20
f 44/58/20 45/60/39 36/78/33
f 41/53/15 43/57/19 33/79/34
f 30/81/36 42/93/40 41/53/15
o Stuff
v -0.047224 -1.377259 0.047224
v -0.047224 -1.249519 0.047224
v -0.047224 -1.377259 -0.047224
v -0.047224 -1.249519 -0.047224
v 0.047224 -1.377259 0.047224
v 0.047224 -1.249519 0.047224
v 0.047224 -1.377259 -0.047224
v 0.047224 -1.249519 -0.047224
v -0.047224 -1.121779 0.047224
v -0.047224 -1.121779 -0.047224
v 0.047224 -1.121779 0.047224
v 0.047224 -1.121779 -0.047224
v -0.047224 -0.994039 0.047224
v -0.047224 -0.994039 -0.047224
v 0.047224 -0.994039 0.047224
v 0.047224 -0.994039 -0.047224
v -0.047224 -0.866300 0.047224
v -0.047224 -0.866300 -0.047224
v 0.047224 -0.866300 0.047224
v 0.047224 -0.866300 -0.047224
v -0.047224 -0.738560 0.047224
v -0.047224 -0.738560 -0.047224
v 0.047224 -0.738560 0.047224
v 0.047224 -0.738560 -0.047224
v -0.047224 -0.610820 0.047224
v -0.047224 -0.610820 -0.047224
v 0.047224 -0.610820 0.047224
v 0.047224 -0.610820 -0.047224
v -0.047224 -0.483080 0.047224
v -0.047224 -0.483080 -0.047224
v 0.047224 -0.483080 0.047224
v 0.047224 -0.483080 -0.047224
v -0.047224 -0.355340 0.047224
v -0.047224 -0.355340 -0.047224
v 0.047224 -0.355340 0.047224
v 0.047224 -0.355340 -0.047224
v -0.047224 -0.227601 0.047224
v -0.047224 -0.227601 -0.047224
v 0.047224 -0.227601 0.047224
v 0.047224 -0.227601 -0.047224
v -0.047224 -0.099861 0.047224
v -0.047224 -0.099861 -0.047224
v 0.047224 -0.099861 0.047224
v 0.047224 -0.099861 -0.047224
v -0.047224 0.027879 0.047224
v -0.047224 0.027879 -0.047224
v 0.047224 0.027879 0.047224
v 0.047224 0.027879 -0.047224
v -0.047224 0.155619 0.047224
v -0.047224 0.155619 -0.047224
v 0.047224 0.155619 0.047224
v 0.047224 0.155619 -0.047224
v -0.047224 0.283359 0.047224
v -0.047224 0.283359 -0.047224
v 0.047224 0.283359 0.047224
v 0.047224 0.283359 -0.047224
v -0.047224 0.411098 0.047224
v -0.047224 0.411098 -0.047224
v 0.047224 0.411098 0.047224
v 0.047224 0.411098 -0.047224
v -0.047224 0.538838 0.047224
v -0.047224 0.538838 -0.047224
v 0.047224 0.538838 0.047224
v 0.047224 0.538838 -0.047224
v -0.047224 0.666578 0.047224
v -0.047224 0.666578 -0.047224
v 0.047224 0.666578 0.047224
v 0.047224 0.666578 -0.047224
v -0.047224 0.794318 0.047224
v -0.047224 0.794318 -0.047224
v 0.047224 0.794318 0.047224
v 0.047224 0.794318 -0.047224
v -0.047224 0.922058 0.047224
v -0.047224 0.922058 -0.047224
v 0.047224 0.922058 0.047224
v 0.047224 0.922058 -0.047224
v -0.047224 1.049798 0.047224
v -0.047224 1.049798 -0.047224
v 0.047224 1.049798 0.047224
v 0.047224 1.049798 -0.047224
v -0.047224 1.177537 0.047224
v -0.047224 1.177537 -0.047224
v 0.047224 1.177537 0.047224
v 0.047224 1.177537 -0.047224
v -0.047224 1.305277 0.047224
v -0.047224 1.305277 -0.047224
v 0.047224 1.305277 0.047224
v 0.047224 1.305277 -0.047224
v -0.047224 1.433017 0.047224
v -0.047224 1.433017 -0.047224
v 0.047224 1.433017 0.047224
v 0.047224 1.433017 -0.047224
v -0.047224 1.560757 0.047224
v -0.047224 1.560757 -0.047224
v 0.047224 1.560757 0.047224
v 0.047224 1.560757 -0.047224
v -0.047224 1.688497 0.047224
v -0.047224 1.688497 -0.047224
v 0.047224 1.688497 0.047224
v 0.047224 1.688497 -0.047224
v -0.047224 1.816236 0.047224
v -0.047224 1.816236 -0.047224
v 0.047224 1.816236 0.047224
v 0.047224 1.816236 -0.047224
v -0.047224 1.943976 0.047224
v -0.047224 1.943976 -0.047224
v 0.047224 1.943976 0.047224
v 0.047224 1.943976 -0.047224
vt 0.000000 0.875000
vt 0.125000 1.000000
vt 0.000000 1.000000
vt 0.000000 0.875000
vt 0.125000 1.000000
vt 0.000000 1.000000
vt 0.125000 1.000000
vt 0.000000 0.875000
vt 0.125000 0.875000
vt 0.125000 1.000000
vt 0.000000 0.875000
vt 0.125000 0.875000
vt 0.000000 0.875000
vt 0.125000 1.000000
vt 0.000000 1.000000
vt 0.000000 0.875000
vt 0.000000 1.000000
vt 0.125000 1.000000
vt 0.000000 0.875000
vt 0.125000 0.875000
vt 0.125000 1.000000
vt 0.125000 0.875000
vt 0.000000 0.875000
vt 0.125000 1.000000
vt 0.000000 1.000000
vt 0.000000 0.875000
vt 0.000000 1.000000
vt 0.125000 1.000000
vt 0.000000 0.875000
vt 0.125000 0.875000
vt 0.125000 1.000000
vt 0.125000 0.875000
vt 0.000000 0.875000
vt 0.125000 1.000000
vt 0.000000 1.000000
vt 0.000000 0.875000
vt 0.000000 1.000000
vt 0.125000 1.000000
vt 0.000000 0.875000
vt 0.125000 0.875000
vt 0.125000 1.000000
vt 0.125000 0.875000
vt 0.000000 0.875000
vt 0.125000 1.000000
vt 0.000000 1.000000
vt 0.000000 0.875000
vt 0.000000 1.000000
vt 0.125000 1.000000
vt 0.000000 0.875000
vt 0.125000 0.875000
vt 0.125000 1.000000
vt 0.125000 0.875000
vt 0.000000 0.875000
vt 0.125000 1.000000
vt 0.000000 1.000000
vt 0.000000 0.875000
vt 0.000000 1.000000
vt 0.125000 1.000000
vt 0.000000 0.875000
vt 0.125000 0.875000
vt 0.125000 1.000000
vt 0.125000 0.875000
vt 0.000000 0.875000
vt 0.125000 1.000000
vt 0.000000 1.000000
vt 0.000000 0.875000
vt 0.000000 1.000000
vt 0.125000 1.000000
vt 0.000000 0.875000
vt 0.125000 0.875000
vt 0.125000 1.000000
vt 0.125000 0.875000
vt 0.000000 0.875000
vt 0.125000 1.000000
vt 0.000000 1.000000
vt 0.000000 0.875000
vt 0.000000 1.000000
vt 0.125000 1.000000
vt 0.000000 0.875000
vt 0.125000 0.875000
vt 0.125000 1.000000
vt 0.125000 0.875000
vt 0.000000 0.875000
vt 0.125000 1.000000
vt 0.000000 1.000000
vt 0.000000 0.875000
vt 0.000000 1.000000
vt 0.125000 1.000000
vt 0.000000 0.875000
vt 0.125000 0.875000
vt 0.125000 1.000000
vt 0.125000 0.875000
vt 0.000000 0.875000
vt 0.125000 1.000000
vt 0.000000 1.000000
vt 0.000000 0.875000
vt 0.000000 1.000000
vt 0.125000 1.000000
vt 0.000000 0.875000
vt 0.125000 0.875000
vt 0.125000 1.000000
vt 0.125000 0.875000
vt 0.000000 0.875000
vt 0.125000 1.000000
vt 0.000000 1.000000
vt 0.000000 0.875000
vt 0.000000 1.000000
vt 0.125000 1.000000
vt 0.000000 0.875000
vt 0.125000 0.875000
vt 0.125000 1.000000
vt 0.125000 0.875000
vt 0.000000 0.875000
vt 0.125000 1.000000
vt 0.000000 1.000000
vt 0.000000 0.875000
vt 0.000000 1.000000
vt 0.125000 1.000000
vt 0.000000 0.875000
vt 0.125000 0.875000
vt 0.125000 1.000000
vt 0.125000 0.875000
vt 0.000000 0.875000
vt 0.125000 1.000000
vt 0.000000 1.000000
vt 0.000000 0.875000
vt 0.000000 1.000000
vt 0.125000 1.000000
vt 0.000000 0.875000
vt 0.125000 0.875000
vt 0.125000 1.000000
vt 0.125000 0.875000
vt 0.000000 0.875000
vt 0.125000 1.000000
vt 0.000000 1.000000
vt 0.000000 0.875000
vt 0.000000 1.000000
vt 0.125000 1.000000
vt 0.000000 0.875000
vt 0.125000 0.875000
vt 0.125000 1.000000
vt 0.125000 0.875000
vt 0.000000 0.875000
vt 0.125000 1.000000
vt 0.000000 1.000000
vt 0.000000 0.875000
vt 0.000000 1.000000
vt 0.125000 1.000000
vt 0.000000 0.875000
vt 0.125000 0.875000
vt 0.125000 1.000000
vt 0.125000 0.875000
vt 0.000000 0.875000
vt 0.125000 1.000000
vt 0.000000 1.000000
vt 0.000000 0.875000
vt 0.000000 1.000000
vt 0.125000 1.000000
vt 0.000000 0.875000
vt 0.125000 0.875000
vt 0.125000 1.000000
vt 0.125000 0.875000
vt 0.000000 0.875000
vt 0.125000 1.000000
vt 0.000000 1.000000
vt 0.000000 0.875000
vt 0.000000 1.000000
vt 0.125000 1.000000
vt 0.000000 0.875000
vt 0.125000 0.875000
vt 0.125000 1.000000
vt 0.125000 0.875000
vt 0.000000 0.875000
vt 0.125000 1.000000
vt 0.000000 1.000000
vt 0.000000 0.875000
vt 0.000000 1.000000
vt 0.125000 1.000000
vt 0.000000 0.875000
vt 0.125000 0.875000
vt 0.125000 1.000000
vt 0.125000 0.875000
vt 0.000000 0.875000
vt 0.125000 1.000000
vt 0.000000 1.000000
vt 0.000000 0.875000
vt 0.000000 1.000000
vt 0.125000 1.000000
vt 0.000000 0.875000
vt 0.125000 0.875000
vt 0.125000 1.000000
vt 0.125000 0.875000
vt 0.000000 0.875000
vt 0.125000 1.000000
vt 0.000000 1.000000
vt 0.000000 0.875000
vt 0.000000 1.000000
vt 0.125000 1.000000
vt 0.000000 0.875000
vt 0.125000 0.875000
vt 0.125000 1.000000
vt 0.125000 0.875000
vt 0.000000 0.875000
vt 0.125000 1.000000
vt 0.000000 1.000000
vt 0.000000 0.875000
vt 0.000000 1.000000
vt 0.125000 1.000000
vt 0.000000 0.875000
vt 0.125000 0.875000
vt 0.125000 1.000000
vt 0.125000 0.875000
vt 0.000000 0.875000
vt 0.125000 1.000000
vt 0.000000 1.000000
vt 0.000000 0.875000
vt 0.000000 1.000000
vt 0.125000 1.000000
vt 0.000000 0.875000
vt 0.125000 0.875000
vt 0.125000 1.000000
vt 0.125000 0.875000
vt 0.000000 0.875000
vt 0.125000 1.000000
vt 0.000000 1.000000
vt 0.000000 0.875000
vt 0.000000 1.000000
vt 0.125000 1.000000
vt 0.000000 0.875000
vt 0.125000 0.875000
vt 0.125000 1.000000
vt 0.125000 0.875000
vt 0.000000 0.875000
vt 0.125000 1.000000
vt 0.000000 1.000000
vt 0.000000 0.875000
vt 0.000000 1.000000
vt 0.125000 1.000000
vt 0.000000 0.875000
vt 0.125000 0.875000
vt 0.125000 1.000000
vt 0.125000 0.875000
vt 0.000000 0.875000
vt 0.125000 1.000000
vt 0.000000 1.000000
vt 0.000000 0.875000
vt 0.000000 1.000000
vt 0.125000 1.000000
vt 0.000000 0.875000
vt 0.125000 0.875000
vt 0.125000 1.000000
vt 0.125000 0.875000
vt 0.000000 0.875000
vt 0.125000 1.000000
vt 0.000000 1.000000
vt 0.000000 0.875000
vt 0.000000 1.000000
vt 0.125000 1.000000
vt 0.000000 0.875000
vt 0.125000 0.875000
vt 0.125000 1.000000
vt 0.125000 0.875000
vt 0.125000 0.750000
vt 0.000000 0.750000
vt 0.125000 0.750000
vt 0.000000 0.750000
vt 0.125000 0.875000
vt 0.000000 1.000000
vt 0.125000 0.875000
vt 0.000000 1.000000
vt 0.125000 0.875000
vt 0.000000 1.000000
vt 0.125000 0.875000
vt 0.000000 1.000000
vt 0.125000 0.875000
vt 0.000000 1.000000
vt 0.125000 0.875000
vt 0.000000 1.000000
vt 0.125000 0.875000
vt 0.000000 1.000000
vt 0.125000 0.875000
vt 0.000000 1.000000
vt 0.125000 0.875000
vt 0.000000 1.000000
vt 0.125000 0.875000
vt 0.000000 1.000000
vt 0.125000 0.875000
vt 0.000000 1.000000
vt 0.125000 0.875000
vt 0.000000 1.000000
vt 0.125000 0.875000
vt 0.000000 1.000000
vt 0.125000 0.875000
vt 0.000000 1.000000
vt 0.125000 0.875000
vt 0.000000 1.000000
vt 0.125000 0.875000
vt 0.000000 1.000000
vt 0.125000 0.875000
vt 0.000000 1.000000
vt 0.125000 0.875000
vt 0.000000 1.000000
vt 0.125000 0.875000
vt 0.000000 1.000000
vt 0.125000 0.875000
vt 0.000000 1.000000
vt 0.125000 0.875000
vt 0.000000 1.000000
vt 0.125000 0.875000
vt 0.000000 1.000000
vt 0.125000 0.875000
vt 0.000000 1.000000
vt 0.125000 0.875000
vt 0.000000 1.000000
vt 0.125000 0.875000
vt 0.000000 1.000000
vt 0.125000 0.875000
vt 0.125000 0.875000
vt 0.000000 1.000000
vt 0.000000 1.000000
vn -1.0000 0.0000 0.0000
vn 0.0000 0.0000 -1.0000
vn 1.0000 0.0000 0.0000
vn 0.0000 0.0000 1.0000
vn 0.0000 1.0000 0.0000
vn 0.0000 -1.0000 0.0000
s 1
f 48/96/41 49/97/41 47/98/41
f 50/99/42 53/100/42 49/101/42
f 54/102/43 51/103/43 53/104/43
f 52/105/44 47/106/44 51/107/44
f 55/108/41 50/109/41 48/110/41
f 56/111/42 54/102/42 50/112/42
f 58/113/43 52/114/43 54/115/43
f 57/116/44 48/96/44 52/117/44
f 59/118/41 56/119/41 55/120/41
f 60/121/42 58/113/42 56/122/42
f 62/123/43 57/124/43 58/125/43
f 61/126/44 55/108/44 57/127/44
f 63/128/41 60/129/41 59/130/41
f 64/131/42 62/123/42 60/132/42
f 66/133/43 61/134/43 62/135/43
f 65/136/44 59/118/44 61/137/44
f 67/138/41 64/139/41 63/140/41
f 68/141/42 66/133/42 64/142/42
f 70/143/43 65/144/43 66/145/43
f 69/146/44 63/128/44 65/147/44
f 71/148/41 68/149/41 67/150/41
f 72/151/42 70/143/42 68/152/42
f 74/153/43 69/154/43 70/155/43
f 73/156/44 67/138/44 69/157/44
f 75/158/41 72/159/41 71/160/41
f 76/161/42 74/153/42 72/162/42
f 78/163/43 73/164/43 74/165/43
f 77/166/44 71/148/44 73/167/44
f 79/168/41 76/169/41 75/170/41
f 80/171/42 78/163/42 76/172/42
f 82/173/43 77/174/43 78/175/43
f 81/176/44 75/158/44 77/177/44
f 83/178/41 80/179/41 79/180/41
f 84/181/42 82/173/42 80/182/42
f 86/183/43 81/184/43 82/185/43
f 85/186/44 79/168/44 81/187/44
f 87/188/41 84/189/41 83/190/41
f 88/191/42 86/183/42 84/192/42
f 90/193/43 85/194/43 86/195/43
f 89/196/44 83/178/44 85/197/44
f 91/198/41 88/199/41 87/200/41
f 92/201/42 90/193/42 88/202/42
f 94/203/43 89/204/43 90/205/43
f 93/206/44 87/188/44 89/207/44
f 95/208/41 92/209/41 91/210/41
f 96/211/42 94/203/42 92/212/42
f 98/213/43 93/214/43 94/215/43
f 97/216/44 91/198/44 93/217/44
f 99/218/41 96/219/41 95/220/41
f 100/221/42 98/213/42 96/222/42
f 102/223/43 97/224/43 98/225/43
f 101/226/44 95/208/44 97/227/44
f 103/228/41 100/229/41 99/230/41
f 104/231/42 102/223/42 100/232/42
f 106/233/43 101/234/43 102/235/43
f 105/236/44 99/218/44 101/237/44
f 107/238/41 104/239/41 103/240/41
f 108/241/42 106/233/42 104/242/42
f 110/243/43 105/244/43 106/245/43
f 109/246/44 103/228/44 105/247/44
f 111/248/41 108/249/41 107/250/41
f 112/251/42 110/243/42 108/252/42
f 114/253/43 109/254/43 110/255/43
f 113/256/44 107/238/44 109/257/44
f 115/258/41 112/259/41 111/260/41
f 116/261/42 114/253/42 112/262/42
f 118/263/43 113/264/43 114/265/43
f 117/266/44 111/248/44 113/267/44
f 119/268/41 116/269/41 115/270/41
f 120/271/42 118/263/42 116/272/42
f 122/273/43 117/274/43 118/275/43
f 121/276/44 115/258/44 117/277/44
f 123/278/41 120/279/41 119/280/41
f 124/281/42 122/273/42 120/282/42
f 126/283/43 121/284/43 122/285/43
f 125/286/44 119/268/44 121/287/44
f 127/288/41 124/289/41 123/290/41
f 128/291/42 126/283/42 124/292/42
f 130/293/43 125/294/43 126/295/43
f 129/296/44 123/278/44 125/297/44
f 131/298/41 128/299/41 127/300/41
f 132/301/42 130/293/42 128/302/42
f 134/303/43 129/304/43 130/305/43
f 133/306/44 127/288/44 129/307/44
f 135/308/41 132/309/41 131/310/41
f 136/311/42 134/303/42 132/312/42
f 138/313/43 133/314/43 134/315/43
f 137/316/44 131/298/44 133/317/44
f 139/318/41 136/319/41 135/320/41
f 140/321/42 138/313/42 136/322/42
f 142/323/43 137/324/43 138/325/43
f 141/326/44 135/308/44 137/327/44
f 143/328/41 140/329/41 139/330/41
f 144/331/42 142/323/42 140/332/42
f 146/333/43 141/334/43 142/335/43
f 145/336/44 139/318/44 141/337/44
f 147/338/41 144/339/41 143/340/41
f 148/341/42 146/333/42 144/342/42
f 150/343/43 145/344/43 146/345/43
f 149/346/44 143/328/44 145/347/44
f 151/348/41 148/349/41 147/350/41
f 152/351/42 150/343/42 148/352/42
f 154/353/43 149/354/43 150/355/43
f 153/356/44 147/338/44 149/357/44
f 153/358/45 152/351/45 151/359/45
f 53/360/46 47/106/46 49/361/46
f 48/96/41 50/362/41 49/97/41
f 50/99/42 54/115/42 53/100/42
f 54/102/43 52/363/43 51/103/43
f 52/105/44 48/110/44 47/106/44
f 55/108/41 56/364/41 50/109/41
f 56/111/42 58/125/42 54/102/42
f 58/113/43 57/365/43 52/114/43
f 57/116/44 55/120/44 48/96/44
f 59/118/41 60/366/41 56/119/41
f 60/121/42 62/135/42 58/113/42
f 62/123/43 61/367/43 57/124/43
f 61/126/44 59/130/44 55/108/44
f 63/128/41 64/368/41 60/129/41
f 64/131/42 66/145/42 62/123/42
f 66/133/43 65/369/43 61/134/43
f 65/136/44 63/140/44 59/118/44
f 67/138/41 68/370/41 64/139/41
f 68/141/42 70/155/42 66/133/42
f 70/143/43 69/371/43 65/144/43
f 69/146/44 67/150/44 63/128/44
f 71/148/41 72/372/41 68/149/41
f 72/151/42 74/165/42 70/143/42
f 74/153/43 73/373/43 69/154/43
f 73/156/44 71/160/44 67/138/44
f 75/158/41 76/374/41 72/159/41
f 76/161/42 78/175/42 74/153/42
f 78/163/43 77/375/43 73/164/43
f 77/166/44 75/170/44 71/148/44
f 79/168/41 80/376/41 76/169/41
f 80/171/42 82/185/42 78/163/42
f 82/173/43 81/377/43 77/174/43
f 81/176/44 79/180/44 75/158/44
f 83/178/41 84/378/41 80/179/41
f 84/181/42 86/195/42 82/173/42
f 86/183/43 85/379/43 81/184/43
f 85/186/44 83/190/44 79/168/44
f 87/188/41 88/380/41 84/189/41
f 88/191/42 90/205/42 86/183/42
f 90/193/43 89/381/43 85/194/43
f 89/196/44 87/200/44 83/178/44
f 91/198/41 92/382/41 88/199/41
f 92/201/42 94/215/42 90/193/42
f 94/203/43 93/383/43 89/204/43
f 93/206/44 91/210/44 87/188/44
f 95/208/41 96/384/41 92/209/41
f 96/211/42 98/225/42 94/203/42
f 98/213/43 97/385/43 93/214/43
f 97/216/44 95/220/44 91/198/44
f 99/218/41 100/386/41 96/219/41
f 100/221/42 102/235/42 98/213/42
f 102/223/43 101/387/43 97/224/43
f 101/226/44 99/230/44 95/208/44
f 103/228/41 104/388/41 100/229/41
f 104/231/42 106/245/42 102/223/42
f 106/233/43 105/389/43 101/234/43
f 105/236/44 103/240/44 99/218/44
f 107/238/41 108/390/41 104/239/41
f 108/241/42 110/255/42 106/233/42
f 110/243/43 109/391/43 105/244/43
f 109/246/44 107/250/44 103/228/44
f 111/248/41 112/392/41 108/249/41
f 112/251/42 114/265/42 110/243/42
f 114/253/43 113/393/43 109/254/43
f 113/256/44 111/260/44 107/238/44
f 115/258/41 116/394/41 112/259/41
f 116/261/42 118/275/42 114/253/42
f 118/263/43 117/395/43 113/264/43
f 117/266/44 115/270/44 111/248/44
f 119/268/41 120/396/41 116/269/41
f 120/271/42 122/285/42 118/263/42
f 122/273/43 121/397/43 117/274/43
f 121/276/44 119/280/44 115/258/44
f 123/278/41 124/398/41 120/279/41
f 124/281/42 126/295/42 122/273/42
f 126/283/43 125/399/43 121/284/43
f 125/286/44 123/290/44 119/268/44
f 127/288/41 128/400/41 124/289/41
f 128/291/42 130/305/42 126/283/42
f 130/293/43 129/401/43 125/294/43
f 129/296/44 127/300/44 123/278/44
f 131/298/41 132/402/41 128/299/41
f 132/301/42 134/315/42 130/293/42
f 134/303/43 133/403/43 129/304/43
f 133/306/44 131/310/44 127/288/44
f 135/308/41 136/404/41 132/309/41
f 136/311/42 138/325/42 134/303/42
f 138/313/43 137/405/43 133/314/43
f 137/316/44 135/320/44 131/298/44
f 139/318/41 140/406/41 136/319/41
f 140/321/42 142/335/42 138/313/42
f 142/323/43 141/407/43 137/324/43
f 141/326/44 139/330/44 135/308/44
f 143/328/41 144/408/41 140/329/41
f 144/331/42 146/345/42 142/323/42
f 146/333/43 145/409/43 141/334/43
f 145/336/44 143/340/44 139/318/44
f 147/338/41 148/410/41 144/339/41
f 148/341/42 150/355/42 146/333/42
f 150/343/43 149/411/43 145/344/43
f 149/346/44 147/350/44 143/328/44
f 151/348/41 152/412/41 148/349/41
f 152/351/42 154/413/42 150/343/42
f 154/353/43 153/414/43 149/354/43
f 153/356/44 151/415/44 147/338/44
f 153/358/45 154/413/45 152/351/45
f 53/360/46 51/107/46 47/106/46
