# Blender v2.79 (sub 0) OBJ File: 'all.blend'
# www.blender.org
o sixfighter
v -0.046588 0.286829 0.046588
v -0.046588 1.271076 0.046588
v -0.046588 0.286829 -0.046588
v -0.046588 1.271076 -0.046588
v 0.046588 0.286829 0.046588
v 0.046588 1.271076 0.046588
v 0.046588 0.286829 -0.046588
v 0.046588 1.271076 -0.046588
v -0.044971 1.085364 -0.005920
v -0.172033 1.125145 -0.007061
v -0.044971 1.261989 -0.005920
v -0.172033 1.222208 -0.007061
v -0.104755 1.261989 -0.007061
v -0.104755 1.085364 -0.007061
v -0.044971 1.085364 0.005920
v -0.172033 1.125145 0.007061
v -0.044971 1.261989 0.005920
v -0.172033 1.222208 0.007061
v -0.104755 1.261989 0.007061
v -0.104755 1.085364 0.007061
v 0.044971 1.085364 -0.005920
v 0.172033 1.125145 -0.007061
v 0.044971 1.261989 -0.005920
v 0.172033 1.222208 -0.007061
v 0.104755 1.261989 -0.007061
v 0.104755 1.085364 -0.007061
v 0.044971 1.085364 0.005920
v 0.172033 1.125145 0.007061
v 0.044971 1.261989 0.005920
v 0.172033 1.222208 0.007061
v 0.104755 1.261989 0.007061
v 0.104755 1.085364 0.007061
v -0.005920 1.085364 0.044971
v -0.007061 1.125145 0.172033
v -0.005920 1.261989 0.044971
v -0.007061 1.222208 0.172033
v -0.007061 1.261989 0.104755
v -0.007061 1.085364 0.104755
v 0.005920 1.085364 0.044971
v 0.007061 1.125145 0.172033
v 0.005920 1.261989 0.044971
v 0.007061 1.222208 0.172033
v 0.007061 1.261989 0.104755
v 0.007061 1.085364 0.104755
v -0.005920 1.085364 -0.044971
v -0.007061 1.125145 -0.172033
v -0.005920 1.261989 -0.044971
v -0.007061 1.222208 -0.172033
v -0.007061 1.261989 -0.104755
v -0.007061 1.085364 -0.104755
v 0.005920 1.085364 -0.044971
v 0.007061 1.125145 -0.172033
v 0.005920 1.261989 -0.044971
v 0.007061 1.222208 -0.172033
v 0.007061 1.261989 -0.104755
v 0.007061 1.085364 -0.104755
v -0.039975 1.085364 0.030694
v -0.126627 1.125145 0.116641
v -0.039975 1.261989 0.030694
v -0.126627 1.222208 0.116641
v -0.079054 1.261989 0.069068
v -0.079054 1.085364 0.069068
v -0.030694 1.085364 0.039975
v -0.116641 1.125145 0.126627
v -0.030694 1.261989 0.039975
v -0.116641 1.222208 0.126627
v -0.069068 1.261989 0.079054
v -0.069068 1.085364 0.079054
v 0.030694 1.085364 -0.039975
v 0.116641 1.125145 -0.126627
v 0.030694 1.261989 -0.039975
v 0.116641 1.222208 -0.126627
v 0.069068 1.261989 -0.079054
v 0.069068 1.085364 -0.079054
v 0.039975 1.085364 -0.030694
v 0.126627 1.125145 -0.116641
v 0.039975 1.261989 -0.030694
v 0.126627 1.222208 -0.116641
v 0.079054 1.261989 -0.069068
v 0.079054 1.085364 -0.069068
v 0.030694 1.085364 0.039975
v 0.116641 1.125145 0.126627
v 0.030694 1.261989 0.039975
v 0.116641 1.222208 0.126627
v 0.069068 1.261989 0.079054
v 0.069068 1.085364 0.079054
v 0.039975 1.085364 0.030694
v 0.126627 1.125145 0.116641
v 0.039975 1.261989 0.030694
v 0.126627 1.222208 0.116641
v 0.079054 1.261989 0.069068
v 0.079054 1.085364 0.069068
v -0.039975 1.085364 -0.030694
v -0.126627 1.125145 -0.116641
v -0.039975 1.261989 -0.030694
v -0.126627 1.222208 -0.116641
v -0.079054 1.261989 -0.069068
v -0.079054 1.085364 -0.069068
v -0.030694 1.085364 -0.039975
v -0.116641 1.125145 -0.126627
v -0.030694 1.261989 -0.039975
v -0.116641 1.222208 -0.126627
v -0.069068 1.261989 -0.079054
v -0.069068 1.085364 -0.079054
v -0.057701 -0.237071 0.057701
v -0.057701 0.229620 0.057701
v -0.057701 -0.237071 -0.057701
v -0.057701 0.229620 -0.057701
v 0.057701 -0.237071 0.057701
v 0.057701 0.229620 0.057701
v 0.057701 -0.237071 -0.057701
v 0.057701 0.229620 -0.057701
v -0.079714 -0.301848 0.079714
v -0.079714 -0.234181 0.079714
v -0.079714 -0.301848 -0.079714
v -0.079714 -0.234181 -0.079714
v 0.079714 -0.301848 0.079714
v 0.079714 -0.234181 0.079714
v 0.079714 -0.301848 -0.079714
v 0.079714 -0.234181 -0.079714
v -0.048916 -0.334882 0.048916
v -0.048916 -0.296976 0.048916
v -0.048916 -0.334882 -0.048916
v -0.048916 -0.296976 -0.048916
v 0.048916 -0.334882 0.048916
v 0.048916 -0.296976 0.048916
v 0.048916 -0.334882 -0.048916
v 0.048916 -0.296976 -0.048916
v -0.079714 0.226769 0.079714
v -0.079714 0.294436 0.079714
v -0.079714 0.226769 -0.079714
v -0.079714 0.294436 -0.079714
v 0.079714 0.226769 0.079714
v 0.079714 0.294436 0.079714
v 0.079714 0.226769 -0.079714
v 0.079714 0.294436 -0.079714
v -0.055825 1.269412 0.055825
v -0.055825 1.306922 0.055825
v -0.055825 1.269412 -0.055825
v -0.055825 1.306922 -0.055825
v 0.055825 1.269412 0.055825
v 0.055825 1.306922 0.055825
v 0.055825 1.269412 -0.055825
v 0.055825 1.306922 -0.055825
v -0.054251 -0.003726 0.054251
v -0.054251 -0.003726 -0.054251
v 0.054251 -0.003726 -0.054251
v 0.054251 -0.003726 0.054251
vt 0.203125 0.875000
vt 0.125000 0.437500
vt 0.203125 0.437500
vt 0.125000 0.437500
vt 0.203125 0.875000
vt 0.125000 0.875000
vt 0.125000 0.437500
vt 0.203125 0.875000
vt 0.125000 0.875000
vt 0.179688 0.007812
vt 0.125000 0.242188
vt 0.125000 0.007812
vt 0.248154 0.085938
vt 0.179688 0.242188
vt 0.125000 0.242188
vt 0.179688 0.007812
vt 0.125000 0.007812
vt 0.179688 0.242188
vt 0.248154 0.085938
vt 0.242840 0.087898
vt 0.180282 0.013695
vt 0.242840 0.087898
vt 0.130314 0.013695
vt 0.180282 0.013695
vt 0.130314 0.236305
vt 0.180282 0.236305
vt 0.130314 0.236305
vt 0.242840 0.169522
vt 0.180282 0.236305
vt 0.242840 0.169522
vt 0.125000 0.242188
vt 0.179688 0.007812
vt 0.125000 0.007812
vt 0.179688 0.242188
vt 0.248154 0.085938
vt 0.179688 0.007812
vt 0.125000 0.242188
vt 0.125000 0.007812
vt 0.248154 0.085938
vt 0.179688 0.242188
vt 0.242840 0.087898
vt 0.180282 0.013695
vt 0.242840 0.087898
vt 0.180282 0.013695
vt 0.130314 0.013695
vt 0.130314 0.236305
vt 0.180282 0.236305
vt 0.130314 0.236305
vt 0.180282 0.236305
vt 0.242840 0.169522
vt 0.242840 0.169522
vt 0.179688 0.007812
vt 0.125000 0.242188
vt 0.125000 0.007812
vt 0.248154 0.085938
vt 0.179688 0.242188
vt 0.125000 0.242188
vt 0.179688 0.007812
vt 0.125000 0.007812
vt 0.179688 0.242188
vt 0.248154 0.085938
vt 0.180282 0.013695
vt 0.242840 0.087898
vt 0.242840 0.087898
vt 0.130314 0.013695
vt 0.180282 0.013695
vt 0.180282 0.236305
vt 0.130314 0.236305
vt 0.130314 0.236305
vt 0.242840 0.169522
vt 0.180282 0.236305
vt 0.242840 0.169522
vt 0.125000 0.242188
vt 0.179688 0.007812
vt 0.125000 0.007812
vt 0.179688 0.242188
vt 0.248154 0.085938
vt 0.179688 0.007812
vt 0.125000 0.242188
vt 0.125000 0.007812
vt 0.248154 0.085938
vt 0.179688 0.242188
vt 0.242840 0.087898
vt 0.180282 0.013695
vt 0.242840 0.087898
vt 0.180282 0.013695
vt 0.130314 0.013695
vt 0.130314 0.236305
vt 0.180282 0.236305
vt 0.130314 0.236305
vt 0.180282 0.236305
vt 0.242840 0.169522
vt 0.242840 0.169522
vt 0.179688 0.007812
vt 0.125000 0.242188
vt 0.125000 0.007812
vt 0.248154 0.085938
vt 0.179688 0.242188
vt 0.125000 0.242188
vt 0.179688 0.007812
vt 0.125000 0.007812
vt 0.179688 0.242188
vt 0.248154 0.085938
vt 0.180282 0.013695
vt 0.242840 0.087898
vt 0.242840 0.087898
vt 0.130314 0.013695
vt 0.180282 0.013695
vt 0.180282 0.236305
vt 0.130314 0.236305
vt 0.130314 0.236305
vt 0.242840 0.169522
vt 0.180282 0.236305
vt 0.242840 0.169522
vt 0.125000 0.242188
vt 0.179688 0.007812
vt 0.125000 0.007812
vt 0.179688 0.242188
vt 0.248154 0.085938
vt 0.179688 0.007812
vt 0.125000 0.242188
vt 0.125000 0.007812
vt 0.248154 0.085938
vt 0.179688 0.242188
vt 0.242840 0.087898
vt 0.180282 0.013695
vt 0.242840 0.087898
vt 0.180282 0.013695
vt 0.130314 0.013695
vt 0.130314 0.236305
vt 0.180282 0.236305
vt 0.180282 0.236305
vt 0.242840 0.169522
vt 0.242840 0.169522
vt 0.179688 0.007812
vt 0.125000 0.242188
vt 0.125000 0.007812
vt 0.248154 0.085938
vt 0.179688 0.242188
vt 0.125000 0.242188
vt 0.179688 0.007812
vt 0.125000 0.007812
vt 0.179688 0.242188
vt 0.248154 0.085938
vt 0.180282 0.013695
vt 0.242840 0.087898
vt 0.242840 0.087898
vt 0.130314 0.013695
vt 0.180282 0.013695
vt 0.180282 0.236305
vt 0.130314 0.236305
vt 0.130314 0.236305
vt 0.242840 0.169522
vt 0.180282 0.236305
vt 0.242840 0.169522
vt 0.125000 0.242188
vt 0.179688 0.007812
vt 0.125000 0.007812
vt 0.179688 0.242188
vt 0.248154 0.085938
vt 0.179688 0.007812
vt 0.125000 0.242188
vt 0.125000 0.007812
vt 0.248154 0.085938
vt 0.179688 0.242188
vt 0.242840 0.087898
vt 0.180282 0.013695
vt 0.180282 0.013695
vt 0.130314 0.013695
vt 0.130314 0.013695
vt 0.130314 0.236305
vt 0.180282 0.236305
vt 0.130314 0.236305
vt 0.180282 0.236305
vt 0.242840 0.169522
vt 0.242840 0.169522
vt 0.125000 1.000000
vt 0.000000 0.812500
vt 0.125000 0.812500
vt 0.125000 1.000000
vt 0.000000 0.812500
vt 0.125000 0.812500
vt 0.125000 1.000000
vt 0.000000 0.812500
vt 0.125000 0.812500
vt 0.125000 1.000000
vt 0.000000 0.812500
vt 0.125000 0.812500
vt 0.000000 0.437500
vt 0.125000 0.500000
vt 0.000000 0.500000
vt 0.000000 0.437500
vt 0.125000 0.500000
vt 0.000000 0.500000
vt 0.125000 0.500000
vt 0.000000 0.437500
vt 0.125000 0.437500
vt 0.125000 0.500000
vt 0.000000 0.437500
vt 0.125000 0.437500
vt 0.000000 0.625000
vt 0.000000 0.625000
vt 0.125000 0.625000
vt 0.000000 0.437500
vt 0.125000 0.500000
vt 0.000000 0.500000
vt 0.000000 0.437500
vt 0.125000 0.500000
vt 0.000000 0.500000
vt 0.125000 0.500000
vt 0.000000 0.437500
vt 0.125000 0.437500
vt 0.125000 0.500000
vt 0.000000 0.437500
vt 0.125000 0.437500
vt 0.000000 0.625000
vt 0.000000 0.437500
vt 0.125000 0.500000
vt 0.000000 0.500000
vt 0.000000 0.437500
vt 0.125000 0.500000
vt 0.000000 0.500000
vt 0.125000 0.500000
vt 0.000000 0.437500
vt 0.125000 0.437500
vt 0.125000 0.500000
vt 0.000000 0.437500
vt 0.125000 0.437500
vt 0.000000 0.625000
vt 0.000000 0.625000
vt 0.125000 0.625000
vt 0.000000 0.437500
vt 0.125000 0.500000
vt 0.000000 0.500000
vt 0.000000 0.437500
vt 0.125000 0.500000
vt 0.000000 0.500000
vt 0.125000 0.500000
vt 0.000000 0.437500
vt 0.125000 0.437500
vt 0.125000 0.500000
vt 0.000000 0.437500
vt 0.125000 0.437500
vt 0.000000 0.625000
vt 0.000000 0.625000
vt 0.125000 0.625000
vt 0.125000 0.437500
vt 0.203125 0.875000
vt 0.125000 0.875000
vt 0.000000 0.625000
vt 0.125000 0.625000
vt 0.000000 0.625000
vt 0.125000 0.625000
vt 0.000000 0.625000
vt 0.125000 0.625000
vt 0.000000 0.625000
vt 0.125000 0.625000
vt 0.125000 0.875000
vt 0.203125 0.437500
vt 0.203125 0.437500
vt 0.248154 0.171875
vt 0.248154 0.171875
vt 0.130314 0.013695
vt 0.248154 0.171875
vt 0.248154 0.171875
vt 0.130314 0.013695
vt 0.248154 0.171875
vt 0.248154 0.171875
vt 0.130314 0.013695
vt 0.248154 0.171875
vt 0.248154 0.171875
vt 0.130314 0.013695
vt 0.248154 0.171875
vt 0.248154 0.171875
vt 0.130314 0.013695
vt 0.248154 0.171875
vt 0.248154 0.171875
vt 0.130314 0.013695
vt 0.130314 0.236305
vt 0.248154 0.171875
vt 0.248154 0.171875
vt 0.130314 0.013695
vt 0.248154 0.171875
vt 0.248154 0.171875
vt 0.242840 0.087898
vt 0.000000 1.000000
vt 0.000000 1.000000
vt 0.000000 1.000000
vt 0.000000 1.000000
vt 0.125000 0.437500
vt 0.125000 0.437500
vt 0.000000 0.500000
vt 0.000000 0.500000
vt 0.125000 0.625000
vt 0.125000 0.437500
vt 0.125000 0.437500
vt 0.000000 0.500000
vt 0.000000 0.500000
vt 0.125000 0.625000
vt 0.125000 0.437500
vt 0.125000 0.437500
vt 0.000000 0.500000
vt 0.000000 0.500000
vt 0.125000 0.625000
vt 0.125000 0.437500
vt 0.125000 0.437500
vt 0.000000 0.500000
vt 0.000000 0.500000
vt 0.125000 0.625000
vt 0.203125 0.437500
vn -1.0000 0.0000 0.0000
vn 0.0000 0.0000 -1.0000
vn 1.0000 0.0000 0.0000
vn 0.0115 0.0000 -0.9999
vn 0.0191 0.0000 -0.9998
vn 0.0191 0.0000 0.9998
vn 0.0115 0.0000 0.9999
vn 0.0000 0.0000 1.0000
vn -0.8686 -0.4955 0.0000
vn -0.2654 -0.9641 0.0000
vn 0.0000 -1.0000 0.0000
vn 0.0000 1.0000 0.0000
vn -0.2654 0.9641 0.0000
vn -0.8686 0.4955 0.0000
vn -0.0191 0.0000 -0.9998
vn -0.0115 0.0000 -0.9999
vn -0.0115 0.0000 0.9999
vn -0.0191 0.0000 0.9998
vn 0.8686 -0.4955 0.0000
vn 0.2654 -0.9641 0.0000
vn 0.2654 0.9641 0.0000
vn 0.8686 0.4955 0.0000
vn -0.9999 0.0000 -0.0115
vn -0.9998 0.0000 -0.0191
vn 0.9998 0.0000 -0.0191
vn 0.9999 0.0000 -0.0115
vn 0.0000 -0.9641 0.2654
vn 0.0000 -0.4955 0.8686
vn 0.0000 0.9641 0.2654
vn 0.0000 0.4955 0.8686
vn -0.9998 0.0000 0.0191
vn -0.9999 0.0000 0.0115
vn 0.9999 0.0000 0.0115
vn 0.9998 0.0000 0.0191
vn 0.0000 -0.4955 -0.8686
vn 0.0000 -0.9641 -0.2654
vn 0.0000 0.9641 -0.2654
vn 0.0000 0.4955 -0.8686
vn -0.6015 -0.7306 -0.3231
vn -0.7006 0.0000 -0.7135
vn -0.4940 -0.7091 -0.5031
vn -0.7071 -0.0000 -0.7071
vn -0.7032 -0.0000 -0.7110
vn 0.7135 0.0000 0.7006
vn 0.7110 0.0000 0.7032
vn 0.7071 0.0000 0.7071
vn -0.6142 -0.4955 0.6142
vn -0.1871 -0.9644 0.1871
vn -0.1871 0.9644 0.1871
vn -0.6142 0.4955 0.6142
vn -0.7135 0.0000 -0.7006
vn -0.7110 0.0000 -0.7032
vn 0.7032 0.0000 0.7110
vn 0.7006 0.0000 0.7135
vn 0.6142 -0.4955 -0.6142
vn 0.1871 -0.9644 -0.1871
vn 0.1871 0.9644 -0.1871
vn 0.6142 0.4955 -0.6142
vn -0.7110 0.0000 0.7032
vn -0.7135 0.0000 0.7006
vn -0.7071 0.0000 0.7071
vn 0.7006 0.0000 -0.7135
vn 0.7032 0.0000 -0.7110
vn 0.7071 0.0000 -0.7071
vn 0.1871 -0.9644 0.1871
vn 0.6142 -0.4955 0.6142
vn 0.1871 0.9644 0.1871
vn 0.6142 0.4955 0.6142
vn -0.7006 0.0000 0.7135
vn -0.7032 0.0000 0.7110
vn 0.7110 0.0000 -0.7032
vn 0.7135 0.0000 -0.7006
vn -0.6142 -0.4955 -0.6142
vn -0.1871 -0.9644 -0.1871
vn -0.1871 0.9644 -0.1871
vn -0.6142 0.4955 -0.6142
vn -0.9999 -0.0148 0.0000
vn 0.0000 -0.0148 -0.9999
vn 0.9999 -0.0148 0.0000
vn 0.0000 -0.0148 0.9999
vn -0.5774 -0.5774 -0.5774
vn -0.5774 -0.5774 0.5774
vn 0.5774 -0.5774 -0.5774
vn 0.5774 -0.5774 0.5774
vn 0.0000 0.0148 0.9999
vn 0.9999 0.0148 0.0000
vn 0.0000 0.0148 -0.9999
vn -0.9999 0.0148 0.0000
s 1
f 2/1/1 3/2/1 1/3/1
f 7/4/2 4/5/2 8/6/2
f 5/7/3 8/8/3 6/9/3
f 14/10/4 11/11/5 9/12/5
f 10/13/2 13/14/4 14/10/4
f 17/15/6 20/16/7 15/17/6
f 19/18/7 16/19/8 20/16/7
f 10/20/9 20/21/10 16/22/9
f 9/23/11 20/21/10 14/24/10
f 11/25/12 19/26/13 17/27/12
f 12/28/14 19/26/13 13/29/13
f 10/20/9 18/30/14 12/28/14
f 23/31/15 26/32/16 21/33/15
f 25/34/16 22/35/2 26/32/16
f 32/36/17 29/37/18 27/38/18
f 28/39/8 31/40/17 32/36/17
f 28/41/19 26/42/20 22/43/19
f 32/44/20 21/45/11 26/42/20
f 29/46/12 25/47/21 23/48/12
f 31/49/21 24/50/22 25/47/21
f 30/51/22 22/43/19 24/50/22
f 38/52/23 35/53/24 33/54/24
f 34/55/1 37/56/23 38/52/23
f 41/57/25 44/58/26 39/59/25
f 43/60/26 40/61/3 44/58/26
f 38/62/27 40/63/28 34/64/28
f 33/65/11 44/66/27 38/62/27
f 37/67/29 41/68/12 35/69/12
f 37/67/29 42/70/30 43/71/29
f 34/64/28 42/70/30 36/72/30
f 47/73/31 50/74/32 45/75/31
f 49/76/32 46/77/1 50/74/32
f 56/78/33 53/79/34 51/80/34
f 52/81/3 55/82/33 56/78/33
f 52/83/35 50/84/36 46/85/35
f 56/86/36 45/87/11 50/84/36
f 53/88/12 49/89/37 47/90/12
f 55/91/37 48/92/38 49/89/37
f 54/93/38 46/85/35 48/92/38
f 62/94/39 59/95/40 57/96/41
f 58/97/42 61/98/43 62/94/39
f 65/99/44 68/100/45 63/101/44
f 67/102/45 64/103/46 68/100/45
f 62/104/39 64/105/47 58/106/47
f 57/107/41 68/108/48 62/104/39
f 61/109/49 65/110/12 59/111/12
f 60/112/50 67/113/49 61/109/49
f 58/106/47 66/114/50 60/112/50
f 71/115/51 74/116/52 69/117/51
f 73/118/52 70/119/42 74/116/52
f 80/120/53 77/121/54 75/122/54
f 76/123/46 79/124/53 80/120/53
f 76/125/55 74/126/56 70/127/55
f 80/128/56 69/129/11 74/126/56
f 71/130/12 79/131/57 73/132/57
f 79/131/57 72/133/58 73/132/57
f 78/134/58 70/127/55 72/133/58
f 86/135/59 83/136/60 81/137/60
f 82/138/61 85/139/59 86/135/59
f 89/140/62 92/141/63 87/142/62
f 91/143/63 88/144/64 92/141/63
f 86/145/65 88/146/66 82/147/66
f 86/145/65 87/148/11 92/149/65
f 85/150/67 89/151/12 83/152/12
f 84/153/68 91/154/67 85/150/67
f 82/147/66 90/155/68 84/153/68
f 95/156/69 98/157/70 93/158/69
f 97/159/70 94/160/61 98/157/70
f 104/161/71 101/162/72 99/163/72
f 100/164/64 103/165/71 104/161/71
f 94/166/73 104/167/74 98/168/74
f 98/168/74 99/169/11 93/170/11
f 101/171/12 97/172/75 95/173/12
f 103/174/75 96/175/76 97/172/75
f 102/176/76 94/166/73 96/175/76
f 106/177/77 146/178/1 145/179/1
f 108/180/78 147/181/2 146/182/2
f 112/183/79 148/184/3 147/185/3
f 110/186/80 145/187/8 148/188/8
f 114/189/1 115/190/1 113/191/1
f 116/192/2 119/193/2 115/194/2
f 120/195/3 117/196/3 119/197/3
f 118/198/8 113/199/8 117/200/8
f 119/193/11 113/201/11 115/194/11
f 116/202/12 118/198/12 120/203/12
f 122/204/1 123/205/1 121/206/1
f 124/207/2 127/208/2 123/209/2
f 128/210/3 125/211/3 127/212/3
f 126/213/8 121/214/8 125/215/8
f 127/208/11 121/216/11 123/209/11
f 130/217/1 131/218/1 129/219/1
f 132/220/2 135/221/2 131/222/2
f 136/223/3 133/224/3 135/225/3
f 134/226/8 129/227/8 133/228/8
f 135/221/11 129/229/11 131/222/11
f 132/230/12 134/226/12 136/231/12
f 138/232/61 139/233/81 137/234/82
f 140/235/42 143/236/83 139/237/81
f 144/238/64 141/239/84 143/240/83
f 142/241/46 137/242/82 141/243/84
f 143/236/83 137/244/82 139/237/81
f 140/245/12 142/241/12 144/246/12
f 1/247/8 6/248/8 2/249/8
f 148/188/8 105/250/85 109/251/85
f 147/185/3 109/252/86 111/253/86
f 146/182/2 111/254/87 107/255/87
f 145/179/1 107/256/88 105/257/88
f 2/1/1 4/258/1 3/2/1
f 7/4/2 3/259/2 4/5/2
f 5/7/3 7/260/3 8/8/3
f 14/10/4 13/14/4 11/11/5
f 10/13/2 12/261/2 13/14/4
f 17/15/6 19/18/7 20/16/7
f 19/18/7 18/262/8 16/19/8
f 10/20/9 14/24/10 20/21/10
f 9/23/11 15/263/11 20/21/10
f 11/25/12 13/29/13 19/26/13
f 12/28/14 18/30/14 19/26/13
f 10/20/9 16/22/9 18/30/14
f 23/31/15 25/34/16 26/32/16
f 25/34/16 24/264/2 22/35/2
f 32/36/17 31/40/17 29/37/18
f 28/39/8 30/265/8 31/40/17
f 28/41/19 32/44/20 26/42/20
f 32/44/20 27/266/11 21/45/11
f 29/46/12 31/49/21 25/47/21
f 31/49/21 30/51/22 24/50/22
f 30/51/22 28/41/19 22/43/19
f 38/52/23 37/56/23 35/53/24
f 34/55/1 36/267/1 37/56/23
f 41/57/25 43/60/26 44/58/26
f 43/60/26 42/268/3 40/61/3
f 38/62/27 44/66/27 40/63/28
f 33/65/11 39/269/11 44/66/27
f 37/67/29 43/71/29 41/68/12
f 37/67/29 36/72/30 42/70/30
f 34/64/28 40/63/28 42/70/30
f 47/73/31 49/76/32 50/74/32
f 49/76/32 48/270/1 46/77/1
f 56/78/33 55/82/33 53/79/34
f 52/81/3 54/271/3 55/82/33
f 52/83/35 56/86/36 50/84/36
f 56/86/36 51/272/11 45/87/11
f 53/88/12 55/91/37 49/89/37
f 55/91/37 54/93/38 48/92/38
f 54/93/38 52/83/35 46/85/35
f 62/94/39 61/98/43 59/95/40
f 58/97/42 60/273/42 61/98/43
f 65/99/44 67/102/45 68/100/45
f 67/102/45 66/274/46 64/103/46
f 62/104/39 68/108/48 64/105/47
f 57/107/41 63/275/11 68/108/48
f 61/109/49 67/113/49 65/110/12
f 60/112/50 66/114/50 67/113/49
f 58/106/47 64/105/47 66/114/50
f 71/115/51 73/118/52 74/116/52
f 73/118/52 72/276/42 70/119/42
f 80/120/53 79/124/53 77/121/54
f 76/123/46 78/277/46 79/124/53
f 76/125/55 80/128/56 74/126/56
f 80/128/56 75/278/11 69/129/11
f 71/130/12 77/279/12 79/131/57
f 79/131/57 78/134/58 72/133/58
f 78/134/58 76/125/55 70/127/55
f 86/135/59 85/139/59 83/136/60
f 82/138/61 84/280/61 85/139/59
f 89/140/62 91/143/63 92/141/63
f 91/143/63 90/281/64 88/144/64
f 86/145/65 92/149/65 88/146/66
f 86/145/65 81/282/11 87/148/11
f 85/150/67 91/154/67 89/151/12
f 84/153/68 90/155/68 91/154/67
f 82/147/66 88/146/66 90/155/68
f 95/156/69 97/159/70 98/157/70
f 97/159/70 96/283/61 94/160/61
f 104/161/71 103/165/71 101/162/72
f 100/164/64 102/284/64 103/165/71
f 94/166/73 100/285/73 104/167/74
f 98/168/74 104/167/74 99/169/11
f 101/171/12 103/174/75 97/172/75
f 103/174/75 102/176/76 96/175/76
f 102/176/76 100/285/73 94/166/73
f 106/177/77 108/286/77 146/178/1
f 108/180/78 112/287/78 147/181/2
f 112/183/79 110/288/79 148/184/3
f 110/186/80 106/289/80 145/187/8
f 114/189/1 116/290/1 115/190/1
f 116/192/2 120/291/2 119/193/2
f 120/195/3 118/292/3 117/196/3
f 118/198/8 114/293/8 113/199/8
f 119/193/11 117/294/11 113/201/11
f 116/202/12 114/293/12 118/198/12
f 122/204/1 124/295/1 123/205/1
f 124/207/2 128/296/2 127/208/2
f 128/210/3 126/297/3 125/211/3
f 126/213/8 122/298/8 121/214/8
f 127/208/11 125/299/11 121/216/11
f 130/217/1 132/300/1 131/218/1
f 132/220/2 136/301/2 135/221/2
f 136/223/3 134/302/3 133/224/3
f 134/226/8 130/303/8 129/227/8
f 135/221/11 133/304/11 129/229/11
f 132/230/12 130/303/12 134/226/12
f 138/232/61 140/305/42 139/233/81
f 140/235/42 144/306/64 143/236/83
f 144/238/64 142/307/46 141/239/84
f 142/241/46 138/308/61 137/242/82
f 143/236/83 141/309/84 137/244/82
f 140/245/12 138/308/12 142/241/12
f 1/247/8 5/310/8 6/248/8
f 148/188/8 145/187/8 105/250/85
f 147/185/3 148/184/3 109/252/86
f 146/182/2 147/181/2 111/254/87
f 145/179/1 146/178/1 107/256/88
