# Blender v2.79 (sub 0) OBJ File: ''
# www.blender.org
o SmallEstok
v 0.000000 0.302495 -0.015409
v -0.007348 1.594224 -0.003446
v 0.000000 1.594224 -0.003483
v -0.007348 1.594224 0.003446
v 0.000000 0.302495 0.015409
v 0.000000 1.594224 0.003483
v 0.044185 0.302495 -0.003446
v 0.007348 1.594224 0.003446
v 0.044185 0.302495 0.003446
v -0.044185 0.302495 -0.003446
v -0.044185 0.302495 0.003446
v 0.007348 1.594224 -0.003446
v -0.099570 -0.242432 0.027620
v -0.099570 -0.311891 -0.027620
v -0.099570 -0.311891 0.027620
v -0.067623 -0.242432 0.049865
v -0.067623 -0.311891 0.049865
v -0.067623 -0.242432 -0.049865
v 0.000000 -0.311891 -0.057257
v -0.067623 -0.311891 -0.049865
v -0.099570 -0.242432 -0.027620
v 0.000000 -0.242432 0.057257
v 0.000000 -0.242432 -0.057257
v 0.000000 -0.311891 0.057257
v 0.099570 -0.311891 -0.027620
v 0.099570 -0.242432 0.027620
v 0.099570 -0.311891 0.027620
v 0.067623 -0.242432 0.049865
v 0.067623 -0.311891 0.049865
v 0.099570 -0.242432 -0.027620
v 0.067623 -0.242432 -0.049865
v 0.067623 -0.311891 -0.049865
v -0.048768 0.305529 0.024057
v -0.048768 0.234888 -0.024057
v -0.048768 0.234888 0.024057
v -0.048768 0.305529 -0.024057
v 0.048768 0.234888 -0.024057
v 0.048768 0.305529 -0.024057
v 0.048768 0.234888 0.024057
v 0.048768 0.305529 0.024057
v -0.159884 0.242236 0.020340
v -0.159884 0.172777 -0.020340
v -0.159884 0.172777 0.020340
v -0.084340 0.242236 0.036722
v -0.084340 0.172777 0.036722
v -0.159884 0.242236 -0.020340
v -0.084340 0.242236 -0.036722
v 0.000000 0.172777 -0.054876
v -0.084340 0.172777 -0.036722
v 0.000000 0.242236 0.054876
v 0.000000 0.242236 -0.054876
v 0.000000 0.172777 0.054876
v 0.159884 0.172777 -0.020340
v 0.159884 0.242236 0.020340
v 0.159884 0.172777 0.020340
v 0.084340 0.242236 0.036722
v 0.084340 0.172777 0.036722
v 0.159884 0.242236 -0.020340
v 0.084340 0.242236 -0.036722
v 0.084340 0.172777 -0.036722
v -0.053914 -0.148596 0.041179
v -0.053914 -0.256425 -0.041179
v -0.053914 -0.256425 0.041179
v -0.053914 -0.148596 -0.041179
v 0.053914 -0.256425 -0.041179
v 0.053914 -0.148596 -0.041179
v 0.053914 -0.256425 0.041179
v 0.053914 -0.148596 0.041179
v -0.053914 -0.040767 0.041179
v -0.053914 -0.040767 -0.041179
v 0.053914 -0.040767 -0.041179
v 0.053914 -0.040767 0.041179
v -0.053914 0.067062 0.041179
v -0.053914 0.067062 -0.041179
v 0.053914 0.067062 -0.041179
v 0.053914 0.067062 0.041179
v -0.053914 0.174891 0.041179
v -0.053914 0.174891 -0.041179
v 0.053914 0.174891 -0.041179
v 0.053914 0.174891 0.041179
vt 0.000000 0.054688
vt 1.000000 0.047897
vt 1.000000 0.054688
vt 1.000000 0.047897
vt 0.000000 0.054688
vt 1.000000 0.054688
vt 1.000000 0.049408
vt 0.000000 0.091643
vt 1.000000 0.059967
vt 0.000000 0.091643
vt 0.000000 0.017732
vt 1.000000 0.049408
vt 0.000000 0.017732
vt 1.000000 0.059967
vt 1.000000 0.061478
vt 0.000000 0.102219
vt 1.000000 0.061478
vt 0.937500 0.750000
vt 0.812500 0.609375
vt 0.937500 0.609375
vt 0.875000 0.750000
vt 0.750000 0.609375
vt 0.875000 0.609375
vt 0.609375 0.703125
vt 0.515625 0.625000
vt 0.609375 0.609375
vt 0.734375 0.593750
vt 0.609375 0.703125
vt 0.609375 0.609375
vt 0.875000 0.750000
vt 0.750000 0.609375
vt 0.875000 0.609375
vt 1.000000 0.750000
vt 1.000000 0.609375
vt 0.515625 0.625000
vt 0.515625 0.687500
vt 0.734375 0.593750
vt 0.734375 0.718750
vt 1.000000 0.750000
vt 1.000000 0.609375
vt 0.812500 0.609375
vt 0.937500 0.750000
vt 0.937500 0.609375
vt 0.750000 0.609375
vt 0.875000 0.750000
vt 0.875000 0.609375
vt 0.609375 0.609375
vt 0.515625 0.687500
vt 0.609375 0.703125
vt 0.609375 0.703125
vt 0.609375 0.609375
vt 0.875000 0.750000
vt 0.875000 0.609375
vt 1.000000 0.750000
vt 1.000000 0.609375
vt 0.515625 0.687500
vt 0.515625 0.625000
vt 0.968750 0.609375
vt 0.875000 0.468750
vt 0.968750 0.468750
vt 0.843750 0.468750
vt 1.000000 0.609375
vt 0.843750 0.609375
vt 0.968750 0.609375
vt 0.875000 0.468750
vt 0.968750 0.468750
vt 1.000000 0.609375
vt 0.843750 0.468750
vt 1.000000 0.468750
vt 0.437500 0.703125
vt 0.609375 0.609375
vt 0.609375 0.703125
vt 0.937500 0.750000
vt 0.812500 0.609375
vt 0.937500 0.609375
vt 0.875000 0.750000
vt 0.750000 0.609375
vt 0.875000 0.609375
vt 0.515625 0.687500
vt 0.609375 0.609375
vt 0.609375 0.703125
vt 0.734375 0.593750
vt 0.609375 0.703125
vt 0.609375 0.609375
vt 0.875000 0.750000
vt 0.750000 0.609375
vt 0.875000 0.609375
vt 1.000000 0.750000
vt 1.000000 0.609375
vt 0.515625 0.687500
vt 0.515625 0.625000
vt 0.734375 0.593750
vt 0.734375 0.718750
vt 1.000000 0.750000
vt 1.000000 0.609375
vt 0.812500 0.609375
vt 0.937500 0.750000
vt 0.937500 0.609375
vt 0.750000 0.609375
vt 0.875000 0.750000
vt 0.875000 0.609375
vt 0.609375 0.609375
vt 0.515625 0.687500
vt 0.609375 0.703125
vt 0.609375 0.703125
vt 0.609375 0.609375
vt 0.875000 0.750000
vt 0.875000 0.609375
vt 1.000000 0.750000
vt 1.000000 0.609375
vt 0.515625 0.687500
vt 0.515625 0.625000
vt 0.000000 0.750000
vt 0.250000 1.000000
vt 0.000000 1.000000
vt 0.000000 0.750000
vt 0.250000 1.000000
vt 0.000000 1.000000
vt 0.250000 1.000000
vt 0.000000 0.750000
vt 0.250000 0.750000
vt 0.250000 1.000000
vt 0.000000 0.750000
vt 0.250000 0.750000
vt 0.000000 0.750000
vt 0.250000 1.000000
vt 0.000000 1.000000
vt 0.000000 0.750000
vt 0.000000 1.000000
vt 0.250000 1.000000
vt 0.000000 0.750000
vt 0.250000 0.750000
vt 0.250000 1.000000
vt 0.250000 0.750000
vt 0.000000 0.750000
vt 0.250000 1.000000
vt 0.000000 1.000000
vt 0.000000 0.750000
vt 0.000000 1.000000
vt 0.250000 1.000000
vt 0.000000 0.750000
vt 0.250000 0.750000
vt 0.250000 1.000000
vt 0.250000 0.750000
vt 0.000000 0.750000
vt 0.250000 1.000000
vt 0.000000 1.000000
vt 0.000000 0.750000
vt 0.000000 1.000000
vt 0.250000 1.000000
vt 0.000000 0.750000
vt 0.250000 0.750000
vt 0.250000 1.000000
vt 0.250000 0.750000
vt 0.250000 0.500000
vt 0.000000 0.500000
vt 0.000000 0.007156
vt 0.000000 0.007156
vt 0.000000 0.102219
vt 0.812500 0.750000
vt 0.750000 0.750000
vt 0.515625 0.687500
vt 0.734375 0.718750
vt 0.750000 0.750000
vt 0.812500 0.750000
vt 0.750000 0.750000
vt 0.515625 0.625000
vt 0.875000 0.609375
vt 1.000000 0.468750
vt 0.875000 0.609375
vt 0.843750 0.609375
vt 0.437500 0.609375
vt 0.812500 0.750000
vt 0.750000 0.750000
vt 0.515625 0.625000
vt 0.734375 0.718750
vt 0.750000 0.750000
vt 0.812500 0.750000
vt 0.750000 0.750000
vt 0.515625 0.625000
vt 0.250000 0.750000
vt 0.000000 1.000000
vt 0.250000 0.750000
vt 0.000000 1.000000
vt 0.250000 0.750000
vt 0.000000 1.000000
vt 0.250000 0.750000
vt 0.250000 0.750000
vt 0.000000 1.000000
vt 0.000000 1.000000
vn 0.0000 0.0092 -1.0000
vn -0.0050 0.0092 -0.9999
vn -0.0050 0.0092 0.9999
vn 0.0000 0.0092 1.0000
vn 0.0000 1.0000 0.0000
vn 0.9996 0.0285 0.0000
vn 0.0000 -1.0000 0.0000
vn -0.9996 0.0285 0.0000
vn 0.2613 0.0075 0.9652
vn 0.0050 0.0092 -0.9999
vn -1.0000 -0.0000 0.0000
vn -0.5714 -0.0000 0.8207
vn -0.1087 0.0000 -0.9941
vn -0.5714 0.0000 -0.8207
vn -0.1087 -0.0000 0.9941
vn 1.0000 0.0000 0.0000
vn 0.5714 -0.0000 0.8207
vn 0.1087 0.0000 -0.9941
vn 0.5714 0.0000 -0.8207
vn 0.1087 -0.0000 0.9941
vn 0.0000 0.0000 -1.0000
vn 0.0000 -0.0000 1.0000
vn -0.2121 -0.0000 0.9773
vn -0.2119 -0.0000 0.9773
vn -0.2105 -0.0000 0.9776
vn -0.2105 0.0000 -0.9776
vn -0.2104 0.0000 -0.9776
vn -0.2119 0.0000 -0.9773
vn -0.2104 -0.0000 0.9776
vn 0.2119 -0.0000 0.9773
vn 0.2121 -0.0000 0.9773
vn 0.2107 0.0000 0.9775
vn 0.2104 0.0000 -0.9776
vn 0.2107 -0.0000 -0.9775
vn 0.2119 0.0000 -0.9773
vn 0.2104 -0.0000 0.9776
vn -0.2613 0.0075 -0.9652
vn -0.2613 0.0075 0.9652
vn 0.0050 0.0092 0.9999
vn 0.2613 0.0075 -0.9652
s 1
f 1/1/1 2/2/2 3/3/1
f 4/4/3 5/5/4 6/6/4
f 2/7/5 6/6/5 3/3/5
f 7/8/6 8/9/6 9/10/6
f 1/1/7 9/10/7 5/5/7
f 10/11/8 4/12/8 2/7/8
f 1/1/7 11/13/7 10/11/7
f 3/3/5 8/9/5 12/14/5
f 8/15/9 5/5/9 9/16/9
f 12/17/10 1/1/1 3/3/1
f 13/18/11 14/19/11 15/20/11
f 16/21/12 15/22/12 17/23/12
f 18/24/5 13/25/5 16/26/5
f 19/27/7 17/28/7 20/29/7
f 18/30/13 19/31/13 20/32/13
f 21/33/14 20/32/14 14/34/14
f 14/35/7 17/28/7 15/36/7
f 18/24/5 22/37/5 23/38/5
f 22/39/15 17/23/15 24/40/15
f 25/41/16 26/42/16 27/43/16
f 27/44/17 28/45/17 29/46/17
f 28/47/5 30/48/5 31/49/5
f 29/50/7 19/27/7 32/51/7
f 19/31/18 31/52/18 32/53/18
f 32/53/19 30/54/19 25/55/19
f 27/56/7 32/51/7 25/57/7
f 22/37/5 31/49/5 23/38/5
f 29/46/20 22/39/20 24/40/20
f 33/58/11 34/59/11 35/60/11
f 36/61/21 37/62/21 34/63/21
f 38/64/16 39/65/16 37/66/16
f 40/67/22 35/68/22 39/69/22
f 36/70/5 40/71/5 38/72/5
f 41/73/11 42/74/11 43/75/11
f 44/76/23 43/77/24 45/78/25
f 46/79/5 44/80/5 47/81/5
f 48/82/7 45/83/7 49/84/7
f 47/85/26 48/86/27 49/87/28
f 46/88/28 49/87/28 42/89/28
f 49/84/7 43/90/7 42/91/7
f 47/81/5 50/92/5 51/93/5
f 50/94/29 45/78/25 52/95/29
f 53/96/16 54/97/16 55/98/16
f 55/99/30 56/100/31 57/101/32
f 56/102/5 58/103/5 59/104/5
f 57/105/7 48/82/7 60/106/7
f 48/86/33 59/107/34 60/108/35
f 60/108/35 58/109/35 53/110/35
f 55/111/7 60/106/7 53/112/7
f 50/92/5 59/104/5 51/93/5
f 57/101/32 50/94/36 52/95/36
f 61/113/11 62/114/11 63/115/11
f 64/116/21 65/117/21 62/118/21
f 66/119/16 67/120/16 65/121/16
f 68/122/22 63/123/22 67/124/22
f 69/125/11 64/126/11 61/127/11
f 70/128/21 66/119/21 64/129/21
f 71/130/16 68/131/16 66/132/16
f 72/133/22 61/113/22 68/134/22
f 73/135/11 70/136/11 69/137/11
f 74/138/21 71/130/21 70/139/21
f 75/140/16 72/141/16 71/142/16
f 76/143/22 69/125/22 72/144/22
f 77/145/11 74/146/11 73/147/11
f 78/148/21 75/140/21 74/149/21
f 79/150/16 76/151/16 75/152/16
f 80/153/22 73/135/22 76/154/22
f 65/155/7 63/123/7 62/156/7
f 1/1/37 10/157/37 2/2/37
f 4/4/38 11/158/38 5/5/38
f 2/7/5 4/12/5 6/6/5
f 7/8/6 12/14/6 8/9/6
f 1/1/7 7/8/7 9/10/7
f 10/11/8 11/13/8 4/12/8
f 1/1/7 5/5/7 11/13/7
f 3/3/5 6/6/5 8/9/5
f 8/15/39 6/6/4 5/5/4
f 12/17/40 7/159/40 1/1/40
f 13/18/11 21/160/11 14/19/11
f 16/21/12 13/161/12 15/22/12
f 18/24/5 21/162/5 13/25/5
f 19/27/7 24/163/7 17/28/7
f 18/30/13 23/164/13 19/31/13
f 21/33/14 18/30/14 20/32/14
f 14/35/7 20/29/7 17/28/7
f 18/24/5 16/26/5 22/37/5
f 22/39/15 16/21/15 17/23/15
f 25/41/16 30/165/16 26/42/16
f 27/44/17 26/166/17 28/45/17
f 28/47/5 26/167/5 30/48/5
f 29/50/7 24/163/7 19/27/7
f 19/31/18 23/164/18 31/52/18
f 32/53/19 31/52/19 30/54/19
f 27/56/7 29/50/7 32/51/7
f 22/37/5 28/47/5 31/49/5
f 29/46/20 28/45/20 22/39/20
f 33/58/11 36/168/11 34/59/11
f 36/61/21 38/169/21 37/62/21
f 38/64/16 40/170/16 39/65/16
f 40/67/22 33/171/22 35/68/22
f 36/70/5 33/172/5 40/71/5
f 41/73/11 46/173/11 42/74/11
f 44/76/23 41/174/24 43/77/24
f 46/79/5 41/175/5 44/80/5
f 48/82/7 52/176/7 45/83/7
f 47/85/26 51/177/27 48/86/27
f 46/88/28 47/85/26 49/87/28
f 49/84/7 45/83/7 43/90/7
f 47/81/5 44/80/5 50/92/5
f 50/94/29 44/76/23 45/78/25
f 53/96/16 58/178/16 54/97/16
f 55/99/30 54/179/30 56/100/31
f 56/102/5 54/180/5 58/103/5
f 57/105/7 52/176/7 48/82/7
f 48/86/33 51/177/33 59/107/34
f 60/108/35 59/107/34 58/109/35
f 55/111/7 57/105/7 60/106/7
f 50/92/5 56/102/5 59/104/5
f 57/101/32 56/100/31 50/94/36
f 61/113/11 64/181/11 62/114/11
f 64/116/21 66/132/21 65/117/21
f 66/119/16 68/182/16 67/120/16
f 68/122/22 61/127/22 63/123/22
f 69/125/11 70/183/11 64/126/11
f 70/128/21 71/142/21 66/119/21
f 71/130/16 72/184/16 68/131/16
f 72/133/22 69/137/22 61/113/22
f 73/135/11 74/185/11 70/136/11
f 74/138/21 75/152/21 71/130/21
f 75/140/16 76/186/16 72/141/16
f 76/143/22 73/147/22 69/125/22
f 77/145/11 78/187/11 74/146/11
f 78/148/21 79/188/21 75/140/21
f 79/150/16 80/189/16 76/151/16
f 80/153/22 77/190/22 73/135/22
f 65/155/7 67/124/7 63/123/7
