# Blender v2.79 (sub 0) OBJ File: ''
# www.blender.org
o Stick
v -0.049346 -0.330715 0.049346
v -0.049346 -0.429407 -0.049346
v -0.049346 -0.429407 0.049346
v -0.049346 -0.330715 -0.049346
v 0.049346 -0.429407 -0.049346
v 0.049346 -0.330715 -0.049346
v 0.049346 -0.429407 0.049346
v 0.049346 -0.330715 0.049346
v -0.049346 -0.232024 0.049346
v -0.049346 -0.232024 -0.049346
v 0.049346 -0.232024 -0.049346
v 0.049346 -0.232024 0.049346
v -0.049346 -0.133333 0.049346
v -0.049346 -0.133333 -0.049346
v 0.049346 -0.133333 -0.049346
v 0.049346 -0.133333 0.049346
v -0.049346 -0.034642 0.049346
v -0.049346 -0.034642 -0.049346
v 0.049346 -0.034642 -0.049346
v 0.049346 -0.034642 0.049346
v -0.049346 0.064049 0.049346
v -0.049346 0.064049 -0.049346
v 0.049346 0.064049 -0.049346
v 0.049346 0.064049 0.049346
v -0.049346 0.162741 0.049346
v -0.049346 0.162741 -0.049346
v 0.049346 0.162741 -0.049346
v 0.049346 0.162741 0.049346
v -0.049346 0.261432 0.049346
v -0.049346 0.261432 -0.049346
v 0.049346 0.261432 -0.049346
v 0.049346 0.261432 0.049346
v -0.049346 0.360123 0.049346
v -0.049346 0.360123 -0.049346
v 0.049346 0.360123 -0.049346
v 0.049346 0.360123 0.049346
v -0.049346 0.458814 0.049346
v -0.049346 0.458814 -0.049346
v 0.049346 0.458814 -0.049346
v 0.049346 0.458814 0.049346
v -0.049346 0.557506 0.049346
v -0.049346 0.557506 -0.049346
v 0.049346 0.557506 -0.049346
v 0.049346 0.557506 0.049346
v -0.049346 0.656197 0.049346
v -0.049346 0.656197 -0.049346
v 0.049346 0.656197 -0.049346
v 0.049346 0.656197 0.049346
v -0.049346 0.754888 0.049346
v -0.049346 0.754888 -0.049346
v 0.049346 0.754888 -0.049346
v 0.049346 0.754888 0.049346
v -0.049346 0.853579 0.049346
v -0.049346 0.853579 -0.049346
v 0.049346 0.853579 -0.049346
v 0.049346 0.853579 0.049346
v -0.049346 0.952271 0.049346
v -0.049346 0.952271 -0.049346
v 0.049346 0.952271 -0.049346
v 0.049346 0.952271 0.049346
v -0.049346 1.050962 0.049346
v -0.049346 1.050962 -0.049346
v 0.049346 1.050962 -0.049346
v 0.049346 1.050962 0.049346
v -0.049346 1.149653 0.049346
v -0.049346 1.149653 -0.049346
v 0.049346 1.149653 -0.049346
v 0.049346 1.149653 0.049346
v -0.049346 1.248344 0.049346
v -0.049346 1.248344 -0.049346
v 0.049346 1.248344 -0.049346
v 0.049346 1.248344 0.049346
v -0.049346 1.347035 0.049346
v -0.049346 1.347035 -0.049346
v 0.049346 1.347035 -0.049346
v 0.049346 1.347035 0.049346
v -0.049346 1.445727 0.049346
v -0.049346 1.445727 -0.049346
v 0.049346 1.445727 -0.049346
v 0.049346 1.445727 0.049346
v -0.049346 1.544418 0.049346
v -0.049346 1.544418 -0.049346
v 0.049346 1.544418 -0.049346
v 0.049346 1.544418 0.049346
v -0.049346 1.643109 0.049346
v -0.049346 1.643109 -0.049346
v 0.049346 1.643109 -0.049346
v 0.049346 1.643109 0.049346
v -0.049346 1.741800 0.049346
v -0.049346 1.741800 -0.049346
v 0.049346 1.741800 -0.049346
v 0.049346 1.741800 0.049346
v -0.049346 1.840492 0.049346
v -0.049346 1.840492 -0.049346
v 0.049346 1.840492 -0.049346
v 0.049346 1.840492 0.049346
v -0.049346 1.939183 0.049346
v -0.049346 1.939183 -0.049346
v 0.049346 1.939183 -0.049346
v 0.049346 1.939183 0.049346
v -0.049346 2.037874 0.049346
v -0.049346 2.037874 -0.049346
v 0.049346 2.037874 -0.049346
v 0.049346 2.037874 0.049346
vt 0.000071 0.000071
vt 0.500000 0.999929
vt 0.000071 0.999929
vt 0.000071 0.000071
vt 0.500000 0.999929
vt 0.000071 0.999929
vt 0.500000 0.999929
vt 0.000071 0.000071
vt 0.500000 0.000071
vt 0.500000 0.999929
vt 0.000071 0.000071
vt 0.500000 0.000071
vt 0.000071 0.000071
vt 0.500000 0.999929
vt 0.000071 0.999929
vt 0.000071 0.000071
vt 0.000071 0.999929
vt 0.500000 0.999929
vt 0.000071 0.000071
vt 0.500000 0.000071
vt 0.500000 0.999929
vt 0.500000 0.000071
vt 0.000071 0.000071
vt 0.500000 0.999929
vt 0.000071 0.999929
vt 0.000071 0.000071
vt 0.000071 0.999929
vt 0.500000 0.999929
vt 0.000071 0.000071
vt 0.500000 0.000071
vt 0.500000 0.999929
vt 0.500000 0.000071
vt 0.000071 0.000071
vt 0.500000 0.999929
vt 0.000071 0.999929
vt 0.000071 0.000071
vt 0.000071 0.999929
vt 0.500000 0.999929
vt 0.000071 0.000071
vt 0.500000 0.000071
vt 0.500000 0.999929
vt 0.500000 0.000071
vt 0.000071 0.000071
vt 0.500000 0.999929
vt 0.000071 0.999929
vt 0.000071 0.000071
vt 0.000071 0.999929
vt 0.500000 0.999929
vt 0.000071 0.000071
vt 0.500000 0.000071
vt 0.500000 0.999929
vt 0.500000 0.000071
vt 0.000071 0.000071
vt 0.500000 0.999929
vt 0.000071 0.999929
vt 0.000071 0.000071
vt 0.000071 0.999929
vt 0.500000 0.999929
vt 0.000071 0.000071
vt 0.500000 0.000071
vt 0.500000 0.999929
vt 0.500000 0.000071
vt 0.000071 0.000071
vt 0.500000 0.999929
vt 0.000071 0.999929
vt 0.000071 0.000071
vt 0.000071 0.999929
vt 0.500000 0.999929
vt 0.000071 0.000071
vt 0.500000 0.000071
vt 0.500000 0.999929
vt 0.500000 0.000071
vt 0.000071 0.000071
vt 0.500000 0.999929
vt 0.000071 0.999929
vt 0.000071 0.000071
vt 0.000071 0.999929
vt 0.500000 0.999929
vt 0.000071 0.000071
vt 0.500000 0.000071
vt 0.500000 0.999929
vt 0.500000 0.000071
vt 0.000071 0.000071
vt 0.500000 0.999929
vt 0.000071 0.999929
vt 0.000071 0.000071
vt 0.000071 0.999929
vt 0.500000 0.999929
vt 0.000071 0.000071
vt 0.500000 0.000071
vt 0.500000 0.999929
vt 0.500000 0.000071
vt 0.000071 0.000071
vt 0.500000 0.999929
vt 0.000071 0.999929
vt 0.000071 0.000071
vt 0.000071 0.999929
vt 0.500000 0.999929
vt 0.000071 0.000071
vt 0.500000 0.000071
vt 0.500000 0.999929
vt 0.500000 0.000071
vt 0.000071 0.000071
vt 0.500000 0.999929
vt 0.000071 0.999929
vt 0.000071 0.000071
vt 0.000071 0.999929
vt 0.500000 0.999929
vt 0.000071 0.000071
vt 0.500000 0.000071
vt 0.500000 0.999929
vt 0.500000 0.000071
vt 0.000071 0.000071
vt 0.500000 0.999929
vt 0.000071 0.999929
vt 0.000071 0.000071
vt 0.000071 0.999929
vt 0.500000 0.999929
vt 0.000071 0.000071
vt 0.500000 0.000071
vt 0.500000 0.999929
vt 0.500000 0.000071
vt 0.000071 0.000071
vt 0.500000 0.999929
vt 0.000071 0.999929
vt 0.000071 0.000071
vt 0.000071 0.999929
vt 0.500000 0.999929
vt 0.000071 0.000071
vt 0.500000 0.000071
vt 0.500000 0.999929
vt 0.500000 0.000071
vt 0.000071 0.000071
vt 0.500000 0.999929
vt 0.000071 0.999929
vt 0.000071 0.000071
vt 0.000071 0.999929
vt 0.500000 0.999929
vt 0.000071 0.000071
vt 0.500000 0.000071
vt 0.500000 0.999929
vt 0.500000 0.000071
vt 0.000071 0.000071
vt 0.500000 0.999929
vt 0.000071 0.999929
vt 0.000071 0.000071
vt 0.000071 0.999929
vt 0.500000 0.999929
vt 0.000071 0.000071
vt 0.500000 0.000071
vt 0.500000 0.999929
vt 0.500000 0.000071
vt 0.000071 0.000071
vt 0.500000 0.999929
vt 0.000071 0.999929
vt 0.000071 0.000071
vt 0.000071 0.999929
vt 0.500000 0.999929
vt 0.000071 0.000071
vt 0.500000 0.000071
vt 0.500000 0.999929
vt 0.500000 0.000071
vt 0.000071 0.000071
vt 0.500000 0.999929
vt 0.000071 0.999929
vt 0.000071 0.000071
vt 0.000071 0.999929
vt 0.500000 0.999929
vt 0.000071 0.000071
vt 0.500000 0.000071
vt 0.500000 0.999929
vt 0.500000 0.000071
vt 0.000071 0.000071
vt 0.500000 0.999929
vt 0.000071 0.999929
vt 0.000071 0.000071
vt 0.000071 0.999929
vt 0.500000 0.999929
vt 0.000071 0.000071
vt 0.500000 0.000071
vt 0.500000 0.999929
vt 0.500000 0.000071
vt 0.000071 0.000071
vt 0.500000 0.999929
vt 0.000071 0.999929
vt 0.000071 0.000071
vt 0.000071 0.999929
vt 0.500000 0.999929
vt 0.000071 0.000071
vt 0.500000 0.000071
vt 0.500000 0.999929
vt 0.500000 0.000071
vt 0.000071 0.000071
vt 0.500000 0.999929
vt 0.000071 0.999929
vt 0.000071 0.000071
vt 0.000071 0.999929
vt 0.500000 0.999929
vt 0.000071 0.000071
vt 0.500000 0.000071
vt 0.500000 0.999929
vt 0.500000 0.000071
vt 0.000071 0.000071
vt 0.500000 0.999929
vt 0.000071 0.999929
vt 0.000071 0.000071
vt 0.000071 0.999929
vt 0.500000 0.999929
vt 0.000071 0.000071
vt 0.500000 0.000071
vt 0.500000 0.999929
vt 0.500000 0.000071
vt 0.000071 0.000071
vt 0.500000 0.999929
vt 0.000071 0.999929
vt 0.000071 0.000071
vt 0.000071 0.999929
vt 0.500000 0.999929
vt 0.000071 0.000071
vt 0.500000 0.000071
vt 0.500000 0.999929
vt 0.500000 0.000071
vt 0.000071 0.000071
vt 0.500000 0.999929
vt 0.000071 0.999929
vt 0.000071 0.000071
vt 0.000071 0.999929
vt 0.500000 0.999929
vt 0.000071 0.000071
vt 0.500000 0.000071
vt 0.500000 0.999929
vt 0.500000 0.000071
vt 0.000071 0.000071
vt 0.500000 0.999929
vt 0.000071 0.999929
vt 0.000071 0.000071
vt 0.000071 0.999929
vt 0.500000 0.999929
vt 0.000071 0.000071
vt 0.500000 0.000071
vt 0.500000 0.999929
vt 0.500000 0.000071
vt 0.000071 0.000071
vt 0.500000 0.999929
vt 0.000071 0.999929
vt 0.000071 0.000071
vt 0.000071 0.999929
vt 0.500000 0.999929
vt 0.000071 0.000071
vt 0.500000 0.000071
vt 0.500000 0.999929
vt 0.500000 0.000071
vt 1.000000 0.000000
vt 0.500000 1.000000
vt 0.500000 0.000000
vt 1.000000 0.000000
vt 0.500000 1.000000
vt 0.500000 0.000000
vt 0.500000 0.000071
vt 0.000071 0.999929
vt 0.500000 0.000071
vt 0.000071 0.999929
vt 0.500000 0.000071
vt 0.000071 0.999929
vt 0.500000 0.000071
vt 0.000071 0.999929
vt 0.500000 0.000071
vt 0.000071 0.999929
vt 0.500000 0.000071
vt 0.000071 0.999929
vt 0.500000 0.000071
vt 0.000071 0.999929
vt 0.500000 0.000071
vt 0.000071 0.999929
vt 0.500000 0.000071
vt 0.000071 0.999929
vt 0.500000 0.000071
vt 0.000071 0.999929
vt 0.500000 0.000071
vt 0.000071 0.999929
vt 0.500000 0.000071
vt 0.000071 0.999929
vt 0.500000 0.000071
vt 0.000071 0.999929
vt 0.500000 0.000071
vt 0.000071 0.999929
vt 0.500000 0.000071
vt 0.000071 0.999929
vt 0.500000 0.000071
vt 0.000071 0.999929
vt 0.500000 0.000071
vt 0.000071 0.999929
vt 0.500000 0.000071
vt 0.000071 0.999929
vt 0.500000 0.000071
vt 0.000071 0.999929
vt 0.500000 0.000071
vt 0.000071 0.999929
vt 0.500000 0.000071
vt 0.000071 0.999929
vt 0.500000 0.000071
vt 0.000071 0.999929
vt 0.500000 0.000071
vt 0.000071 0.999929
vt 0.500000 0.000071
vt 0.000071 0.999929
vt 0.500000 0.000071
vt 0.500000 0.000071
vt 0.000071 0.999929
vt 0.000071 0.999929
vt 1.000000 1.000000
vt 1.000000 1.000000
vn -1.0000 0.0000 0.0000
vn 0.0000 0.0000 -1.0000
vn 1.0000 -0.0000 0.0000
vn 0.0000 -0.0000 1.0000
vn 0.0000 1.0000 0.0000
vn 0.0000 -1.0000 0.0000
s 1
f 1/1/1 2/2/1 3/3/1
f 4/4/2 5/5/2 2/6/2
f 6/7/3 7/8/3 5/9/3
f 8/10/4 3/11/4 7/12/4
f 9/13/1 4/14/1 1/15/1
f 10/16/2 6/7/2 4/17/2
f 11/18/3 8/19/3 6/20/3
f 12/21/4 1/1/4 8/22/4
f 13/23/1 10/24/1 9/25/1
f 14/26/2 11/18/2 10/27/2
f 15/28/3 12/29/3 11/30/3
f 16/31/4 9/13/4 12/32/4
f 17/33/1 14/34/1 13/35/1
f 18/36/2 15/28/2 14/37/2
f 19/38/3 16/39/3 15/40/3
f 20/41/4 13/23/4 16/42/4
f 21/43/1 18/44/1 17/45/1
f 22/46/2 19/38/2 18/47/2
f 23/48/3 20/49/3 19/50/3
f 24/51/4 17/33/4 20/52/4
f 25/53/1 22/54/1 21/55/1
f 26/56/2 23/48/2 22/57/2
f 27/58/3 24/59/3 23/60/3
f 28/61/4 21/43/4 24/62/4
f 29/63/1 26/64/1 25/65/1
f 30/66/2 27/58/2 26/67/2
f 31/68/3 28/69/3 27/70/3
f 32/71/4 25/53/4 28/72/4
f 33/73/1 30/74/1 29/75/1
f 34/76/2 31/68/2 30/77/2
f 35/78/3 32/79/3 31/80/3
f 36/81/4 29/63/4 32/82/4
f 37/83/1 34/84/1 33/85/1
f 38/86/2 35/78/2 34/87/2
f 39/88/3 36/89/3 35/90/3
f 40/91/4 33/73/4 36/92/4
f 41/93/1 38/94/1 37/95/1
f 42/96/2 39/88/2 38/97/2
f 43/98/3 40/99/3 39/100/3
f 44/101/4 37/83/4 40/102/4
f 45/103/1 42/104/1 41/105/1
f 46/106/2 43/98/2 42/107/2
f 47/108/3 44/109/3 43/110/3
f 48/111/4 41/93/4 44/112/4
f 49/113/1 46/114/1 45/115/1
f 50/116/2 47/108/2 46/117/2
f 51/118/3 48/119/3 47/120/3
f 52/121/4 45/103/4 48/122/4
f 53/123/1 50/124/1 49/125/1
f 54/126/2 51/118/2 50/127/2
f 55/128/3 52/129/3 51/130/3
f 56/131/4 49/113/4 52/132/4
f 57/133/1 54/134/1 53/135/1
f 58/136/2 55/128/2 54/137/2
f 59/138/3 56/139/3 55/140/3
f 60/141/4 53/123/4 56/142/4
f 61/143/1 58/144/1 57/145/1
f 62/146/2 59/138/2 58/147/2
f 63/148/3 60/149/3 59/150/3
f 64/151/4 57/133/4 60/152/4
f 65/153/1 62/154/1 61/155/1
f 66/156/2 63/148/2 62/157/2
f 67/158/3 64/159/3 63/160/3
f 68/161/4 61/143/4 64/162/4
f 69/163/1 66/164/1 65/165/1
f 70/166/2 67/158/2 66/167/2
f 71/168/3 68/169/3 67/170/3
f 72/171/4 65/153/4 68/172/4
f 73/173/1 70/174/1 69/175/1
f 74/176/2 71/168/2 70/177/2
f 75/178/3 72/179/3 71/180/3
f 76/181/4 69/163/4 72/182/4
f 77/183/1 74/184/1 73/185/1
f 78/186/2 75/178/2 74/187/2
f 79/188/3 76/189/3 75/190/3
f 80/191/4 73/173/4 76/192/4
f 81/193/1 78/194/1 77/195/1
f 82/196/2 79/188/2 78/197/2
f 83/198/3 80/199/3 79/200/3
f 84/201/4 77/183/4 80/202/4
f 85/203/1 82/204/1 81/205/1
f 86/206/2 83/198/2 82/207/2
f 87/208/3 84/209/3 83/210/3
f 88/211/4 81/193/4 84/212/4
f 89/213/1 86/214/1 85/215/1
f 90/216/2 87/208/2 86/217/2
f 91/218/3 88/219/3 87/220/3
f 92/221/4 85/203/4 88/222/4
f 93/223/1 90/224/1 89/225/1
f 94/226/2 91/218/2 90/227/2
f 95/228/3 92/229/3 91/230/3
f 96/231/4 89/213/4 92/232/4
f 97/233/1 94/234/1 93/235/1
f 98/236/2 95/228/2 94/237/2
f 99/238/3 96/239/3 95/240/3
f 100/241/4 93/223/4 96/242/4
f 101/243/1 98/244/1 97/245/1
f 102/246/2 99/238/2 98/247/2
f 103/248/3 100/249/3 99/250/3
f 104/251/4 97/233/4 100/252/4
f 104/253/5 102/254/5 101/255/5
f 5/256/6 3/257/6 2/258/6
f 1/1/1 4/259/1 2/2/1
f 4/4/2 6/20/2 5/5/2
f 6/7/3 8/260/3 7/8/3
f 8/10/4 1/15/4 3/11/4
f 9/13/1 10/261/1 4/14/1
f 10/16/2 11/30/2 6/7/2
f 11/18/3 12/262/3 8/19/3
f 12/21/4 9/25/4 1/1/4
f 13/23/1 14/263/1 10/24/1
f 14/26/2 15/40/2 11/18/2
f 15/28/3 16/264/3 12/29/3
f 16/31/4 13/35/4 9/13/4
f 17/33/1 18/265/1 14/34/1
f 18/36/2 19/50/2 15/28/2
f 19/38/3 20/266/3 16/39/3
f 20/41/4 17/45/4 13/23/4
f 21/43/1 22/267/1 18/44/1
f 22/46/2 23/60/2 19/38/2
f 23/48/3 24/268/3 20/49/3
f 24/51/4 21/55/4 17/33/4
f 25/53/1 26/269/1 22/54/1
f 26/56/2 27/70/2 23/48/2
f 27/58/3 28/270/3 24/59/3
f 28/61/4 25/65/4 21/43/4
f 29/63/1 30/271/1 26/64/1
f 30/66/2 31/80/2 27/58/2
f 31/68/3 32/272/3 28/69/3
f 32/71/4 29/75/4 25/53/4
f 33/73/1 34/273/1 30/74/1
f 34/76/2 35/90/2 31/68/2
f 35/78/3 36/274/3 32/79/3
f 36/81/4 33/85/4 29/63/4
f 37/83/1 38/275/1 34/84/1
f 38/86/2 39/100/2 35/78/2
f 39/88/3 40/276/3 36/89/3
f 40/91/4 37/95/4 33/73/4
f 41/93/1 42/277/1 38/94/1
f 42/96/2 43/110/2 39/88/2
f 43/98/3 44/278/3 40/99/3
f 44/101/4 41/105/4 37/83/4
f 45/103/1 46/279/1 42/104/1
f 46/106/2 47/120/2 43/98/2
f 47/108/3 48/280/3 44/109/3
f 48/111/4 45/115/4 41/93/4
f 49/113/1 50/281/1 46/114/1
f 50/116/2 51/130/2 47/108/2
f 51/118/3 52/282/3 48/119/3
f 52/121/4 49/125/4 45/103/4
f 53/123/1 54/283/1 50/124/1
f 54/126/2 55/140/2 51/118/2
f 55/128/3 56/284/3 52/129/3
f 56/131/4 53/135/4 49/113/4
f 57/133/1 58/285/1 54/134/1
f 58/136/2 59/150/2 55/128/2
f 59/138/3 60/286/3 56/139/3
f 60/141/4 57/145/4 53/123/4
f 61/143/1 62/287/1 58/144/1
f 62/146/2 63/160/2 59/138/2
f 63/148/3 64/288/3 60/149/3
f 64/151/4 61/155/4 57/133/4
f 65/153/1 66/289/1 62/154/1
f 66/156/2 67/170/2 63/148/2
f 67/158/3 68/290/3 64/159/3
f 68/161/4 65/165/4 61/143/4
f 69/163/1 70/291/1 66/164/1
f 70/166/2 71/180/2 67/158/2
f 71/168/3 72/292/3 68/169/3
f 72/171/4 69/175/4 65/153/4
f 73/173/1 74/293/1 70/174/1
f 74/176/2 75/190/2 71/168/2
f 75/178/3 76/294/3 72/179/3
f 76/181/4 73/185/4 69/163/4
f 77/183/1 78/295/1 74/184/1
f 78/186/2 79/200/2 75/178/2
f 79/188/3 80/296/3 76/189/3
f 80/191/4 77/195/4 73/173/4
f 81/193/1 82/297/1 78/194/1
f 82/196/2 83/210/2 79/188/2
f 83/198/3 84/298/3 80/199/3
f 84/201/4 81/205/4 77/183/4
f 85/203/1 86/299/1 82/204/1
f 86/206/2 87/220/2 83/198/2
f 87/208/3 88/300/3 84/209/3
f 88/211/4 85/215/4 81/193/4
f 89/213/1 90/301/1 86/214/1
f 90/216/2 91/230/2 87/208/2
f 91/218/3 92/302/3 88/219/3
f 92/221/4 89/225/4 85/203/4
f 93/223/1 94/303/1 90/224/1
f 94/226/2 95/240/2 91/218/2
f 95/228/3 96/304/3 92/229/3
f 96/231/4 93/235/4 89/213/4
f 97/233/1 98/305/1 94/234/1
f 98/236/2 99/250/2 95/228/2
f 99/238/3 100/306/3 96/239/3
f 100/241/4 97/245/4 93/223/4
f 101/243/1 102/307/1 98/244/1
f 102/246/2 103/308/2 99/238/2
f 103/248/3 104/309/3 100/249/3
f 104/251/4 101/310/4 97/233/4
f 104/253/5 103/311/5 102/254/5
f 5/256/6 7/312/6 3/257/6
