# Blender v2.79 (sub 0) OBJ File: 'all.blend'
# www.blender.org
o TowerShield
v -0.723807 -1.947285 0.194057
v 0.723807 -1.947285 0.194057
v -0.723807 0.947942 0.194057
v 0.723807 0.947942 0.194057
v -0.723807 -1.947285 0.113938
v 0.723807 -1.947285 0.113938
v -0.723807 0.947942 0.113938
v 0.723807 0.947942 0.113938
v -0.434284 -1.947285 0.280037
v 0.434284 -1.947285 0.280037
v 0.434284 0.947942 0.280037
v -0.434284 0.947942 0.280037
v -0.434284 -1.947285 0.199918
v 0.000000 0.947942 0.254130
v 0.000000 -1.947285 0.254130
v 0.434284 -1.947285 0.199918
v 0.434284 0.947942 0.199918
v 0.000000 0.947942 0.334249
v 0.000000 -1.947285 0.334249
v -0.434284 0.947942 0.199918
v -0.064815 -0.299154 0.259615
v -0.064815 0.337598 0.259615
v -0.064815 -0.299154 -0.284344
v -0.064815 0.337598 -0.284344
v 0.064815 -0.299154 0.259615
v 0.064815 0.337598 0.259615
v 0.064815 -0.299154 -0.284344
v 0.064815 0.337598 -0.284344
v -0.064815 -0.176515 0.259615
v -0.064815 0.214959 0.259615
v -0.064815 0.214959 -0.284344
v -0.064815 -0.176515 -0.284344
v 0.064815 0.214959 -0.284344
v 0.064815 -0.176515 -0.284344
v 0.064815 0.214959 0.259615
v 0.064815 -0.176515 0.259615
v -0.064815 -0.299154 -0.151604
v -0.064815 0.337598 -0.151604
v 0.064815 -0.299154 -0.151604
v 0.064815 0.337598 -0.151604
v 0.064815 -0.176515 -0.151604
v 0.064815 0.214959 -0.151604
v -0.064815 -0.176515 -0.151604
v -0.064815 0.214959 -0.151604
vt 1.000000 -0.000000
vt 0.950000 0.500000
vt 0.950000 0.000000
vt 0.700000 0.500000
vt 0.750000 0.000000
vt 0.700000 0.000000
vt 0.754759 0.493424
vt 0.754759 0.006576
vt 0.754759 0.006576
vt 0.802855 0.006576
vt 0.802855 0.006576
vt 0.995241 0.006576
vt 0.995241 0.493424
vt 0.995241 0.493424
vt 0.947145 0.493424
vt 0.947145 0.493424
vt 0.802855 0.493424
vt 0.754759 0.493424
vt 0.875000 0.493424
vt 0.875000 0.493424
vt 0.947145 0.006576
vt 0.995241 0.006576
vt 0.875000 0.006576
vt 0.875000 0.006576
vt 0.802855 0.493424
vt 0.500000 0.500000
vt 0.550000 0.000000
vt 0.500000 0.000000
vt 0.625000 0.500000
vt 0.625000 0.000000
vt 0.550000 0.500000
vt 0.800000 0.000000
vt 0.750000 0.500000
vt 0.750000 -0.000000
vt 0.947145 0.006576
vt 0.875000 0.500000
vt 0.875000 0.000000
vt 0.800000 0.500000
vt 0.367188 0.250000
vt 0.421875 0.195312
vt 0.367188 0.195312
vt 0.468750 0.250000
vt 0.421875 0.203125
vt 0.468750 0.203125
vt 0.367188 0.250000
vt 0.296875 0.195312
vt 0.367188 0.195312
vt 0.468750 0.171875
vt 0.421875 0.250000
vt 0.421875 0.171875
vt 0.468750 0.171875
vt 0.421875 0.250000
vt 0.421875 0.171875
vt 0.367188 0.054688
vt 0.296875 0.000000
vt 0.367188 0.000000
vt 0.468750 0.046875
vt 0.421875 0.000000
vt 0.468750 0.000000
vt 0.421875 0.046875
vt 0.367188 0.054688
vt 0.421875 0.000000
vt 0.367188 0.000000
vt 0.421875 0.054688
vt 0.296875 0.054688
vt 0.296875 0.000000
vt 0.421875 0.195312
vt 0.421875 0.054688
vt 0.468750 0.125000
vt 0.421875 0.125000
vt 0.468750 0.125000
vt 0.421875 0.125000
vt 0.421875 0.250000
vt 0.296875 0.250000
vt 0.296875 0.195312
vt 0.367188 0.101562
vt 0.296875 0.054688
vt 0.296875 0.101562
vt 0.367188 0.054688
vt 0.367188 0.101562
vt 0.414062 0.054688
vt 1.000000 0.500000
vt 0.750000 0.500000
vt 0.421875 0.250000
vt 0.296875 0.250000
vt 0.468750 0.250000
vt 0.468750 0.250000
vt 0.296875 0.101562
vt 0.296875 0.054688
vt 0.414062 0.195312
vn 0.2847 -0.0000 0.9586
vn 0.2050 -0.0000 0.9788
vn -0.2050 0.0000 -0.9788
vn -0.2847 0.0000 -0.9586
vn -1.0000 -0.0000 0.0000
vn 0.0000 -1.0000 0.0000
vn 1.0000 -0.0000 0.0000
vn 0.0000 1.0000 0.0000
vn 0.2847 0.0000 -0.9586
vn 0.2050 0.0000 -0.9788
vn -0.0000 0.0000 -1.0000
vn -0.2050 -0.0000 0.9788
vn -0.2847 -0.0000 0.9586
vn 0.0000 -0.0000 1.0000
s 1
f 2/1/1 11/2/2 10/3/2
f 17/4/3 6/5/4 16/6/3
f 3/7/5 5/8/5 1/9/5
f 1/9/6 13/10/6 9/11/6
f 2/12/7 8/13/7 4/14/7
f 4/14/8 17/15/8 11/16/8
f 3/7/8 20/17/8 7/18/8
f 11/16/8 14/19/8 18/20/8
f 2/12/6 16/21/6 6/22/6
f 9/11/6 15/23/6 19/24/6
f 12/25/8 14/19/8 20/17/8
f 7/26/9 13/27/10 5/28/9
f 14/29/11 16/6/3 15/30/11
f 20/31/10 15/30/11 13/27/10
f 9/32/12 3/33/13 1/34/13
f 10/35/6 15/23/6 16/21/6
f 10/3/2 18/36/14 19/37/14
f 19/37/14 12/38/12 9/32/12
f 38/39/5 31/40/5 44/41/5
f 24/42/11 33/43/11 31/44/11
f 40/45/7 35/46/7 42/47/7
f 39/48/6 21/49/6 37/50/6
f 38/51/8 26/52/8 40/53/8
f 41/54/7 25/55/7 39/56/7
f 32/57/11 27/58/11 23/59/11
f 31/44/11 34/60/11 32/57/11
f 43/61/5 23/62/5 37/63/5
f 44/41/5 32/64/5 43/61/5
f 29/65/5 37/63/5 21/66/5
f 33/67/7 41/54/7 34/68/7
f 34/68/7 39/56/7 27/58/7
f 24/69/8 40/53/8 28/70/8
f 27/71/6 37/50/6 23/72/6
f 28/73/7 42/47/7 33/67/7
f 22/74/5 44/41/5 30/75/5
f 43/76/8 36/77/8 41/54/8
f 35/78/6 44/79/6 42/80/6
f 41/81/14 44/41/14 43/61/14
f 2/1/1 4/82/1 11/2/2
f 17/4/3 8/83/4 6/5/4
f 3/7/5 7/18/5 5/8/5
f 1/9/6 5/8/6 13/10/6
f 2/12/7 6/22/7 8/13/7
f 4/14/8 8/13/8 17/15/8
f 3/7/8 12/25/8 20/17/8
f 11/16/8 17/15/8 14/19/8
f 2/12/6 10/35/6 16/21/6
f 9/11/6 13/10/6 15/23/6
f 12/25/8 18/20/8 14/19/8
f 7/26/9 20/31/10 13/27/10
f 14/29/11 17/4/3 16/6/3
f 20/31/10 14/29/11 15/30/11
f 9/32/12 12/38/12 3/33/13
f 10/35/6 19/24/6 15/23/6
f 10/3/2 11/2/2 18/36/14
f 19/37/14 18/36/14 12/38/12
f 38/39/5 24/84/5 31/40/5
f 24/42/11 28/73/11 33/43/11
f 40/45/7 26/85/7 35/46/7
f 39/48/6 25/86/6 21/49/6
f 38/51/8 22/87/8 26/52/8
f 41/54/7 36/77/7 25/55/7
f 32/57/11 34/60/11 27/58/11
f 31/44/11 33/43/11 34/60/11
f 43/61/5 32/64/5 23/62/5
f 44/41/5 31/40/5 32/64/5
f 29/65/5 43/61/5 37/63/5
f 33/67/7 42/47/7 41/54/7
f 34/68/7 41/54/7 39/56/7
f 24/69/8 38/51/8 40/53/8
f 27/71/6 39/48/6 37/50/6
f 28/73/7 40/45/7 42/47/7
f 22/74/5 38/39/5 44/41/5
f 43/76/8 29/88/8 36/77/8
f 35/78/6 30/89/6 44/79/6
f 41/81/14 42/90/14 44/41/14
