# Blender v2.79 (sub 0) OBJ File: 'all.blend'
# www.blender.org
o WarAxe
v -0.057370 -0.329821 0.026441
v -0.040946 0.986262 0.025453
v -0.057370 -0.329821 -0.026441
v -0.040946 0.986262 -0.025453
v 0.057370 -0.329821 0.026441
v 0.040946 0.986262 0.025453
v 0.057370 -0.329821 -0.026441
v 0.040946 0.986262 -0.025453
v -0.049953 0.328220 0.026441
v 0.049953 0.328220 -0.026441
v -0.049953 0.328220 -0.026441
v 0.049953 0.328220 0.026441
v -0.073313 0.882525 -0.026625
v 0.072982 0.882525 -0.024170
v -0.073313 0.961517 -0.026625
v 0.072982 0.961517 -0.024170
v 0.102844 0.882525 -0.016113
v 0.131894 0.961517 -0.016113
v 0.210544 0.854997 -0.003005
v 0.216735 0.961517 -0.003005
v 0.116079 0.775289 -0.004973
v 0.153534 0.749750 -0.003005
v -0.073313 0.882525 0.026625
v 0.072982 0.882525 0.024170
v -0.073313 0.961517 0.026625
v 0.072982 0.961517 0.024170
v 0.102844 0.882525 0.016113
v 0.131894 0.961517 0.016113
v 0.210544 0.854997 0.003005
v 0.216735 0.961517 0.003005
v 0.116079 0.775289 0.004973
v 0.153534 0.749750 0.003005
v -0.036740 0.882525 -0.041301
v 0.036408 0.882525 -0.041301
v 0.036408 0.961517 -0.041301
v -0.036740 0.961517 -0.041301
v -0.036740 0.882525 0.041301
v 0.036408 0.882525 0.041301
v 0.036408 0.961517 0.041301
v -0.036740 0.961517 0.041301
vt 0.125000 1.000000
vt 0.000000 0.500000
vt 0.125000 0.500000
vt 0.125000 0.375000
vt -0.000000 0.500000
vt -0.000000 0.375000
vt -0.000000 0.500000
vt 0.125000 0.375000
vt 0.125000 0.500000
vt 0.125000 1.000000
vt 0.000000 0.500000
vt 0.125000 0.500000
vt 0.125000 1.000000
vt 0.000000 0.500000
vt 0.125000 0.500000
vt 0.125000 1.000000
vt 0.000000 0.500000
vt 0.125000 0.500000
vt 0.125000 1.000000
vt 0.000000 0.500000
vt 0.125000 0.500000
vt 0.125000 1.000000
vt 0.000000 0.500000
vt 0.125000 0.500000
vt 0.125000 1.000000
vt 0.125000 0.500000
vt 0.125000 1.000000
vt 0.000000 0.500000
vt 0.125000 0.500000
vt 0.345703 1.000000
vt 0.304688 0.906250
vt 0.345703 0.906250
vt 0.304688 1.000000
vt 0.273438 0.906250
vt 0.242188 1.000000
vt 0.148438 0.906250
vt 0.257812 0.789062
vt 0.304688 0.906250
vt 0.345703 1.000000
vt 0.345703 0.906250
vt 0.304688 1.000000
vt 0.273438 0.906250
vt 0.242188 1.000000
vt 0.148438 0.906250
vt 0.257812 0.789062
vt 0.468750 0.906250
vt 0.531250 1.000000
vt 0.468750 1.000000
vt 0.476562 0.796875
vt 0.429688 0.890625
vt 0.429688 0.781250
vt 0.289062 0.882812
vt 0.335938 0.781250
vt 0.335938 0.890625
vt 0.476562 0.875000
vt 0.541062 0.812500
vt 0.541062 0.859375
vt 0.539062 0.812500
vt 0.476562 0.875000
vt 0.164062 0.984375
vt 0.164062 0.906250
vt 0.164062 0.906250
vt 0.656250 0.828125
vt 0.656250 0.843750
vt 0.218750 0.757812
vt 0.261230 0.792480
vt 0.261230 0.917480
vt 0.261230 0.917480
vt 0.226562 0.773438
vt 0.226562 0.773438
vt 0.429688 0.781250
vt 0.476562 0.796875
vt 0.335938 0.890625
vt 0.335938 0.781250
vt 0.289062 0.882812
vt 0.289062 0.789062
vt 0.427734 1.000000
vt 0.427734 0.906250
vt 0.468750 1.000000
vt 0.468750 0.906250
vt 0.427734 1.000000
vt 0.427734 0.906250
vt 0.429688 0.890625
vt -0.000000 1.000000
vt -0.000000 0.375000
vt -0.000000 1.000000
vt -0.000000 1.000000
vt -0.000000 1.000000
vt -0.000000 1.000000
vt -0.000000 1.000000
vt -0.000000 1.000000
vt -0.000000 1.000000
vt 0.148438 1.000000
vt 0.148438 1.000000
vt 0.218750 0.757812
vt 0.531250 0.906250
vt 0.289062 0.789062
vt 0.539062 0.859375
vt 0.164062 0.984375
vt 0.261230 0.792480
vn 0.0000 0.0015 -1.0000
vn 0.0000 0.0007 -1.0000
vn 0.0000 -1.0000 0.0000
vn 0.0000 1.0000 0.0000
vn 0.0000 0.0015 1.0000
vn 0.0000 0.0007 1.0000
vn 0.9999 0.0137 0.0000
vn 0.9999 0.0125 0.0000
vn -0.9999 0.0137 0.0000
vn -0.9999 0.0125 0.0000
vn -0.9999 0.0113 0.0000
vn 0.9999 0.0113 0.0000
vn 0.0000 0.0000 1.0000
vn 0.0000 0.0000 -1.0000
vn 0.2173 0.0000 -0.9761
vn 0.3436 0.0000 -0.9391
vn 0.2975 -0.0192 -0.9545
vn 0.1507 -0.0446 -0.9876
vn 0.1327 -0.0348 -0.9906
vn 0.1069 -0.0475 -0.9931
vn 0.0641 -0.0513 -0.9966
vn 0.3436 -0.0000 0.9391
vn 0.2173 -0.0000 0.9761
vn 0.2975 -0.0192 0.9545
vn 0.1507 -0.0446 0.9876
vn 0.1327 -0.0348 0.9906
vn 0.1069 -0.0475 0.9931
vn 0.0641 -0.0513 0.9966
vn -1.0000 -0.0000 0.0000
vn 0.9983 -0.0580 0.0000
vn 0.9618 -0.2737 0.0000
vn -0.5634 -0.8262 0.0000
vn -0.9925 -0.1225 0.0000
vn 0.8793 -0.4763 0.0000
vn -0.1896 -0.0000 0.9819
vn -0.3724 -0.0000 0.9281
vn -0.1896 0.0000 -0.9819
vn -0.3724 0.0000 -0.9281
vn 0.1527 -0.0089 -0.9882
vn 0.0383 -0.0208 -0.9990
vn 0.1527 -0.0089 0.9882
vn 0.0383 -0.0208 0.9990
s 1
f 4/1/1 10/2/2 11/3/2
f 7/4/3 1/5/3 3/6/3
f 4/7/4 6/8/4 8/9/4
f 6/10/5 9/11/6 12/12/6
f 8/13/7 12/14/8 10/15/8
f 2/16/9 11/17/10 9/18/10
f 9/19/10 3/20/11 1/21/11
f 10/22/8 5/23/12 7/24/12
f 12/25/6 1/5/13 5/26/13
f 11/27/2 7/28/14 3/29/14
f 35/30/15 14/31/16 34/32/15
f 16/33/17 17/34/18 14/31/16
f 18/35/19 19/36/20 17/34/18
f 19/36/20 21/37/21 17/34/18
f 24/38/22 39/39/23 38/40/23
f 26/41/24 27/42/25 28/43/26
f 29/44/27 28/43/26 27/42/25
f 31/45/28 29/44/27 27/42/25
f 13/46/29 25/47/29 15/48/29
f 14/49/3 38/50/3 34/51/3
f 15/52/4 40/53/4 36/54/4
f 16/55/4 28/56/4 18/57/4
f 17/58/3 24/59/3 14/49/3
f 20/60/30 29/61/31 19/62/31
f 18/57/4 30/63/4 20/64/4
f 22/65/32 31/45/32 21/37/32
f 21/66/33 27/67/33 17/68/33
f 19/62/31 32/69/34 22/70/34
f 16/55/4 39/71/4 26/72/4
f 34/51/3 37/73/3 33/74/3
f 33/74/3 23/75/3 13/76/3
f 38/40/23 40/77/35 37/78/35
f 37/78/35 25/79/36 23/80/36
f 36/81/37 34/32/15 33/82/37
f 13/46/38 36/81/37 33/82/37
f 36/54/4 39/71/4 35/83/4
f 4/1/1 8/84/1 10/2/2
f 7/4/3 5/26/3 1/5/3
f 4/7/4 2/85/4 6/8/4
f 6/10/5 2/86/5 9/11/6
f 8/13/7 6/87/7 12/14/8
f 2/16/9 4/88/9 11/17/10
f 9/19/10 11/89/10 3/20/11
f 10/22/8 12/90/8 5/23/12
f 12/25/6 9/91/6 1/5/13
f 11/27/2 10/92/2 7/28/14
f 35/30/15 16/33/17 14/31/16
f 16/33/17 18/35/19 17/34/18
f 18/35/19 20/93/39 19/36/20
f 19/36/20 22/65/40 21/37/21
f 24/38/22 26/41/24 39/39/23
f 26/41/24 24/38/22 27/42/25
f 29/44/27 30/94/41 28/43/26
f 31/45/28 32/95/42 29/44/27
f 13/46/29 23/96/29 25/47/29
f 14/49/3 24/59/3 38/50/3
f 15/52/4 25/97/4 40/53/4
f 16/55/4 26/72/4 28/56/4
f 17/58/3 27/98/3 24/59/3
f 20/60/30 30/99/30 29/61/31
f 18/57/4 28/56/4 30/63/4
f 22/65/32 32/95/32 31/45/32
f 21/66/33 31/100/33 27/67/33
f 19/62/31 29/61/31 32/69/34
f 16/55/4 35/83/4 39/71/4
f 34/51/3 38/50/3 37/73/3
f 33/74/3 37/73/3 23/75/3
f 38/40/23 39/39/23 40/77/35
f 37/78/35 40/77/35 25/79/36
f 36/81/37 35/30/15 34/32/15
f 13/46/38 15/48/38 36/81/37
f 36/54/4 40/53/4 39/71/4
