# Blender v2.79 (sub 0) OBJ File: 'Twohanded.blend'
# www.blender.org
o WarHammer
v 0.009909 -1.153156 -0.077218
v -0.061405 -0.993917 -0.077218
v 0.148936 -1.099721 -0.077218
v 0.083871 -0.961076 -0.077218
v 0.009909 -1.153156 0.071724
v -0.061405 -0.993917 0.071724
v 0.148936 -1.099721 0.071724
v 0.083871 -0.961076 0.071724
v -0.077218 -0.828554 -0.077218
v 0.071724 -0.828554 -0.077218
v -0.077218 -0.828554 0.071724
v 0.071724 -0.828554 0.071724
v -0.077218 -0.679612 -0.077218
v 0.071724 -0.679612 -0.077218
v -0.077218 -0.679612 0.071724
v 0.071724 -0.679612 0.071724
v -0.077218 -0.530669 -0.077218
v 0.071724 -0.530669 -0.077218
v -0.077218 -0.530669 0.071724
v 0.071724 -0.530669 0.071724
v -0.077218 -0.381727 -0.077218
v 0.071724 -0.381727 -0.077218
v -0.077218 -0.381727 0.071724
v 0.071724 -0.381727 0.071724
v -0.077218 -0.232784 -0.077218
v 0.071724 -0.232784 -0.077218
v -0.077218 -0.232784 0.071724
v 0.071724 -0.232784 0.071724
v -0.077218 -0.083842 -0.077218
v 0.071724 -0.083842 -0.077218
v -0.077218 -0.083842 0.071724
v 0.071724 -0.083842 0.071724
v -0.077218 0.065100 -0.077218
v 0.071724 0.065100 -0.077218
v -0.077218 0.065100 0.071724
v 0.071724 0.065100 0.071724
v -0.077218 0.214043 -0.077218
v 0.071724 0.214043 -0.077218
v -0.077218 0.214043 0.071724
v 0.071724 0.214043 0.071724
v -0.077218 0.362985 -0.077218
v 0.071724 0.362985 -0.077218
v -0.077218 0.362985 0.071724
v 0.071724 0.362985 0.071724
v -0.077218 0.511928 -0.077218
v 0.071724 0.511928 -0.077218
v -0.077218 0.511928 0.071724
v 0.071724 0.511928 0.071724
v -0.077218 0.660870 -0.077218
v 0.071724 0.660870 -0.077218
v -0.077218 0.660870 0.071724
v 0.071724 0.660870 0.071724
v -0.077218 0.809813 -0.077218
v 0.071724 0.809813 -0.077218
v -0.077218 0.809813 0.071724
v 0.071724 0.809813 0.071724
v -0.077218 0.958755 -0.077218
v 0.071724 0.958755 -0.077218
v -0.077218 0.958755 0.071724
v 0.071724 0.958755 0.071724
v -0.077218 1.107698 -0.077218
v 0.071724 1.107698 -0.077218
v -0.077218 1.107698 0.071724
v 0.071724 1.107698 0.071724
v -0.077218 1.256640 -0.077218
v 0.071724 1.256640 -0.077218
v -0.077218 1.256640 0.071724
v 0.071724 1.256640 0.071724
v -0.077218 1.405583 -0.077218
v 0.071724 1.405583 -0.077218
v -0.077218 1.405583 0.071724
v 0.071724 1.405583 0.071724
v -0.077218 1.554525 -0.077218
v 0.071724 1.554525 -0.077218
v -0.077218 1.554525 0.071724
v 0.071724 1.554525 0.071724
v -0.077218 1.852410 -0.077218
v 0.071724 1.852410 -0.077218
v -0.077218 1.852410 0.071724
v 0.071724 1.852410 0.071724
v -0.077218 2.001352 -0.077218
v 0.071724 2.001352 -0.077218
v -0.077218 2.001352 0.071724
v 0.071724 2.001352 0.071724
v -0.077218 2.150295 -0.077218
v 0.071724 2.150295 -0.077218
v -0.077218 2.150295 0.071724
v 0.071724 2.150295 0.071724
v -0.077218 2.299237 -0.077218
v 0.071724 2.299237 -0.077218
v -0.077218 2.299237 0.071724
v 0.071724 2.299237 0.071724
v -0.077218 2.448180 -0.077218
v 0.071724 2.448180 -0.077218
v -0.077218 2.448180 0.071724
v 0.071724 2.448180 0.071724
v -0.077218 1.694261 -0.077218
v -0.077218 1.712674 -0.077218
v -0.068250 1.703468 -0.068250
v 0.071724 1.712674 -0.077218
v 0.071724 1.694261 -0.077218
v 0.062756 1.703468 -0.068250
v -0.077218 1.712674 0.071724
v -0.077218 1.694261 0.071724
v -0.068250 1.703468 0.062756
v 0.071724 1.712674 0.071724
v 0.071724 1.694261 0.071724
v 0.062756 1.703468 0.062756
v -0.087406 0.935220 -0.087406
v -0.087406 0.961327 -0.087406
v 0.081911 0.935220 -0.087406
v 0.081911 0.961327 -0.087406
v -0.087406 0.935220 0.081911
v -0.087406 0.961327 0.081911
v 0.081911 0.935220 0.081911
v 0.081911 0.961327 0.081911
v -0.087406 -0.694765 -0.087406
v -0.087406 -0.668659 -0.087406
v 0.081911 -0.694765 -0.087406
v 0.081911 -0.668659 -0.087406
v -0.087406 -0.694765 0.081911
v -0.087406 -0.668659 0.081911
v 0.081911 -0.694765 0.081911
v 0.081911 -0.668659 0.081911
v -0.329680 2.211174 -0.022880
v -0.329680 2.415630 -0.022880
v 0.324185 2.203883 -0.063825
v 0.324185 2.422921 -0.063825
v -0.329680 2.211174 0.017386
v -0.329680 2.415630 0.017386
v 0.324185 2.203883 0.058331
v 0.324185 2.422921 0.058331
v 0.106230 2.203883 -0.107681
v -0.111725 2.203883 -0.107681
v -0.111725 2.422921 -0.107681
v 0.106230 2.422921 -0.107681
v -0.111725 2.203883 0.102187
v 0.106230 2.203883 0.102187
v 0.106230 2.422921 0.102187
v -0.111725 2.422921 0.102187
vt 0.250000 1.000000
vt 0.375000 0.875000
vt 0.375000 1.000000
vt 0.250000 0.875000
vt 0.375000 1.000000
vt 0.250000 1.000000
vt 0.375000 1.000000
vt 0.250000 0.875000
vt 0.375000 0.875000
vt 0.375000 1.000000
vt 0.250000 0.875000
vt 0.375000 0.875000
vt 0.250000 0.875000
vt 0.375000 1.000000
vt 0.250000 1.000000
vt 0.250000 0.875000
vt 0.250000 1.000000
vt 0.375000 0.875000
vt 0.250000 1.000000
vt 0.250000 0.875000
vt 0.375000 1.000000
vt 0.250000 0.875000
vt 0.375000 0.875000
vt 0.250000 0.875000
vt 0.375000 1.000000
vt 0.250000 1.000000
vt 0.250000 0.875000
vt 0.375000 1.000000
vt 0.250000 1.000000
vt 0.375000 1.000000
vt 0.250000 0.875000
vt 0.375000 0.875000
vt 0.375000 1.000000
vt 0.375000 0.875000
vt 0.125000 0.875000
vt 0.250000 1.000000
vt 0.125000 1.000000
vt 0.125000 0.875000
vt 0.250000 1.000000
vt 0.125000 1.000000
vt 0.250000 1.000000
vt 0.125000 0.875000
vt 0.250000 0.875000
vt 0.250000 1.000000
vt 0.125000 0.875000
vt 0.250000 0.875000
vt 0.125000 0.875000
vt 0.250000 1.000000
vt 0.125000 1.000000
vt 0.125000 0.875000
vt 0.125000 1.000000
vt 0.250000 1.000000
vt 0.125000 0.875000
vt 0.250000 0.875000
vt 0.250000 1.000000
vt 0.250000 0.875000
vt 0.125000 0.875000
vt 0.250000 1.000000
vt 0.125000 1.000000
vt 0.125000 0.875000
vt 0.125000 1.000000
vt 0.250000 1.000000
vt 0.125000 0.875000
vt 0.250000 0.875000
vt 0.250000 1.000000
vt 0.250000 0.875000
vt 0.125000 0.875000
vt 0.250000 1.000000
vt 0.125000 1.000000
vt 0.125000 0.875000
vt 0.125000 1.000000
vt 0.250000 1.000000
vt 0.125000 0.875000
vt 0.250000 0.875000
vt 0.250000 1.000000
vt 0.250000 0.875000
vt 0.125000 0.875000
vt 0.250000 1.000000
vt 0.125000 1.000000
vt 0.125000 0.875000
vt 0.125000 1.000000
vt 0.250000 1.000000
vt 0.125000 0.875000
vt 0.250000 0.875000
vt 0.250000 1.000000
vt 0.250000 0.875000
vt 0.125000 0.875000
vt 0.250000 1.000000
vt 0.125000 1.000000
vt 0.125000 0.875000
vt 0.125000 1.000000
vt 0.250000 1.000000
vt 0.125000 0.875000
vt 0.250000 0.875000
vt 0.250000 1.000000
vt 0.250000 0.875000
vt 0.125000 0.875000
vt 0.250000 1.000000
vt 0.125000 1.000000
vt 0.125000 0.875000
vt 0.125000 1.000000
vt 0.250000 1.000000
vt 0.125000 0.875000
vt 0.250000 0.875000
vt 0.250000 1.000000
vt 0.250000 0.875000
vt 0.125000 0.875000
vt 0.250000 1.000000
vt 0.125000 1.000000
vt 0.125000 0.875000
vt 0.125000 1.000000
vt 0.250000 1.000000
vt 0.125000 0.875000
vt 0.250000 0.875000
vt 0.250000 1.000000
vt 0.250000 0.875000
vt 0.125000 0.875000
vt 0.250000 1.000000
vt 0.125000 1.000000
vt 0.125000 0.875000
vt 0.125000 1.000000
vt 0.250000 1.000000
vt 0.125000 0.875000
vt 0.250000 0.875000
vt 0.250000 1.000000
vt 0.250000 0.875000
vt 0.125000 0.875000
vt 0.250000 1.000000
vt 0.125000 1.000000
vt 0.125000 0.875000
vt 0.125000 1.000000
vt 0.250000 1.000000
vt 0.125000 0.875000
vt 0.250000 0.875000
vt 0.250000 1.000000
vt 0.250000 0.875000
vt 0.125000 0.875000
vt 0.250000 1.000000
vt 0.125000 1.000000
vt 0.125000 0.875000
vt 0.125000 1.000000
vt 0.250000 1.000000
vt 0.125000 0.875000
vt 0.250000 0.875000
vt 0.250000 1.000000
vt 0.250000 0.875000
vt 0.250000 0.875000
vt 0.375000 1.000000
vt 0.250000 1.000000
vt 0.250000 0.875000
vt 0.375000 1.000000
vt 0.250000 1.000000
vt 0.375000 1.000000
vt 0.250000 0.875000
vt 0.375000 0.875000
vt 0.375000 1.000000
vt 0.250000 0.875000
vt 0.375000 0.875000
vt 0.250000 0.875000
vt 0.375000 1.000000
vt 0.250000 1.000000
vt 0.250000 0.875000
vt 0.250000 1.000000
vt 0.375000 1.000000
vt 0.250000 0.875000
vt 0.375000 0.875000
vt 0.375000 1.000000
vt 0.375000 0.875000
vt 0.250000 0.875000
vt 0.375000 1.000000
vt 0.250000 1.000000
vt 0.250000 0.875000
vt 0.250000 1.000000
vt 0.375000 1.000000
vt 0.250000 0.875000
vt 0.375000 0.875000
vt 0.375000 1.000000
vt 0.375000 0.875000
vt 0.250000 0.875000
vt 0.375000 1.000000
vt 0.250000 1.000000
vt 0.250000 0.875000
vt 0.250000 1.000000
vt 0.375000 1.000000
vt 0.250000 0.875000
vt 0.375000 0.875000
vt 0.375000 1.000000
vt 0.375000 0.875000
vt 0.125000 0.875000
vt 0.000000 0.757727
vt 0.125000 0.757727
vt 0.000000 0.750000
vt 0.125000 0.867273
vt 0.000000 0.867273
vt 0.250000 0.882727
vt 0.375000 1.000000
vt 0.250000 1.000000
vt 0.250000 0.882727
vt 0.250000 1.000000
vt 0.125000 0.875000
vt 0.000000 0.757727
vt 0.125000 0.757727
vt 0.375000 0.992273
vt 0.250000 0.875000
vt 0.375000 0.875000
vt 0.000000 0.750000
vt 0.125000 0.867273
vt 0.000000 0.867273
vt -0.000000 0.750000
vt 0.125000 0.875000
vt -0.000000 0.875000
vt -0.000000 0.750000
vt -0.000000 0.875000
vt 0.125000 0.875000
vt -0.000000 0.750000
vt 0.125000 0.750000
vt 0.125000 0.875000
vt 0.125000 0.750000
vt -0.000000 0.750000
vt 0.125000 0.875000
vt -0.000000 0.875000
vt -0.000000 0.750000
vt -0.000000 0.875000
vt 0.125000 0.875000
vt -0.000000 0.750000
vt 0.125000 0.750000
vt 0.125000 0.875000
vt 0.125000 0.750000
vt -0.000000 0.750000
vt 0.125000 0.875000
vt -0.000000 0.875000
vt -0.000000 0.750000
vt -0.000000 0.875000
vt 0.125000 0.875000
vt -0.000000 0.750000
vt 0.125000 0.750000
vt 0.125000 0.875000
vt 0.125000 0.750000
vt -0.000000 0.750000
vt 0.125000 0.875000
vt -0.000000 0.875000
vt -0.000000 0.750000
vt -0.000000 0.875000
vt 0.125000 0.875000
vt -0.000000 0.750000
vt 0.125000 0.750000
vt 0.125000 0.875000
vt 0.125000 0.750000
vt 0.062500 -0.000000
vt 0.000000 0.062500
vt 0.000000 0.000000
vt 0.375000 0.750000
vt 0.250000 0.750000
vt 0.000000 0.875000
vt 0.375000 0.875000
vt 0.250000 0.875000
vt 0.000000 0.875000
vt 0.375000 0.875000
vt 0.250000 0.875000
vt 0.125000 0.750000
vt 0.250000 1.000000
vt 0.375000 1.000000
vt 0.125000 0.750000
vt 0.250000 1.000000
vt 0.375000 0.992273
vt 0.375000 1.000000
vt 0.375000 0.875000
vt 0.726562 0.054688
vt 1.000000 0.015625
vt 0.726562 0.015625
vt 0.726562 0.054688
vt 1.000000 0.015625
vt 0.726562 0.015625
vt 1.000000 0.054688
vt 0.726562 0.015625
vt 1.000000 0.054688
vt 1.000000 0.015625
vt 0.835938 0.093750
vt 0.757812 0.171875
vt 0.757812 0.093750
vt 0.757812 0.171875
vt 0.835938 0.093750
vt 0.835938 0.171875
vt 0.726562 0.054688
vt 1.000000 0.015625
vt 0.726562 0.015625
vt 0.726562 0.054688
vt 1.000000 0.015625
vt 0.726562 0.015625
vt 1.000000 0.054688
vt 0.726562 0.015625
vt 1.000000 0.054688
vt 1.000000 0.015625
vt 0.835938 0.093750
vt 0.757812 0.171875
vt 0.757812 0.093750
vt 0.757812 0.171875
vt 0.835938 0.093750
vt 0.835938 0.171875
vt 0.750000 0.625000
vt 0.625000 0.500000
vt 0.750000 0.500000
vt 1.000000 0.500000
vt 0.875000 0.375000
vt 1.000000 0.375000
vt 0.750000 0.625000
vt 0.625000 0.500000
vt 0.750000 0.500000
vt 1.000000 0.500000
vt 0.875000 0.375000
vt 1.000000 0.375000
vt 0.750000 0.750000
vt 0.625000 0.625000
vt 0.750000 0.625000
vt 0.750000 0.750000
vt 0.625000 0.625000
vt 1.000000 0.625000
vt 0.875000 0.750000
vt 0.875000 0.625000
vt 1.000000 0.750000
vt 0.875000 0.625000
vt 1.000000 0.625000
vt 0.875000 0.750000
vt 0.875000 0.500000
vt 1.000000 0.500000
vt 1.000000 0.625000
vt 0.875000 0.500000
vt 1.000000 0.500000
vt 0.875000 0.625000
vt 0.250000 1.000000
vt 0.375000 0.875000
vt 0.375000 0.875000
vt 0.375000 0.875000
vt 0.250000 1.000000
vt 0.250000 1.000000
vt 0.250000 0.875000
vt 0.125000 1.000000
vt 0.250000 0.875000
vt 0.125000 1.000000
vt 0.250000 0.875000
vt 0.125000 1.000000
vt 0.250000 0.875000
vt 0.125000 1.000000
vt 0.250000 0.875000
vt 0.125000 1.000000
vt 0.250000 0.875000
vt 0.125000 1.000000
vt 0.250000 0.875000
vt 0.125000 1.000000
vt 0.250000 0.875000
vt 0.125000 1.000000
vt 0.250000 0.875000
vt 0.125000 1.000000
vt 0.250000 0.875000
vt 0.125000 1.000000
vt 0.250000 0.875000
vt 0.250000 0.875000
vt 0.125000 1.000000
vt 0.125000 1.000000
vt 0.375000 0.875000
vt 0.250000 1.000000
vt 0.375000 0.875000
vt 0.250000 1.000000
vt 0.375000 0.875000
vt 0.250000 1.000000
vt 0.375000 0.875000
vt 0.250000 1.000000
vt 0.375000 0.882727
vt 0.375000 0.882727
vt 0.000000 0.875000
vt 0.250000 0.992273
vt 0.125000 0.750000
vt 0.125000 0.750000
vt -0.000000 0.875000
vt 0.125000 0.750000
vt -0.000000 0.875000
vt 0.125000 0.750000
vt -0.000000 0.875000
vt 0.125000 0.750000
vt 0.125000 0.750000
vt -0.000000 0.875000
vt -0.000000 0.875000
vt 0.062500 0.062500
vt 0.125000 0.875000
vt 0.125000 0.875000
vt 0.000000 0.750000
vt 0.000000 0.750000
vt 0.250000 0.992273
vt 1.000000 0.054688
vt 0.726562 0.054688
vt 0.835938 0.171875
vt 0.757812 0.093750
vt 1.000000 0.054688
vt 0.726562 0.054688
vt 0.835938 0.171875
vt 0.757812 0.093750
vt 0.625000 0.625000
vt 0.875000 0.500000
vt 0.875000 0.500000
vt 0.625000 0.750000
vt 0.625000 0.750000
vt 1.000000 0.750000
vn 0.0000 0.0000 -1.0000
vn 0.9651 0.2620 -0.0000
vn 0.9053 0.4248 0.0000
vn -0.0000 -0.0000 1.0000
vn -0.9669 -0.2553 -0.0000
vn -0.9127 -0.4087 -0.0000
vn 0.9990 0.0457 -0.0000
vn -0.9989 -0.0477 -0.0000
vn 1.0000 0.0000 0.0000
vn -1.0000 0.0000 0.0000
vn 0.0000 1.0000 0.0000
vn 0.3588 -0.9334 0.0000
vn 0.0000 -0.6978 -0.7163
vn 0.0000 0.6978 -0.7163
vn 0.7163 -0.6978 0.0000
vn 0.7163 0.6978 0.0000
vn 0.0000 -0.6978 0.7163
vn 0.0000 0.6978 0.7163
vn -0.7163 -0.6978 0.0000
vn -0.7163 0.6978 0.0000
vn 0.0000 -1.0000 0.0000
vn 0.0991 0.0000 -0.9951
vn 0.1973 0.0000 -0.9804
vn -0.1826 0.0000 0.9832
vn -0.3626 0.0000 0.9319
vn -0.0145 -0.9999 -0.0000
vn -0.0334 -0.9994 -0.0000
vn -0.0145 0.9999 -0.0000
vn -0.0334 0.9994 0.0000
vn 0.1973 0.0000 0.9804
vn 0.0991 0.0000 0.9951
vn -0.3626 0.0000 -0.9319
vn -0.1826 0.0000 -0.9832
s 1
f 1/1/1 4/2/1 3/3/1
f 4/4/2 7/5/3 3/6/3
f 8/7/4 5/8/4 7/9/4
f 6/10/5 1/11/6 5/12/6
f 9/13/1 4/14/1 2/15/1
f 10/16/7 8/7/2 4/17/2
f 8/18/4 11/19/4 6/20/4
f 11/21/8 2/22/5 6/23/5
f 13/24/1 10/25/1 9/26/1
f 14/27/9 12/28/7 10/29/7
f 16/30/4 11/31/4 12/32/4
f 15/33/10 9/13/8 11/34/8
f 17/35/1 14/36/1 13/37/1
f 18/38/9 16/39/9 14/40/9
f 20/41/4 15/42/4 16/43/4
f 19/44/10 13/45/10 15/46/10
f 21/47/1 18/48/1 17/49/1
f 22/50/9 20/41/9 18/51/9
f 24/52/4 19/53/4 20/54/4
f 23/55/10 17/35/10 19/56/10
f 25/57/1 22/58/1 21/59/1
f 26/60/9 24/52/9 22/61/9
f 28/62/4 23/63/4 24/64/4
f 27/65/10 21/47/10 23/66/10
f 29/67/1 26/68/1 25/69/1
f 30/70/9 28/62/9 26/71/9
f 32/72/4 27/73/4 28/74/4
f 31/75/10 25/57/10 27/76/10
f 33/77/1 30/78/1 29/79/1
f 34/80/9 32/72/9 30/81/9
f 36/82/4 31/83/4 32/84/4
f 35/85/10 29/67/10 31/86/10
f 37/87/1 34/88/1 33/89/1
f 38/90/9 36/82/9 34/91/9
f 40/92/4 35/93/4 36/94/4
f 39/95/10 33/77/10 35/96/10
f 41/97/1 38/98/1 37/99/1
f 42/100/9 40/92/9 38/101/9
f 44/102/4 39/103/4 40/104/4
f 43/105/10 37/87/10 39/106/10
f 45/107/1 42/108/1 41/109/1
f 46/110/9 44/102/9 42/111/9
f 48/112/4 43/113/4 44/114/4
f 47/115/10 41/97/10 43/116/10
f 49/117/1 46/118/1 45/119/1
f 50/120/9 48/112/9 46/121/9
f 52/122/4 47/123/4 48/124/4
f 51/125/10 45/107/10 47/126/10
f 53/127/1 50/128/1 49/129/1
f 54/130/9 52/122/9 50/131/9
f 56/132/4 51/133/4 52/134/4
f 55/135/10 49/117/10 51/136/10
f 57/137/1 54/138/1 53/139/1
f 58/140/9 56/132/9 54/141/9
f 60/142/4 55/143/4 56/144/4
f 59/145/10 53/127/10 55/146/10
f 61/147/1 58/148/1 57/149/1
f 62/150/9 60/151/9 58/152/9
f 64/153/4 59/154/4 60/155/4
f 63/156/10 57/157/10 59/158/10
f 65/159/1 62/160/1 61/161/1
f 66/162/9 64/153/9 62/163/9
f 68/164/4 63/165/4 64/166/4
f 67/167/10 61/147/10 63/168/10
f 69/169/1 66/170/1 65/171/1
f 70/172/9 68/164/9 66/173/9
f 72/174/4 67/175/4 68/176/4
f 71/177/10 65/159/10 67/178/10
f 73/179/1 70/180/1 69/181/1
f 74/182/9 72/174/9 70/183/9
f 76/184/4 71/185/4 72/186/4
f 75/187/10 69/169/10 71/188/10
f 79/189/10 98/190/10 103/191/10
f 78/192/9 106/193/9 100/194/9
f 97/195/1 74/196/1 73/197/1
f 101/198/9 76/184/9 74/199/9
f 80/200/4 103/201/4 106/202/4
f 107/203/4 75/204/4 76/205/4
f 77/206/1 100/207/1 98/208/1
f 81/209/1 78/210/1 77/211/1
f 82/212/9 80/200/9 78/213/9
f 84/214/4 79/215/4 80/216/4
f 83/217/10 77/206/10 79/218/10
f 85/219/1 82/220/1 81/221/1
f 86/222/9 84/214/9 82/223/9
f 88/224/4 83/225/4 84/226/4
f 87/227/10 81/209/10 83/228/10
f 89/229/1 86/230/1 85/231/1
f 90/232/9 88/224/9 86/233/9
f 92/234/4 87/235/4 88/236/4
f 91/237/10 85/219/10 87/238/10
f 93/239/1 90/240/1 89/241/1
f 94/242/9 92/234/9 90/243/9
f 96/244/4 91/245/4 92/246/4
f 95/247/10 89/229/10 91/248/10
f 95/249/11 94/250/11 93/251/11
f 7/252/12 1/11/12 3/253/12
f 100/207/13 99/254/13 98/208/13
f 102/255/14 97/195/14 99/256/14
f 106/193/15 102/257/15 100/194/15
f 108/258/16 101/198/16 102/259/16
f 103/201/17 108/260/17 106/202/17
f 105/261/18 107/203/18 108/262/18
f 98/190/19 105/263/19 103/191/19
f 99/264/20 104/265/20 105/266/20
f 104/265/10 73/179/10 75/267/10
f 110/268/1 111/269/1 109/270/1
f 112/271/9 115/272/9 111/273/9
f 116/274/4 113/275/4 115/272/4
f 114/276/10 109/270/10 113/277/10
f 115/278/21 109/279/21 111/280/21
f 112/281/11 114/282/11 116/283/11
f 118/284/1 119/285/1 117/286/1
f 120/287/9 123/288/9 119/289/9
f 124/290/4 121/291/4 123/288/4
f 122/292/10 117/286/10 121/293/10
f 123/294/21 117/295/21 119/296/21
f 120/297/11 122/298/11 124/299/11
f 136/300/22 127/301/23 133/302/22
f 128/303/9 131/304/9 127/305/9
f 140/306/24 129/307/25 137/308/24
f 130/309/10 125/310/10 129/311/10
f 137/312/26 125/313/27 134/314/26
f 135/315/28 130/316/29 140/306/28
f 132/317/11 136/318/11 139/319/11
f 139/319/11 135/315/28 140/306/28
f 131/320/21 133/321/21 127/322/21
f 138/323/21 134/314/26 133/321/21
f 132/317/30 138/324/31 131/325/30
f 139/319/31 137/308/24 138/324/31
f 126/326/32 134/327/33 125/328/32
f 135/329/33 133/302/22 134/327/33
f 1/1/1 2/22/1 4/2/1
f 4/4/2 8/18/2 7/5/3
f 8/7/4 6/330/4 5/8/4
f 6/10/5 2/15/5 1/11/6
f 9/13/1 10/331/1 4/14/1
f 10/16/7 12/32/7 8/7/2
f 8/18/4 12/28/4 11/19/4
f 11/21/8 9/26/8 2/22/5
f 13/24/1 14/332/1 10/25/1
f 14/27/9 16/333/9 12/28/7
f 16/30/4 15/334/4 11/31/4
f 15/33/10 13/335/10 9/13/8
f 17/35/1 18/336/1 14/36/1
f 18/38/9 20/54/9 16/39/9
f 20/41/4 19/337/4 15/42/4
f 19/44/10 17/49/10 13/45/10
f 21/47/1 22/338/1 18/48/1
f 22/50/9 24/64/9 20/41/9
f 24/52/4 23/339/4 19/53/4
f 23/55/10 21/59/10 17/35/10
f 25/57/1 26/340/1 22/58/1
f 26/60/9 28/74/9 24/52/9
f 28/62/4 27/341/4 23/63/4
f 27/65/10 25/69/10 21/47/10
f 29/67/1 30/342/1 26/68/1
f 30/70/9 32/84/9 28/62/9
f 32/72/4 31/343/4 27/73/4
f 31/75/10 29/79/10 25/57/10
f 33/77/1 34/344/1 30/78/1
f 34/80/9 36/94/9 32/72/9
f 36/82/4 35/345/4 31/83/4
f 35/85/10 33/89/10 29/67/10
f 37/87/1 38/346/1 34/88/1
f 38/90/9 40/104/9 36/82/9
f 40/92/4 39/347/4 35/93/4
f 39/95/10 37/99/10 33/77/10
f 41/97/1 42/348/1 38/98/1
f 42/100/9 44/114/9 40/92/9
f 44/102/4 43/349/4 39/103/4
f 43/105/10 41/109/10 37/87/10
f 45/107/1 46/350/1 42/108/1
f 46/110/9 48/124/9 44/102/9
f 48/112/4 47/351/4 43/113/4
f 47/115/10 45/119/10 41/97/10
f 49/117/1 50/352/1 46/118/1
f 50/120/9 52/134/9 48/112/9
f 52/122/4 51/353/4 47/123/4
f 51/125/10 49/129/10 45/107/10
f 53/127/1 54/354/1 50/128/1
f 54/130/9 56/144/9 52/122/9
f 56/132/4 55/355/4 51/133/4
f 55/135/10 53/139/10 49/117/10
f 57/137/1 58/356/1 54/138/1
f 58/140/9 60/357/9 56/132/9
f 60/142/4 59/358/4 55/143/4
f 59/145/10 57/359/10 53/127/10
f 61/147/1 62/360/1 58/148/1
f 62/150/9 64/166/9 60/151/9
f 64/153/4 63/361/4 59/154/4
f 63/156/10 61/161/10 57/157/10
f 65/159/1 66/362/1 62/160/1
f 66/162/9 68/176/9 64/153/9
f 68/164/4 67/363/4 63/165/4
f 67/167/10 65/171/10 61/147/10
f 69/169/1 70/364/1 66/170/1
f 70/172/9 72/186/9 68/164/9
f 72/174/4 71/365/4 67/175/4
f 71/177/10 69/181/10 65/159/10
f 73/179/1 74/366/1 70/180/1
f 74/182/9 76/205/9 72/174/9
f 76/184/4 75/367/4 71/185/4
f 75/187/10 73/197/10 69/169/10
f 79/189/10 77/211/10 98/190/10
f 78/192/9 80/216/9 106/193/9
f 97/195/1 101/368/1 74/196/1
f 101/198/9 107/369/9 76/184/9
f 80/200/4 79/370/4 103/201/4
f 107/203/4 104/371/4 75/204/4
f 77/206/1 78/372/1 100/207/1
f 81/209/1 82/373/1 78/210/1
f 82/212/9 84/226/9 80/200/9
f 84/214/4 83/374/4 79/215/4
f 83/217/10 81/221/10 77/206/10
f 85/219/1 86/375/1 82/220/1
f 86/222/9 88/236/9 84/214/9
f 88/224/4 87/376/4 83/225/4
f 87/227/10 85/231/10 81/209/10
f 89/229/1 90/377/1 86/230/1
f 90/232/9 92/246/9 88/224/9
f 92/234/4 91/378/4 87/235/4
f 91/237/10 89/241/10 85/219/10
f 93/239/1 94/379/1 90/240/1
f 94/242/9 96/380/9 92/234/9
f 96/244/4 95/381/4 91/245/4
f 95/247/10 93/382/10 89/229/10
f 95/249/11 96/383/11 94/250/11
f 7/252/12 5/12/12 1/11/12
f 100/207/13 102/384/13 99/254/13
f 102/255/14 101/368/14 97/195/14
f 106/193/15 108/385/15 102/257/15
f 108/258/16 107/369/16 101/198/16
f 103/201/17 105/386/17 108/260/17
f 105/261/18 104/371/18 107/203/18
f 98/190/19 99/387/19 105/263/19
f 99/264/20 97/388/20 104/265/20
f 104/265/10 97/388/10 73/179/10
f 110/268/1 112/389/1 111/269/1
f 112/271/9 116/274/9 115/272/9
f 116/274/4 114/390/4 113/275/4
f 114/276/10 110/268/10 109/270/10
f 115/278/21 113/391/21 109/279/21
f 112/281/11 110/392/11 114/282/11
f 118/284/1 120/393/1 119/285/1
f 120/287/9 124/290/9 123/288/9
f 124/290/4 122/394/4 121/291/4
f 122/292/10 118/284/10 117/286/10
f 123/294/21 121/395/21 117/295/21
f 120/297/11 118/396/11 122/298/11
f 136/300/22 128/397/23 127/301/23
f 128/303/9 132/398/9 131/304/9
f 140/306/24 130/316/25 129/307/25
f 130/309/10 126/399/10 125/310/10
f 137/312/26 129/400/27 125/313/27
f 135/315/28 126/401/29 130/316/29
f 132/317/11 128/402/11 136/318/11
f 139/319/11 136/318/11 135/315/28
f 131/320/21 138/323/21 133/321/21
f 138/323/21 137/312/26 134/314/26
f 132/317/30 139/319/31 138/324/31
f 139/319/31 140/306/24 137/308/24
f 126/326/32 135/329/33 134/327/33
f 135/329/33 136/300/22 133/302/22
