# Blender v2.79 (sub 0) OBJ File: 'Twohanded.blend'
# www.blender.org
o Zweihander
v -0.053016 -0.795635 0.053016
v -0.057076 -0.675341 0.057076
v -0.053016 -0.795635 -0.053016
v -0.057076 -0.675341 -0.057076
v 0.053016 -0.795635 0.053016
v 0.057076 -0.675341 0.057076
v 0.053016 -0.795635 -0.053016
v 0.057076 -0.675341 -0.057076
v -0.064909 -0.522030 0.064909
v -0.064909 -0.522030 -0.064909
v 0.064909 -0.522030 0.064909
v -0.069992 -0.353009 -0.069992
v 0.064909 -0.522030 -0.064909
v 0.069992 -0.353009 -0.069992
v -0.069992 -0.353009 0.069992
v -0.070115 -0.204537 0.070115
v -0.070115 -0.204537 -0.070115
v 0.069992 -0.353009 0.069992
v 0.070115 -0.204537 0.070115
v 0.070115 -0.194781 -0.070115
v -0.070115 -0.204537 0.042152
v -0.070115 -0.204537 -0.042152
v -0.070115 -0.056762 -0.042152
v 0.070115 -0.204537 0.042152
v 0.070115 -0.204537 -0.042152
v -0.070115 -0.056762 0.042152
v -0.070115 0.091012 0.042152
v 0.070115 -0.056762 0.042152
v 0.070115 -0.056762 -0.042152
v 0.070115 0.091012 -0.042152
v -0.070115 0.248543 0.042152
v -0.070115 0.091012 -0.042152
v -0.070115 0.248543 -0.042152
v 0.070115 0.091012 0.042152
v 0.070115 0.248543 0.042152
v 0.070115 0.248543 -0.042152
v -0.069028 -0.915205 0.069028
v -0.069028 -0.777148 0.069028
v -0.069028 -0.915205 -0.069028
v -0.069028 -0.777148 -0.069028
v 0.069028 -0.915205 0.069028
v 0.069028 -0.777148 0.069028
v 0.069028 -0.915205 -0.069028
v 0.069028 -0.777148 -0.069028
v 0.367761 -0.180090 0.036322
v 0.367761 -0.102919 0.036322
v 0.367761 -0.180090 -0.036322
v 0.367761 -0.102919 -0.036322
v 0.076519 -0.252681 -0.084111
v 0.076519 -0.175510 -0.084111
v 0.076519 -0.252681 0.084111
v 0.076519 -0.175510 0.084111
v 0.168786 0.285942 0.007848
v 0.168786 0.345837 0.007848
v 0.168786 0.285942 -0.007848
v 0.168786 0.345837 -0.007848
v 0.041885 0.239093 -0.057330
v 0.041885 0.298988 -0.057330
v 0.041885 0.239093 0.057330
v 0.041885 0.298988 0.057330
v -0.367761 -0.180090 0.036322
v -0.367761 -0.102919 0.036322
v -0.367761 -0.180090 -0.036322
v -0.367761 -0.102919 -0.036322
v -0.076519 -0.252681 -0.084111
v -0.076519 -0.175510 -0.084111
v -0.076519 -0.252681 0.084111
v -0.076519 -0.175510 0.084111
v 0.000000 -0.252681 -0.084111
v 0.000000 -0.175510 -0.084111
v 0.000000 -0.252681 0.084111
v 0.000000 -0.175510 0.084111
v -0.168786 0.285942 0.007848
v -0.168786 0.345837 0.007848
v -0.168786 0.285942 -0.007848
v -0.168786 0.345837 -0.007848
v -0.041885 0.239093 -0.057330
v -0.041885 0.298988 -0.057330
v -0.041885 0.239093 0.057330
v -0.041885 0.298988 0.057330
v -0.000000 0.239093 -0.057330
v -0.000000 0.298988 -0.057330
v -0.000000 0.239093 0.057330
v -0.000000 0.298988 0.057330
v 0.103067 0.366647 -0.019637
v 0.103067 0.294648 -0.019637
v 0.103067 0.366647 0.019637
v 0.103067 0.294648 0.019637
v -0.103067 0.366647 -0.019637
v -0.103067 0.294648 -0.019637
v -0.103067 0.366647 0.019637
v -0.103067 0.294648 0.019637
v 0.000000 0.366647 0.037440
v 0.000000 0.294648 0.037440
v 0.000000 0.366647 -0.037440
v 0.000000 0.294648 -0.037440
v 0.222140 -0.151272 -0.060216
v 0.222140 -0.228442 0.060216
v 0.222140 -0.228442 -0.060216
v 0.222140 -0.151272 0.060216
v -0.222140 -0.151272 -0.060216
v -0.222140 -0.228442 0.060216
v -0.222140 -0.228442 -0.060216
v -0.222140 -0.151272 0.060216
v 0.015104 2.730564 0.003049
v -0.015104 2.730564 0.003049
v 0.089550 0.340336 0.003049
v -0.089550 0.340336 0.003049
v 0.054529 2.609499 0.003049
v -0.054529 2.609499 0.003049
v 0.015104 2.730564 -0.003049
v -0.015104 2.730564 -0.003049
v 0.089550 0.340336 -0.003049
v -0.089550 0.340336 -0.003049
v 0.054529 2.609499 -0.003049
v -0.054529 2.609499 -0.003049
v 0.000000 2.730564 0.003049
v 0.000000 0.340336 0.017000
v 0.000000 2.609499 0.017000
v 0.000000 2.730564 -0.003049
v 0.000000 0.340336 -0.017000
v 0.000000 2.609499 -0.017000
vt 0.898438 0.000000
vt 1.000000 0.070312
vt 0.898438 0.070312
vt 0.710938 -0.000000
vt 0.789062 0.070312
vt 0.710938 0.070312
vt 0.898438 0.070312
vt 0.796875 0.000000
vt 0.898438 0.000000
vt 0.765625 0.179688
vt 0.867188 0.078125
vt 0.867188 0.179688
vt 0.789062 0.070312
vt 0.710938 -0.000000
vt 0.789062 -0.000000
vt 0.968750 0.078125
vt 0.968750 0.179688
vt 1.000000 0.070312
vt 1.000000 0.000000
vt 0.796875 0.000000
vt 0.796875 0.070312
vt 1.000000 0.000000
vt 0.789062 -0.000000
vt 0.796875 0.070312
vt 0.765625 0.078125
vt 0.710938 0.070312
vt 0.125000 0.875000
vt 0.250000 1.000000
vt 0.125000 1.000000
vt 0.125000 0.875000
vt 0.250000 1.000000
vt 0.125000 1.000000
vt 0.250000 1.000000
vt 0.125000 0.875000
vt 0.250000 0.875000
vt 0.250000 1.000000
vt 0.125000 0.875000
vt 0.250000 0.875000
vt 0.125000 0.875000
vt 0.250000 1.000000
vt 0.125000 1.000000
vt 0.125000 0.875000
vt 0.125000 1.000000
vt 0.250000 1.000000
vt 0.125000 0.875000
vt 0.250000 0.875000
vt 0.250000 1.000000
vt 0.250000 0.875000
vt 0.125000 0.875000
vt 0.250000 1.000000
vt 0.125000 1.000000
vt 0.125000 0.875000
vt 0.125000 1.000000
vt 0.250000 1.000000
vt 0.125000 0.875000
vt 0.250000 0.875000
vt 0.250000 1.000000
vt 0.250000 0.875000
vt 0.125000 0.875000
vt 0.250000 1.000000
vt 0.125000 1.000000
vt 0.125000 0.875000
vt 0.125000 1.000000
vt 0.250000 0.875000
vt 0.125000 1.000000
vt 0.125000 0.875000
vt 0.250000 1.000000
vt 0.250000 0.875000
vt 0.000000 0.750000
vt 0.125000 0.875000
vt 0.000000 0.875000
vt 0.000000 0.750000
vt 0.125000 0.875000
vt 0.000000 0.875000
vt 0.125000 0.875000
vt 0.000000 0.750000
vt 0.125000 0.750000
vt 0.125000 0.875000
vt 0.000000 0.750000
vt 0.125000 0.750000
vt 0.000000 0.750000
vt 0.125000 0.875000
vt 0.000000 0.875000
vt 0.000000 0.750000
vt 0.000000 0.875000
vt 0.125000 0.875000
vt 0.000000 0.750000
vt 0.125000 0.750000
vt 0.125000 0.875000
vt 0.125000 0.750000
vt 0.000000 0.750000
vt 0.125000 0.875000
vt 0.000000 0.875000
vt 0.000000 0.750000
vt 0.000000 0.875000
vt 0.125000 0.875000
vt 0.000000 0.750000
vt 0.125000 0.750000
vt 0.125000 0.875000
vt 0.125000 0.750000
vt 0.062500 0.062500
vt -0.000000 -0.000000
vt 0.062500 -0.000000
vt 0.062500 0.062500
vt -0.000000 -0.000000
vt 0.062500 -0.000000
vt 0.062500 0.062500
vt -0.000000 -0.000000
vt 0.062500 -0.000000
vt 0.062500 0.062500
vt -0.000000 -0.000000
vt 0.062500 -0.000000
vt -0.000000 0.062500
vt -0.000000 0.062500
vt 0.062500 -0.000000
vt 0.898438 0.070312
vt 1.000000 0.000000
vt 0.898438 0.000000
vt 0.750000 0.070312
vt 0.609375 -0.000000
vt 0.750000 -0.000000
vt 0.902344 0.195312
vt 1.000000 0.070312
vt 0.902344 0.070312
vt 0.804688 0.195312
vt 0.902344 0.070312
vt 0.902344 0.195312
vt 0.804688 0.195312
vt 0.750000 0.070312
vt 0.750000 0.195312
vt 0.898438 0.000000
vt 0.796875 0.070312
vt 0.796875 0.000000
vt 0.750000 0.070312
vt 0.796875 0.000000
vt 0.750000 0.000000
vt 0.750000 0.000000
vt 0.750000 0.195312
vt 0.804688 0.070312
vt 0.796875 0.070312
vt 1.000000 0.000000
vt 0.796875 0.000000
vt 0.750000 0.070312
vt 0.609375 -0.000000
vt 0.750000 -0.000000
vt 1.000000 0.195312
vt 0.804688 0.070312
vt 0.804688 0.195312
vt 0.804688 0.195312
vt 1.000000 0.070312
vt 1.000000 0.195312
vt 0.750000 0.070312
vt 0.750000 0.195312
vt 1.000000 0.000000
vt 0.796875 0.070312
vt 0.796875 0.000000
vt 0.750000 0.070312
vt 0.750000 0.000000
vt 0.750000 0.000000
vt 0.750000 0.195312
vt 0.804688 0.070312
vt 1.000000 0.000000
vt 0.898438 0.070312
vt 0.898438 0.000000
vt 0.609375 -0.000000
vt 0.750000 0.070312
vt 0.750000 -0.000000
vt 0.902344 0.195312
vt 1.000000 0.070312
vt 1.000000 0.195312
vt 0.902344 0.070312
vt 0.804688 0.195312
vt 0.902344 0.195312
vt 0.804688 0.195312
vt 0.898438 0.000000
vt 0.796875 0.070312
vt 0.898438 0.070312
vt 0.796875 0.000000
vt 0.796875 0.000000
vt 0.804688 0.070312
vt 1.000000 0.000000
vt 0.796875 0.070312
vt 0.796875 0.000000
vt 0.609375 -0.000000
vt 0.750000 0.070312
vt 0.750000 -0.000000
vt 0.804688 0.070312
vt 1.000000 0.195312
vt 0.804688 0.195312
vt 1.000000 0.070312
vt 0.804688 0.195312
vt 1.000000 0.195312
vt 1.000000 0.000000
vt 0.796875 0.070312
vt 0.796875 0.000000
vt 0.804688 0.070312
vt 1.000000 0.000000
vt 0.898438 0.070312
vt 1.000000 0.195312
vt 1.000000 0.070312
vt 0.804688 0.070312
vt 0.796875 0.070312
vt 1.000000 0.000000
vt 1.000000 0.070312
vt 1.000000 0.195312
vt 0.804688 0.070312
vt 0.796875 0.070312
vt 0.031250 0.679688
vt 0.038413 0.710938
vt 0.031250 0.710938
vt 0.018525 0.679688
vt 0.031250 0.078125
vt 0.002598 0.078125
vt 0.031250 0.679688
vt 0.038413 0.710938
vt 0.043975 0.679688
vt 0.021187 0.667768
vt 0.008590 0.091351
vt 0.021187 0.667768
vt 0.018525 0.679688
vt 0.031250 0.078125
vt 0.036915 0.697711
vt 0.031250 0.697711
vt 0.031250 0.697711
vt 0.041313 0.667768
vt 0.036915 0.697711
vt 0.025585 0.697711
vt 0.025585 0.697711
vt 0.053910 0.091351
vt 0.041313 0.667768
vt 0.043975 0.679688
vt 0.059902 0.078125
vt 0.024087 0.710938
vt 0.059902 0.078125
vt 0.024087 0.710938
vt 0.250000 0.875000
vt 0.125000 1.000000
vt 0.250000 0.875000
vt 0.125000 1.000000
vt 0.250000 0.875000
vt 0.125000 1.000000
vt 0.250000 0.875000
vt 0.250000 0.875000
vt 0.250000 1.000000
vt 0.125000 1.000000
vt 0.125000 0.750000
vt 0.000000 0.875000
vt 0.125000 0.750000
vt 0.000000 0.875000
vt 0.125000 0.750000
vt 0.125000 0.750000
vt 0.000000 0.875000
vt 0.000000 0.875000
vt -0.000000 0.062500
vt -0.000000 0.062500
vt -0.000000 0.062500
vt 0.062500 0.062500
vt -0.000000 -0.000000
vt 1.000000 0.070312
vt 0.609375 0.070312
vt 1.000000 0.195312
vt 0.750000 0.070312
vt 1.000000 0.070312
vt 0.609375 0.070312
vt 1.000000 0.070312
vt 0.750000 0.070312
vt 1.000000 0.070312
vt 0.609375 0.070312
vt 0.902344 0.070312
vt 1.000000 0.070312
vt 0.609375 0.070312
vt 1.000000 0.070312
vt 0.031250 0.710938
vt 0.008590 0.091351
vt 0.002598 0.078125
vt 0.053910 0.091351
vn 0.1702 0.0000 -0.9854
vn -1.0000 0.0000 0.0000
vn -0.1702 0.0000 0.9854
vn 0.0000 1.0000 0.0000
vn 1.0000 0.0000 0.0000
vn 0.1702 0.0000 0.9854
vn -0.1702 0.0000 -0.9854
vn -0.9991 -0.0426 0.0000
vn -0.9994 -0.0337 0.0000
vn 0.0000 -0.0426 -0.9991
vn 0.0000 -0.0337 -0.9994
vn 0.9991 -0.0426 0.0000
vn 0.9994 -0.0337 0.0000
vn 0.0000 -0.0426 0.9991
vn 0.0000 -0.0337 0.9994
vn -0.9992 -0.0403 0.0000
vn 0.0000 -0.0403 -0.9992
vn 0.9992 -0.0403 0.0000
vn 0.0000 -0.0403 0.9992
vn -0.9999 -0.0153 0.0000
vn 0.0000 -0.0153 -0.9999
vn 0.9999 -0.0153 -0.0000
vn 0.0000 -0.0153 0.9999
vn -1.0000 -0.0008 0.0000
vn 0.0000 -0.0008 -1.0000
vn 1.0000 -0.0008 -0.0000
vn 0.0000 -0.0008 1.0000
vn 0.0000 0.0000 -1.0000
vn 0.0000 0.0000 1.0000
vn 0.0000 -1.0000 0.0000
vn 0.1619 0.0000 -0.9868
vn 0.2328 -0.9725 0.0000
vn 0.3151 -0.9490 0.0000
vn -0.0779 0.9970 -0.0000
vn -0.2328 0.9725 0.0000
vn 0.0779 -0.9970 0.0000
vn 0.1619 0.0000 0.9868
vn 0.0852 0.0000 0.9964
vn 0.0768 0.0000 0.9970
vn 0.0768 0.0000 -0.9970
vn 0.2024 0.0000 -0.9793
vn 0.3633 0.0000 -0.9317
vn 0.1630 0.0000 -0.9866
vn 0.3463 -0.9381 0.0000
vn 0.1538 -0.9881 0.0000
vn -0.1538 0.9881 0.0000
vn -0.3463 0.9381 0.0000
vn 0.3633 0.0000 0.9317
vn 0.2024 0.0000 0.9793
vn 0.1630 0.0000 0.9866
vn -0.1619 0.0000 -0.9868
vn -0.2328 -0.9725 0.0000
vn -0.3151 -0.9490 0.0000
vn 0.2328 0.9725 0.0000
vn 0.0779 0.9970 0.0000
vn -0.0779 -0.9970 0.0000
vn -0.1619 0.0000 0.9868
vn -0.0852 0.0000 0.9964
vn -0.0768 0.0000 -0.9970
vn -0.0768 0.0000 0.9970
vn -0.3633 0.0000 -0.9317
vn -0.2024 0.0000 -0.9793
vn -0.1630 0.0000 -0.9866
vn -0.1538 -0.9881 0.0000
vn -0.3463 -0.9381 0.0000
vn 0.3463 0.9381 0.0000
vn 0.1538 0.9881 0.0000
vn -0.3633 0.0000 0.9317
vn -0.2024 0.0000 0.9793
vn -0.1630 0.0000 0.9866
vn -0.3151 0.9490 0.0000
vn 0.0852 0.0000 -0.9964
vn 0.3151 0.9490 0.0000
vn -0.0852 0.0000 -0.9964
vn 0.0000 0.0426 0.9991
vn 0.0592 0.1070 0.9925
vn 0.0000 0.1145 0.9934
vn -0.2464 0.0358 -0.9685
vn 0.0000 0.0024 -1.0000
vn -0.1539 0.0024 -0.9881
vn 0.0000 0.0426 -0.9991
vn 0.0592 0.1070 -0.9925
vn 0.2464 0.0358 -0.9685
vn -0.9864 0.1644 0.0000
vn -0.9999 0.0154 0.0000
vn -0.2464 0.0358 0.9685
vn 0.0000 0.0024 1.0000
vn 0.9864 0.1644 0.0000
vn 0.9509 0.3096 0.0000
vn -0.9509 0.3096 0.0000
vn 0.9999 0.0154 0.0000
vn 0.2464 0.0358 0.9685
vn 0.1539 0.0024 0.9881
vn -0.0592 0.1070 -0.9925
vn 0.1539 0.0024 -0.9881
vn -0.0592 0.1070 0.9925
vn 0.0001 -0.0008 -1.0000
vn 1.0000 -0.0008 -0.0001
vn 0.0000 0.1145 -0.9934
vn -0.1539 0.0024 0.9881
s off
f 95/1/1 86/2/1 96/3/1
f 91/4/2 90/5/2 92/6/2
f 93/7/3 92/8/3 94/9/3
f 89/10/4 93/11/4 95/12/4
f 85/13/5 88/14/5 86/15/5
f 95/12/4 87/16/4 85/17/4
f 87/18/6 94/9/6 88/19/6
f 89/20/7 96/3/7 90/21/7
f 95/1/1 85/22/1 86/2/1
f 91/4/2 89/23/2 90/5/2
f 93/7/3 91/24/3 92/8/3
f 89/10/4 91/25/4 93/11/4
f 85/13/5 87/26/5 88/14/5
f 95/12/4 93/11/4 87/16/4
f 87/18/6 93/7/6 94/9/6
f 89/20/7 95/1/7 96/3/7
s 1
f 2/27/8 3/28/9 1/29/9
f 4/30/10 7/31/11 3/32/11
f 8/33/12 5/34/13 7/35/13
f 6/36/14 1/37/15 5/38/15
f 9/39/16 4/40/8 2/41/8
f 10/42/17 8/33/10 4/43/10
f 13/44/18 6/45/12 8/46/12
f 11/47/19 2/27/14 6/48/14
f 15/49/20 10/50/16 9/51/16
f 12/52/21 13/44/17 10/53/17
f 14/54/22 11/55/18 13/56/18
f 18/57/23 9/39/19 11/58/19
f 16/59/24 12/60/20 15/61/20
f 17/62/25 14/54/21 12/63/21
f 14/64/22 19/65/26 18/66/22
f 19/67/27 15/49/23 18/68/23
f 26/69/2 22/70/2 21/71/2
f 23/72/28 25/73/28 22/74/28
f 29/75/5 24/76/5 25/77/5
f 28/78/29 21/79/29 24/80/29
f 27/81/2 23/82/2 26/83/2
f 32/84/28 29/75/28 23/85/28
f 30/86/5 28/87/5 29/88/5
f 34/89/29 26/69/29 28/90/29
f 31/91/2 32/92/2 27/93/2
f 33/94/28 30/86/28 32/95/28
f 36/96/5 34/97/5 30/98/5
f 35/99/29 27/81/29 34/100/29
f 38/101/2 39/102/2 37/103/2
f 40/104/28 43/105/28 39/106/28
f 44/107/5 41/108/5 43/109/5
f 42/110/29 37/111/29 41/112/29
f 43/109/30 37/113/30 39/102/30
f 40/114/4 42/115/4 44/107/4
f 97/116/31 47/117/31 99/118/31
f 48/119/5 45/120/5 47/121/5
f 99/122/32 45/123/33 98/124/32
f 50/125/34 100/126/35 97/127/35
f 49/128/36 71/129/30 69/130/30
f 98/131/37 52/132/38 51/133/39
f 70/134/28 49/135/40 69/136/28
f 52/132/38 71/137/29 51/133/39
f 70/138/4 52/139/34 50/125/34
f 58/140/41 55/141/42 57/142/43
f 56/143/5 53/144/5 55/145/5
f 55/146/44 59/147/45 57/148/45
f 58/149/46 54/150/47 56/151/47
f 57/148/45 83/152/30 81/153/30
f 53/154/48 60/155/49 59/156/50
f 82/157/28 57/142/43 81/158/28
f 60/155/49 83/159/29 59/156/50
f 82/160/4 60/161/46 58/149/46
f 63/162/51 101/163/51 103/164/51
f 61/165/2 64/166/2 63/167/2
f 103/168/52 61/169/53 63/170/53
f 104/171/54 66/172/55 101/173/54
f 71/129/30 65/174/56 69/130/30
f 102/175/57 68/176/58 104/177/57
f 65/178/59 70/134/28 69/136/28
f 71/137/29 68/176/58 67/179/60
f 68/180/55 70/138/4 66/172/55
f 75/181/61 78/182/62 77/183/63
f 73/184/2 76/185/2 75/186/2
f 79/187/64 75/188/65 77/189/64
f 74/190/66 78/191/67 76/192/66
f 83/152/30 77/189/64 81/153/30
f 73/193/68 80/194/69 74/190/68
f 77/183/63 82/157/28 81/158/28
f 83/159/29 80/194/69 79/195/70
f 80/196/67 82/160/4 78/191/67
f 45/197/37 100/198/37 98/131/37
f 48/199/71 100/126/35 46/200/71
f 99/122/32 51/201/36 49/128/36
f 50/202/72 99/118/31 49/135/40
f 61/203/57 104/177/57 62/204/57
f 64/205/73 104/171/54 101/173/54
f 67/206/56 103/168/52 65/174/56
f 103/164/51 66/207/74 65/178/59
f 119/208/75 105/209/76 117/210/77
f 116/211/78 121/212/79 114/213/80
f 122/214/81 111/215/82 115/216/83
f 116/217/84 108/218/85 110/219/84
f 110/220/86 118/221/87 119/208/75
f 105/222/4 120/223/4 117/224/4
f 109/225/88 111/226/89 105/222/89
f 117/224/4 112/227/4 106/228/4
f 106/228/90 116/217/84 110/219/84
f 107/229/91 115/230/88 109/225/88
f 109/231/92 118/221/87 107/232/93
f 112/233/94 122/214/81 116/211/78
f 121/212/79 115/216/83 113/234/95
f 119/208/75 106/235/96 110/220/86
f 2/27/8 4/236/8 3/28/9
f 4/30/10 8/46/10 7/31/11
f 8/33/12 6/237/12 5/34/13
f 6/36/14 2/41/14 1/37/15
f 9/39/16 10/238/16 4/40/8
f 10/42/17 13/56/17 8/33/10
f 13/44/18 11/239/18 6/45/12
f 11/47/19 9/51/19 2/27/14
f 15/49/20 12/240/20 10/50/16
f 12/52/21 14/64/21 13/44/17
f 14/54/22 18/241/22 11/55/18
f 18/57/23 15/61/23 9/39/19
f 16/59/24 17/242/24 12/60/20
f 17/62/25 20/243/97 14/54/21
f 14/64/22 20/244/98 19/65/26
f 19/67/27 16/245/27 15/49/23
f 26/69/2 23/246/2 22/70/2
f 23/72/28 29/88/28 25/73/28
f 29/75/5 28/247/5 24/76/5
f 28/78/29 26/83/29 21/79/29
f 27/81/2 32/248/2 23/82/2
f 32/84/28 30/98/28 29/75/28
f 30/86/5 34/249/5 28/87/5
f 34/89/29 27/93/29 26/69/29
f 31/91/2 33/250/2 32/92/2
f 33/94/28 36/251/28 30/86/28
f 36/96/5 35/252/5 34/97/5
f 35/99/29 31/253/29 27/81/29
f 38/101/2 40/114/2 39/102/2
f 40/104/28 44/254/28 43/105/28
f 44/107/5 42/255/5 41/108/5
f 42/110/29 38/256/29 37/111/29
f 43/109/30 41/257/30 37/113/30
f 40/114/4 38/258/4 42/115/4
f 97/116/31 48/259/31 47/117/31
f 48/119/5 46/260/5 45/120/5
f 99/122/32 47/261/33 45/123/33
f 50/125/34 52/139/34 100/126/35
f 49/128/36 51/201/36 71/129/30
f 98/131/37 100/198/37 52/132/38
f 70/134/28 50/202/72 49/135/40
f 52/132/38 72/262/29 71/137/29
f 70/138/4 72/262/4 52/139/34
f 58/140/41 56/263/42 55/141/42
f 56/143/5 54/264/5 53/144/5
f 55/146/44 53/265/44 59/147/45
f 58/149/46 60/161/46 54/150/47
f 57/148/45 59/147/45 83/152/30
f 53/154/48 54/150/48 60/155/49
f 82/157/28 58/140/41 57/142/43
f 60/155/49 84/266/29 83/159/29
f 82/160/4 84/266/4 60/161/46
f 63/162/51 64/267/51 101/163/51
f 61/165/2 62/268/2 64/166/2
f 103/168/52 102/269/52 61/169/53
f 104/171/54 68/180/55 66/172/55
f 71/129/30 67/206/56 65/174/56
f 102/175/57 67/179/60 68/176/58
f 65/178/59 66/207/74 70/134/28
f 71/137/29 72/262/29 68/176/58
f 68/180/55 72/262/4 70/138/4
f 75/181/61 76/270/61 78/182/62
f 73/184/2 74/271/2 76/185/2
f 79/187/64 73/272/65 75/188/65
f 74/190/66 80/196/67 78/191/67
f 83/152/30 79/187/64 77/189/64
f 73/193/68 79/195/70 80/194/69
f 77/183/63 78/182/62 82/157/28
f 83/159/29 84/266/29 80/194/69
f 80/196/67 84/266/4 82/160/4
f 45/197/37 46/200/37 100/198/37
f 48/199/71 97/127/35 100/126/35
f 99/122/32 98/124/32 51/201/36
f 50/202/72 97/116/31 99/118/31
f 61/203/57 102/175/57 104/177/57
f 64/205/73 62/204/73 104/171/54
f 67/206/56 102/269/52 103/168/52
f 103/164/51 101/163/51 66/207/74
f 119/208/75 109/231/92 105/209/76
f 116/211/78 122/214/81 121/212/79
f 122/214/81 120/273/99 111/215/82
f 116/217/84 114/274/85 108/218/85
f 110/220/86 108/275/100 118/221/87
f 105/222/4 111/226/4 120/223/4
f 109/225/88 115/230/88 111/226/89
f 117/224/4 120/223/4 112/227/4
f 106/228/90 112/227/90 116/217/84
f 107/229/91 113/276/91 115/230/88
f 109/231/92 119/208/75 118/221/87
f 112/233/94 120/273/99 122/214/81
f 121/212/79 122/214/81 115/216/83
f 119/208/75 117/210/77 106/235/96
