# Blender v2.79 (sub 0) OBJ File: ''
# www.blender.org
o Recipe
v 0.078829 0.993570 -0.022764
v 0.165892 0.969511 0.006895
v 0.078655 0.945785 -0.096905
v 0.400078 0.945785 -0.096905
v 0.078655 0.938389 -0.200706
v 0.400078 0.938389 -0.200706
v 0.078655 0.938389 -0.408307
v 0.400078 0.969511 0.006895
v 0.400078 0.938389 -0.408307
vt 1.000000 0.289062
vt 1.000000 0.216797
vt 0.938509 0.289062
vt 0.773438 0.216797
vt 1.000000 0.144531
vt 0.773437 0.144531
vt 1.000000 0.000000
vt 0.773438 0.289062
vt 0.773438 -0.000000
vn -0.3848 -0.7754 0.5007
vn -0.0767 -0.9945 0.0709
vn 0.0553 -0.9959 0.0710
vn 0.0000 -0.9994 0.0356
vn 0.0000 -0.9749 0.2228
vn 0.0759 -0.9840 0.1611
vn -0.0767 -0.9720 0.2222
vn 0.0000 -1.0000 0.0000
s 1
f 1/1/1 3/2/1 2/3/1
f 4/4/2 3/2/3 5/5/4
f 2/3/5 3/2/6 4/4/7
f 6/6/4 5/5/4 7/7/8
f 4/4/2 5/5/4 6/6/4
f 2/3/5 4/4/7 8/8/5
f 6/6/4 7/7/8 9/9/8
o ArmorsmithTable
v 0.500000 0.937500 0.500000
v 0.500000 0.812500 0.500000
v 0.500000 0.937500 -0.500000
v 0.500000 0.812500 -0.500000
v -0.500000 0.937500 -0.500000
v -0.500000 0.812500 -0.500000
v -0.500000 0.937500 0.500000
v -0.500000 0.812500 0.500000
v 0.437500 0.812500 0.437500
v 0.437500 0.750000 0.437500
v 0.437500 0.812500 -0.437500
v 0.437500 0.750000 -0.437500
v -0.437500 0.812500 -0.437500
v -0.437500 0.750000 -0.437500
v -0.437500 0.812500 0.437500
v -0.437500 0.750000 0.437500
v -0.343750 0.812500 -0.343750
v -0.343750 0.000000 -0.343750
v -0.343750 0.812500 -0.468750
v -0.343750 0.000000 -0.468750
v -0.468750 0.812500 -0.468750
v -0.468750 0.000000 -0.468750
v -0.468750 0.812500 -0.343750
v -0.468750 0.000000 -0.343750
v -0.343750 0.812500 0.468750
v -0.343750 -0.000000 0.468750
v -0.343750 0.812500 0.343750
v -0.343750 -0.000000 0.343750
v -0.468750 0.812500 0.343750
v -0.468750 -0.000000 0.343750
v -0.468750 0.812500 0.468750
v -0.468750 -0.000000 0.468750
v 0.468750 0.812500 0.468750
v 0.468750 -0.000000 0.468750
v 0.468750 0.812500 0.343750
v 0.468750 -0.000000 0.343750
v 0.343750 0.812500 0.343750
v 0.343750 -0.000000 0.343750
v 0.343750 0.812500 0.468750
v 0.343750 -0.000000 0.468750
v 0.468750 0.812500 -0.343750
v 0.468750 0.000000 -0.343750
v 0.468750 0.812500 -0.468750
v 0.468750 0.000000 -0.468750
v 0.343750 0.812500 -0.468750
v 0.343750 0.000000 -0.468750
v 0.343750 0.812500 -0.343750
v 0.343750 0.000000 -0.343750
v 0.343750 0.375000 -0.390625
v 0.343750 0.250000 -0.390625
v 0.343750 0.375000 -0.453125
v 0.343750 0.250000 -0.453125
v -0.343750 0.375000 -0.453125
v -0.343750 0.250000 -0.453125
v -0.343750 0.375000 -0.390625
v -0.343750 0.250000 -0.390625
v -0.390625 0.375000 -0.343750
v -0.390625 0.250000 -0.343750
v -0.453125 0.375000 -0.343750
v -0.453125 0.250000 -0.343750
v -0.453125 0.375000 0.343750
v -0.453125 0.250000 0.343750
v -0.390625 0.375000 0.343750
v -0.390625 0.250000 0.343750
v 0.390625 0.375000 0.343750
v 0.390625 0.250000 0.343750
v 0.453125 0.375000 0.343750
v 0.453125 0.250000 0.343750
v 0.453125 0.375000 -0.343750
v 0.453125 0.250000 -0.343750
v 0.390625 0.375000 -0.343750
v 0.390625 0.250000 -0.343750
v -0.343750 0.375000 0.390625
v -0.343750 0.250000 0.390625
v -0.343750 0.375000 0.453125
v -0.343750 0.250000 0.453125
v 0.343750 0.375000 0.453125
v 0.343750 0.250000 0.453125
v 0.343750 0.375000 0.390625
v 0.343750 0.250000 0.390625
v 0.121864 1.000000 0.468183
v 0.121864 0.937500 0.468183
v 0.155682 1.000000 0.315636
v 0.155682 0.937500 0.315636
v 0.003136 1.000000 0.281818
v 0.003136 0.937500 0.281818
v -0.030682 1.000000 0.434364
v -0.030682 0.937500 0.434364
v 0.086246 1.062500 0.412273
v 0.086246 1.000000 0.412273
v 0.099773 1.062500 0.351255
v 0.099773 1.000000 0.351255
v 0.038754 1.062500 0.337727
v 0.038754 1.000000 0.337727
v 0.025227 1.062500 0.398746
v 0.025227 1.000000 0.398746
v 0.098118 1.156250 0.430910
v 0.098118 1.062500 0.430910
v 0.118409 1.156250 0.339382
v 0.118409 1.062500 0.339382
v 0.026882 1.156250 0.319091
v 0.026882 1.062500 0.319091
v 0.006591 1.156250 0.410618
v 0.006591 1.062500 0.410618
v 0.422040 1.000000 0.326921
v 0.422040 0.937500 0.326921
v 0.326921 1.000000 0.202960
v 0.326921 0.937500 0.202960
v 0.202960 1.000000 0.298079
v 0.202960 0.937500 0.298079
v 0.298079 1.000000 0.422040
v 0.298079 0.937500 0.422040
v 0.356316 1.062500 0.318269
v 0.356316 1.000000 0.318269
v 0.318269 1.062500 0.268684
v 0.318269 1.000000 0.268684
v 0.268684 1.062500 0.306732
v 0.268684 1.000000 0.306732
v 0.306731 1.062500 0.356316
v 0.306731 1.000000 0.356316
v 0.422040 1.218750 0.326921
v 0.422040 1.062500 0.326921
v 0.326921 1.218750 0.202960
v 0.326921 1.062500 0.202960
v 0.202960 1.218750 0.298079
v 0.202960 1.062500 0.298079
v 0.298079 1.218750 0.422040
v 0.298079 1.062500 0.422040
v -0.230483 0.956250 0.488157
v -0.230483 0.937500 0.488157
v -0.086186 0.956250 0.210966
v -0.086186 0.937500 0.210966
v -0.307939 0.956250 0.095529
v -0.307939 0.937500 0.095529
v -0.452236 0.956250 0.372720
v -0.452236 0.937500 0.372720
v -0.274131 0.971875 0.478134
v -0.274131 0.953125 0.478134
v -0.043732 0.971875 0.267012
v -0.043732 0.953125 0.267012
v -0.212629 0.971875 0.082693
v -0.212629 0.953125 0.082693
v -0.443029 0.971875 0.293815
v -0.443029 0.953125 0.293815
v -0.166490 0.990625 0.450574
v -0.166490 0.971875 0.450574
v -0.098853 0.990625 0.145481
v -0.098853 0.971875 0.145481
v -0.342927 0.990625 0.091371
v -0.342927 0.971875 0.091371
v -0.410564 0.990625 0.396464
v -0.410564 0.971875 0.396464
vt 0.750000 0.750000
vt 0.750000 0.718750
vt 1.000000 0.750000
vt 1.000000 0.718750
vt 0.250000 0.750000
vt 0.250000 0.718750
vt 0.500000 0.750000
vt 0.500000 0.718750
vt 0.000000 1.000000
vt 0.000000 0.750000
vt 0.250000 1.000000
vt 0.250000 0.750000
vt 0.250000 1.000000
vt 0.250000 0.750000
vt 0.500000 1.000000
vt 0.500000 0.750000
vt 0.000000 0.750000
vt 0.000000 0.718750
vt 0.437500 0.500000
vt 0.437500 0.484375
vt 0.656250 0.500000
vt 0.656250 0.484375
vt 0.000000 0.500000
vt 0.000000 0.484375
vt 0.218750 0.500000
vt 0.218750 0.484375
vt 0.000000 1.000000
vt 0.000000 1.000000
vt 0.000000 1.000000
vt 0.000000 1.000000
vt 0.000000 0.718750
vt 0.000000 0.500000
vt 0.218750 0.718750
vt 0.218750 0.500000
vt 0.875000 0.500000
vt 0.875000 0.484375
vt 0.578125 1.000000
vt 0.578125 0.796875
vt 0.609375 1.000000
vt 0.609375 0.796875
vt 0.515625 1.000000
vt 0.515625 0.796875
vt 0.546875 1.000000
vt 0.546875 0.796875
vt 0.000000 1.000000
vt 0.000000 1.000000
vt 0.000000 1.000000
vt 0.000000 1.000000
vt 0.546875 0.765625
vt 0.578125 0.765625
vt 0.640625 1.000000
vt 0.640625 0.796875
vt 0.578125 1.000000
vt 0.578125 0.796875
vt 0.609375 1.000000
vt 0.609375 0.796875
vt 0.515625 1.000000
vt 0.515625 0.796875
vt 0.546875 1.000000
vt 0.546875 0.796875
vt 0.000000 1.000000
vt 0.000000 1.000000
vt 0.000000 1.000000
vt 0.000000 1.000000
vt 0.546875 0.765625
vt 0.578125 0.765625
vt 0.640625 1.000000
vt 0.640625 0.796875
vt 0.578125 1.000000
vt 0.578125 0.796875
vt 0.609375 1.000000
vt 0.609375 0.796875
vt 0.515625 1.000000
vt 0.515625 0.796875
vt 0.546875 1.000000
vt 0.546875 0.796875
vt 0.000000 1.000000
vt 0.000000 1.000000
vt 0.000000 1.000000
vt 0.000000 1.000000
vt 0.546875 0.765625
vt 0.578125 0.765625
vt 0.640625 1.000000
vt 0.640625 0.796875
vt 0.578125 1.000000
vt 0.578125 0.796875
vt 0.609375 1.000000
vt 0.609375 0.796875
vt 0.515625 1.000000
vt 0.515625 0.796875
vt 0.546875 1.000000
vt 0.546875 0.796875
vt 0.000000 1.000000
vt 0.000000 1.000000
vt 0.000000 1.000000
vt 0.000000 1.000000
vt 0.546875 0.765625
vt 0.578125 0.765625
vt 0.640625 1.000000
vt 0.640625 0.796875
vt 0.000000 1.000000
vt 0.000000 1.000000
vt 0.000000 1.000000
vt 0.000000 1.000000
vt 0.000000 1.000000
vt 0.000000 1.000000
vt 0.000000 1.000000
vt 0.000000 1.000000
vt 0.000000 0.468750
vt 0.000000 0.453125
vt 0.171875 0.468750
vt 0.171875 0.453125
vt 0.171875 0.468750
vt 0.171875 0.453125
vt 0.343750 0.468750
vt 0.343750 0.453125
vt 0.171875 0.453125
vt 0.171875 0.421875
vt 0.343750 0.453125
vt 0.343750 0.421875
vt 0.000000 0.453125
vt 0.000000 0.421875
vt 0.171875 0.453125
vt 0.171875 0.421875
vt 0.000000 1.000000
vt 0.000000 1.000000
vt 0.000000 1.000000
vt 0.000000 1.000000
vt 0.000000 1.000000
vt 0.000000 1.000000
vt 0.000000 1.000000
vt 0.000000 1.000000
vt 0.000000 0.468750
vt 0.000000 0.453125
vt 0.171875 0.468750
vt 0.171875 0.453125
vt 0.171875 0.468750
vt 0.171875 0.453125
vt 0.343750 0.468750
vt 0.343750 0.453125
vt 0.171875 0.453125
vt 0.171875 0.421875
vt 0.343750 0.453125
vt 0.343750 0.421875
vt 0.000000 0.453125
vt 0.000000 0.421875
vt 0.171875 0.453125
vt 0.171875 0.421875
vt 0.000000 1.000000
vt 0.000000 1.000000
vt 0.000000 1.000000
vt 0.000000 1.000000
vt 0.000000 1.000000
vt 0.000000 1.000000
vt 0.000000 1.000000
vt 0.000000 1.000000
vt 0.000000 0.468750
vt 0.000000 0.453125
vt 0.171875 0.468750
vt 0.171875 0.453125
vt 0.171875 0.468750
vt 0.171875 0.453125
vt 0.343750 0.468750
vt 0.343750 0.453125
vt 0.171875 0.453125
vt 0.171875 0.421875
vt 0.343750 0.453125
vt 0.343750 0.421875
vt 0.000000 0.453125
vt 0.000000 0.421875
vt 0.171875 0.453125
vt 0.171875 0.421875
vt 0.000000 1.000000
vt 0.000000 1.000000
vt 0.000000 1.000000
vt 0.000000 1.000000
vt 0.000000 1.000000
vt 0.000000 1.000000
vt 0.000000 1.000000
vt 0.000000 1.000000
vt 0.000000 0.468750
vt 0.000000 0.453125
vt 0.171875 0.468750
vt 0.171875 0.453125
vt 0.171875 0.468750
vt 0.171875 0.453125
vt 0.343750 0.468750
vt 0.343750 0.453125
vt 0.171875 0.453125
vt 0.171875 0.421875
vt 0.343750 0.453125
vt 0.343750 0.421875
vt 0.000000 0.453125
vt 0.000000 0.421875
vt 0.171875 0.453125
vt 0.171875 0.421875
vt 0.234375 0.015625
vt 0.234375 0.000000
vt 0.273438 0.015625
vt 0.273438 0.000000
vt 0.312500 0.015625
vt 0.312500 0.000000
vt 0.351562 0.015625
vt 0.351562 0.000000
vt 0.195312 0.054688
vt 0.195312 0.015625
vt 0.234375 0.054688
vt 0.273438 0.015625
vt 0.273438 0.000000
vt 0.312500 0.015625
vt 0.312500 0.000000
vt 0.195312 0.015625
vt 0.195312 0.000000
vt 0.234375 0.015625
vt 0.234375 0.000000
vt 0.156250 0.015625
vt 0.156250 0.000000
vt 0.171875 0.015625
vt 0.171875 0.000000
vt 0.125000 0.015625
vt 0.125000 0.000000
vt 0.140625 0.015625
vt 0.140625 0.000000
vt 0.187500 0.015625
vt 0.187500 0.000000
vt 0.046875 0.023438
vt 0.046875 0.000000
vt 0.070312 0.023438
vt 0.070312 0.000000
vt 0.093750 0.023438
vt 0.093750 0.000000
vt 0.117188 0.023438
vt 0.117188 0.000000
vt 0.000000 0.046875
vt 0.000000 0.023438
vt 0.023438 0.046875
vt 0.023438 0.023438
vt 0.000000 0.023438
vt 0.000000 0.000000
vt 0.023438 0.023438
vt 0.023438 0.000000
vt 0.070312 0.023438
vt 0.070312 0.000000
vt 0.093750 0.023438
vt 0.093750 0.000000
vt 0.023438 0.023438
vt 0.046875 0.023438
vt 0.046875 0.000000
vt 0.234375 0.015625
vt 0.234375 0.000000
vt 0.273438 0.015625
vt 0.273438 0.000000
vt 0.312500 0.015625
vt 0.312500 0.000000
vt 0.351562 0.015625
vt 0.351562 0.000000
vt 0.195312 0.054688
vt 0.195312 0.015625
vt 0.234375 0.054688
vt 0.273438 0.015625
vt 0.273438 0.000000
vt 0.312500 0.015625
vt 0.312500 0.000000
vt 0.195312 0.015625
vt 0.195312 0.000000
vt 0.234375 0.015625
vt 0.234375 0.000000
vt 0.156250 0.015625
vt 0.156250 0.000000
vt 0.171875 0.015625
vt 0.171875 0.000000
vt 0.125000 0.015625
vt 0.125000 0.000000
vt 0.140625 0.015625
vt 0.140625 0.000000
vt 0.187500 0.015625
vt 0.187500 0.000000
vt 0.046875 0.023438
vt 0.046875 0.000000
vt 0.070312 0.023438
vt 0.070312 0.000000
vt 0.093750 0.023438
vt 0.093750 0.000000
vt 0.117188 0.023438
vt 0.117188 0.000000
vt 0.000000 0.046875
vt 0.000000 0.023438
vt 0.023438 0.046875
vt 0.023438 0.023438
vt 0.000000 0.023438
vt 0.000000 0.000000
vt 0.023438 0.023438
vt 0.023438 0.000000
vt 0.070312 0.023438
vt 0.070312 0.000000
vt 0.093750 0.023438
vt 0.093750 0.000000
vt 0.023438 0.023438
vt 0.046875 0.023438
vt 0.046875 0.000000
vt 0.140625 0.132812
vt 0.140625 0.125000
vt 0.218750 0.132812
vt 0.218750 0.125000
vt 0.000000 0.132812
vt 0.000000 0.125000
vt 0.078125 0.132812
vt 0.078125 0.125000
vt 0.000000 0.210938
vt 0.000000 0.132812
vt 0.062500 0.210938
vt 0.062500 0.132812
vt 0.000000 1.000000
vt 0.000000 1.000000
vt 0.000000 1.000000
vt 0.000000 1.000000
vt 0.218750 0.132812
vt 0.218750 0.125000
vt 0.281250 0.132812
vt 0.281250 0.125000
vt 0.078125 0.132812
vt 0.078125 0.125000
vt 0.140625 0.132812
vt 0.140625 0.125000
vt 0.140625 0.132812
vt 0.140625 0.125000
vt 0.218750 0.132812
vt 0.218750 0.125000
vt 0.000000 0.132812
vt 0.000000 0.125000
vt 0.078125 0.132812
vt 0.078125 0.125000
vt 0.000000 0.210938
vt 0.000000 0.132812
vt 0.062500 0.210938
vt 0.062500 0.132812
vt 0.000000 1.000000
vt 0.000000 1.000000
vt 0.000000 1.000000
vt 0.000000 1.000000
vt 0.218750 0.132812
vt 0.218750 0.125000
vt 0.281250 0.132812
vt 0.281250 0.125000
vt 0.078125 0.132812
vt 0.078125 0.125000
vt 0.140625 0.132812
vt 0.140625 0.125000
vt 0.140625 0.132812
vt 0.140625 0.125000
vt 0.218750 0.132812
vt 0.218750 0.125000
vt 0.000000 0.132812
vt 0.000000 0.125000
vt 0.078125 0.132812
vt 0.078125 0.125000
vt 0.000000 0.210938
vt 0.000000 0.132812
vt 0.062500 0.210938
vt 0.062500 0.132812
vt 0.000000 1.000000
vt 0.000000 1.000000
vt 0.000000 1.000000
vt 0.000000 1.000000
vt 0.218750 0.132812
vt 0.218750 0.125000
vt 0.281250 0.132812
vt 0.281250 0.125000
vt 0.078125 0.132812
vt 0.078125 0.125000
vt 0.140625 0.132812
vt 0.140625 0.125000
vn 1.0000 0.0000 0.0000
vn -1.0000 0.0000 0.0000
vn 0.0000 1.0000 0.0000
vn 0.0000 -1.0000 -0.0000
vn 0.0000 -0.0000 1.0000
vn 0.0000 0.0000 -1.0000
vn 0.9763 0.0000 0.2164
vn -0.9763 0.0000 -0.2164
vn -0.2164 0.0000 0.9763
vn 0.2164 0.0000 -0.9763
vn 0.7934 0.0000 -0.6088
vn -0.7934 0.0000 0.6088
vn 0.6088 0.0000 0.7934
vn -0.6088 0.0000 -0.7934
vn 0.8870 0.0000 0.4618
vn -0.8870 0.0000 -0.4618
vn -0.4617 0.0000 0.8870
vn 0.4617 0.0000 -0.8870
vn 0.6756 0.0000 0.7373
vn -0.6756 0.0000 -0.7373
vn -0.7373 0.0000 0.6756
vn 0.7373 0.0000 -0.6756
s 1
f 10/10/9 11/11/9 12/12/9
f 11/11/9 13/13/9 12/12/9
f 14/14/10 15/15/10 16/16/10
f 15/15/10 17/17/10 16/16/10
f 14/18/11 16/19/11 12/20/11
f 16/19/11 10/21/11 12/20/11
f 17/22/12 15/23/12 11/24/12
f 15/23/12 13/25/12 11/24/12
f 16/16/13 17/17/13 10/10/13
f 17/17/13 11/11/13 10/10/13
f 12/26/14 13/27/14 14/14/14
f 13/27/14 15/15/14 14/14/14
f 18/28/9 19/29/9 20/30/9
f 19/29/9 21/31/9 20/30/9
f 22/32/10 23/33/10 24/34/10
f 23/33/10 25/35/10 24/34/10
f 22/36/11 24/37/11 20/38/11
f 24/37/11 18/39/11 20/38/11
f 25/40/12 23/41/12 19/42/12
f 23/41/12 21/43/12 19/42/12
f 24/34/13 25/35/13 18/28/13
f 25/35/13 19/29/13 18/28/13
f 20/30/14 21/31/14 22/44/14
f 21/31/14 23/45/14 22/44/14
f 26/46/9 27/47/9 28/48/9
f 27/47/9 29/49/9 28/48/9
f 30/50/10 31/51/10 32/52/10
f 31/51/10 33/53/10 32/52/10
f 30/54/11 32/55/11 28/56/11
f 32/55/11 26/57/11 28/56/11
f 33/53/12 31/58/12 27/47/12
f 31/58/12 29/59/12 27/47/12
f 32/52/13 33/53/13 26/46/13
f 33/53/13 27/47/13 26/46/13
f 28/48/14 29/49/14 30/60/14
f 29/49/14 31/61/14 30/60/14
f 34/62/9 35/63/9 36/64/9
f 35/63/9 37/65/9 36/64/9
f 38/66/10 39/67/10 40/68/10
f 39/67/10 41/69/10 40/68/10
f 38/70/11 40/71/11 36/72/11
f 40/71/11 34/73/11 36/72/11
f 41/69/12 39/74/12 35/63/12
f 39/74/12 37/75/12 35/63/12
f 40/68/13 41/69/13 34/62/13
f 41/69/13 35/63/13 34/62/13
f 36/64/14 37/65/14 38/76/14
f 37/65/14 39/77/14 38/76/14
f 42/78/9 43/79/9 44/80/9
f 43/79/9 45/81/9 44/80/9
f 46/82/10 47/83/10 48/84/10
f 47/83/10 49/85/10 48/84/10
f 46/86/11 48/87/11 44/88/11
f 48/87/11 42/89/11 44/88/11
f 49/85/12 47/90/12 43/79/12
f 47/90/12 45/91/12 43/79/12
f 48/84/13 49/85/13 42/78/13
f 49/85/13 43/79/13 42/78/13
f 44/80/14 45/81/14 46/92/14
f 45/81/14 47/93/14 46/92/14
f 50/94/9 51/95/9 52/96/9
f 51/95/9 53/97/9 52/96/9
f 54/98/10 55/99/10 56/100/10
f 55/99/10 57/101/10 56/100/10
f 54/102/11 56/103/11 52/104/11
f 56/103/11 50/105/11 52/104/11
f 57/101/12 55/106/12 51/95/12
f 55/106/12 53/107/12 51/95/12
f 56/100/13 57/101/13 50/94/13
f 57/101/13 51/95/13 50/94/13
f 52/96/14 53/97/14 54/108/14
f 53/97/14 55/109/14 54/108/14
f 58/110/9 59/111/9 60/112/9
f 59/111/9 61/113/9 60/112/9
f 62/114/10 63/115/10 64/116/10
f 63/115/10 65/117/10 64/116/10
f 62/118/11 64/119/11 60/120/11
f 64/119/11 58/121/11 60/120/11
f 65/122/12 63/123/12 59/124/12
f 63/123/12 61/125/12 59/124/12
f 64/126/13 65/127/13 58/128/13
f 65/127/13 59/129/13 58/128/13
f 60/130/14 61/131/14 62/132/14
f 61/131/14 63/133/14 62/132/14
f 66/134/14 67/135/14 68/136/14
f 67/135/14 69/137/14 68/136/14
f 70/138/13 71/139/13 72/140/13
f 71/139/13 73/141/13 72/140/13
f 70/142/11 72/143/11 68/144/11
f 72/143/11 66/145/11 68/144/11
f 73/146/12 71/147/12 67/148/12
f 71/147/12 69/149/12 67/148/12
f 72/150/9 73/151/9 66/152/9
f 73/151/9 67/153/9 66/152/9
f 68/154/10 69/155/10 70/156/10
f 69/155/10 71/157/10 70/156/10
f 74/158/13 75/159/13 76/160/13
f 75/159/13 77/161/13 76/160/13
f 78/162/14 79/163/14 80/164/14
f 79/163/14 81/165/14 80/164/14
f 78/166/11 80/167/11 76/168/11
f 80/167/11 74/169/11 76/168/11
f 81/170/12 79/171/12 75/172/12
f 79/171/12 77/173/12 75/172/12
f 80/174/10 81/175/10 74/176/10
f 81/175/10 75/177/10 74/176/10
f 76/178/9 77/179/9 78/180/9
f 77/179/9 79/181/9 78/180/9
f 82/182/10 83/183/10 84/184/10
f 83/183/10 85/185/10 84/184/10
f 86/186/9 87/187/9 88/188/9
f 87/187/9 89/189/9 88/188/9
f 86/190/11 88/191/11 84/192/11
f 88/191/11 82/193/11 84/192/11
f 89/194/12 87/195/12 83/196/12
f 87/195/12 85/197/12 83/196/12
f 88/198/14 89/199/14 82/200/14
f 89/199/14 83/201/14 82/200/14
f 84/202/13 85/203/13 86/204/13
f 85/203/13 87/205/13 86/204/13
f 90/206/15 91/207/15 92/208/15
f 91/207/15 93/209/15 92/208/15
f 94/210/16 95/211/16 96/212/16
f 95/211/16 97/213/16 96/212/16
f 94/214/11 96/215/11 92/216/11
f 96/215/11 90/206/11 92/216/11
f 96/217/17 97/218/17 90/219/17
f 97/218/17 91/220/17 90/219/17
f 92/221/18 93/222/18 94/223/18
f 93/222/18 95/224/18 94/223/18
f 98/225/15 99/226/15 100/227/15
f 99/226/15 101/228/15 100/227/15
f 102/229/16 103/230/16 104/231/16
f 103/230/16 105/232/16 104/231/16
f 104/231/17 105/232/17 98/225/17
f 105/232/17 99/226/17 98/225/17
f 100/227/18 101/228/18 102/233/18
f 101/228/18 103/234/18 102/233/18
f 106/235/15 107/236/15 108/237/15
f 107/236/15 109/238/15 108/237/15
f 110/239/16 111/240/16 112/241/16
f 111/240/16 113/242/16 112/241/16
f 110/243/11 112/244/11 108/245/11
f 112/244/11 106/246/11 108/245/11
f 113/247/12 111/248/12 107/249/12
f 111/248/12 109/250/12 107/249/12
f 112/251/17 113/252/17 106/253/17
f 113/252/17 107/254/17 106/253/17
f 108/255/18 109/250/18 110/256/18
f 109/250/18 111/257/18 110/256/18
f 114/258/19 115/259/19 116/260/19
f 115/259/19 117/261/19 116/260/19
f 118/262/20 119/263/20 120/264/20
f 119/263/20 121/265/20 120/264/20
f 118/266/11 120/267/11 116/268/11
f 120/267/11 114/258/11 116/268/11
f 120/269/21 121/270/21 114/271/21
f 121/270/21 115/272/21 114/271/21
f 116/273/22 117/274/22 118/275/22
f 117/274/22 119/276/22 118/275/22
f 122/277/19 123/278/19 124/279/19
f 123/278/19 125/280/19 124/279/19
f 126/281/20 127/282/20 128/283/20
f 127/282/20 129/284/20 128/283/20
f 128/283/21 129/284/21 122/277/21
f 129/284/21 123/278/21 122/277/21
f 124/279/22 125/280/22 126/285/22
f 125/280/22 127/286/22 126/285/22
f 130/287/19 131/288/19 132/289/19
f 131/288/19 133/290/19 132/289/19
f 134/291/20 135/292/20 136/293/20
f 135/292/20 137/294/20 136/293/20
f 134/295/11 136/296/11 132/297/11
f 136/296/11 130/298/11 132/297/11
f 137/299/12 135/300/12 131/301/12
f 135/300/12 133/302/12 131/301/12
f 136/303/21 137/304/21 130/305/21
f 137/304/21 131/306/21 130/305/21
f 132/307/22 133/302/22 134/308/22
f 133/302/22 135/309/22 134/308/22
f 138/310/23 139/311/23 140/312/23
f 139/311/23 141/313/23 140/312/23
f 142/314/24 143/315/24 144/316/24
f 143/315/24 145/317/24 144/316/24
f 142/318/11 144/319/11 140/320/11
f 144/319/11 138/321/11 140/320/11
f 145/322/12 143/323/12 139/324/12
f 143/323/12 141/325/12 139/324/12
f 144/326/25 145/327/25 138/328/25
f 145/327/25 139/329/25 138/328/25
f 140/330/26 141/331/26 142/332/26
f 141/331/26 143/333/26 142/332/26
f 146/334/27 147/335/27 148/336/27
f 147/335/27 149/337/27 148/336/27
f 150/338/28 151/339/28 152/340/28
f 151/339/28 153/341/28 152/340/28
f 150/342/11 152/343/11 148/344/11
f 152/343/11 146/345/11 148/344/11
f 153/346/12 151/347/12 147/348/12
f 151/347/12 149/349/12 147/348/12
f 152/350/29 153/351/29 146/352/29
f 153/351/29 147/353/29 146/352/29
f 148/354/30 149/355/30 150/356/30
f 149/355/30 151/357/30 150/356/30
f 154/358/15 155/359/15 156/360/15
f 155/359/15 157/361/15 156/360/15
f 158/362/16 159/363/16 160/364/16
f 159/363/16 161/365/16 160/364/16
f 158/366/11 160/367/11 156/368/11
f 160/367/11 154/369/11 156/368/11
f 161/370/12 159/371/12 155/372/12
f 159/371/12 157/373/12 155/372/12
f 160/374/17 161/375/17 154/376/17
f 161/375/17 155/377/17 154/376/17
f 156/378/18 157/379/18 158/380/18
f 157/379/18 159/381/18 158/380/18
