# Blender v2.79 (sub 0) OBJ File: ''
# www.blender.org
mtllib MasterAnvilAdvanced.mtl
o cube
v 0.250000 0.875000 -0.156250
v 0.250000 0.687500 -0.156250
v -0.250000 0.875000 -0.156250
v -0.250000 0.687500 -0.156250
v -0.250000 0.875000 0.156250
v -0.250000 0.687500 0.156250
v 0.250000 0.875000 0.156250
v 0.250000 0.687500 0.156250
v 0.250000 0.312500 -0.250000
v 0.250000 0.000000 -0.250000
v -0.250000 0.312500 -0.250000
v -0.250000 0.000000 -0.250000
v -0.250000 0.312500 0.250000
v -0.250000 -0.000000 0.250000
v 0.250000 0.312500 0.250000
v 0.250000 -0.000000 0.250000
v 0.187500 0.687500 -0.125000
v 0.187500 0.625000 -0.125000
v -0.187500 0.687500 -0.125000
v -0.187500 0.625000 -0.125000
v -0.187500 0.687500 0.125000
v -0.187500 0.625000 0.125000
v 0.187500 0.687500 0.125000
v 0.187500 0.625000 0.125000
v 0.125000 0.625000 -0.062500
v 0.125000 0.375000 -0.062500
v -0.125000 0.625000 -0.062500
v -0.125000 0.375000 -0.062500
v -0.125000 0.625000 0.062500
v -0.125000 0.375000 0.062500
v 0.125000 0.625000 0.062500
v 0.125000 0.375000 0.062500
v 0.375000 0.875000 -0.078125
v 0.375000 0.718750 -0.078125
v 0.250000 0.875000 -0.078125
v 0.250000 0.718750 -0.078125
v 0.250000 0.875000 0.078125
v 0.250000 0.718750 0.078125
v 0.375000 0.875000 0.078125
v 0.375000 0.718750 0.078125
v 0.500000 0.875000 -0.046875
v 0.500000 0.781250 -0.046875
v 0.375000 0.875000 -0.046875
v 0.375000 0.781250 -0.046875
v 0.375000 0.875000 0.046875
v 0.375000 0.781250 0.046875
v 0.500000 0.875000 0.046875
v 0.500000 0.781250 0.046875
v -0.250000 0.875000 -0.125000
v -0.250000 0.781250 -0.125000
v -0.437500 0.875000 -0.125000
v -0.437500 0.781250 -0.125000
v -0.437500 0.875000 0.125000
v -0.437500 0.781250 0.125000
v -0.250000 0.875000 0.125000
v -0.250000 0.781250 0.125000
v 0.500000 0.187500 0.375000
v 0.500000 -0.000000 0.375000
v 0.375000 0.187500 0.375000
v 0.375000 -0.000000 0.375000
v 0.375000 0.187500 0.500000
v 0.375000 -0.000000 0.500000
v 0.500000 0.187500 0.500000
v 0.500000 -0.000000 0.500000
v 0.187500 0.375000 -0.125000
v 0.187500 0.312500 -0.125000
v -0.187500 0.375000 -0.125000
v -0.187500 0.312500 -0.125000
v -0.187500 0.375000 0.125000
v -0.187500 0.312500 0.125000
v 0.187500 0.375000 0.125000
v 0.187500 0.312500 0.125000
v 0.500000 0.187500 -0.500000
v 0.500000 0.000000 -0.500000
v 0.375000 0.187500 -0.500000
v 0.375000 0.000000 -0.500000
v 0.375000 0.187500 -0.375000
v 0.375000 0.000000 -0.375000
v 0.500000 0.187500 -0.375000
v 0.500000 0.000000 -0.375000
v -0.375000 0.187500 -0.500000
v -0.375000 0.000000 -0.500000
v -0.500000 0.187500 -0.500000
v -0.500000 0.000000 -0.500000
v -0.500000 0.187500 -0.375000
v -0.500000 0.000000 -0.375000
v -0.375000 0.187500 -0.375000
v -0.375000 0.000000 -0.375000
v -0.375000 0.187500 0.375000
v -0.375000 -0.000000 0.375000
v -0.500000 0.187500 0.375000
v -0.500000 -0.000000 0.375000
v -0.500000 0.187500 0.500000
v -0.500000 -0.000000 0.500000
v -0.375000 0.187500 0.500000
v -0.375000 -0.000000 0.500000
v 0.304686 0.245343 -0.255348
v 0.355762 0.205410 -0.306046
v 0.256487 0.245342 -0.303927
v 0.307546 0.205423 -0.354608
v 0.243224 0.242685 -0.242567
v 0.292871 0.189961 -0.291827
v 0.272862 0.296906 -0.271974
v 0.317375 0.249050 -0.316139
v 0.253505 0.277500 -0.204567
v 0.301198 0.249126 -0.251887
v 0.205306 0.277500 -0.253145
v 0.252999 0.249126 -0.300466
v 0.369475 0.198937 -0.319663
v 0.425974 0.172268 -0.375767
v 0.321259 0.198950 -0.368225
v 0.377758 0.172281 -0.424328
v 0.310483 0.179324 -0.309313
v 0.366728 0.152773 -0.365165
v 0.326315 0.244022 -0.325015
v 0.382160 0.217663 -0.380470
v 0.312661 0.236692 -0.263260
v 0.365302 0.200907 -0.315519
v 0.264462 0.236692 -0.311839
v 0.317086 0.200920 -0.364081
v -0.304686 0.245343 -0.255348
v -0.355762 0.205410 -0.306046
v -0.256487 0.245342 -0.303927
v -0.307546 0.205423 -0.354608
v -0.243224 0.242685 -0.242567
v -0.292871 0.189961 -0.291827
v -0.272862 0.296906 -0.271974
v -0.317375 0.249050 -0.316139
v -0.253505 0.277500 -0.204567
v -0.301198 0.249126 -0.251887
v -0.205306 0.277500 -0.253145
v -0.252999 0.249126 -0.300466
v -0.369475 0.198937 -0.319663
v -0.425974 0.172268 -0.375767
v -0.321259 0.198950 -0.368225
v -0.377758 0.172281 -0.424328
v -0.310483 0.179324 -0.309313
v -0.366728 0.152773 -0.365165
v -0.326315 0.244022 -0.325015
v -0.382160 0.217663 -0.380470
v -0.312661 0.236692 -0.263260
v -0.365302 0.200907 -0.315519
v -0.264462 0.236692 -0.311839
v -0.317086 0.200920 -0.364081
v 0.304686 0.245342 0.255348
v 0.355762 0.205410 0.306046
v 0.256487 0.245342 0.303927
v 0.307546 0.205423 0.354608
v 0.243224 0.242685 0.242567
v 0.292871 0.189961 0.291827
v 0.272862 0.296906 0.271974
v 0.317375 0.249050 0.316139
v 0.253505 0.277500 0.204567
v 0.301198 0.249126 0.251887
v 0.205306 0.277500 0.253146
v 0.252999 0.249126 0.300466
v 0.369475 0.198937 0.319663
v 0.425974 0.172268 0.375767
v 0.321259 0.198950 0.368225
v 0.377758 0.172280 0.424329
v 0.310483 0.179324 0.309313
v 0.366728 0.152773 0.365165
v 0.326315 0.244022 0.325015
v 0.382160 0.217663 0.380470
v 0.312661 0.236692 0.263260
v 0.365302 0.200907 0.315519
v 0.264462 0.236692 0.311839
v 0.317086 0.200919 0.364081
v -0.304686 0.245342 0.255348
v -0.355762 0.205410 0.306046
v -0.256487 0.245342 0.303927
v -0.307546 0.205423 0.354608
v -0.243224 0.242685 0.242567
v -0.292871 0.189961 0.291827
v -0.272862 0.296906 0.271974
v -0.317375 0.249050 0.316139
v -0.253505 0.277500 0.204567
v -0.301198 0.249126 0.251887
v -0.205306 0.277500 0.253146
v -0.252999 0.249126 0.300466
v -0.369475 0.198937 0.319663
v -0.425974 0.172268 0.375767
v -0.321259 0.198950 0.368225
v -0.377758 0.172280 0.424329
v -0.310483 0.179324 0.309313
v -0.366728 0.152773 0.365165
v -0.326315 0.244022 0.325015
v -0.382160 0.217663 0.380470
v -0.312661 0.236692 0.263260
v -0.365302 0.200907 0.315519
v -0.264462 0.236692 0.311839
v -0.317086 0.200919 0.364081
vt 0.515625 0.007812
vt 0.609375 0.007812
vt 0.609375 0.085938
vt 0.515625 0.085938
vt 0.515625 0.007812
vt 0.609375 0.007812
vt 0.609375 0.085938
vt 0.515625 0.085938
vt 0.515625 0.007812
vt 0.609375 0.007812
vt 0.609375 0.085938
vt 0.515625 0.085938
vt 0.515625 0.007812
vt 0.609375 0.007812
vt 0.609375 0.085938
vt 0.515625 0.085938
vt 0.515625 0.007812
vt 0.609375 0.007812
vt 0.609375 0.085938
vt 0.515625 0.085938
vt 0.515625 0.007812
vt 0.609375 0.007812
vt 0.609375 0.085938
vt 0.515625 0.085938
vt 0.515625 0.007812
vt 0.515625 0.085938
vt 0.609375 0.085938
vt 0.609375 0.007812
vt 0.515625 0.007812
vt 0.515625 0.085938
vt 0.609375 0.085938
vt 0.609375 0.007812
vt 0.515625 0.007812
vt 0.515625 0.085938
vt 0.609375 0.085938
vt 0.609375 0.007812
vt 0.515625 0.007812
vt 0.515625 0.085938
vt 0.609375 0.085938
vt 0.609375 0.007812
vt 0.515625 0.007812
vt 0.515625 0.085938
vt 0.609375 0.085938
vt 0.609375 0.007812
vt 0.515625 0.007812
vt 0.515625 0.085938
vt 0.609375 0.085938
vt 0.609375 0.007812
vt 0.515625 0.007812
vt 0.515625 0.085938
vt 0.609375 0.085938
vt 0.609375 0.007812
vt 0.515625 0.007812
vt 0.515625 0.085938
vt 0.609375 0.085938
vt 0.609375 0.007812
vt 0.515625 0.007812
vt 0.515625 0.085938
vt 0.609375 0.085938
vt 0.609375 0.007812
vt 0.515625 0.007812
vt 0.515625 0.085938
vt 0.609375 0.085938
vt 0.609375 0.007812
vt 0.515625 0.007812
vt 0.515625 0.085938
vt 0.609375 0.085938
vt 0.609375 0.007812
vt 0.515625 0.007812
vt 0.515625 0.085938
vt 0.609375 0.085938
vt 0.609375 0.007812
vt 0.515625 0.007812
vt 0.609375 0.007812
vt 0.609375 0.085938
vt 0.515625 0.085938
vt 0.515625 0.007812
vt 0.609375 0.007812
vt 0.609375 0.085938
vt 0.515625 0.085938
vt 0.515625 0.007812
vt 0.609375 0.007812
vt 0.609375 0.085938
vt 0.515625 0.085938
vt 0.515625 0.007812
vt 0.609375 0.007812
vt 0.609375 0.085938
vt 0.515625 0.085938
vt 0.515625 0.007812
vt 0.609375 0.007812
vt 0.609375 0.085938
vt 0.515625 0.085938
vt 0.515625 0.007812
vt 0.609375 0.007812
vt 0.609375 0.085938
vt 0.515625 0.085938
vt 0.593750 0.750000
vt 0.593750 0.656250
vt 0.843750 0.750000
vt 0.843750 0.656250
vt 0.187500 0.750000
vt 0.187500 0.656250
vt 0.437500 0.750000
vt 0.437500 0.656250
vt 0.687500 1.000000
vt 0.687500 0.750000
vt 0.843750 1.000000
vt 0.843750 0.750000
vt 0.843750 1.000000
vt 0.843750 0.750000
vt 1.000000 1.000000
vt 1.000000 0.750000
vt 1.000000 0.750000
vt 1.000000 0.656250
vt 0.000000 0.398438
vt 0.000000 0.242188
vt 0.250000 0.398438
vt 0.250000 0.242188
vt 0.000000 0.398438
vt 0.000000 0.242188
vt 0.250000 0.398438
vt 0.250000 0.242188
vt 0.000000 0.648438
vt 0.000000 0.398438
vt 0.250000 0.648438
vt 0.250000 0.398438
vt 0.250000 0.648438
vt 0.250000 0.398438
vt 0.500000 0.648438
vt 0.500000 0.398438
vt 0.000000 0.242188
vt 0.250000 0.242188
vt 0.000000 0.398438
vt 0.000000 0.242188
vt 0.250000 0.398438
vt 0.250000 0.242188
vt 0.000000 0.812500
vt 0.000000 0.781250
vt 0.187500 0.812500
vt 0.187500 0.781250
vt 0.312500 0.812500
vt 0.312500 0.781250
vt 0.500000 0.812500
vt 0.500000 0.781250
vt 0.000000 1.000000
vt 0.000000 1.000000
vt 0.000000 1.000000
vt 0.000000 1.000000
vt 0.000000 1.000000
vt 0.000000 0.812500
vt 0.125000 1.000000
vt 0.125000 0.812500
vt 0.625000 0.812500
vt 0.625000 0.781250
vt 0.875000 0.125000
vt 0.875000 0.000000
vt 1.000000 0.125000
vt 1.000000 0.000000
vt 0.875000 0.125000
vt 0.875000 0.000000
vt 1.000000 0.125000
vt 1.000000 0.000000
vt 0.000000 1.000000
vt 0.000000 0.968750
vt 0.015625 1.000000
vt 0.015625 0.968750
vt 0.000000 1.000000
vt 0.000000 0.968750
vt 0.015625 1.000000
vt 0.015625 0.968750
vt 0.812500 0.125000
vt 0.812500 0.000000
vt 0.812500 0.125000
vt 0.812500 0.000000
vt 0.937500 0.578125
vt 0.937500 0.500000
vt 1.000000 0.578125
vt 1.000000 0.500000
vt 0.796875 0.578125
vt 0.796875 0.500000
vt 0.859375 0.578125
vt 0.859375 0.500000
vt 0.921875 0.640625
vt 0.921875 0.578125
vt 1.000000 0.640625
vt 1.000000 0.578125
vt 0.843750 0.640625
vt 0.843750 0.578125
vt 0.921875 0.640625
vt 0.921875 0.578125
vt 0.937500 0.273438
vt 0.937500 0.226562
vt 1.000000 0.273438
vt 1.000000 0.226562
vt 0.828125 0.273438
vt 0.828125 0.226562
vt 0.890625 0.273438
vt 0.890625 0.226562
vt 0.953125 0.335938
vt 0.953125 0.273438
vt 1.000000 0.335938
vt 1.000000 0.273438
vt 0.906250 0.335938
vt 0.906250 0.273438
vt 0.953125 0.335938
vt 0.953125 0.273438
vt 0.000000 1.000000
vt 0.000000 1.000000
vt 0.000000 1.000000
vt 0.000000 1.000000
vt 0.687500 0.390625
vt 0.687500 0.343750
vt 0.781250 0.390625
vt 0.781250 0.343750
vt 0.906250 0.390625
vt 0.906250 0.343750
vt 1.000000 0.390625
vt 1.000000 0.343750
vt 0.875000 0.484375
vt 0.875000 0.390625
vt 1.000000 0.484375
vt 1.000000 0.390625
vt 0.750000 0.484375
vt 0.750000 0.390625
vt 0.875000 0.484375
vt 0.875000 0.390625
vt 0.000000 0.093750
vt 0.000000 0.000000
vt 0.062500 0.093750
vt 0.062500 0.000000
vt 0.000000 0.093750
vt 0.000000 0.000000
vt 0.062500 0.093750
vt 0.062500 0.000000
vt 0.000000 0.156250
vt 0.000000 0.093750
vt 0.062500 0.156250
vt 0.062500 0.093750
vt 0.062500 0.156250
vt 0.062500 0.093750
vt 0.125000 0.156250
vt 0.125000 0.093750
vt 0.000000 0.000000
vt 0.062500 0.000000
vt 0.000000 0.093750
vt 0.000000 0.000000
vt 0.062500 0.093750
vt 0.062500 0.000000
vt 0.406250 0.179688
vt 0.406250 0.148438
vt 0.593750 0.179688
vt 0.593750 0.148438
vt 0.718750 0.179688
vt 0.718750 0.148438
vt 0.906250 0.179688
vt 0.906250 0.148438
vt 0.281250 0.367188
vt 0.281250 0.179688
vt 0.406250 0.367188
vt 0.000000 1.000000
vt 0.000000 0.953125
vt 0.031250 1.000000
vt 0.031250 0.953125
vt 0.281250 0.148438
vt 0.000000 0.093750
vt 0.000000 0.000000
vt 0.062500 0.093750
vt 0.062500 0.000000
vt 0.000000 0.093750
vt 0.000000 0.000000
vt 0.062500 0.093750
vt 0.062500 0.000000
vt 0.000000 0.156250
vt 0.000000 0.093750
vt 0.062500 0.156250
vt 0.062500 0.093750
vt 0.062500 0.156250
vt 0.062500 0.093750
vt 0.125000 0.156250
vt 0.125000 0.093750
vt 0.000000 0.000000
vt 0.062500 0.000000
vt 0.000000 0.093750
vt 0.000000 0.000000
vt 0.062500 0.093750
vt 0.062500 0.000000
vt 0.000000 0.093750
vt 0.000000 0.000000
vt 0.062500 0.093750
vt 0.062500 0.000000
vt 0.000000 0.093750
vt 0.000000 0.000000
vt 0.062500 0.093750
vt 0.062500 0.000000
vt 0.000000 0.156250
vt 0.000000 0.093750
vt 0.062500 0.156250
vt 0.062500 0.093750
vt 0.062500 0.156250
vt 0.062500 0.093750
vt 0.125000 0.156250
vt 0.125000 0.093750
vt 0.000000 0.000000
vt 0.062500 0.000000
vt 0.000000 0.093750
vt 0.000000 0.000000
vt 0.062500 0.093750
vt 0.062500 0.000000
vt 0.000000 0.093750
vt 0.000000 0.000000
vt 0.062500 0.093750
vt 0.062500 0.000000
vt 0.000000 0.093750
vt 0.000000 0.000000
vt 0.062500 0.093750
vt 0.062500 0.000000
vt 0.000000 0.156250
vt 0.000000 0.093750
vt 0.062500 0.156250
vt 0.062500 0.093750
vt 0.062500 0.156250
vt 0.062500 0.093750
vt 0.125000 0.156250
vt 0.125000 0.093750
vt 0.000000 0.000000
vt 0.062500 0.000000
vt 0.000000 0.093750
vt 0.000000 0.000000
vt 0.062500 0.093750
vt 0.062500 0.000000
vn 0.3444 0.8744 -0.3417
vn 0.7043 -0.0000 0.7099
vn 0.2762 0.9212 -0.2740
vn 0.2255 0.9482 -0.2236
vn 0.7046 -0.0002 0.7096
vn 0.3085 0.9007 -0.3060
vn -0.3444 0.8744 -0.3417
vn -0.7043 -0.0000 0.7099
vn -0.2762 0.9212 -0.2740
vn -0.2255 0.9482 -0.2236
vn -0.7046 -0.0002 0.7096
vn -0.3085 0.9007 -0.3060
vn 0.3444 0.8744 0.3417
vn 0.7043 -0.0000 -0.7099
vn 0.2762 0.9212 0.2740
vn 0.2255 0.9482 0.2237
vn 0.7046 -0.0002 -0.7096
vn 0.3085 0.9007 0.3060
vn -0.3444 0.8744 0.3417
vn -0.7043 -0.0000 -0.7099
vn -0.2762 0.9212 0.2740
vn -0.2255 0.9482 0.2237
vn -0.7046 -0.0002 -0.7096
vn -0.3085 0.9007 0.3060
vn 0.0000 0.0000 -1.0000
vn 0.0000 -0.0000 1.0000
vn 0.0000 1.0000 0.0000
vn 0.0000 -1.0000 0.0000
vn 1.0000 0.0000 0.0000
vn -1.0000 0.0000 0.0000
usemtl Материал
s off
f 97/1/1 98/2/1 100/3/1 99/4/1
f 101/5/2 102/6/2 104/7/2 103/8/2
f 105/9/3 106/10/3 108/11/3 107/12/3
f 109/13/4 110/14/4 112/15/4 111/16/4
f 113/17/5 114/18/5 116/19/5 115/20/5
f 117/21/6 118/22/6 120/23/6 119/24/6
f 121/25/7 123/26/7 124/27/7 122/28/7
f 125/29/8 127/30/8 128/31/8 126/32/8
f 129/33/9 131/34/9 132/35/9 130/36/9
f 133/37/10 135/38/10 136/39/10 134/40/10
f 137/41/11 139/42/11 140/43/11 138/44/11
f 141/45/12 143/46/12 144/47/12 142/48/12
f 145/49/13 147/50/13 148/51/13 146/52/13
f 149/53/14 151/54/14 152/55/14 150/56/14
f 153/57/15 155/58/15 156/59/15 154/60/15
f 157/61/16 159/62/16 160/63/16 158/64/16
f 161/65/17 163/66/17 164/67/17 162/68/17
f 165/69/18 167/70/18 168/71/18 166/72/18
f 169/73/19 170/74/19 172/75/19 171/76/19
f 173/77/20 174/78/20 176/79/20 175/80/20
f 177/81/21 178/82/21 180/83/21 179/84/21
f 181/85/22 182/86/22 184/87/22 183/88/22
f 185/89/23 186/90/23 188/91/23 187/92/23
f 189/93/24 190/94/24 192/95/24 191/96/24
s 1
f 1/97/25 2/98/25 3/99/25
f 2/98/25 4/100/25 3/99/25
f 5/101/26 6/102/26 7/103/26
f 6/102/26 8/104/26 7/103/26
f 5/105/27 7/106/27 3/107/27
f 7/106/27 1/108/27 3/107/27
f 8/109/28 6/110/28 2/111/28
f 6/110/28 4/112/28 2/111/28
f 7/103/29 8/104/29 1/97/29
f 8/104/29 2/98/29 1/97/29
f 3/99/30 4/100/30 5/113/30
f 4/100/30 6/114/30 5/113/30
f 9/115/25 10/116/25 11/117/25
f 10/116/25 12/118/25 11/117/25
f 13/119/26 14/120/26 15/121/26
f 14/120/26 16/122/26 15/121/26
f 13/123/27 15/124/27 11/125/27
f 15/124/27 9/126/27 11/125/27
f 16/127/28 14/128/28 10/129/28
f 14/128/28 12/130/28 10/129/28
f 15/124/29 16/131/29 9/126/29
f 16/131/29 10/132/29 9/126/29
f 11/133/30 12/134/30 13/135/30
f 12/134/30 14/136/30 13/135/30
f 17/137/25 18/138/25 19/139/25
f 18/138/25 20/140/25 19/139/25
f 21/141/26 22/142/26 23/143/26
f 22/142/26 24/144/26 23/143/26
f 21/145/27 23/146/27 19/147/27
f 23/146/27 17/148/27 19/147/27
f 24/149/28 22/150/28 18/151/28
f 22/150/28 20/152/28 18/151/28
f 23/143/29 24/144/29 17/153/29
f 24/144/29 18/154/29 17/153/29
f 19/139/30 20/140/30 21/141/30
f 20/140/30 22/142/30 21/141/30
f 25/155/25 26/156/25 27/157/25
f 26/156/25 28/158/25 27/157/25
f 29/159/26 30/160/26 31/161/26
f 30/160/26 32/162/26 31/161/26
f 29/163/27 31/164/27 27/165/27
f 31/164/27 25/166/27 27/165/27
f 32/167/28 30/168/28 26/169/28
f 30/168/28 28/170/28 26/169/28
f 31/171/29 32/172/29 25/155/29
f 32/172/29 26/156/29 25/155/29
f 27/173/30 28/174/30 29/159/30
f 28/174/30 30/160/30 29/159/30
f 33/175/25 34/176/25 35/177/25
f 34/176/25 36/178/25 35/177/25
f 37/179/26 38/180/26 39/181/26
f 38/180/26 40/182/26 39/181/26
f 37/183/27 39/184/27 35/185/27
f 39/184/27 33/186/27 35/185/27
f 40/187/28 38/188/28 34/189/28
f 38/188/28 36/190/28 34/189/28
f 39/181/29 40/182/29 33/175/29
f 40/182/29 34/176/29 33/175/29
f 41/191/25 42/192/25 43/193/25
f 42/192/25 44/194/25 43/193/25
f 45/195/26 46/196/26 47/197/26
f 46/196/26 48/198/26 47/197/26
f 45/199/27 47/200/27 43/201/27
f 47/200/27 41/202/27 43/201/27
f 48/203/28 46/204/28 42/205/28
f 46/204/28 44/206/28 42/205/28
f 47/197/29 48/198/29 41/191/29
f 48/198/29 42/192/29 41/191/29
f 43/207/30 44/208/30 45/209/30
f 44/208/30 46/210/30 45/209/30
f 49/211/25 50/212/25 51/213/25
f 50/212/25 52/214/25 51/213/25
f 53/215/26 54/216/26 55/217/26
f 54/216/26 56/218/26 55/217/26
f 53/219/27 55/220/27 51/221/27
f 55/220/27 49/222/27 51/221/27
f 56/223/28 54/224/28 50/225/28
f 54/224/28 52/226/28 50/225/28
f 51/213/30 52/214/30 53/215/30
f 52/214/30 54/216/30 53/215/30
f 57/227/25 58/228/25 59/229/25
f 58/228/25 60/230/25 59/229/25
f 61/231/26 62/232/26 63/233/26
f 62/232/26 64/234/26 63/233/26
f 61/235/27 63/236/27 59/237/27
f 63/236/27 57/238/27 59/237/27
f 64/239/28 62/240/28 58/241/28
f 62/240/28 60/242/28 58/241/28
f 63/236/29 64/243/29 57/238/29
f 64/243/29 58/244/29 57/238/29
f 59/245/30 60/246/30 61/247/30
f 60/246/30 62/248/30 61/247/30
f 65/249/25 66/250/25 67/251/25
f 66/250/25 68/252/25 67/251/25
f 69/253/26 70/254/26 71/255/26
f 70/254/26 72/256/26 71/255/26
f 69/257/27 71/258/27 67/259/27
f 71/258/27 65/249/27 67/259/27
f 72/260/28 70/261/28 66/262/28
f 70/261/28 68/263/28 66/262/28
f 71/258/29 72/264/29 65/249/29
f 72/264/29 66/250/29 65/249/29
f 67/251/30 68/252/30 69/253/30
f 68/252/30 70/254/30 69/253/30
f 73/265/25 74/266/25 75/267/25
f 74/266/25 76/268/25 75/267/25
f 77/269/26 78/270/26 79/271/26
f 78/270/26 80/272/26 79/271/26
f 77/273/27 79/274/27 75/275/27
f 79/274/27 73/276/27 75/275/27
f 80/277/28 78/278/28 74/279/28
f 78/278/28 76/280/28 74/279/28
f 79/274/29 80/281/29 73/276/29
f 80/281/29 74/282/29 73/276/29
f 75/283/30 76/284/30 77/285/30
f 76/284/30 78/286/30 77/285/30
f 81/287/25 82/288/25 83/289/25
f 82/288/25 84/290/25 83/289/25
f 85/291/26 86/292/26 87/293/26
f 86/292/26 88/294/26 87/293/26
f 85/295/27 87/296/27 83/297/27
f 87/296/27 81/298/27 83/297/27
f 88/299/28 86/300/28 82/301/28
f 86/300/28 84/302/28 82/301/28
f 87/296/29 88/303/29 81/298/29
f 88/303/29 82/304/29 81/298/29
f 83/305/30 84/306/30 85/307/30
f 84/306/30 86/308/30 85/307/30
f 89/309/25 90/310/25 91/311/25
f 90/310/25 92/312/25 91/311/25
f 93/313/26 94/314/26 95/315/26
f 94/314/26 96/316/26 95/315/26
f 93/317/27 95/318/27 91/319/27
f 95/318/27 89/320/27 91/319/27
f 96/321/28 94/322/28 90/323/28
f 94/322/28 92/324/28 90/323/28
f 95/318/29 96/325/29 89/320/29
f 96/325/29 90/326/29 89/320/29
f 91/327/30 92/328/30 93/329/30
f 92/328/30 94/330/30 93/329/30
