# Blender v2.79 (sub 0) OBJ File: ''
# www.blender.org
o SupportTable_cube
v 0.437500 0.812500 0.437500
v 0.437500 0.750000 0.437500
v 0.437500 0.812500 -0.437500
v 0.437500 0.750000 -0.437500
v -0.437500 0.812500 -0.437500
v -0.437500 0.750000 -0.437500
v -0.437500 0.812500 0.437500
v -0.437500 0.750000 0.437500
v 0.500000 0.875000 0.500000
v 0.500000 0.812500 0.500000
v 0.500000 0.875000 -0.500000
v 0.500000 0.812500 -0.500000
v -0.500000 0.875000 -0.500000
v -0.500000 0.812500 -0.500000
v -0.500000 0.875000 0.500000
v -0.500000 0.812500 0.500000
v 0.468750 0.812500 -0.343750
v 0.468750 -0.057123 -0.343750
v 0.468750 0.812500 -0.468750
v 0.468750 -0.057123 -0.468750
v 0.343750 0.812500 -0.468750
v 0.343750 -0.057123 -0.468750
v 0.343750 0.812500 -0.343750
v 0.343750 -0.057123 -0.343750
v -0.343750 0.812500 0.468750
v -0.343750 -0.057123 0.468750
v -0.343750 0.812500 0.343750
v -0.343750 -0.057123 0.343750
v -0.468750 0.812500 0.343750
v -0.468750 -0.057123 0.343750
v -0.468750 0.812500 0.468750
v -0.468750 -0.057123 0.468750
v -0.343750 0.812500 -0.343750
v -0.343750 -0.057123 -0.343750
v -0.343750 0.812500 -0.468750
v -0.343750 -0.057123 -0.468750
v -0.468750 0.812500 -0.468750
v -0.468750 -0.057123 -0.468750
v -0.468750 0.812500 -0.343750
v -0.468750 -0.057123 -0.343750
v 0.468750 0.812500 0.468750
v 0.468750 -0.057123 0.468750
v 0.468750 0.812500 0.343750
v 0.468750 -0.057123 0.343750
v 0.343750 0.812500 0.343750
v 0.343750 -0.057123 0.343750
v 0.343750 0.812500 0.468750
v 0.343750 -0.057123 0.468750
vt 0.437500 0.500000
vt 0.437500 0.484375
vt 0.656250 0.500000
vt 0.656250 0.484375
vt 0.000000 0.500000
vt 0.000000 0.484375
vt 0.218750 0.500000
vt 0.218750 0.484375
vt 0.000000 1.000000
vt 0.000000 1.000000
vt 0.000000 1.000000
vt 0.000000 1.000000
vt 0.000000 0.718750
vt 0.000000 0.500000
vt 0.218750 0.718750
vt 0.218750 0.500000
vt 0.875000 0.500000
vt 0.875000 0.484375
vt 0.750000 0.750000
vt 0.750000 0.718750
vt 1.000000 0.750000
vt 1.000000 0.718750
vt 0.250000 0.750000
vt 0.250000 0.718750
vt 0.500000 0.750000
vt 0.500000 0.718750
vt 0.000000 1.000000
vt 0.000000 0.750000
vt 0.250000 1.000000
vt 0.250000 0.750000
vt 0.250000 1.000000
vt 0.250000 0.750000
vt 0.500000 1.000000
vt 0.500000 0.750000
vt 0.000000 0.750000
vt 0.000000 0.718750
vt 0.578125 1.000000
vt 0.578125 0.796875
vt 0.609375 1.000000
vt 0.609375 0.796875
vt 0.515625 1.000000
vt 0.515625 0.796875
vt 0.546875 1.000000
vt 0.546875 0.796875
vt 0.000000 1.000000
vt 0.000000 1.000000
vt 0.000000 1.000000
vt 0.000000 1.000000
vt 0.546875 0.765625
vt 0.578125 0.765625
vt 0.640625 1.000000
vt 0.640625 0.796875
vt 0.578125 1.000000
vt 0.578125 0.796875
vt 0.609375 1.000000
vt 0.609375 0.796875
vt 0.515625 1.000000
vt 0.515625 0.796875
vt 0.546875 1.000000
vt 0.546875 0.796875
vt 0.000000 1.000000
vt 0.000000 1.000000
vt 0.000000 1.000000
vt 0.000000 1.000000
vt 0.546875 0.765625
vt 0.578125 0.765625
vt 0.640625 1.000000
vt 0.640625 0.796875
vt 0.578125 1.000000
vt 0.578125 0.796875
vt 0.609375 1.000000
vt 0.609375 0.796875
vt 0.515625 1.000000
vt 0.515625 0.796875
vt 0.546875 1.000000
vt 0.546875 0.796875
vt 0.000000 1.000000
vt 0.000000 1.000000
vt 0.000000 1.000000
vt 0.000000 1.000000
vt 0.546875 0.765625
vt 0.578125 0.765625
vt 0.640625 1.000000
vt 0.640625 0.796875
vt 0.578125 1.000000
vt 0.578125 0.796875
vt 0.609375 1.000000
vt 0.609375 0.796875
vt 0.515625 1.000000
vt 0.515625 0.796875
vt 0.546875 1.000000
vt 0.546875 0.796875
vt 0.000000 1.000000
vt 0.000000 1.000000
vt 0.000000 1.000000
vt 0.000000 1.000000
vt 0.546875 0.765625
vt 0.578125 0.765625
vt 0.640625 1.000000
vt 0.640625 0.796875
vn 1.0000 0.0000 0.0000
vn -1.0000 0.0000 0.0000
vn 0.0000 1.0000 0.0000
vn 0.0000 -1.0000 -0.0000
vn 0.0000 0.0000 1.0000
vn 0.0000 0.0000 -1.0000
s 1
f 1/1/1 2/2/1 3/3/1
f 2/2/1 4/4/1 3/3/1
f 5/5/2 6/6/2 7/7/2
f 6/6/2 8/8/2 7/7/2
f 5/9/3 7/10/3 3/11/3
f 7/10/3 1/12/3 3/11/3
f 8/13/4 6/14/4 2/15/4
f 6/14/4 4/16/4 2/15/4
f 7/7/5 8/8/5 1/1/5
f 8/8/5 2/2/5 1/1/5
f 3/3/6 4/4/6 5/17/6
f 4/4/6 6/18/6 5/17/6
f 9/19/1 10/20/1 11/21/1
f 10/20/1 12/22/1 11/21/1
f 13/23/2 14/24/2 15/25/2
f 14/24/2 16/26/2 15/25/2
f 13/27/3 15/28/3 11/29/3
f 15/28/3 9/30/3 11/29/3
f 16/31/4 14/32/4 10/33/4
f 14/32/4 12/34/4 10/33/4
f 15/25/5 16/26/5 9/19/5
f 16/26/5 10/20/5 9/19/5
f 11/35/6 12/36/6 13/23/6
f 12/36/6 14/24/6 13/23/6
f 17/37/1 18/38/1 19/39/1
f 18/38/1 20/40/1 19/39/1
f 21/41/2 22/42/2 23/43/2
f 22/42/2 24/44/2 23/43/2
f 21/45/3 23/46/3 19/47/3
f 23/46/3 17/48/3 19/47/3
f 24/44/4 22/49/4 18/38/4
f 22/49/4 20/50/4 18/38/4
f 23/43/5 24/44/5 17/37/5
f 24/44/5 18/38/5 17/37/5
f 19/39/6 20/40/6 21/51/6
f 20/40/6 22/52/6 21/51/6
f 25/53/1 26/54/1 27/55/1
f 26/54/1 28/56/1 27/55/1
f 29/57/2 30/58/2 31/59/2
f 30/58/2 32/60/2 31/59/2
f 29/61/3 31/62/3 27/63/3
f 31/62/3 25/64/3 27/63/3
f 32/60/4 30/65/4 26/54/4
f 30/65/4 28/66/4 26/54/4
f 31/59/5 32/60/5 25/53/5
f 32/60/5 26/54/5 25/53/5
f 27/55/6 28/56/6 29/67/6
f 28/56/6 30/68/6 29/67/6
f 33/69/1 34/70/1 35/71/1
f 34/70/1 36/72/1 35/71/1
f 37/73/2 38/74/2 39/75/2
f 38/74/2 40/76/2 39/75/2
f 37/77/3 39/78/3 35/79/3
f 39/78/3 33/80/3 35/79/3
f 40/76/4 38/81/4 34/70/4
f 38/81/4 36/82/4 34/70/4
f 39/75/5 40/76/5 33/69/5
f 40/76/5 34/70/5 33/69/5
f 35/71/6 36/72/6 37/83/6
f 36/72/6 38/84/6 37/83/6
f 41/85/1 42/86/1 43/87/1
f 42/86/1 44/88/1 43/87/1
f 45/89/2 46/90/2 47/91/2
f 46/90/2 48/92/2 47/91/2
f 45/93/3 47/94/3 43/95/3
f 47/94/3 41/96/3 43/95/3
f 48/92/4 46/97/4 42/86/4
f 46/97/4 44/98/4 42/86/4
f 47/91/5 48/92/5 41/85/5
f 48/92/5 42/86/5 41/85/5
f 43/87/6 44/88/6 45/99/6
f 44/88/6 46/100/6 45/99/6
