# Blender v2.79 (sub 0) OBJ File: ''
# www.blender.org
o cube
v 0.304686 0.245343 -0.255348
v 0.307546 0.205423 -0.354608
v 0.256487 0.245342 -0.303927
v 0.243224 0.242685 -0.242567
v 0.317375 0.249050 -0.316139
v 0.272862 0.296906 -0.271974
v 0.301198 0.249126 -0.251887
v 0.205306 0.277500 -0.253145
v 0.253505 0.277500 -0.204567
v 0.369475 0.198937 -0.319663
v 0.377758 0.172281 -0.424328
v 0.321259 0.198950 -0.368225
v 0.366728 0.152773 -0.365165
v 0.326315 0.244022 -0.325015
v 0.310483 0.179324 -0.309313
v 0.365302 0.200907 -0.315519
v 0.264462 0.236692 -0.311839
v 0.312661 0.236692 -0.263260
v -0.304686 0.245343 -0.255348
v -0.307546 0.205423 -0.354608
v -0.355762 0.205410 -0.306046
v -0.243224 0.242685 -0.242567
v -0.317375 0.249050 -0.316139
v -0.292871 0.189961 -0.291827
v -0.205306 0.277500 -0.253145
v -0.301198 0.249126 -0.251887
v -0.253505 0.277500 -0.204567
v -0.369475 0.198937 -0.319663
v -0.377758 0.172281 -0.424328
v -0.425974 0.172268 -0.375767
v -0.326315 0.244022 -0.325015
v -0.366728 0.152773 -0.365165
v -0.310483 0.179324 -0.309313
v -0.264462 0.236692 -0.311839
v -0.365302 0.200907 -0.315519
v -0.312661 0.236692 -0.263260
v 0.304686 0.245342 0.255348
v 0.307546 0.205423 0.354608
v 0.355762 0.205410 0.306046
v 0.243224 0.242685 0.242567
v 0.317375 0.249050 0.316139
v 0.292871 0.189961 0.291827
v 0.205306 0.277500 0.253146
v 0.301198 0.249126 0.251887
v 0.253505 0.277500 0.204567
v 0.321259 0.198950 0.368225
v 0.425974 0.172268 0.375767
v 0.369475 0.198937 0.319663
v 0.326315 0.244022 0.325015
v 0.366728 0.152773 0.365165
v 0.310483 0.179324 0.309313
v 0.264462 0.236692 0.311839
v 0.365302 0.200907 0.315519
v 0.312661 0.236692 0.263260
v -0.304686 0.245342 0.255348
v -0.307546 0.205423 0.354608
v -0.256487 0.245342 0.303927
v -0.243224 0.242685 0.242567
v -0.317375 0.249050 0.316139
v -0.272862 0.296906 0.271974
v -0.301198 0.249126 0.251887
v -0.205306 0.277500 0.253146
v -0.253505 0.277500 0.204567
v -0.425974 0.172268 0.375767
v -0.321259 0.198950 0.368225
v -0.369475 0.198937 0.319663
v -0.366728 0.152773 0.365165
v -0.326315 0.244022 0.325015
v -0.310483 0.179324 0.309313
v -0.365302 0.200907 0.315519
v -0.264462 0.236692 0.311839
v -0.312661 0.236692 0.263260
v 0.355762 0.205410 -0.306046
v 0.292871 0.189961 -0.291827
v 0.252999 0.249126 -0.300466
v 0.425974 0.172268 -0.375767
v 0.382160 0.217663 -0.380470
v 0.317086 0.200920 -0.364081
v -0.256487 0.245342 -0.303927
v -0.272862 0.296906 -0.271974
v -0.252999 0.249126 -0.300466
v -0.321259 0.198950 -0.368225
v -0.382160 0.217663 -0.380470
v -0.317086 0.200920 -0.364081
v 0.256487 0.245342 0.303927
v 0.272862 0.296906 0.271974
v 0.252999 0.249126 0.300466
v 0.377758 0.172280 0.424329
v 0.382160 0.217663 0.380470
v 0.317086 0.200919 0.364081
v -0.355762 0.205410 0.306046
v -0.292871 0.189961 0.291827
v -0.252999 0.249126 0.300466
v -0.377758 0.172280 0.424329
v -0.382160 0.217663 0.380470
v -0.317086 0.200919 0.364081
v 0.250000 0.875000 -0.156250
v 0.250000 0.687500 -0.156250
v -0.250000 0.875000 -0.156250
v -0.250000 0.687500 -0.156250
v -0.250000 0.875000 0.156250
v -0.250000 0.687500 0.156250
v 0.250000 0.875000 0.156250
v 0.250000 0.687500 0.156250
v -0.250000 0.312500 0.250000
v 0.250000 0.312500 0.250000
v -0.250000 0.312500 -0.250000
v 0.250000 0.312500 -0.250000
v 0.250000 -0.000000 0.250000
v -0.250000 -0.000000 0.250000
v 0.250000 0.000000 -0.250000
v -0.250000 0.000000 -0.250000
v 0.250000 0.131609 -0.250000
v 0.238678 0.169569 -0.238677
v -0.227409 0.169569 -0.227408
v -0.238678 0.169569 -0.238677
v 0.187500 0.687500 -0.125000
v 0.187500 0.625000 -0.125000
v -0.187500 0.687500 -0.125000
v -0.187500 0.625000 -0.125000
v -0.187500 0.687500 0.125000
v -0.187500 0.625000 0.125000
v 0.187500 0.687500 0.125000
v 0.187500 0.625000 0.125000
v 0.125000 0.625000 -0.062500
v 0.125000 0.375000 -0.062500
v -0.125000 0.625000 -0.062500
v -0.125000 0.375000 -0.062500
v -0.125000 0.625000 0.062500
v -0.125000 0.375000 0.062500
v 0.125000 0.625000 0.062500
v 0.125000 0.375000 0.062500
v 0.375000 0.875000 -0.078125
v 0.375000 0.746181 -0.078125
v 0.250000 0.875000 -0.078125
v 0.250000 0.718750 -0.078125
v 0.250000 0.875000 0.078125
v 0.250000 0.718750 0.078125
v 0.375000 0.875000 0.078125
v 0.375000 0.746181 0.078125
v 0.500000 0.875000 -0.046875
v 0.500000 0.825676 -0.046875
v 0.375000 0.875000 -0.046875
v 0.375000 0.781250 -0.046875
v 0.375000 0.875000 0.046875
v 0.375000 0.781250 0.046875
v 0.500000 0.875000 0.046875
v 0.500000 0.825676 0.046875
v -0.250000 0.875000 -0.125000
v -0.250000 0.781250 -0.125000
v -0.437500 0.875000 -0.125000
v -0.437500 0.781250 -0.125000
v -0.437500 0.875000 0.125000
v -0.437500 0.781250 0.125000
v -0.250000 0.875000 0.125000
v -0.250000 0.781250 0.125000
v 0.500000 0.187500 0.375000
v 0.500000 -0.000000 0.375000
v 0.375000 0.187500 0.375000
v 0.375000 -0.000000 0.375000
v 0.375000 0.187500 0.500000
v 0.375000 -0.000000 0.500000
v 0.500000 0.187500 0.500000
v 0.500000 -0.000000 0.500000
v 0.187500 0.375000 -0.125000
v 0.187500 0.312500 -0.125000
v -0.187500 0.375000 -0.125000
v -0.187500 0.312500 -0.125000
v -0.187500 0.375000 0.125000
v -0.187500 0.312500 0.125000
v 0.187500 0.375000 0.125000
v 0.187500 0.312500 0.125000
v 0.500000 0.187500 -0.500000
v 0.500000 0.000000 -0.500000
v 0.375000 0.187500 -0.500000
v 0.375000 0.000000 -0.500000
v 0.375000 0.187500 -0.375000
v 0.375000 0.000000 -0.375000
v 0.500000 0.187500 -0.375000
v 0.500000 0.000000 -0.375000
v -0.375000 0.187500 -0.500000
v -0.375000 0.000000 -0.500000
v -0.500000 0.187500 -0.500000
v -0.500000 0.000000 -0.500000
v -0.500000 0.187500 -0.375000
v -0.500000 0.000000 -0.375000
v -0.375000 0.187500 -0.375000
v -0.375000 0.000000 -0.375000
v -0.375000 0.187500 0.375000
v -0.375000 -0.000000 0.375000
v -0.500000 0.187500 0.375000
v -0.500000 -0.000000 0.375000
v -0.500000 0.187500 0.500000
v -0.500000 -0.000000 0.500000
v -0.375000 0.187500 0.500000
v -0.375000 -0.000000 0.500000
v -0.250000 0.131609 0.250000
v 0.238678 0.142931 0.238678
v -0.227409 0.142931 0.227409
v -0.238678 0.142931 0.238678
v -0.227409 0.169569 0.227409
v -0.238678 0.169569 0.238678
v 0.250000 0.131609 0.250000
v 0.238678 0.142931 -0.238677
v 0.227409 0.142931 0.227409
v -0.238678 0.142931 -0.238677
v 0.227409 0.142931 -0.227408
v -0.250000 0.131609 -0.250000
v -0.227409 0.142931 -0.227408
v 0.227409 0.169569 0.227409
v 0.238678 0.169569 0.238678
v 0.227409 0.169569 -0.227408
v 0.250000 0.180891 -0.250000
v -0.250000 0.180891 -0.250000
v -0.250000 0.180891 0.250000
v 0.250000 0.180891 0.250000
vt 0.515625 0.007812
vt 0.609375 0.085938
vt 0.515625 0.085938
vt 0.515625 0.007812
vt 0.609375 0.085938
vt 0.515625 0.085938
vt 0.609375 0.007812
vt 0.515625 0.085938
vt 0.515625 0.007812
vt 0.515625 0.007812
vt 0.609375 0.085938
vt 0.515625 0.085938
vt 0.609375 0.007812
vt 0.515625 0.085938
vt 0.515625 0.007812
vt 0.609375 0.007812
vt 0.515625 0.085938
vt 0.515625 0.007812
vt 0.515625 0.007812
vt 0.609375 0.085938
vt 0.609375 0.007812
vt 0.515625 0.007812
vt 0.609375 0.085938
vt 0.609375 0.007812
vt 0.515625 0.085938
vt 0.609375 0.007812
vt 0.515625 0.007812
vt 0.515625 0.007812
vt 0.609375 0.085938
vt 0.609375 0.007812
vt 0.515625 0.085938
vt 0.609375 0.007812
vt 0.515625 0.007812
vt 0.515625 0.085938
vt 0.609375 0.007812
vt 0.515625 0.007812
vt 0.515625 0.007812
vt 0.609375 0.085938
vt 0.609375 0.007812
vt 0.515625 0.007812
vt 0.609375 0.085938
vt 0.609375 0.007812
vt 0.515625 0.085938
vt 0.609375 0.007812
vt 0.515625 0.007812
vt 0.515625 0.085938
vt 0.609375 0.007812
vt 0.515625 0.007812
vt 0.515625 0.085938
vt 0.609375 0.007812
vt 0.515625 0.007812
vt 0.515625 0.085938
vt 0.609375 0.007812
vt 0.515625 0.007812
vt 0.515625 0.007812
vt 0.609375 0.085938
vt 0.515625 0.085938
vt 0.515625 0.007812
vt 0.609375 0.085938
vt 0.515625 0.085938
vt 0.609375 0.007812
vt 0.515625 0.085938
vt 0.515625 0.007812
vt 0.609375 0.007812
vt 0.515625 0.085938
vt 0.515625 0.007812
vt 0.609375 0.007812
vt 0.515625 0.085938
vt 0.515625 0.007812
vt 0.609375 0.007812
vt 0.515625 0.085938
vt 0.515625 0.007812
vt 0.609375 0.007812
vt 0.609375 0.007812
vt 0.609375 0.085938
vt 0.609375 0.007812
vt 0.609375 0.085938
vt 0.609375 0.085938
vt 0.515625 0.085938
vt 0.515625 0.085938
vt 0.609375 0.085938
vt 0.515625 0.085938
vt 0.609375 0.085938
vt 0.609375 0.085938
vt 0.515625 0.085938
vt 0.515625 0.085938
vt 0.609375 0.085938
vt 0.609375 0.085938
vt 0.609375 0.085938
vt 0.609375 0.085938
vt 0.609375 0.007812
vt 0.609375 0.007812
vt 0.609375 0.085938
vt 0.609375 0.085938
vt 0.609375 0.085938
vt 0.609375 0.085938
vt 0.593750 0.750000
vt 0.593750 0.656250
vt 0.843750 0.750000
vt 0.843750 0.656250
vt 0.187500 0.750000
vt 0.187500 0.656250
vt 0.437500 0.750000
vt 0.437500 0.656250
vt 0.687500 1.000000
vt 0.687500 0.750000
vt 0.843750 1.000000
vt 0.843750 0.750000
vt 0.843750 1.000000
vt 0.843750 0.750000
vt 1.000000 1.000000
vt 1.000000 0.750000
vt 1.000000 0.750000
vt 1.000000 0.656250
vt 0.000000 0.648438
vt 0.000000 0.398438
vt 0.250000 0.648438
vt 0.250000 0.398438
vt 0.250000 0.648438
vt 0.250000 0.398438
vt 0.500000 0.648438
vt 0.500000 0.398438
vt 0.250000 0.242188
vt 0.000000 0.314124
vt 0.000000 0.242188
vt 0.000000 0.328125
vt 0.250000 0.328125
vt 0.250000 0.328125
vt 0.000000 0.812500
vt 0.000000 0.781250
vt 0.187500 0.812500
vt 0.187500 0.781250
vt 0.312500 0.812500
vt 0.312500 0.781250
vt 0.500000 0.812500
vt 0.500000 0.781250
vt 0.000000 1.000000
vt 0.000000 1.000000
vt 0.000000 1.000000
vt 0.000000 1.000000
vt 0.000000 1.000000
vt 0.000000 0.812500
vt 0.125000 1.000000
vt 0.125000 0.812500
vt 0.625000 0.812500
vt 0.625000 0.781250
vt 0.875000 0.125000
vt 0.875000 0.000000
vt 1.000000 0.125000
vt 1.000000 0.000000
vt 0.875000 0.125000
vt 0.875000 0.000000
vt 1.000000 0.125000
vt 1.000000 0.000000
vt 0.000000 1.000000
vt 0.000000 0.968750
vt 0.015625 1.000000
vt 0.015625 0.968750
vt 0.000000 1.000000
vt 0.000000 0.968750
vt 0.015625 1.000000
vt 0.015625 0.968750
vt 0.812500 0.125000
vt 0.812500 0.000000
vt 0.812500 0.125000
vt 0.812500 0.000000
vt 0.937500 0.578125
vt 0.937500 0.500000
vt 1.000000 0.578125
vt 1.000000 0.500000
vt 0.796875 0.578125
vt 0.796875 0.500000
vt 0.859375 0.578125
vt 0.859375 0.500000
vt 0.921875 0.640625
vt 0.921875 0.578125
vt 1.000000 0.640625
vt 1.000000 0.578125
vt 0.843750 0.640625
vt 0.843750 0.578125
vt 0.921875 0.640625
vt 0.921875 0.578125
vt 0.937500 0.273438
vt 0.937500 0.226562
vt 1.000000 0.273438
vt 1.000000 0.226562
vt 0.828125 0.273438
vt 0.828125 0.226562
vt 0.890625 0.273438
vt 0.890625 0.226562
vt 0.953125 0.335938
vt 0.953125 0.273438
vt 1.000000 0.335938
vt 1.000000 0.273438
vt 0.906250 0.335938
vt 0.906250 0.273438
vt 0.953125 0.335938
vt 0.953125 0.273438
vt 0.000000 1.000000
vt 0.000000 1.000000
vt 0.000000 1.000000
vt 0.000000 1.000000
vt 0.687500 0.390625
vt 0.687500 0.343750
vt 0.781250 0.390625
vt 0.781250 0.343750
vt 0.906250 0.390625
vt 0.906250 0.343750
vt 1.000000 0.390625
vt 1.000000 0.343750
vt 0.875000 0.484375
vt 0.875000 0.390625
vt 1.000000 0.484375
vt 1.000000 0.390625
vt 0.750000 0.484375
vt 0.750000 0.390625
vt 0.875000 0.484375
vt 0.875000 0.390625
vt 0.000000 0.093750
vt 0.000000 0.000000
vt 0.062500 0.093750
vt 0.062500 0.000000
vt 0.000000 0.093750
vt 0.000000 0.000000
vt 0.062500 0.093750
vt 0.062500 0.000000
vt 0.000000 0.156250
vt 0.000000 0.093750
vt 0.062500 0.156250
vt 0.062500 0.093750
vt 0.062500 0.156250
vt 0.062500 0.093750
vt 0.125000 0.156250
vt 0.125000 0.093750
vt 0.000000 0.000000
vt 0.062500 0.000000
vt 0.000000 0.093750
vt 0.000000 0.000000
vt 0.062500 0.093750
vt 0.062500 0.000000
vt 0.406250 0.179688
vt 0.406250 0.148438
vt 0.593750 0.179688
vt 0.593750 0.148438
vt 0.718750 0.179688
vt 0.718750 0.148438
vt 0.906250 0.179688
vt 0.906250 0.148438
vt 0.281250 0.367188
vt 0.281250 0.179688
vt 0.406250 0.367188
vt 0.000000 1.000000
vt 0.000000 0.953125
vt 0.031250 1.000000
vt 0.031250 0.953125
vt 0.281250 0.148438
vt 0.000000 0.093750
vt 0.000000 0.000000
vt 0.062500 0.093750
vt 0.062500 0.000000
vt 0.000000 0.093750
vt 0.000000 0.000000
vt 0.062500 0.093750
vt 0.062500 0.000000
vt 0.000000 0.156250
vt 0.000000 0.093750
vt 0.062500 0.156250
vt 0.062500 0.093750
vt 0.062500 0.156250
vt 0.062500 0.093750
vt 0.125000 0.156250
vt 0.125000 0.093750
vt 0.000000 0.000000
vt 0.062500 0.000000
vt 0.000000 0.093750
vt 0.000000 0.000000
vt 0.062500 0.093750
vt 0.062500 0.000000
vt 0.000000 0.093750
vt 0.000000 0.000000
vt 0.062500 0.093750
vt 0.062500 0.000000
vt 0.000000 0.093750
vt 0.000000 0.000000
vt 0.062500 0.093750
vt 0.062500 0.000000
vt 0.000000 0.156250
vt 0.000000 0.093750
vt 0.062500 0.156250
vt 0.062500 0.093750
vt 0.062500 0.156250
vt 0.062500 0.093750
vt 0.125000 0.156250
vt 0.125000 0.093750
vt 0.000000 0.000000
vt 0.062500 0.000000
vt 0.000000 0.093750
vt 0.000000 0.000000
vt 0.062500 0.093750
vt 0.062500 0.000000
vt 0.000000 0.093750
vt 0.000000 0.000000
vt 0.062500 0.093750
vt 0.062500 0.000000
vt 0.000000 0.093750
vt 0.000000 0.000000
vt 0.062500 0.093750
vt 0.062500 0.000000
vt 0.000000 0.156250
vt 0.000000 0.093750
vt 0.062500 0.156250
vt 0.062500 0.093750
vt 0.062500 0.156250
vt 0.062500 0.093750
vt 0.125000 0.156250
vt 0.125000 0.093750
vt 0.000000 0.000000
vt 0.062500 0.000000
vt 0.000000 0.093750
vt 0.000000 0.000000
vt 0.062500 0.093750
vt 0.062500 0.000000
vt 0.250000 0.242188
vt 0.000000 0.314124
vt 0.000000 0.242188
vt 0.250000 0.320312
vt 0.000000 0.320312
vt 0.000000 0.320312
vt 0.000000 0.328125
vt 0.250000 0.328125
vt 0.250000 0.328125
vt 0.250000 0.242188
vt 0.000000 0.314124
vt 0.000000 0.242188
vt 0.250000 0.320312
vt 0.000000 0.320312
vt 0.000000 0.320312
vt 0.250000 0.320312
vt 0.000000 0.320312
vt 0.000000 0.320312
vt 0.250000 0.242188
vt 0.000000 0.314124
vt 0.000000 0.242188
vt 0.250000 0.320312
vt 0.000000 0.320312
vt 0.000000 0.320312
vt 0.000000 0.328125
vt 0.250000 0.328125
vt 0.250000 0.328125
vt 0.250000 0.320312
vt 0.000000 0.328125
vt 0.250000 0.320312
vt 0.000000 0.328125
vt 0.250000 0.320312
vt 0.000000 0.328125
vt 0.250000 0.320312
vt 0.000000 0.328125
vt 0.250000 0.398438
vt 0.000000 0.333695
vt 0.250000 0.333695
vt 0.250000 0.398438
vt 0.000000 0.333695
vt 0.250000 0.333695
vt 0.250000 0.398438
vt 0.000000 0.333695
vt 0.250000 0.333695
vt 0.000000 0.333695
vt 0.250000 0.333695
vt 0.250000 0.314124
vt 0.250000 0.328125
vt 0.250000 0.314124
vt 0.250000 0.314124
vt 0.250000 0.314124
vt 0.000000 0.328125
vt 0.250000 0.328125
vt 0.000000 0.398438
vt 0.000000 0.398438
vt 0.000000 0.398438
vn 0.3444 0.8744 -0.3417
vn 0.7043 0.0000 0.7099
vn 0.2762 0.9212 -0.2740
vn 0.2255 0.9482 -0.2236
vn 0.7046 -0.0002 0.7096
vn 0.3084 0.9007 -0.3060
vn -0.3444 0.8744 -0.3417
vn -0.7043 -0.0000 0.7099
vn -0.2762 0.9212 -0.2740
vn -0.2255 0.9482 -0.2236
vn -0.7046 -0.0002 0.7096
vn -0.3084 0.9007 -0.3060
vn 0.3444 0.8744 0.3417
vn 0.7043 -0.0000 -0.7099
vn 0.2762 0.9212 0.2740
vn 0.2255 0.9482 0.2236
vn 0.7046 -0.0002 -0.7096
vn 0.3084 0.9007 0.3060
vn -0.3444 0.8744 0.3417
vn -0.7043 0.0000 -0.7099
vn -0.2762 0.9212 0.2740
vn -0.2255 0.9482 0.2236
vn -0.7046 -0.0002 -0.7096
vn -0.3084 0.9007 0.3060
vn 0.3085 0.9007 -0.3060
vn -0.3085 0.9007 -0.3060
vn 0.2255 0.9482 0.2237
vn 0.3085 0.9007 0.3060
vn -0.2255 0.9482 0.2237
vn -0.3085 0.9007 0.3060
vn 0.0000 0.0000 -1.0000
vn 0.0000 -0.0000 1.0000
vn 0.0000 1.0000 0.0000
vn 0.0000 -1.0000 0.0000
vn 1.0000 0.0000 0.0000
vn -1.0000 0.0000 0.0000
vn 0.0000 0.2880 -0.9576
vn 0.0000 -0.8334 -0.5526
vn 0.0000 -0.8320 -0.5547
vn 0.2143 -0.9768 0.0000
vn 0.3349 -0.9423 0.0000
vn 0.0000 0.2880 0.9576
vn 0.0000 0.8334 0.5526
vn 0.0000 0.8321 0.5547
vn -0.5527 -0.8334 -0.0000
vn -0.5547 -0.8321 -0.0000
vn -0.5526 -0.8334 -0.0000
vn 0.9576 0.2880 0.0000
vn 0.5526 0.8334 0.0000
vn 0.5547 0.8320 0.0000
vn 0.0000 0.8334 -0.5526
vn 0.0000 0.8321 -0.5547
vn -0.9576 0.2880 0.0000
vn -0.5526 0.8334 0.0000
vn -0.5547 0.8321 0.0000
vn 0.0000 -0.8334 0.5526
vn 0.0000 -0.8320 0.5547
vn 0.5547 0.8321 0.0000
vn 0.5547 -0.8321 -0.0000
vn 0.0000 0.8320 0.5547
vn 0.0000 -0.8321 0.5547
vn -0.5547 0.8320 0.0000
vn -0.5547 -0.8320 -0.0000
vn 0.0000 -0.2880 -0.9576
vn -0.9576 -0.2880 -0.0000
vn 0.0000 -0.2880 0.9576
vn 0.9576 -0.2880 -0.0000
vn 0.5526 -0.8334 -0.0000
vn 0.5547 -0.8320 -0.0000
s off
f 1/1/1 2/2/1 3/3/1
f 4/4/2 5/5/2 6/6/2
f 7/7/3 8/8/3 9/9/3
f 10/10/4 11/11/4 12/12/4
f 13/13/5 14/14/5 15/15/5
f 16/16/6 17/17/6 18/18/6
f 19/19/7 20/20/7 21/21/7
f 22/22/8 23/23/8 24/24/8
f 25/25/9 26/26/9 27/27/9
f 28/28/10 29/29/10 30/30/10
f 31/31/11 32/32/11 33/33/11
f 34/34/12 35/35/12 36/36/12
f 37/37/13 38/38/13 39/39/13
f 40/40/14 41/41/14 42/42/14
f 43/43/15 44/44/15 45/45/15
f 46/46/16 47/47/16 48/48/16
f 49/49/17 50/50/17 51/51/17
f 52/52/18 53/53/18 54/54/18
f 55/55/19 56/56/19 57/57/19
f 58/58/20 59/59/20 60/60/20
f 61/61/21 62/62/21 63/63/21
f 64/64/22 65/65/22 66/66/22
f 67/67/23 68/68/23 69/69/23
f 70/70/24 71/71/24 72/72/24
f 1/1/1 73/73/1 2/2/1
f 4/4/2 74/74/2 5/5/2
f 7/7/3 75/75/3 8/8/3
f 10/10/4 76/76/4 11/11/4
f 13/13/5 77/77/5 14/14/5
f 16/16/25 78/78/25 17/17/25
f 19/19/7 79/79/7 20/20/7
f 22/22/8 80/80/8 23/23/8
f 25/25/9 81/81/9 26/26/9
f 28/28/10 82/82/10 29/29/10
f 31/31/11 83/83/11 32/32/11
f 34/34/26 84/84/26 35/35/26
f 37/37/13 85/85/13 38/38/13
f 40/40/14 86/86/14 41/41/14
f 43/43/15 87/87/15 44/44/15
f 46/46/27 88/88/27 47/47/27
f 49/49/17 89/89/17 50/50/17
f 52/52/28 90/90/28 53/53/28
f 55/55/19 91/91/19 56/56/19
f 58/58/20 92/92/20 59/59/20
f 61/61/21 93/93/21 62/62/21
f 64/64/29 94/94/29 65/65/29
f 67/67/23 95/95/23 68/68/23
f 70/70/30 96/96/30 71/71/30
s 1
f 97/97/31 98/98/31 99/99/31
f 98/98/31 100/100/31 99/99/31
f 101/101/32 102/102/32 103/103/32
f 102/102/32 104/104/32 103/103/32
f 101/105/33 103/106/33 99/107/33
f 103/106/33 97/108/33 99/107/33
f 104/109/34 102/110/34 98/111/34
f 102/110/34 100/112/34 98/111/34
f 103/103/35 104/104/35 97/97/35
f 104/104/35 98/98/35 97/97/35
f 99/99/36 100/100/36 101/113/36
f 100/100/36 102/114/36 101/113/36
f 105/115/33 106/116/33 107/117/33
f 106/116/33 108/118/33 107/117/33
f 109/119/34 110/120/34 111/121/34
f 110/120/34 112/122/34 111/121/34
f 112/123/31 113/124/37 111/125/31
f 114/126/38 115/127/39 116/128/38
f 117/129/31 118/130/31 119/131/31
f 118/130/31 120/132/31 119/131/31
f 121/133/32 122/134/32 123/135/32
f 122/134/32 124/136/32 123/135/32
f 121/137/33 123/138/33 119/139/33
f 123/138/33 117/140/33 119/139/33
f 124/141/34 122/142/34 118/143/34
f 122/142/34 120/144/34 118/143/34
f 123/135/35 124/136/35 117/145/35
f 124/136/35 118/146/35 117/145/35
f 119/131/36 120/132/36 121/133/36
f 120/132/36 122/134/36 121/133/36
f 125/147/31 126/148/31 127/149/31
f 126/148/31 128/150/31 127/149/31
f 129/151/32 130/152/32 131/153/32
f 130/152/32 132/154/32 131/153/32
f 129/155/33 131/156/33 127/157/33
f 131/156/33 125/158/33 127/157/33
f 132/159/34 130/160/34 126/161/34
f 130/160/34 128/162/34 126/161/34
f 131/163/35 132/164/35 125/147/35
f 132/164/35 126/148/35 125/147/35
f 127/165/36 128/166/36 129/151/36
f 128/166/36 130/152/36 129/151/36
f 133/167/31 134/168/31 135/169/31
f 134/168/31 136/170/31 135/169/31
f 137/171/32 138/172/32 139/173/32
f 138/172/32 140/174/32 139/173/32
f 137/175/33 139/176/33 135/177/33
f 139/176/33 133/178/33 135/177/33
f 140/179/40 138/180/40 134/181/40
f 138/180/40 136/182/40 134/181/40
f 139/173/35 140/174/35 133/167/35
f 140/174/35 134/168/35 133/167/35
f 141/183/31 142/184/31 143/185/31
f 142/184/31 144/186/31 143/185/31
f 145/187/32 146/188/32 147/189/32
f 146/188/32 148/190/32 147/189/32
f 145/191/33 147/192/33 143/193/33
f 147/192/33 141/194/33 143/193/33
f 148/195/41 146/196/41 142/197/41
f 146/196/41 144/198/41 142/197/41
f 147/189/35 148/190/35 141/183/35
f 148/190/35 142/184/35 141/183/35
f 143/199/36 144/200/36 145/201/36
f 144/200/36 146/202/36 145/201/36
f 149/203/31 150/204/31 151/205/31
f 150/204/31 152/206/31 151/205/31
f 153/207/32 154/208/32 155/209/32
f 154/208/32 156/210/32 155/209/32
f 153/211/33 155/212/33 151/213/33
f 155/212/33 149/214/33 151/213/33
f 156/215/34 154/216/34 150/217/34
f 154/216/34 152/218/34 150/217/34
f 151/205/36 152/206/36 153/207/36
f 152/206/36 154/208/36 153/207/36
f 157/219/31 158/220/31 159/221/31
f 158/220/31 160/222/31 159/221/31
f 161/223/32 162/224/32 163/225/32
f 162/224/32 164/226/32 163/225/32
f 161/227/33 163/228/33 159/229/33
f 163/228/33 157/230/33 159/229/33
f 164/231/34 162/232/34 158/233/34
f 162/232/34 160/234/34 158/233/34
f 163/228/35 164/235/35 157/230/35
f 164/235/35 158/236/35 157/230/35
f 159/237/36 160/238/36 161/239/36
f 160/238/36 162/240/36 161/239/36
f 165/241/31 166/242/31 167/243/31
f 166/242/31 168/244/31 167/243/31
f 169/245/32 170/246/32 171/247/32
f 170/246/32 172/248/32 171/247/32
f 169/249/33 171/250/33 167/251/33
f 171/250/33 165/241/33 167/251/33
f 172/252/34 170/253/34 166/254/34
f 170/253/34 168/255/34 166/254/34
f 171/250/35 172/256/35 165/241/35
f 172/256/35 166/242/35 165/241/35
f 167/243/36 168/244/36 169/245/36
f 168/244/36 170/246/36 169/245/36
f 173/257/31 174/258/31 175/259/31
f 174/258/31 176/260/31 175/259/31
f 177/261/32 178/262/32 179/263/32
f 178/262/32 180/264/32 179/263/32
f 177/265/33 179/266/33 175/267/33
f 179/266/33 173/268/33 175/267/33
f 180/269/34 178/270/34 174/271/34
f 178/270/34 176/272/34 174/271/34
f 179/266/35 180/273/35 173/268/35
f 180/273/35 174/274/35 173/268/35
f 175/275/36 176/276/36 177/277/36
f 176/276/36 178/278/36 177/277/36
f 181/279/31 182/280/31 183/281/31
f 182/280/31 184/282/31 183/281/31
f 185/283/32 186/284/32 187/285/32
f 186/284/32 188/286/32 187/285/32
f 185/287/33 187/288/33 183/289/33
f 187/288/33 181/290/33 183/289/33
f 188/291/34 186/292/34 182/293/34
f 186/292/34 184/294/34 182/293/34
f 187/288/35 188/295/35 181/290/35
f 188/295/35 182/296/35 181/290/35
f 183/297/36 184/298/36 185/299/36
f 184/298/36 186/300/36 185/299/36
f 189/301/31 190/302/31 191/303/31
f 190/302/31 192/304/31 191/303/31
f 193/305/32 194/306/32 195/307/32
f 194/306/32 196/308/32 195/307/32
f 193/309/33 195/310/33 191/311/33
f 195/310/33 189/312/33 191/311/33
f 196/313/34 194/314/34 190/315/34
f 194/314/34 192/316/34 190/315/34
f 195/310/35 196/317/35 189/312/35
f 196/317/35 190/318/35 189/312/35
f 191/319/36 192/320/36 193/321/36
f 192/320/36 194/322/36 193/321/36
f 109/323/32 197/324/42 110/325/32
f 198/326/43 199/327/44 200/328/43
f 116/329/45 201/330/46 202/331/47
f 111/332/35 203/333/48 109/334/35
f 204/335/49 205/336/50 198/337/49
f 206/338/51 207/339/52 204/340/51
f 110/341/36 208/342/53 112/343/36
f 200/344/54 209/345/55 206/346/54
f 202/347/56 210/348/57 211/349/56
f 207/350/58 210/351/59 205/336/50
f 205/352/60 201/353/61 199/327/44
f 199/354/62 115/355/63 209/345/55
f 209/356/52 212/357/39 207/339/52
f 107/358/31 213/359/64 214/360/64
f 105/361/36 214/362/65 215/363/65
f 106/364/32 215/365/66 216/366/66
f 108/118/35 216/367/67 213/368/67
f 204/335/49 203/333/48 113/369/48
f 216/367/67 114/370/68 213/368/67
f 200/328/43 203/371/42 198/326/43
f 215/365/66 211/349/56 216/366/66
f 206/346/54 197/372/53 200/344/54
f 214/362/65 202/331/47 215/363/65
f 204/340/51 208/373/37 206/338/51
f 213/359/64 116/128/38 214/360/64
f 211/374/68 212/375/69 114/370/68
f 112/123/31 208/373/37 113/124/37
f 114/126/38 212/357/39 115/127/39
f 109/323/32 203/371/42 197/324/42
f 198/326/43 205/352/60 199/327/44
f 116/329/45 115/355/63 201/330/46
f 111/332/35 113/369/48 203/333/48
f 204/335/49 207/350/58 205/336/50
f 206/338/51 209/356/52 207/339/52
f 110/341/36 197/372/53 208/342/53
f 200/344/54 199/354/62 209/345/55
f 202/347/56 201/353/61 210/348/57
f 207/350/58 212/375/69 210/351/59
f 205/352/60 210/348/57 201/353/61
f 199/354/62 201/330/46 115/355/63
f 209/356/52 115/127/39 212/357/39
f 107/358/31 108/376/31 213/359/64
f 105/361/36 107/377/36 214/362/65
f 106/364/32 105/378/32 215/365/66
f 108/118/35 106/116/35 216/367/67
f 204/335/49 198/337/49 203/333/48
f 216/367/67 211/374/68 114/370/68
f 200/328/43 197/324/42 203/371/42
f 215/365/66 202/347/56 211/349/56
f 206/346/54 208/342/53 197/372/53
f 214/362/65 116/329/45 202/331/47
f 204/340/51 113/124/37 208/373/37
f 213/359/64 114/126/38 116/128/38
f 211/374/68 210/351/59 212/375/69
o Recipe
v 0.108292 0.647635 -0.205220
v -0.108292 0.378649 -0.205220
v -0.108292 0.647635 -0.205220
v 0.108292 0.378649 -0.205220
vt 0.500000 0.656250
vt 0.726562 0.390625
vt 0.726562 0.656250
vt 0.500000 0.390625
vn 0.0000 0.0000 -1.0000
s off
f 217/379/70 218/380/70 219/381/70
f 217/379/70 220/382/70 218/380/70
