# Blender v2.79 (sub 0) OBJ File: 'FauiryHive.blend'
# www.blender.org
o Hive
v 0.319926 0.312500 0.319926
v 0.339891 -0.000000 0.339891
v 0.319926 0.312500 -0.319926
v 0.339891 0.000000 -0.339891
v -0.319926 0.312500 -0.319926
v -0.339891 0.000000 -0.339891
v -0.319926 0.312500 0.319926
v -0.339891 -0.000000 0.339891
v 0.220481 0.687500 0.220481
v 0.242780 0.500000 0.242780
v 0.220481 0.687500 -0.220481
v 0.242780 0.500000 -0.242780
v -0.220481 0.687500 -0.220481
v -0.242780 0.500000 -0.242780
v -0.220481 0.687500 0.220481
v -0.242780 0.500000 0.242780
v 0.164000 0.841896 0.164000
v 0.194224 0.687500 0.194224
v 0.164000 0.841896 -0.164000
v 0.194224 0.687500 -0.194224
v -0.164000 0.841896 -0.164000
v -0.194224 0.687500 -0.194224
v -0.164000 0.841896 0.164000
v -0.194224 0.687500 0.194224
v 0.277144 0.500000 0.277144
v 0.291336 0.312500 0.291336
v 0.277144 0.500000 -0.277144
v 0.291336 0.312500 -0.291335
v -0.277144 0.500000 -0.277144
v -0.291336 0.312500 -0.291335
v -0.277144 0.500000 0.277144
v -0.291336 0.312500 0.291336
v -0.413544 0.312500 0.000000
v -0.439352 0.000000 -0.000000
v 0.413544 0.312500 0.000000
v 0.439352 0.000000 -0.000000
v 0.358244 0.500000 0.000000
v 0.376588 0.312500 0.000000
v -0.358244 0.500000 0.000000
v -0.376588 0.312500 0.000000
v -0.313823 0.500000 0.000000
v 0.284999 0.687500 0.000000
v 0.313823 0.500000 0.000000
v -0.284999 0.687500 0.000000
v 0.211990 0.841896 0.000000
v 0.251058 0.687500 0.000000
v -0.211990 0.841896 0.000000
v -0.251058 0.687500 0.000000
v 0.000000 0.841896 -0.211990
v 0.000000 0.841896 0.211990
v 0.000000 0.687500 0.251058
v 0.000000 0.687500 -0.251058
v 0.000000 0.841896 0.000000
v 0.000000 0.500000 -0.313823
v 0.000000 0.687500 -0.284999
v 0.000000 0.687500 0.284999
v 0.000000 0.500000 0.313823
v 0.000000 0.687500 0.000000
v 0.000000 0.500000 -0.358244
v 0.000000 0.500000 0.358244
v 0.000000 0.312500 0.376588
v 0.000000 0.312500 -0.376587
v 0.000000 0.500000 0.000000
v 0.000000 0.312500 0.413544
v 0.000000 -0.000000 0.439352
v 0.000000 0.000000 -0.439352
v 0.000000 0.312500 -0.413544
v 0.000000 0.312500 0.000000
v 0.000000 0.000000 -0.000000
vt 0.664062 0.000000
vt 1.000000 0.328125
vt 0.664062 0.328125
vt 0.664062 0.000000
vt 1.000000 0.328125
vt 0.664062 0.328125
vt 0.664062 0.000000
vt 0.328125 0.328125
vt 0.328125 0.000000
vt 0.664062 0.000000
vt 1.000000 0.000000
vt 0.664062 0.000000
vt 1.000000 0.328125
vt 0.664062 0.328125
vt 0.109375 0.890625
vt 0.218750 1.000000
vt 0.109375 1.000000
vt 0.664062 0.000000
vt 1.000000 0.328125
vt 0.664062 0.328125
vt 0.664062 0.000000
vt 1.000000 0.328125
vt 0.664062 0.328125
vt 0.664062 0.000000
vt 1.000000 0.328125
vt 0.664062 0.328125
vt 0.664062 0.664062
vt 1.000000 1.000000
vt 0.664062 1.000000
vt 0.664062 0.000000
vt 1.000000 0.328125
vt 0.664062 0.328125
vt 0.664062 0.000000
vt 1.000000 0.328125
vt 0.664062 0.328125
vt 0.664062 0.000000
vt 1.000000 0.328125
vt 0.664062 0.328125
vt 0.664062 0.664062
vt 1.000000 1.000000
vt 0.664062 1.000000
vt 0.664062 0.000000
vt 0.328125 0.328125
vt 0.328125 0.000000
vt 0.328125 0.328125
vt 0.664062 0.328125
vt 0.664062 0.000000
vt 1.000000 0.328125
vt 0.664062 0.328125
vt 0.664062 0.000000
vt 0.664062 0.328125
vt 0.664062 0.000000
vt 1.000000 0.328125
vt 0.664062 0.328125
vt 0.664062 0.664062
vt 1.000000 1.000000
vt 0.664062 1.000000
vt 0.218750 0.781250
vt 0.109375 0.781250
vt 0.664062 0.000000
vt 1.000000 0.328125
vt 0.664062 0.328125
vt 1.000000 0.328125
vt 0.664062 0.328125
vt 1.000000 0.328125
vt 0.664062 0.328125
vt 0.664062 0.664062
vt 1.000000 1.000000
vt 0.664062 1.000000
vt 0.328125 0.328125
vt 0.328125 0.000000
vt 0.328125 0.328125
vt 0.328125 0.000000
vt 0.328125 0.328125
vt 0.328125 0.000000
vt 0.328125 0.328125
vt 0.328125 0.000000
vt 0.328125 0.328125
vt 0.328125 0.000000
vt 0.328125 0.328125
vt 0.328125 0.664062
vt 0.328125 1.000000
vt 0.328125 0.000000
vt 0.328125 0.328125
vt 0.328125 0.000000
vt 0.328125 0.328125
vt 0.328125 0.664062
vt 0.328125 1.000000
vt 0.328125 0.000000
vt 0.328125 0.328125
vt 0.328125 0.000000
vt 0.328125 0.328125
vt 0.328125 0.664062
vt 0.328125 1.000000
vt 0.328125 0.328125
vt 0.328125 0.000000
vt 0.328125 0.000000
vt 0.000000 0.781250
vt 0.000000 0.890625
vt 1.000000 0.328125
vt 1.000000 0.000000
vt 0.328125 0.328125
vt 0.328125 0.664062
vt 0.328125 1.000000
vt 0.000000 1.000000
vt 0.328125 0.000000
vt 1.000000 0.000000
vt 1.000000 0.000000
vt 0.218750 0.890625
vt 1.000000 0.000000
vt 1.000000 0.000000
vt 1.000000 0.000000
vt 1.000000 0.664062
vt 1.000000 0.000000
vt 1.000000 0.000000
vt 1.000000 0.000000
vt 1.000000 0.664062
vt 0.328125 0.000000
vt 1.000000 0.000000
vt 1.000000 0.000000
vt 1.000000 0.664062
vt 1.000000 0.000000
vt 1.000000 0.000000
vt 1.000000 0.000000
vt 1.000000 0.664062
vn -0.0000 0.0974 0.9952
vn 0.2796 0.0935 0.9555
vn 0.0000 0.0823 0.9966
vn 0.2800 0.0790 0.9568
vn -0.9966 0.0823 0.0000
vn -0.9568 0.0790 -0.2800
vn 0.9966 0.0823 -0.0000
vn 0.9568 0.0790 0.2800
vn 0.0000 0.1519 -0.9884
vn -0.2778 0.1460 -0.9495
vn 0.0000 -1.0000 -0.0000
vn 0.9884 0.1519 0.0000
vn 0.9495 0.1460 -0.2778
vn -0.9694 0.2453 0.0000
vn -0.9326 0.2360 0.2729
vn 0.0000 0.0974 -0.9952
vn -0.2796 0.0935 -0.9555
vn 0.0000 1.0000 0.0000
vn 0.0000 0.2453 -0.9694
vn -0.2729 0.2360 -0.9326
vn 0.9694 0.2453 0.0000
vn 0.9326 0.2360 -0.2729
vn 0.0000 0.2453 0.9694
vn 0.2729 0.2360 0.9326
vn 0.9952 0.0974 0.0000
vn 0.9555 0.0935 0.2796
vn 0.9568 0.0790 -0.2800
vn -0.9884 0.1519 0.0000
vn -0.9495 0.1460 0.2778
vn 0.0000 0.0823 -0.9966
vn -0.2800 0.0790 -0.9568
vn -0.0000 0.1519 0.9884
vn 0.2778 0.1460 0.9495
vn -0.9952 0.0974 0.0000
vn -0.9555 0.0935 0.2796
vn -0.9568 0.0790 0.2800
vn 0.9555 0.0935 -0.2796
vn -0.9555 0.0935 -0.2796
vn -0.9495 0.1460 -0.2778
vn 0.9495 0.1460 0.2778
vn 0.9326 0.2360 0.2729
vn -0.9326 0.2360 -0.2729
vn -0.2729 0.2360 0.9326
vn 0.2729 0.2360 -0.9326
vn -0.2778 0.1460 0.9495
vn 0.2778 0.1460 -0.9495
vn 0.2796 0.0935 -0.9555
vn -0.2796 0.0935 0.9555
vn 0.2800 0.0790 -0.9568
vn -0.2800 0.0790 0.9568
s 1
f 61/1/1 25/2/2 60/3/1
f 65/4/3 1/5/4 64/6/3
f 34/7/5 5/8/6 6/9/6
f 36/10/7 1/5/8 2/11/8
f 54/12/9 13/13/10 55/14/9
f 69/15/11 2/16/11 65/17/11
f 43/18/12 11/19/13 42/20/12
f 48/21/14 23/22/15 47/23/14
f 62/24/16 29/25/17 59/26/16
f 68/27/18 3/28/18 67/29/18
f 1/5/18 68/27/18 64/6/18
f 52/30/19 21/31/20 49/32/19
f 46/33/21 19/34/22 45/35/21
f 51/36/23 17/37/24 50/38/23
f 63/39/18 27/40/18 59/41/18
f 38/42/25 25/43/26 26/44/26
f 36/10/7 3/45/27 35/46/7
f 41/47/28 15/48/29 44/49/28
f 66/50/30 5/8/31 67/51/30
f 57/52/32 9/53/33 56/54/32
f 58/55/18 11/56/18 55/57/18
f 4/58/11 69/15/11 66/59/11
f 40/60/34 31/61/35 39/62/34
f 34/7/5 7/63/36 33/64/5
f 38/42/25 27/65/37 37/66/25
f 53/67/18 19/68/18 49/69/18
f 40/60/34 29/70/38 30/71/38
f 25/2/18 63/39/18 60/3/18
f 9/53/18 58/55/18 56/54/18
f 41/47/28 13/72/39 14/73/39
f 43/18/12 9/74/40 10/75/40
f 17/37/18 53/67/18 50/38/18
f 46/33/21 17/76/41 18/77/41
f 48/21/14 21/78/42 22/79/42
f 23/80/18 53/67/18 47/81/18
f 53/67/18 21/82/18 47/81/18
f 51/36/23 23/80/43 24/83/43
f 52/30/19 19/84/44 20/85/44
f 15/86/18 58/55/18 44/87/18
f 58/55/18 13/88/18 44/87/18
f 57/52/32 15/86/45 16/89/45
f 54/12/9 11/90/46 12/91/46
f 31/92/18 63/39/18 39/93/18
f 63/39/18 29/94/18 39/93/18
f 62/24/16 27/95/47 28/96/47
f 61/1/1 31/92/48 32/97/48
f 6/98/11 69/15/11 34/99/11
f 66/50/30 3/100/49 4/101/49
f 7/102/18 68/27/18 33/103/18
f 68/27/18 5/104/18 33/103/18
f 69/15/11 8/105/11 34/99/11
f 65/4/3 7/102/50 8/106/50
f 61/1/1 26/107/2 25/2/2
f 65/4/3 2/11/4 1/5/4
f 34/7/5 33/64/5 5/8/6
f 36/10/7 35/46/7 1/5/8
f 54/12/9 14/108/10 13/13/10
f 69/15/11 36/109/11 2/16/11
f 43/18/12 12/110/13 11/19/13
f 48/21/14 24/111/15 23/22/15
f 62/24/16 30/112/17 29/25/17
f 68/27/18 35/113/18 3/28/18
f 1/5/18 35/113/18 68/27/18
f 52/30/19 22/114/20 21/31/20
f 46/33/21 20/115/22 19/34/22
f 51/36/23 18/116/24 17/37/24
f 63/39/18 37/117/18 27/40/18
f 38/42/25 37/66/25 25/43/26
f 36/10/7 4/118/27 3/45/27
f 41/47/28 16/119/29 15/48/29
f 66/50/30 6/9/31 5/8/31
f 57/52/32 10/120/33 9/53/33
f 58/55/18 42/121/18 11/56/18
f 4/58/11 36/109/11 69/15/11
f 40/60/34 32/122/35 31/61/35
f 34/7/5 8/123/36 7/63/36
f 38/42/25 28/124/37 27/65/37
f 53/67/18 45/125/18 19/68/18
f 40/60/34 39/62/34 29/70/38
f 25/2/18 37/117/18 63/39/18
f 9/53/18 42/121/18 58/55/18
f 41/47/28 44/49/28 13/72/39
f 43/18/12 42/20/12 9/74/40
f 17/37/18 45/125/18 53/67/18
f 46/33/21 45/35/21 17/76/41
f 48/21/14 47/23/14 21/78/42
f 23/80/18 50/38/18 53/67/18
f 53/67/18 49/69/18 21/82/18
f 51/36/23 50/38/23 23/80/43
f 52/30/19 49/32/19 19/84/44
f 15/86/18 56/54/18 58/55/18
f 58/55/18 55/57/18 13/88/18
f 57/52/32 56/54/32 15/86/45
f 54/12/9 55/14/9 11/90/46
f 31/92/18 60/3/18 63/39/18
f 63/39/18 59/41/18 29/94/18
f 62/24/16 59/26/16 27/95/47
f 61/1/1 60/3/1 31/92/48
f 6/98/11 66/59/11 69/15/11
f 66/50/30 67/51/30 3/100/49
f 7/102/18 64/6/18 68/27/18
f 68/27/18 67/29/18 5/104/18
f 69/15/11 65/17/11 8/105/11
f 65/4/3 64/6/3 7/102/50
